solid OpenSCAD_Model
  facet normal -1 0 0
    outer loop
      vertex 0 0 0
      vertex 0 15 9.02
      vertex 0 15 0
    endloop
  endfacet
  facet normal -1 -0 0
    outer loop
      vertex 0 15 9.02
      vertex 0 0 0
      vertex 0 0 9.02
    endloop
  endfacet
  facet normal -0 0 1
    outer loop
      vertex 0 15 9.02
      vertex 9.02 0 9.02
      vertex 9.02 15 9.02
    endloop
  endfacet
  facet normal 0 0 1
    outer loop
      vertex 9.02 0 9.02
      vertex 0 15 9.02
      vertex 0 0 9.02
    endloop
  endfacet
  facet normal 1 -0 0
    outer loop
      vertex 9.02 0 9.02
      vertex 9.02 15 0
      vertex 9.02 15 9.02
    endloop
  endfacet
  facet normal 1 0 0
    outer loop
      vertex 9.02 15 0
      vertex 9.02 0 9.02
      vertex 9.02 0 0
    endloop
  endfacet
  facet normal 0 1 -0
    outer loop
      vertex 9.02 15 0
      vertex 0 15 9.02
      vertex 9.02 15 9.02
    endloop
  endfacet
  facet normal 0 1 0
    outer loop
      vertex 0 15 9.02
      vertex 9.02 15 0
      vertex 0 15 0
    endloop
  endfacet
  facet normal 0 0 -1
    outer loop
      vertex 0 0 0
      vertex 9.02 15 0
      vertex 9.02 0 0
    endloop
  endfacet
  facet normal -0 0 -1
    outer loop
      vertex 9.02 15 0
      vertex 0 0 0
      vertex 0 15 0
    endloop
  endfacet
  facet normal 0 -1 0
    outer loop
      vertex 0 0 9.02
      vertex 4.5 0 7.79615
      vertex 9.02 0 9.02
    endloop
  endfacet
  facet normal 0 -1 0
    outer loop
      vertex 0 0 9.02
      vertex 4.38952 0 7.79211
      vertex 4.5 0 7.79615
    endloop
  endfacet
  facet normal 0 -1 0
    outer loop
      vertex 0 0 9.02
      vertex 4.33896 0 7.79026
      vertex 4.38952 0 7.79211
    endloop
  endfacet
  facet normal 0 -1 0
    outer loop
      vertex 0 0 9.02
      vertex 4.29331 0 7.78486
      vertex 4.33896 0 7.79026
    endloop
  endfacet
  facet normal 0 -1 0
    outer loop
      vertex 0 0 9.02
      vertex 4.19527 0 7.77326
      vertex 4.29331 0 7.78486
    endloop
  endfacet
  facet normal 0 -1 0
    outer loop
      vertex 0 0 9.02
      vertex 4.01152 0 7.73099
      vertex 4.19527 0 7.77326
    endloop
  endfacet
  facet normal 0 -1 0
    outer loop
      vertex 0 0 9.02
      vertex 3.56323 0 7.62788
      vertex 4.01152 0 7.73099
    endloop
  endfacet
  facet normal 0 -1 0
    outer loop
      vertex 0 0 9.02
      vertex 3.24176 0 7.55239
      vertex 3.56323 0 7.62788
    endloop
  endfacet
  facet normal 0 -1 0
    outer loop
      vertex 0 0 9.02
      vertex 3.18826 0 7.5252
      vertex 3.24176 0 7.55239
    endloop
  endfacet
  facet normal 0 -1 0
    outer loop
      vertex 0 0 9.02
      vertex 3.0645 0 7.46231
      vertex 3.18826 0 7.5252
    endloop
  endfacet
  facet normal 0 -1 0
    outer loop
      vertex 0 0 9.02
      vertex 2.48173 0 7.06931
      vertex 3.0645 0 7.46231
    endloop
  endfacet
  facet normal 0 -1 0
    outer loop
      vertex 0 0 9.02
      vertex 2.22262 0 6.89458
      vertex 2.48173 0 7.06931
    endloop
  endfacet
  facet normal 0 -1 0
    outer loop
      vertex 0 0 9.02
      vertex 2.03864 0 6.651
      vertex 2.22262 0 6.89458
    endloop
  endfacet
  facet normal 0 -1 0
    outer loop
      vertex 0 0 9.02
      vertex 1.59107 0 6.05845
      vertex 2.03864 0 6.651
    endloop
  endfacet
  facet normal 0 -1 0
    outer loop
      vertex 0 0 9.02
      vertex 1.49581 0 5.77252
      vertex 1.59107 0 6.05845
    endloop
  endfacet
  facet normal 0 -1 0
    outer loop
      vertex 0 0 9.02
      vertex 1.25206 0 5.0409
      vertex 1.49581 0 5.77252
    endloop
  endfacet
  facet normal 0 -1 0
    outer loop
      vertex 0 0 9.02
      vertex 1.25206 0 3.9591
      vertex 1.25206 0 5.0409
    endloop
  endfacet
  facet normal 0 -1 0
    outer loop
      vertex 0 0 0
      vertex 3.18826 0 1.47479
      vertex 3.0645 0 1.53769
    endloop
  endfacet
  facet normal 0 -1 -0
    outer loop
      vertex 4.38952 0 1.20789
      vertex 0 0 0
      vertex 4.5 0 1.20385
    endloop
  endfacet
  facet normal 0 -1 -0
    outer loop
      vertex 4.33896 0 1.20974
      vertex 0 0 0
      vertex 4.38952 0 1.20789
    endloop
  endfacet
  facet normal 0 -1 -0
    outer loop
      vertex 4.29331 0 1.21514
      vertex 0 0 0
      vertex 4.33896 0 1.20974
    endloop
  endfacet
  facet normal 0 -1 -0
    outer loop
      vertex 4.19527 0 1.22674
      vertex 0 0 0
      vertex 4.29331 0 1.21514
    endloop
  endfacet
  facet normal 0 -1 -0
    outer loop
      vertex 4.01152 0 1.269
      vertex 0 0 0
      vertex 4.19527 0 1.22674
    endloop
  endfacet
  facet normal 0 -1 -0
    outer loop
      vertex 3.56323 0 1.37212
      vertex 0 0 0
      vertex 4.01152 0 1.269
    endloop
  endfacet
  facet normal 0 -1 -0
    outer loop
      vertex 3.24176 0 1.44761
      vertex 0 0 0
      vertex 3.56323 0 1.37212
    endloop
  endfacet
  facet normal 0 -1 -0
    outer loop
      vertex 3.18826 0 1.47479
      vertex 0 0 0
      vertex 3.24176 0 1.44761
    endloop
  endfacet
  facet normal 0 -1 -0
    outer loop
      vertex 2.48173 0 1.93069
      vertex 0 0 0
      vertex 3.0645 0 1.53769
    endloop
  endfacet
  facet normal 0 -1 -0
    outer loop
      vertex 2.22262 0 2.10542
      vertex 0 0 0
      vertex 2.48173 0 1.93069
    endloop
  endfacet
  facet normal 0 -1 -0
    outer loop
      vertex 2.03864 0 2.349
      vertex 0 0 0
      vertex 2.22262 0 2.10542
    endloop
  endfacet
  facet normal 0 -1 -0
    outer loop
      vertex 1.59107 0 2.94155
      vertex 0 0 0
      vertex 2.03864 0 2.349
    endloop
  endfacet
  facet normal 0 -1 -0
    outer loop
      vertex 1.49581 0 3.22748
      vertex 0 0 0
      vertex 1.59107 0 2.94155
    endloop
  endfacet
  facet normal 0 -1 -0
    outer loop
      vertex 1.25206 0 3.9591
      vertex 0 0 0
      vertex 1.49581 0 3.22748
    endloop
  endfacet
  facet normal 0 -1 0
    outer loop
      vertex 0 0 0
      vertex 1.25206 0 3.9591
      vertex 0 0 9.02
    endloop
  endfacet
  facet normal 0 -1 0
    outer loop
      vertex 4.61048 0 7.79211
      vertex 9.02 0 9.02
      vertex 4.5 0 7.79615
    endloop
  endfacet
  facet normal 0 -1 0
    outer loop
      vertex 4.66104 0 7.79026
      vertex 9.02 0 9.02
      vertex 4.61048 0 7.79211
    endloop
  endfacet
  facet normal 0 -1 0
    outer loop
      vertex 4.70669 0 7.78486
      vertex 9.02 0 9.02
      vertex 4.66104 0 7.79026
    endloop
  endfacet
  facet normal 0 -1 0
    outer loop
      vertex 4.80473 0 7.77326
      vertex 9.02 0 9.02
      vertex 4.70669 0 7.78486
    endloop
  endfacet
  facet normal 0 -1 0
    outer loop
      vertex 4.98848 0 7.73099
      vertex 9.02 0 9.02
      vertex 4.80473 0 7.77326
    endloop
  endfacet
  facet normal 0 -1 0
    outer loop
      vertex 5.43677 0 7.62788
      vertex 9.02 0 9.02
      vertex 4.98848 0 7.73099
    endloop
  endfacet
  facet normal 0 -1 0
    outer loop
      vertex 5.75824 0 7.55239
      vertex 9.02 0 9.02
      vertex 5.43677 0 7.62788
    endloop
  endfacet
  facet normal 0 -1 0
    outer loop
      vertex 5.81174 0 7.5252
      vertex 9.02 0 9.02
      vertex 5.75824 0 7.55239
    endloop
  endfacet
  facet normal 0 -1 0
    outer loop
      vertex 5.9355 0 7.46231
      vertex 9.02 0 9.02
      vertex 5.81174 0 7.5252
    endloop
  endfacet
  facet normal 0 -1 0
    outer loop
      vertex 6.51827 0 7.06931
      vertex 9.02 0 9.02
      vertex 5.9355 0 7.46231
    endloop
  endfacet
  facet normal 0 -1 0
    outer loop
      vertex 6.77738 0 6.89458
      vertex 9.02 0 9.02
      vertex 6.51827 0 7.06931
    endloop
  endfacet
  facet normal 0 -1 0
    outer loop
      vertex 6.96136 0 6.651
      vertex 9.02 0 9.02
      vertex 6.77738 0 6.89458
    endloop
  endfacet
  facet normal 0 -1 0
    outer loop
      vertex 7.40893 0 6.05845
      vertex 9.02 0 9.02
      vertex 6.96136 0 6.651
    endloop
  endfacet
  facet normal 0 -1 0
    outer loop
      vertex 7.65275 0 5.32659
      vertex 9.02 0 9.02
      vertex 7.40893 0 6.05845
    endloop
  endfacet
  facet normal 0 -1 0
    outer loop
      vertex 7.74794 0 5.0409
      vertex 9.02 0 9.02
      vertex 7.65275 0 5.32659
    endloop
  endfacet
  facet normal 0 -1 0
    outer loop
      vertex 7.74794 0 3.9591
      vertex 9.02 0 9.02
      vertex 7.74794 0 5.0409
    endloop
  endfacet
  facet normal 0 -1 0
    outer loop
      vertex 9.02 0 0
      vertex 7.65275 0 3.67341
      vertex 7.40893 0 2.94155
    endloop
  endfacet
  facet normal 0 -1 0
    outer loop
      vertex 9.02 0 0
      vertex 5.81174 0 1.47479
      vertex 5.75824 0 1.44761
    endloop
  endfacet
  facet normal 0 -1 0
    outer loop
      vertex 9.02 0 0
      vertex 4.5 0 1.20385
      vertex 0 0 0
    endloop
  endfacet
  facet normal 0 -1 0
    outer loop
      vertex 4.5 0 1.20385
      vertex 9.02 0 0
      vertex 4.61048 0 1.20789
    endloop
  endfacet
  facet normal 0 -1 0
    outer loop
      vertex 4.61048 0 1.20789
      vertex 9.02 0 0
      vertex 4.66104 0 1.20974
    endloop
  endfacet
  facet normal 0 -1 0
    outer loop
      vertex 4.66104 0 1.20974
      vertex 9.02 0 0
      vertex 4.70669 0 1.21514
    endloop
  endfacet
  facet normal 0 -1 0
    outer loop
      vertex 4.70669 0 1.21514
      vertex 9.02 0 0
      vertex 4.80473 0 1.22674
    endloop
  endfacet
  facet normal 0 -1 0
    outer loop
      vertex 4.80473 0 1.22674
      vertex 9.02 0 0
      vertex 4.98848 0 1.269
    endloop
  endfacet
  facet normal 0 -1 0
    outer loop
      vertex 4.98848 0 1.269
      vertex 9.02 0 0
      vertex 5.43677 0 1.37212
    endloop
  endfacet
  facet normal 0 -1 0
    outer loop
      vertex 7.74794 0 3.9591
      vertex 9.02 0 0
      vertex 9.02 0 9.02
    endloop
  endfacet
  facet normal 0 -1 0
    outer loop
      vertex 7.65275 0 3.67341
      vertex 9.02 0 0
      vertex 7.74794 0 3.9591
    endloop
  endfacet
  facet normal 0 -1 0
    outer loop
      vertex 6.96136 0 2.349
      vertex 9.02 0 0
      vertex 7.40893 0 2.94155
    endloop
  endfacet
  facet normal 0 -1 0
    outer loop
      vertex 6.77738 0 2.10542
      vertex 9.02 0 0
      vertex 6.96136 0 2.349
    endloop
  endfacet
  facet normal 0 -1 0
    outer loop
      vertex 6.51827 0 1.93069
      vertex 9.02 0 0
      vertex 6.77738 0 2.10542
    endloop
  endfacet
  facet normal 0 -1 0
    outer loop
      vertex 5.9355 0 1.53769
      vertex 9.02 0 0
      vertex 6.51827 0 1.93069
    endloop
  endfacet
  facet normal 0 -1 0
    outer loop
      vertex 5.81174 0 1.47479
      vertex 9.02 0 0
      vertex 5.9355 0 1.53769
    endloop
  endfacet
  facet normal 0 -1 0
    outer loop
      vertex 5.43677 0 1.37212
      vertex 9.02 0 0
      vertex 5.75824 0 1.44761
    endloop
  endfacet
  facet normal -0.777872 -0.222937 -0.58755
    outer loop
      vertex 6.96136 0 6.651
      vertex 5.845 5.83702 5.91421
      vertex 6.19479 5.95067 5.40798
    endloop
  endfacet
  facet normal -0.777872 -0.222937 -0.58755
    outer loop
      vertex 5.845 5.83702 5.91421
      vertex 6.96136 0 6.651
      vertex 6.77738 0 6.89458
    endloop
  endfacet
  facet normal -0.975019 -0.22212 0
    outer loop
      vertex 7.74794 0 3.9591
      vertex 6.37869 6.01042 4.81287
      vertex 6.37869 6.01042 4.18713
    endloop
  endfacet
  facet normal -0.975019 -0.22212 0
    outer loop
      vertex 6.37869 6.01042 4.81287
      vertex 7.74794 0 3.9591
      vertex 7.74794 0 5.0409
    endloop
  endfacet
  facet normal 0.45399 -0.891007 0
    outer loop
      vertex 3.3389 6.99811 4.18713
      vertex 3.88958 7.27869 4.81287
      vertex 3.3389 6.99811 4.81287
    endloop
  endfacet
  facet normal 0.45399 -0.891007 0
    outer loop
      vertex 3.88958 7.27869 4.81287
      vertex 3.3389 6.99811 4.18713
      vertex 3.88958 7.27869 4.18713
    endloop
  endfacet
  facet normal -0.777872 -0.222937 0.58755
    outer loop
      vertex 6.96136 0 2.349
      vertex 5.845 5.83702 3.08579
      vertex 6.77738 0 2.10542
    endloop
  endfacet
  facet normal -0.777872 -0.222937 0.58755
    outer loop
      vertex 5.845 5.83702 3.08579
      vertex 6.96136 0 2.349
      vertex 6.19479 5.95067 3.59202
    endloop
  endfacet
  facet normal 0.574495 -0.574495 0.583019
    outer loop
      vertex 3.66875 6.54412 3.08579
      vertex 3.45256 6.84168 3.59202
      vertex 3.35588 6.23125 3.08579
    endloop
  endfacet
  facet normal 0.432276 -0.84839 -0.305569
    outer loop
      vertex 3.88958 7.27869 4.81287
      vertex 3.45256 6.84168 5.40798
      vertex 3.3389 6.99811 4.81287
    endloop
  endfacet
  facet normal 0.574495 -0.574495 -0.583019
    outer loop
      vertex 3.45256 6.84168 5.40798
      vertex 3.66875 6.54412 5.91421
      vertex 3.35588 6.23125 5.91421
    endloop
  endfacet
  facet normal -0.222852 -0.222852 -0.949038
    outer loop
      vertex 5.43677 0 7.62788
      vertex 5.23457 5.9337 6.28201
      vertex 5.75824 0 7.55239
    endloop
  endfacet
  facet normal -0.222852 -0.222852 -0.949038
    outer loop
      vertex 5.23457 5.9337 6.28201
      vertex 5.43677 0 7.62788
      vertex 5.0337 6.13457 6.28201
    endloop
  endfacet
  facet normal -0.723906 -0.368848 0.583019
    outer loop
      vertex 5.845 5.83702 3.08579
      vertex 6.19479 5.95067 3.59202
      vertex 5.64412 6.23125 3.08579
    endloop
  endfacet
  facet normal -0.92497 -0.22241 -0.308162
    outer loop
      vertex 7.74794 0 5.0409
      vertex 6.19479 5.95067 5.40798
      vertex 6.37869 6.01042 4.81287
    endloop
  endfacet
  facet normal -0.92497 -0.22241 -0.308163
    outer loop
      vertex 6.19479 5.95067 5.40798
      vertex 7.74794 0 5.0409
      vertex 7.65275 0 5.32659
    endloop
  endfacet
  facet normal 0.777872 -0.222937 -0.587549
    outer loop
      vertex 2.8052 5.95067 5.40798
      vertex 2.03864 0 6.651
      vertex 1.59107 0 6.05845
    endloop
  endfacet
  facet normal 0.545053 -0.222815 -0.808252
    outer loop
      vertex 3.63646 5.68058 6.28201
      vertex 3.0645 0 7.46231
      vertex 2.48173 0 7.06931
    endloop
  endfacet
  facet normal 0.222852 -0.222852 0.949038
    outer loop
      vertex 3.76543 5.9337 2.71799
      vertex 3.56323 0 1.37212
      vertex 3.9663 6.13457 2.71799
    endloop
  endfacet
  facet normal 0.222852 -0.222852 0.949038
    outer loop
      vertex 3.56323 0 1.37212
      vertex 3.76543 5.9337 2.71799
      vertex 3.24176 0 1.44761
    endloop
  endfacet
  facet normal -0.92497 -0.22241 0.308163
    outer loop
      vertex 7.74794 0 3.9591
      vertex 6.19479 5.95067 3.59202
      vertex 7.65275 0 3.67341
    endloop
  endfacet
  facet normal -0.92497 -0.22241 0.308162
    outer loop
      vertex 6.19479 5.95067 3.59202
      vertex 7.74794 0 3.9591
      vertex 6.37869 6.01042 4.18713
    endloop
  endfacet
  facet normal -0.723906 -0.368849 0.583018
    outer loop
      vertex 6.19479 5.95067 3.59202
      vertex 5.94168 6.44744 3.59202
      vertex 5.64412 6.23125 3.08579
    endloop
  endfacet
  facet normal -0.441454 -0.22493 0.868634
    outer loop
      vertex 5.36354 5.68058 2.71799
      vertex 5.75824 0 1.44761
      vertex 5.81174 0 1.47479
    endloop
  endfacet
  facet normal -0.441452 -0.224931 0.868635
    outer loop
      vertex 5.75824 0 1.44761
      vertex 5.36354 5.68058 2.71799
      vertex 5.23457 5.9337 2.71799
    endloop
  endfacet
  facet normal 0.114447 -0.224619 -0.967703
    outer loop
      vertex 4.3161 5.65312 6.47538
      vertex 4.29331 0 7.78486
      vertex 4.19527 0 7.77326
    endloop
  endfacet
  facet normal 0.527966 -0.269012 -0.805533
    outer loop
      vertex 3.35588 6.23125 5.91421
      vertex 3.76543 5.9337 6.28201
      vertex 3.155 5.83702 5.91421
    endloop
  endfacet
  facet normal 0.545053 -0.222815 -0.808252
    outer loop
      vertex 2.48173 0 7.06931
      vertex 3.155 5.83702 5.91421
      vertex 3.63646 5.68058 6.28201
    endloop
  endfacet
  facet normal 0.545053 -0.222815 -0.808252
    outer loop
      vertex 3.155 5.83702 5.91421
      vertex 2.48173 0 7.06931
      vertex 2.22262 0 6.89458
    endloop
  endfacet
  facet normal -0.156434 -0.987688 0
    outer loop
      vertex 4.5 7.37538 4.18713
      vertex 5.11042 7.27869 4.81287
      vertex 4.5 7.37538 4.81287
    endloop
  endfacet
  facet normal -0.156434 -0.987688 -0
    outer loop
      vertex 5.11042 7.27869 4.81287
      vertex 4.5 7.37538 4.18713
      vertex 5.11042 7.27869 4.18713
    endloop
  endfacet
  facet normal -0.432275 -0.84839 0.305569
    outer loop
      vertex 5.54744 6.84168 3.59202
      vertex 5.11042 7.27869 4.18713
      vertex 5.05067 7.09479 3.59202
    endloop
  endfacet
  facet normal 0.441451 -0.224931 -0.868635
    outer loop
      vertex 3.63646 5.68058 6.28201
      vertex 3.18826 0 7.5252
      vertex 3.0645 0 7.46231
    endloop
  endfacet
  facet normal -0.127097 -0.802456 -0.583019
    outer loop
      vertex 4.5 7.18201 5.40798
      vertex 4.93702 6.745 5.91421
      vertex 4.5 6.81421 5.91421
    endloop
  endfacet
  facet normal 0.723906 -0.368849 0.583018
    outer loop
      vertex 3.35588 6.23125 3.08579
      vertex 3.05832 6.44744 3.59202
      vertex 2.8052 5.95067 3.59202
    endloop
  endfacet
  facet normal 0.574496 -0.574495 -0.583018
    outer loop
      vertex 3.45256 6.84168 5.40798
      vertex 3.35588 6.23125 5.91421
      vertex 3.05832 6.44744 5.40798
    endloop
  endfacet
  facet normal -0.92497 -0.22241 0.308163
    outer loop
      vertex 7.40893 0 2.94155
      vertex 7.65275 0 3.67341
      vertex 6.19479 5.95067 3.59202
    endloop
  endfacet
  facet normal -0.777872 -0.222937 0.587549
    outer loop
      vertex 6.96136 0 2.349
      vertex 7.40893 0 2.94155
      vertex 6.19479 5.95067 3.59202
    endloop
  endfacet
  facet normal 0.218531 -0.222792 0.950057
    outer loop
      vertex 4.01152 0 1.269
      vertex 3.9663 6.13457 2.71799
      vertex 3.56323 0 1.37212
    endloop
  endfacet
  facet normal 0.527966 -0.269012 0.805534
    outer loop
      vertex 3.63646 5.68058 2.71799
      vertex 3.76543 5.9337 2.71799
      vertex 3.155 5.83702 3.08579
    endloop
  endfacet
  facet normal 0.441452 -0.224931 0.868635
    outer loop
      vertex 3.63646 5.68058 2.71799
      vertex 3.24176 0 1.44761
      vertex 3.76543 5.9337 2.71799
    endloop
  endfacet
  facet normal 0.441452 -0.22493 0.868635
    outer loop
      vertex 3.24176 0 1.44761
      vertex 3.63646 5.68058 2.71799
      vertex 3.18826 0 1.47479
    endloop
  endfacet
  facet normal -0.723906 -0.368848 -0.583019
    outer loop
      vertex 6.19479 5.95067 5.40798
      vertex 5.845 5.83702 5.91421
      vertex 5.64412 6.23125 5.91421
    endloop
  endfacet
  facet normal -0.527966 -0.269012 0.805534
    outer loop
      vertex 5.36354 5.68058 2.71799
      vertex 5.845 5.83702 3.08579
      vertex 5.23457 5.9337 2.71799
    endloop
  endfacet
  facet normal -0.527966 -0.269012 0.805533
    outer loop
      vertex 5.845 5.83702 3.08579
      vertex 5.64412 6.23125 3.08579
      vertex 5.23457 5.9337 2.71799
    endloop
  endfacet
  facet normal 0.0488852 -0.308647 0.94992
    outer loop
      vertex 4.40332 5.69756 2.52462
      vertex 4.5 5.71287 2.52462
      vertex 4.21942 6.26354 2.71799
    endloop
  endfacet
  facet normal 0.114449 -0.224619 0.967702
    outer loop
      vertex 4.3161 5.65312 2.52462
      vertex 4.33896 0 1.20974
      vertex 4.40332 5.69756 2.52462
    endloop
  endfacet
  facet normal 0.114448 -0.224619 0.967703
    outer loop
      vertex 4.33896 0 1.20974
      vertex 4.3161 5.65312 2.52462
      vertex 4.29331 0 1.21514
    endloop
  endfacet
  facet normal -0.0926944 -0.585255 0.805533
    outer loop
      vertex 4.78058 6.26354 2.71799
      vertex 4.5 6.81421 3.08579
      vertex 4.5 6.30798 2.71799
    endloop
  endfacet
  facet normal -0.21853 -0.222792 0.950057
    outer loop
      vertex 4.6839 5.65312 2.52462
      vertex 4.98848 0 1.269
      vertex 5.0337 6.13457 2.71799
    endloop
  endfacet
  facet normal -0.218531 -0.222792 0.950057
    outer loop
      vertex 4.98848 0 1.269
      vertex 4.6839 5.65312 2.52462
      vertex 4.80473 0 1.22674
    endloop
  endfacet
  facet normal -0.114447 -0.224619 -0.967703
    outer loop
      vertex 4.80473 0 7.77326
      vertex 4.70669 0 7.78486
      vertex 4.6839 5.65312 6.47538
    endloop
  endfacet
  facet normal 0.848389 -0.432277 0.305571
    outer loop
      vertex 3.05832 6.44744 3.59202
      vertex 2.90189 6.5611 4.18713
      vertex 2.8052 5.95067 3.59202
    endloop
  endfacet
  facet normal 0.723906 -0.368848 0.583019
    outer loop
      vertex 3.155 5.83702 3.08579
      vertex 3.35588 6.23125 3.08579
      vertex 2.8052 5.95067 3.59202
    endloop
  endfacet
  facet normal -0.418996 -0.418996 -0.805534
    outer loop
      vertex 5.23457 5.9337 6.28201
      vertex 5.33125 6.54412 5.91421
      vertex 5.64412 6.23125 5.91421
    endloop
  endfacet
  facet normal -0.418996 -0.418996 -0.805534
    outer loop
      vertex 5.33125 6.54412 5.91421
      vertex 5.23457 5.9337 6.28201
      vertex 5.0337 6.13457 6.28201
    endloop
  endfacet
  facet normal -0.545053 -0.222815 -0.808252
    outer loop
      vertex 6.51827 0 7.06931
      vertex 5.845 5.83702 5.91421
      vertex 6.77738 0 6.89458
    endloop
  endfacet
  facet normal -0.545053 -0.222815 -0.808252
    outer loop
      vertex 5.845 5.83702 5.91421
      vertex 6.51827 0 7.06931
      vertex 5.36354 5.68058 6.28201
    endloop
  endfacet
  facet normal -0.14187 -0.278434 -0.94992
    outer loop
      vertex 4.78058 6.26354 6.28201
      vertex 5.0337 6.13457 6.28201
      vertex 4.6839 5.65312 6.47538
    endloop
  endfacet
  facet normal -0.0356582 -0.225108 -0.973681
    outer loop
      vertex 4.61048 0 7.79211
      vertex 4.59668 5.69756 6.47538
      vertex 4.66104 0 7.79026
    endloop
  endfacet
  facet normal -0.0356543 -0.225108 -0.973681
    outer loop
      vertex 4.59668 5.69756 6.47538
      vertex 4.61048 0 7.79211
      vertex 4.5 5.71287 6.47538
    endloop
  endfacet
  facet normal -0.777872 -0.222937 -0.587549
    outer loop
      vertex 7.40893 0 6.05845
      vertex 6.96136 0 6.651
      vertex 6.19479 5.95067 5.40798
    endloop
  endfacet
  facet normal -0.92497 -0.22241 -0.308163
    outer loop
      vertex 7.65275 0 5.32659
      vertex 7.40893 0 6.05845
      vertex 6.19479 5.95067 5.40798
    endloop
  endfacet
  facet normal -0.0488844 -0.308647 -0.94992
    outer loop
      vertex 4.5 6.30798 6.28201
      vertex 4.78058 6.26354 6.28201
      vertex 4.5 5.71287 6.47538
    endloop
  endfacet
  facet normal -0.11445 -0.224619 -0.967702
    outer loop
      vertex 4.66104 0 7.79026
      vertex 4.6839 5.65312 6.47538
      vertex 4.70669 0 7.78486
    endloop
  endfacet
  facet normal -0.114449 -0.224619 -0.967702
    outer loop
      vertex 4.6839 5.65312 6.47538
      vertex 4.66104 0 7.79026
      vertex 4.59668 5.69756 6.47538
    endloop
  endfacet
  facet normal -0.0926944 -0.585255 -0.805533
    outer loop
      vertex 4.5 6.81421 5.91421
      vertex 4.78058 6.26354 6.28201
      vertex 4.5 6.30798 6.28201
    endloop
  endfacet
  facet normal 0.432276 -0.84839 0.305569
    outer loop
      vertex 3.45256 6.84168 3.59202
      vertex 3.88958 7.27869 4.18713
      vertex 3.3389 6.99811 4.18713
    endloop
  endfacet
  facet normal -0.148952 -0.940447 0.305569
    outer loop
      vertex 5.11042 7.27869 4.18713
      vertex 4.5 7.37538 4.18713
      vertex 4.5 7.18201 3.59202
    endloop
  endfacet
  facet normal -0.848389 -0.432277 0.305571
    outer loop
      vertex 6.19479 5.95067 3.59202
      vertex 6.09811 6.5611 4.18713
      vertex 5.94168 6.44744 3.59202
    endloop
  endfacet
  facet normal 0.92497 -0.22241 0.308162
    outer loop
      vertex 1.49581 0 3.22748
      vertex 2.8052 5.95067 3.59202
      vertex 2.6213 6.01042 4.18713
    endloop
  endfacet
  facet normal 0.92497 -0.22241 0.308163
    outer loop
      vertex 2.8052 5.95067 3.59202
      vertex 1.49581 0 3.22748
      vertex 1.59107 0 2.94155
    endloop
  endfacet
  facet normal -0.127097 -0.802456 0.583019
    outer loop
      vertex 4.93702 6.745 3.08579
      vertex 4.5 7.18201 3.59202
      vertex 4.5 6.81421 3.08579
    endloop
  endfacet
  facet normal -0.148953 -0.940447 0.30557
    outer loop
      vertex 5.05067 7.09479 3.59202
      vertex 5.11042 7.27869 4.18713
      vertex 4.5 7.18201 3.59202
    endloop
  endfacet
  facet normal -0.673286 -0.673285 0.305571
    outer loop
      vertex 5.94168 6.44744 3.59202
      vertex 6.09811 6.5611 4.18713
      vertex 5.54744 6.84168 3.59202
    endloop
  endfacet
  facet normal -0.45399 -0.891007 0
    outer loop
      vertex 5.11042 7.27869 4.18713
      vertex 5.6611 6.99811 4.81287
      vertex 5.11042 7.27869 4.81287
    endloop
  endfacet
  facet normal -0.45399 -0.891007 -0
    outer loop
      vertex 5.6611 6.99811 4.81287
      vertex 5.11042 7.27869 4.18713
      vertex 5.6611 6.99811 4.18713
    endloop
  endfacet
  facet normal -0.127097 -0.802456 -0.583019
    outer loop
      vertex 5.05067 7.09479 5.40798
      vertex 4.93702 6.745 5.91421
      vertex 4.5 7.18201 5.40798
    endloop
  endfacet
  facet normal -0.368848 -0.723906 -0.583019
    outer loop
      vertex 5.54744 6.84168 5.40798
      vertex 5.33125 6.54412 5.91421
      vertex 5.05067 7.09479 5.40798
    endloop
  endfacet
  facet normal 0.0356533 -0.225108 0.973681
    outer loop
      vertex 4.5 0 1.20385
      vertex 4.5 5.71287 2.52462
      vertex 4.38952 0 1.20789
    endloop
  endfacet
  facet normal -0.218531 -0.222792 0.950057
    outer loop
      vertex 5.43677 0 1.37212
      vertex 5.0337 6.13457 2.71799
      vertex 4.98848 0 1.269
    endloop
  endfacet
  facet normal 0.11445 -0.224618 0.967702
    outer loop
      vertex 4.29331 0 1.21514
      vertex 4.3161 5.65312 2.52462
      vertex 4.19527 0 1.22674
    endloop
  endfacet
  facet normal 0.218531 -0.222792 0.950057
    outer loop
      vertex 4.3161 5.65312 2.52462
      vertex 4.01152 0 1.269
      vertex 4.19527 0 1.22674
    endloop
  endfacet
  facet normal 0.21853 -0.222792 0.950057
    outer loop
      vertex 4.01152 0 1.269
      vertex 4.3161 5.65312 2.52462
      vertex 3.9663 6.13457 2.71799
    endloop
  endfacet
  facet normal -0.14187 -0.278434 0.94992
    outer loop
      vertex 5.0337 6.13457 2.71799
      vertex 4.78058 6.26354 2.71799
      vertex 4.6839 5.65312 2.52462
    endloop
  endfacet
  facet normal -0.545053 -0.222815 0.808251
    outer loop
      vertex 5.845 5.83702 3.08579
      vertex 6.51827 0 1.93069
      vertex 6.77738 0 2.10542
    endloop
  endfacet
  facet normal -0.545053 -0.222815 0.808252
    outer loop
      vertex 6.51827 0 1.93069
      vertex 5.845 5.83702 3.08579
      vertex 5.36354 5.68058 2.71799
    endloop
  endfacet
  facet normal 0.035654 -0.225108 0.973681
    outer loop
      vertex 4.40332 5.69756 2.52462
      vertex 4.38952 0 1.20789
      vertex 4.5 5.71287 2.52462
    endloop
  endfacet
  facet normal 0.0356533 -0.225108 0.973681
    outer loop
      vertex 4.38952 0 1.20789
      vertex 4.40332 5.69756 2.52462
      vertex 4.33896 0 1.20974
    endloop
  endfacet
  facet normal -0.0488844 -0.308647 0.94992
    outer loop
      vertex 4.78058 6.26354 2.71799
      vertex 4.5 6.30798 2.71799
      vertex 4.5 5.71287 2.52462
    endloop
  endfacet
  facet normal -0.218532 -0.222792 -0.950057
    outer loop
      vertex 5.0337 6.13457 6.28201
      vertex 5.43677 0 7.62788
      vertex 4.98848 0 7.73099
    endloop
  endfacet
  facet normal -0.218531 -0.222792 -0.950057
    outer loop
      vertex 4.6839 5.65312 6.47538
      vertex 4.98848 0 7.73099
      vertex 4.80473 0 7.77326
    endloop
  endfacet
  facet normal -0.21853 -0.222792 -0.950057
    outer loop
      vertex 4.98848 0 7.73099
      vertex 4.6839 5.65312 6.47538
      vertex 5.0337 6.13457 6.28201
    endloop
  endfacet
  facet normal 0.14187 -0.278434 -0.94992
    outer loop
      vertex 4.21942 6.26354 6.28201
      vertex 4.3161 5.65312 6.47538
      vertex 3.9663 6.13457 6.28201
    endloop
  endfacet
  facet normal 0.368848 -0.723906 -0.583019
    outer loop
      vertex 3.94933 7.09479 5.40798
      vertex 4.06298 6.745 5.91421
      vertex 3.66875 6.54412 5.91421
    endloop
  endfacet
  facet normal 0.545053 -0.222815 0.808252
    outer loop
      vertex 3.155 5.83702 3.08579
      vertex 2.48173 0 1.93069
      vertex 3.63646 5.68058 2.71799
    endloop
  endfacet
  facet normal 0.545053 -0.222815 0.808251
    outer loop
      vertex 2.48173 0 1.93069
      vertex 3.155 5.83702 3.08579
      vertex 2.22262 0 2.10542
    endloop
  endfacet
  facet normal -0.269013 -0.527966 -0.805534
    outer loop
      vertex 5.33125 6.54412 5.91421
      vertex 5.0337 6.13457 6.28201
      vertex 4.78058 6.26354 6.28201
    endloop
  endfacet
  facet normal -0.527966 -0.269012 -0.805533
    outer loop
      vertex 5.64412 6.23125 5.91421
      vertex 5.845 5.83702 5.91421
      vertex 5.23457 5.9337 6.28201
    endloop
  endfacet
  facet normal -0.432276 -0.84839 -0.305569
    outer loop
      vertex 5.6611 6.99811 4.81287
      vertex 5.54744 6.84168 5.40798
      vertex 5.11042 7.27869 4.81287
    endloop
  endfacet
  facet normal 0.0488843 -0.308647 -0.94992
    outer loop
      vertex 4.5 6.30798 6.28201
      vertex 4.5 5.71287 6.47538
      vertex 4.21942 6.26354 6.28201
    endloop
  endfacet
  facet normal -0.0356545 -0.225108 -0.973681
    outer loop
      vertex 4.5 5.71287 6.47538
      vertex 4.61048 0 7.79211
      vertex 4.5 0 7.79615
    endloop
  endfacet
  facet normal 0.432275 -0.84839 -0.305569
    outer loop
      vertex 3.88958 7.27869 4.81287
      vertex 3.94933 7.09479 5.40798
      vertex 3.45256 6.84168 5.40798
    endloop
  endfacet
  facet normal 0.127097 -0.802456 -0.583019
    outer loop
      vertex 4.5 7.18201 5.40798
      vertex 4.06298 6.745 5.91421
      vertex 3.94933 7.09479 5.40798
    endloop
  endfacet
  facet normal 0.673285 -0.673287 -0.305569
    outer loop
      vertex 3.3389 6.99811 4.81287
      vertex 3.45256 6.84168 5.40798
      vertex 2.90189 6.5611 4.81287
    endloop
  endfacet
  facet normal -0.707106 -0.707108 0
    outer loop
      vertex 5.6611 6.99811 4.18713
      vertex 6.09811 6.5611 4.81287
      vertex 5.6611 6.99811 4.81287
    endloop
  endfacet
  facet normal -0.707106 -0.707108 -0
    outer loop
      vertex 6.09811 6.5611 4.81287
      vertex 5.6611 6.99811 4.18713
      vertex 6.09811 6.5611 4.18713
    endloop
  endfacet
  facet normal -0.269013 -0.527966 0.805534
    outer loop
      vertex 5.0337 6.13457 2.71799
      vertex 5.33125 6.54412 3.08579
      vertex 4.78058 6.26354 2.71799
    endloop
  endfacet
  facet normal -0.432276 -0.84839 0.305569
    outer loop
      vertex 5.54744 6.84168 3.59202
      vertex 5.6611 6.99811 4.18713
      vertex 5.11042 7.27869 4.18713
    endloop
  endfacet
  facet normal 0.574496 -0.574495 0.583018
    outer loop
      vertex 3.35588 6.23125 3.08579
      vertex 3.45256 6.84168 3.59202
      vertex 3.05832 6.44744 3.59202
    endloop
  endfacet
  facet normal -0.368848 -0.723906 0.583019
    outer loop
      vertex 5.33125 6.54412 3.08579
      vertex 5.54744 6.84168 3.59202
      vertex 5.05067 7.09479 3.59202
    endloop
  endfacet
  facet normal 0.148953 -0.940447 0.30557
    outer loop
      vertex 3.94933 7.09479 3.59202
      vertex 4.5 7.18201 3.59202
      vertex 3.88958 7.27869 4.18713
    endloop
  endfacet
  facet normal -0.441455 -0.22493 -0.868633
    outer loop
      vertex 5.75824 0 7.55239
      vertex 5.36354 5.68058 6.28201
      vertex 5.81174 0 7.5252
    endloop
  endfacet
  facet normal -0.441452 -0.224931 -0.868635
    outer loop
      vertex 5.36354 5.68058 6.28201
      vertex 5.75824 0 7.55239
      vertex 5.23457 5.9337 6.28201
    endloop
  endfacet
  facet normal -0.527966 -0.269012 -0.805534
    outer loop
      vertex 5.845 5.83702 5.91421
      vertex 5.36354 5.68058 6.28201
      vertex 5.23457 5.9337 6.28201
    endloop
  endfacet
  facet normal -0.0488857 -0.308646 0.94992
    outer loop
      vertex 4.59668 5.69756 2.52462
      vertex 4.78058 6.26354 2.71799
      vertex 4.5 5.71287 2.52462
    endloop
  endfacet
  facet normal -0.141869 -0.278434 0.94992
    outer loop
      vertex 4.6839 5.65312 2.52462
      vertex 4.78058 6.26354 2.71799
      vertex 4.59668 5.69756 2.52462
    endloop
  endfacet
  facet normal 0.368848 -0.723906 -0.583019
    outer loop
      vertex 3.94933 7.09479 5.40798
      vertex 3.66875 6.54412 5.91421
      vertex 3.45256 6.84168 5.40798
    endloop
  endfacet
  facet normal 0.222852 -0.222852 -0.949038
    outer loop
      vertex 3.56323 0 7.62788
      vertex 3.76543 5.9337 6.28201
      vertex 3.9663 6.13457 6.28201
    endloop
  endfacet
  facet normal 0.222852 -0.222852 -0.949038
    outer loop
      vertex 3.76543 5.9337 6.28201
      vertex 3.56323 0 7.62788
      vertex 3.24176 0 7.55239
    endloop
  endfacet
  facet normal 0.84839 -0.432276 0.305569
    outer loop
      vertex 2.8052 5.95067 3.59202
      vertex 2.90189 6.5611 4.18713
      vertex 2.6213 6.01042 4.18713
    endloop
  endfacet
  facet normal 0.673286 -0.673285 0.305571
    outer loop
      vertex 3.05832 6.44744 3.59202
      vertex 3.45256 6.84168 3.59202
      vertex 2.90189 6.5611 4.18713
    endloop
  endfacet
  facet normal 0.975019 -0.22212 0
    outer loop
      vertex 1.25206 0 5.0409
      vertex 2.6213 6.01042 4.18713
      vertex 2.6213 6.01042 4.81287
    endloop
  endfacet
  facet normal 0.975019 -0.22212 0
    outer loop
      vertex 2.6213 6.01042 4.18713
      vertex 1.25206 0 5.0409
      vertex 1.25206 0 3.9591
    endloop
  endfacet
  facet normal 0.92497 -0.22241 0.308162
    outer loop
      vertex 1.49581 0 3.22748
      vertex 2.6213 6.01042 4.18713
      vertex 1.25206 0 3.9591
    endloop
  endfacet
  facet normal 0.441451 -0.224931 0.868635
    outer loop
      vertex 3.18826 0 1.47479
      vertex 3.63646 5.68058 2.71799
      vertex 3.0645 0 1.53769
    endloop
  endfacet
  facet normal -0.545053 -0.222815 -0.808252
    outer loop
      vertex 6.51827 0 7.06931
      vertex 5.9355 0 7.46231
      vertex 5.36354 5.68058 6.28201
    endloop
  endfacet
  facet normal -0.441451 -0.224931 -0.868635
    outer loop
      vertex 5.9355 0 7.46231
      vertex 5.81174 0 7.5252
      vertex 5.36354 5.68058 6.28201
    endloop
  endfacet
  facet normal 0.269012 -0.527967 -0.805533
    outer loop
      vertex 4.06298 6.745 5.91421
      vertex 4.21942 6.26354 6.28201
      vertex 3.66875 6.54412 5.91421
    endloop
  endfacet
  facet normal -0.141869 -0.278434 -0.94992
    outer loop
      vertex 4.78058 6.26354 6.28201
      vertex 4.6839 5.65312 6.47538
      vertex 4.59668 5.69756 6.47538
    endloop
  endfacet
  facet normal -0.148953 -0.940447 -0.30557
    outer loop
      vertex 5.11042 7.27869 4.81287
      vertex 5.05067 7.09479 5.40798
      vertex 4.5 7.18201 5.40798
    endloop
  endfacet
  facet normal -0.148952 -0.940447 -0.305569
    outer loop
      vertex 4.5 7.37538 4.81287
      vertex 5.11042 7.27869 4.81287
      vertex 4.5 7.18201 5.40798
    endloop
  endfacet
  facet normal 0.673285 -0.673287 0.305569
    outer loop
      vertex 3.45256 6.84168 3.59202
      vertex 3.3389 6.99811 4.18713
      vertex 2.90189 6.5611 4.18713
    endloop
  endfacet
  facet normal 0.84839 -0.432276 -0.305569
    outer loop
      vertex 2.90189 6.5611 4.81287
      vertex 2.8052 5.95067 5.40798
      vertex 2.6213 6.01042 4.81287
    endloop
  endfacet
  facet normal 0.148953 -0.940447 -0.30557
    outer loop
      vertex 4.5 7.18201 5.40798
      vertex 3.94933 7.09479 5.40798
      vertex 3.88958 7.27869 4.81287
    endloop
  endfacet
  facet normal 0.148952 -0.940447 -0.305569
    outer loop
      vertex 4.5 7.37538 4.81287
      vertex 4.5 7.18201 5.40798
      vertex 3.88958 7.27869 4.81287
    endloop
  endfacet
  facet normal -0.441451 -0.224931 0.868635
    outer loop
      vertex 5.81174 0 1.47479
      vertex 5.9355 0 1.53769
      vertex 5.36354 5.68058 2.71799
    endloop
  endfacet
  facet normal -0.545053 -0.222815 0.808252
    outer loop
      vertex 5.9355 0 1.53769
      vertex 6.51827 0 1.93069
      vertex 5.36354 5.68058 2.71799
    endloop
  endfacet
  facet normal -0.84839 -0.432276 0.305569
    outer loop
      vertex 6.19479 5.95067 3.59202
      vertex 6.37869 6.01042 4.18713
      vertex 6.09811 6.5611 4.18713
    endloop
  endfacet
  facet normal -0.891007 -0.45399 0
    outer loop
      vertex 6.37869 6.01042 4.18713
      vertex 6.09811 6.5611 4.81287
      vertex 6.09811 6.5611 4.18713
    endloop
  endfacet
  facet normal -0.891007 -0.45399 0
    outer loop
      vertex 6.09811 6.5611 4.81287
      vertex 6.37869 6.01042 4.18713
      vertex 6.37869 6.01042 4.81287
    endloop
  endfacet
  facet normal -0.574496 -0.574495 0.583018
    outer loop
      vertex 5.64412 6.23125 3.08579
      vertex 5.94168 6.44744 3.59202
      vertex 5.54744 6.84168 3.59202
    endloop
  endfacet
  facet normal -0.673285 -0.673287 0.305569
    outer loop
      vertex 6.09811 6.5611 4.18713
      vertex 5.6611 6.99811 4.18713
      vertex 5.54744 6.84168 3.59202
    endloop
  endfacet
  facet normal -0.848389 -0.432277 -0.305571
    outer loop
      vertex 6.09811 6.5611 4.81287
      vertex 6.19479 5.95067 5.40798
      vertex 5.94168 6.44744 5.40798
    endloop
  endfacet
  facet normal -0.84839 -0.432276 -0.305569
    outer loop
      vertex 6.37869 6.01042 4.81287
      vertex 6.19479 5.95067 5.40798
      vertex 6.09811 6.5611 4.81287
    endloop
  endfacet
  facet normal 0.269013 -0.527966 0.805534
    outer loop
      vertex 3.9663 6.13457 2.71799
      vertex 4.21942 6.26354 2.71799
      vertex 3.66875 6.54412 3.08579
    endloop
  endfacet
  facet normal -0.418996 -0.418996 0.805534
    outer loop
      vertex 5.33125 6.54412 3.08579
      vertex 5.23457 5.9337 2.71799
      vertex 5.64412 6.23125 3.08579
    endloop
  endfacet
  facet normal -0.418996 -0.418996 0.805534
    outer loop
      vertex 5.23457 5.9337 2.71799
      vertex 5.33125 6.54412 3.08579
      vertex 5.0337 6.13457 2.71799
    endloop
  endfacet
  facet normal 0.527966 -0.269012 0.805533
    outer loop
      vertex 3.76543 5.9337 2.71799
      vertex 3.35588 6.23125 3.08579
      vertex 3.155 5.83702 3.08579
    endloop
  endfacet
  facet normal 0.418996 -0.418996 0.805534
    outer loop
      vertex 3.66875 6.54412 3.08579
      vertex 3.76543 5.9337 2.71799
      vertex 3.9663 6.13457 2.71799
    endloop
  endfacet
  facet normal 0.418996 -0.418996 0.805534
    outer loop
      vertex 3.76543 5.9337 2.71799
      vertex 3.66875 6.54412 3.08579
      vertex 3.35588 6.23125 3.08579
    endloop
  endfacet
  facet normal -0.574495 -0.574495 0.583019
    outer loop
      vertex 5.64412 6.23125 3.08579
      vertex 5.54744 6.84168 3.59202
      vertex 5.33125 6.54412 3.08579
    endloop
  endfacet
  facet normal 0.127097 -0.802456 0.583019
    outer loop
      vertex 4.06298 6.745 3.08579
      vertex 4.5 7.18201 3.59202
      vertex 3.94933 7.09479 3.59202
    endloop
  endfacet
  facet normal 0.148952 -0.940447 0.305569
    outer loop
      vertex 4.5 7.18201 3.59202
      vertex 4.5 7.37538 4.18713
      vertex 3.88958 7.27869 4.18713
    endloop
  endfacet
  facet normal 0.156434 -0.987688 0
    outer loop
      vertex 3.88958 7.27869 4.18713
      vertex 4.5 7.37538 4.81287
      vertex 3.88958 7.27869 4.81287
    endloop
  endfacet
  facet normal 0.156434 -0.987688 0
    outer loop
      vertex 4.5 7.37538 4.81287
      vertex 3.88958 7.27869 4.18713
      vertex 4.5 7.37538 4.18713
    endloop
  endfacet
  facet normal 0.368848 -0.723906 0.583019
    outer loop
      vertex 4.06298 6.745 3.08579
      vertex 3.94933 7.09479 3.59202
      vertex 3.66875 6.54412 3.08579
    endloop
  endfacet
  facet normal -0.127097 -0.802456 0.583019
    outer loop
      vertex 4.93702 6.745 3.08579
      vertex 5.05067 7.09479 3.59202
      vertex 4.5 7.18201 3.59202
    endloop
  endfacet
  facet normal -0.0356536 -0.225108 0.973681
    outer loop
      vertex 4.59668 5.69756 2.52462
      vertex 4.61048 0 1.20789
      vertex 4.66104 0 1.20974
    endloop
  endfacet
  facet normal -0.0356543 -0.225108 0.973681
    outer loop
      vertex 4.61048 0 1.20789
      vertex 4.59668 5.69756 2.52462
      vertex 4.5 5.71287 2.52462
    endloop
  endfacet
  facet normal -0.114448 -0.224619 0.967703
    outer loop
      vertex 4.6839 5.65312 2.52462
      vertex 4.66104 0 1.20974
      vertex 4.70669 0 1.21514
    endloop
  endfacet
  facet normal -0.114449 -0.224619 0.967702
    outer loop
      vertex 4.66104 0 1.20974
      vertex 4.6839 5.65312 2.52462
      vertex 4.59668 5.69756 2.52462
    endloop
  endfacet
  facet normal 0.723906 -0.368849 -0.583018
    outer loop
      vertex 3.05832 6.44744 5.40798
      vertex 3.35588 6.23125 5.91421
      vertex 2.8052 5.95067 5.40798
    endloop
  endfacet
  facet normal 0.269013 -0.527966 -0.805534
    outer loop
      vertex 4.21942 6.26354 6.28201
      vertex 3.9663 6.13457 6.28201
      vertex 3.66875 6.54412 5.91421
    endloop
  endfacet
  facet normal 0.218531 -0.222792 -0.950057
    outer loop
      vertex 4.01152 0 7.73099
      vertex 4.3161 5.65312 6.47538
      vertex 4.19527 0 7.77326
    endloop
  endfacet
  facet normal 0.21853 -0.222792 -0.950057
    outer loop
      vertex 4.3161 5.65312 6.47538
      vertex 4.01152 0 7.73099
      vertex 3.9663 6.13457 6.28201
    endloop
  endfacet
  facet normal -0.0488857 -0.308646 -0.94992
    outer loop
      vertex 4.78058 6.26354 6.28201
      vertex 4.59668 5.69756 6.47538
      vertex 4.5 5.71287 6.47538
    endloop
  endfacet
  facet normal 0.777872 -0.222937 0.58755
    outer loop
      vertex 2.03864 0 2.349
      vertex 3.155 5.83702 3.08579
      vertex 2.8052 5.95067 3.59202
    endloop
  endfacet
  facet normal 0.777872 -0.222937 0.58755
    outer loop
      vertex 3.155 5.83702 3.08579
      vertex 2.03864 0 2.349
      vertex 2.22262 0 2.10542
    endloop
  endfacet
  facet normal 0.777872 -0.222937 0.587549
    outer loop
      vertex 2.03864 0 2.349
      vertex 2.8052 5.95067 3.59202
      vertex 1.59107 0 2.94155
    endloop
  endfacet
  facet normal 0.545053 -0.222815 0.808252
    outer loop
      vertex 3.0645 0 1.53769
      vertex 3.63646 5.68058 2.71799
      vertex 2.48173 0 1.93069
    endloop
  endfacet
  facet normal -0.574495 -0.574495 -0.583019
    outer loop
      vertex 5.54744 6.84168 5.40798
      vertex 5.64412 6.23125 5.91421
      vertex 5.33125 6.54412 5.91421
    endloop
  endfacet
  facet normal -0.432275 -0.84839 -0.305569
    outer loop
      vertex 5.11042 7.27869 4.81287
      vertex 5.54744 6.84168 5.40798
      vertex 5.05067 7.09479 5.40798
    endloop
  endfacet
  facet normal -0.0926957 -0.585255 -0.805533
    outer loop
      vertex 4.93702 6.745 5.91421
      vertex 4.78058 6.26354 6.28201
      vertex 4.5 6.81421 5.91421
    endloop
  endfacet
  facet normal 0.127097 -0.802456 -0.583019
    outer loop
      vertex 4.5 7.18201 5.40798
      vertex 4.5 6.81421 5.91421
      vertex 4.06298 6.745 5.91421
    endloop
  endfacet
  facet normal 0.891007 -0.45399 0
    outer loop
      vertex 2.6213 6.01042 4.81287
      vertex 2.90189 6.5611 4.18713
      vertex 2.90189 6.5611 4.81287
    endloop
  endfacet
  facet normal 0.891007 -0.45399 0
    outer loop
      vertex 2.90189 6.5611 4.18713
      vertex 2.6213 6.01042 4.81287
      vertex 2.6213 6.01042 4.18713
    endloop
  endfacet
  facet normal 0.707106 -0.707108 0
    outer loop
      vertex 2.90189 6.5611 4.18713
      vertex 3.3389 6.99811 4.81287
      vertex 2.90189 6.5611 4.81287
    endloop
  endfacet
  facet normal 0.707106 -0.707108 0
    outer loop
      vertex 3.3389 6.99811 4.81287
      vertex 2.90189 6.5611 4.18713
      vertex 3.3389 6.99811 4.18713
    endloop
  endfacet
  facet normal 0.92497 -0.22241 -0.308162
    outer loop
      vertex 2.6213 6.01042 4.81287
      vertex 1.49581 0 5.77252
      vertex 1.25206 0 5.0409
    endloop
  endfacet
  facet normal 0.92497 -0.22241 -0.308163
    outer loop
      vertex 1.49581 0 5.77252
      vertex 2.8052 5.95067 5.40798
      vertex 1.59107 0 6.05845
    endloop
  endfacet
  facet normal 0.92497 -0.22241 -0.308162
    outer loop
      vertex 2.8052 5.95067 5.40798
      vertex 1.49581 0 5.77252
      vertex 2.6213 6.01042 4.81287
    endloop
  endfacet
  facet normal -0.222852 -0.222852 0.949038
    outer loop
      vertex 5.23457 5.9337 2.71799
      vertex 5.43677 0 1.37212
      vertex 5.75824 0 1.44761
    endloop
  endfacet
  facet normal -0.222852 -0.222852 0.949038
    outer loop
      vertex 5.43677 0 1.37212
      vertex 5.23457 5.9337 2.71799
      vertex 5.0337 6.13457 2.71799
    endloop
  endfacet
  facet normal 0.368848 -0.723906 0.583019
    outer loop
      vertex 3.66875 6.54412 3.08579
      vertex 3.94933 7.09479 3.59202
      vertex 3.45256 6.84168 3.59202
    endloop
  endfacet
  facet normal 0.432275 -0.84839 0.305569
    outer loop
      vertex 3.94933 7.09479 3.59202
      vertex 3.88958 7.27869 4.18713
      vertex 3.45256 6.84168 3.59202
    endloop
  endfacet
  facet normal -0.269012 -0.527967 0.805533
    outer loop
      vertex 5.33125 6.54412 3.08579
      vertex 4.93702 6.745 3.08579
      vertex 4.78058 6.26354 2.71799
    endloop
  endfacet
  facet normal -0.368848 -0.723906 0.583019
    outer loop
      vertex 5.33125 6.54412 3.08579
      vertex 5.05067 7.09479 3.59202
      vertex 4.93702 6.745 3.08579
    endloop
  endfacet
  facet normal -0.0926957 -0.585255 0.805533
    outer loop
      vertex 4.78058 6.26354 2.71799
      vertex 4.93702 6.745 3.08579
      vertex 4.5 6.81421 3.08579
    endloop
  endfacet
  facet normal 0.269012 -0.527967 0.805533
    outer loop
      vertex 4.21942 6.26354 2.71799
      vertex 4.06298 6.745 3.08579
      vertex 3.66875 6.54412 3.08579
    endloop
  endfacet
  facet normal -0.11445 -0.224618 0.967702
    outer loop
      vertex 4.70669 0 1.21514
      vertex 4.80473 0 1.22674
      vertex 4.6839 5.65312 2.52462
    endloop
  endfacet
  facet normal -0.0356534 -0.225108 0.973681
    outer loop
      vertex 4.61048 0 1.20789
      vertex 4.5 5.71287 2.52462
      vertex 4.5 0 1.20385
    endloop
  endfacet
  facet normal 0.723906 -0.368848 -0.583019
    outer loop
      vertex 3.35588 6.23125 5.91421
      vertex 3.155 5.83702 5.91421
      vertex 2.8052 5.95067 5.40798
    endloop
  endfacet
  facet normal 0.777872 -0.222937 -0.58755
    outer loop
      vertex 2.03864 0 6.651
      vertex 3.155 5.83702 5.91421
      vertex 2.22262 0 6.89458
    endloop
  endfacet
  facet normal 0.777872 -0.222937 -0.58755
    outer loop
      vertex 3.155 5.83702 5.91421
      vertex 2.03864 0 6.651
      vertex 2.8052 5.95067 5.40798
    endloop
  endfacet
  facet normal 0.527966 -0.269012 -0.805534
    outer loop
      vertex 3.76543 5.9337 6.28201
      vertex 3.63646 5.68058 6.28201
      vertex 3.155 5.83702 5.91421
    endloop
  endfacet
  facet normal 0.441452 -0.224931 -0.868635
    outer loop
      vertex 3.24176 0 7.55239
      vertex 3.63646 5.68058 6.28201
      vertex 3.76543 5.9337 6.28201
    endloop
  endfacet
  facet normal 0.441454 -0.22493 -0.868634
    outer loop
      vertex 3.63646 5.68058 6.28201
      vertex 3.24176 0 7.55239
      vertex 3.18826 0 7.5252
    endloop
  endfacet
  facet normal 0.418996 -0.418996 -0.805534
    outer loop
      vertex 3.76543 5.9337 6.28201
      vertex 3.66875 6.54412 5.91421
      vertex 3.9663 6.13457 6.28201
    endloop
  endfacet
  facet normal 0.418996 -0.418996 -0.805534
    outer loop
      vertex 3.66875 6.54412 5.91421
      vertex 3.76543 5.9337 6.28201
      vertex 3.35588 6.23125 5.91421
    endloop
  endfacet
  facet normal 0.035654 -0.225108 -0.973681
    outer loop
      vertex 4.38952 0 7.79211
      vertex 4.40332 5.69756 6.47538
      vertex 4.5 5.71287 6.47538
    endloop
  endfacet
  facet normal 0.0356579 -0.225108 -0.973681
    outer loop
      vertex 4.40332 5.69756 6.47538
      vertex 4.38952 0 7.79211
      vertex 4.33896 0 7.79026
    endloop
  endfacet
  facet normal 0.673286 -0.673285 -0.305571
    outer loop
      vertex 3.45256 6.84168 5.40798
      vertex 3.05832 6.44744 5.40798
      vertex 2.90189 6.5611 4.81287
    endloop
  endfacet
  facet normal 0.848389 -0.432277 -0.305571
    outer loop
      vertex 2.90189 6.5611 4.81287
      vertex 3.05832 6.44744 5.40798
      vertex 2.8052 5.95067 5.40798
    endloop
  endfacet
  facet normal 0.0488852 -0.308647 -0.94992
    outer loop
      vertex 4.5 5.71287 6.47538
      vertex 4.40332 5.69756 6.47538
      vertex 4.21942 6.26354 6.28201
    endloop
  endfacet
  facet normal 0.0356543 -0.225108 -0.973681
    outer loop
      vertex 4.5 5.71287 6.47538
      vertex 4.5 0 7.79615
      vertex 4.38952 0 7.79211
    endloop
  endfacet
  facet normal 0.218532 -0.222792 -0.950057
    outer loop
      vertex 3.9663 6.13457 6.28201
      vertex 4.01152 0 7.73099
      vertex 3.56323 0 7.62788
    endloop
  endfacet
  facet normal -0.673286 -0.673285 -0.305571
    outer loop
      vertex 6.09811 6.5611 4.81287
      vertex 5.94168 6.44744 5.40798
      vertex 5.54744 6.84168 5.40798
    endloop
  endfacet
  facet normal -0.673285 -0.673287 -0.305569
    outer loop
      vertex 5.6611 6.99811 4.81287
      vertex 6.09811 6.5611 4.81287
      vertex 5.54744 6.84168 5.40798
    endloop
  endfacet
  facet normal -0.269012 -0.527967 -0.805533
    outer loop
      vertex 4.93702 6.745 5.91421
      vertex 5.33125 6.54412 5.91421
      vertex 4.78058 6.26354 6.28201
    endloop
  endfacet
  facet normal -0.368848 -0.723906 -0.583019
    outer loop
      vertex 5.05067 7.09479 5.40798
      vertex 5.33125 6.54412 5.91421
      vertex 4.93702 6.745 5.91421
    endloop
  endfacet
  facet normal 0.127097 -0.802456 0.583019
    outer loop
      vertex 4.5 6.81421 3.08579
      vertex 4.5 7.18201 3.59202
      vertex 4.06298 6.745 3.08579
    endloop
  endfacet
  facet normal 0.0926955 -0.585256 0.805533
    outer loop
      vertex 4.21942 6.26354 2.71799
      vertex 4.5 6.81421 3.08579
      vertex 4.06298 6.745 3.08579
    endloop
  endfacet
  facet normal 0.0488843 -0.308647 0.94992
    outer loop
      vertex 4.5 5.71287 2.52462
      vertex 4.5 6.30798 2.71799
      vertex 4.21942 6.26354 2.71799
    endloop
  endfacet
  facet normal 0.0926941 -0.585255 0.805534
    outer loop
      vertex 4.5 6.30798 2.71799
      vertex 4.5 6.81421 3.08579
      vertex 4.21942 6.26354 2.71799
    endloop
  endfacet
  facet normal 0.0926941 -0.585255 -0.805534
    outer loop
      vertex 4.5 6.81421 5.91421
      vertex 4.5 6.30798 6.28201
      vertex 4.21942 6.26354 6.28201
    endloop
  endfacet
  facet normal 0.0926955 -0.585256 -0.805533
    outer loop
      vertex 4.5 6.81421 5.91421
      vertex 4.21942 6.26354 6.28201
      vertex 4.06298 6.745 5.91421
    endloop
  endfacet
  facet normal -0.574496 -0.574495 -0.583018
    outer loop
      vertex 5.94168 6.44744 5.40798
      vertex 5.64412 6.23125 5.91421
      vertex 5.54744 6.84168 5.40798
    endloop
  endfacet
  facet normal -0.723906 -0.368849 -0.583018
    outer loop
      vertex 5.94168 6.44744 5.40798
      vertex 6.19479 5.95067 5.40798
      vertex 5.64412 6.23125 5.91421
    endloop
  endfacet
  facet normal 0.141869 -0.278434 0.94992
    outer loop
      vertex 4.3161 5.65312 2.52462
      vertex 4.40332 5.69756 2.52462
      vertex 4.21942 6.26354 2.71799
    endloop
  endfacet
  facet normal 0.14187 -0.278434 0.94992
    outer loop
      vertex 4.3161 5.65312 2.52462
      vertex 4.21942 6.26354 2.71799
      vertex 3.9663 6.13457 2.71799
    endloop
  endfacet
  facet normal 0.141869 -0.278434 -0.94992
    outer loop
      vertex 4.40332 5.69756 6.47538
      vertex 4.3161 5.65312 6.47538
      vertex 4.21942 6.26354 6.28201
    endloop
  endfacet
  facet normal 0.114449 -0.224619 -0.967702
    outer loop
      vertex 4.33896 0 7.79026
      vertex 4.3161 5.65312 6.47538
      vertex 4.40332 5.69756 6.47538
    endloop
  endfacet
  facet normal 0.11445 -0.224619 -0.967702
    outer loop
      vertex 4.3161 5.65312 6.47538
      vertex 4.33896 0 7.79026
      vertex 4.29331 0 7.78486
    endloop
  endfacet
endsolid OpenSCAD_Model
