solid OpenSCAD_Model
  facet normal -1 0 0
    outer loop
      vertex 0 0 0
      vertex 0 15 9.02
      vertex 0 15 0
    endloop
  endfacet
  facet normal -1 -0 0
    outer loop
      vertex 0 15 9.02
      vertex 0 0 0
      vertex 0 0 9.02
    endloop
  endfacet
  facet normal -0 0 1
    outer loop
      vertex 0 15 9.02
      vertex 9.02 0 9.02
      vertex 9.02 15 9.02
    endloop
  endfacet
  facet normal 0 0 1
    outer loop
      vertex 9.02 0 9.02
      vertex 0 15 9.02
      vertex 0 0 9.02
    endloop
  endfacet
  facet normal 1 -0 0
    outer loop
      vertex 9.02 0 9.02
      vertex 9.02 15 0
      vertex 9.02 15 9.02
    endloop
  endfacet
  facet normal 1 0 0
    outer loop
      vertex 9.02 15 0
      vertex 9.02 0 9.02
      vertex 9.02 0 0
    endloop
  endfacet
  facet normal 0 1 -0
    outer loop
      vertex 9.02 15 0
      vertex 0 15 9.02
      vertex 9.02 15 9.02
    endloop
  endfacet
  facet normal 0 1 0
    outer loop
      vertex 0 15 9.02
      vertex 9.02 15 0
      vertex 0 15 0
    endloop
  endfacet
  facet normal 0 0 -1
    outer loop
      vertex 0 0 0
      vertex 9.02 15 0
      vertex 9.02 0 0
    endloop
  endfacet
  facet normal -0 0 -1
    outer loop
      vertex 9.02 15 0
      vertex 0 0 0
      vertex 0 15 0
    endloop
  endfacet
  facet normal 0 -1 0
    outer loop
      vertex 0 0 9.02
      vertex 4.5 0 8.07806
      vertex 9.02 0 9.02
    endloop
  endfacet
  facet normal 0 -1 0
    outer loop
      vertex 0 0 9.02
      vertex 4.36586 0 8.07411
      vertex 4.5 0 8.07806
    endloop
  endfacet
  facet normal 0 -1 0
    outer loop
      vertex 0 0 9.02
      vertex 4.32513 0 8.07291
      vertex 4.36586 0 8.07411
    endloop
  endfacet
  facet normal 0 -1 0
    outer loop
      vertex 0 0 9.02
      vertex 4.28835 0 8.06941
      vertex 4.32513 0 8.07291
    endloop
  endfacet
  facet normal 0 -1 0
    outer loop
      vertex 0 0 9.02
      vertex 4.16876 0 8.05804
      vertex 4.28835 0 8.06941
    endloop
  endfacet
  facet normal 0 -1 0
    outer loop
      vertex 0 0 9.02
      vertex 4.04703 0 8.03512
      vertex 4.16876 0 8.05804
    endloop
  endfacet
  facet normal 0 -1 0
    outer loop
      vertex 0 0 9.02
      vertex 3.83837 0 7.98013
      vertex 4.04703 0 8.03512
    endloop
  endfacet
  facet normal 0 -1 0
    outer loop
      vertex 0 0 9.02
      vertex 3.14118 0 7.79639
      vertex 3.83837 0 7.98013
    endloop
  endfacet
  facet normal 0 -1 0
    outer loop
      vertex 0 0 9.02
      vertex 3.09675 0 7.77904
      vertex 3.14118 0 7.79639
    endloop
  endfacet
  facet normal 0 -1 0
    outer loop
      vertex 0 0 9.02
      vertex 2.94058 0 7.71803
      vertex 3.09675 0 7.77904
    endloop
  endfacet
  facet normal 0 -1 0
    outer loop
      vertex 0 0 9.02
      vertex 2.73305 0 7.57455
      vertex 2.94058 0 7.71803
    endloop
  endfacet
  facet normal 0 -1 0
    outer loop
      vertex 0 0 9.02
      vertex 2.03493 0 7.09192
      vertex 2.73305 0 7.57455
    endloop
  endfacet
  facet normal 0 -1 0
    outer loop
      vertex 0 0 9.02
      vertex 1.50492 0 6.37784
      vertex 2.03493 0 7.09192
    endloop
  endfacet
  facet normal 0 -1 0
    outer loop
      vertex 0 0 9.02
      vertex 1.35982 0 6.18234
      vertex 1.50492 0 6.37784
    endloop
  endfacet
  facet normal 0 -1 0
    outer loop
      vertex 0 0 9.02
      vertex 1.28444 0 5.95274
      vertex 1.35982 0 6.18234
    endloop
  endfacet
  facet normal 0 -1 0
    outer loop
      vertex 0 0 9.02
      vertex 0.998924 0 5.08305
      vertex 1.28444 0 5.95274
    endloop
  endfacet
  facet normal 0 -1 0
    outer loop
      vertex 0 0 9.02
      vertex 0.998924 0 3.91695
      vertex 0.998924 0 5.08305
    endloop
  endfacet
  facet normal 0 -1 0
    outer loop
      vertex 0 0 0
      vertex 1.50492 0 2.62216
      vertex 1.35982 0 2.81766
    endloop
  endfacet
  facet normal 0 -1 0
    outer loop
      vertex 0 0 0
      vertex 3.09675 0 1.22096
      vertex 2.94058 0 1.28197
    endloop
  endfacet
  facet normal 0 -1 -0
    outer loop
      vertex 4.36586 0 0.925888
      vertex 0 0 0
      vertex 4.5 0 0.921935
    endloop
  endfacet
  facet normal 0 -1 -0
    outer loop
      vertex 4.32513 0 0.927089
      vertex 0 0 0
      vertex 4.36586 0 0.925888
    endloop
  endfacet
  facet normal 0 -1 -0
    outer loop
      vertex 4.28835 0 0.930587
      vertex 0 0 0
      vertex 4.32513 0 0.927089
    endloop
  endfacet
  facet normal 0 -1 -0
    outer loop
      vertex 4.16876 0 0.941962
      vertex 0 0 0
      vertex 4.28835 0 0.930587
    endloop
  endfacet
  facet normal 0 -1 -0
    outer loop
      vertex 4.04703 0 0.964883
      vertex 0 0 0
      vertex 4.16876 0 0.941962
    endloop
  endfacet
  facet normal 0 -1 -0
    outer loop
      vertex 3.83837 0 1.01987
      vertex 0 0 0
      vertex 4.04703 0 0.964883
    endloop
  endfacet
  facet normal 0 -1 -0
    outer loop
      vertex 3.14118 0 1.20361
      vertex 0 0 0
      vertex 3.83837 0 1.01987
    endloop
  endfacet
  facet normal 0 -1 -0
    outer loop
      vertex 3.09675 0 1.22096
      vertex 0 0 0
      vertex 3.14118 0 1.20361
    endloop
  endfacet
  facet normal 0 -1 -0
    outer loop
      vertex 2.73305 0 1.42545
      vertex 0 0 0
      vertex 2.94058 0 1.28197
    endloop
  endfacet
  facet normal 0 -1 -0
    outer loop
      vertex 2.03493 0 1.90808
      vertex 0 0 0
      vertex 2.73305 0 1.42545
    endloop
  endfacet
  facet normal 0 -1 -0
    outer loop
      vertex 1.50492 0 2.62216
      vertex 0 0 0
      vertex 2.03493 0 1.90808
    endloop
  endfacet
  facet normal 0 -1 -0
    outer loop
      vertex 1.28444 0 3.04726
      vertex 0 0 0
      vertex 1.35982 0 2.81766
    endloop
  endfacet
  facet normal 0 -1 -0
    outer loop
      vertex 0.998924 0 3.91695
      vertex 0 0 0
      vertex 1.28444 0 3.04726
    endloop
  endfacet
  facet normal 0 -1 0
    outer loop
      vertex 0 0 0
      vertex 0.998924 0 3.91695
      vertex 0 0 9.02
    endloop
  endfacet
  facet normal 0 -1 0
    outer loop
      vertex 4.63414 0 8.07411
      vertex 9.02 0 9.02
      vertex 4.5 0 8.07806
    endloop
  endfacet
  facet normal 0 -1 0
    outer loop
      vertex 4.67487 0 8.07291
      vertex 9.02 0 9.02
      vertex 4.63414 0 8.07411
    endloop
  endfacet
  facet normal 0 -1 0
    outer loop
      vertex 4.71164 0 8.06941
      vertex 9.02 0 9.02
      vertex 4.67487 0 8.07291
    endloop
  endfacet
  facet normal 0 -1 0
    outer loop
      vertex 4.83124 0 8.05804
      vertex 9.02 0 9.02
      vertex 4.71164 0 8.06941
    endloop
  endfacet
  facet normal 0 -1 0
    outer loop
      vertex 4.95297 0 8.03512
      vertex 9.02 0 9.02
      vertex 4.83124 0 8.05804
    endloop
  endfacet
  facet normal 0 -1 0
    outer loop
      vertex 5.16163 0 7.98013
      vertex 9.02 0 9.02
      vertex 4.95297 0 8.03512
    endloop
  endfacet
  facet normal 0 -1 0
    outer loop
      vertex 5.85882 0 7.79639
      vertex 9.02 0 9.02
      vertex 5.16163 0 7.98013
    endloop
  endfacet
  facet normal 0 -1 0
    outer loop
      vertex 5.90325 0 7.77904
      vertex 9.02 0 9.02
      vertex 5.85882 0 7.79639
    endloop
  endfacet
  facet normal 0 -1 0
    outer loop
      vertex 6.05942 0 7.71803
      vertex 9.02 0 9.02
      vertex 5.90325 0 7.77904
    endloop
  endfacet
  facet normal 0 -1 0
    outer loop
      vertex 6.26695 0 7.57455
      vertex 9.02 0 9.02
      vertex 6.05942 0 7.71803
    endloop
  endfacet
  facet normal 0 -1 0
    outer loop
      vertex 6.96507 0 7.09192
      vertex 9.02 0 9.02
      vertex 6.26695 0 7.57455
    endloop
  endfacet
  facet normal 0 -1 0
    outer loop
      vertex 7.49508 0 6.37784
      vertex 9.02 0 9.02
      vertex 6.96507 0 7.09192
    endloop
  endfacet
  facet normal 0 -1 0
    outer loop
      vertex 7.64018 0 6.18234
      vertex 9.02 0 9.02
      vertex 7.49508 0 6.37784
    endloop
  endfacet
  facet normal 0 -1 0
    outer loop
      vertex 7.92613 0 5.31133
      vertex 9.02 0 9.02
      vertex 7.64018 0 6.18234
    endloop
  endfacet
  facet normal 0 -1 0
    outer loop
      vertex 8.00108 0 5.08305
      vertex 9.02 0 9.02
      vertex 7.92613 0 5.31133
    endloop
  endfacet
  facet normal 0 -1 0
    outer loop
      vertex 8.00108 0 3.91695
      vertex 9.02 0 9.02
      vertex 8.00108 0 5.08305
    endloop
  endfacet
  facet normal 0 -1 0
    outer loop
      vertex 9.02 0 0
      vertex 7.49508 0 2.62216
      vertex 6.96507 0 1.90808
    endloop
  endfacet
  facet normal 0 -1 0
    outer loop
      vertex 9.02 0 0
      vertex 6.26695 0 1.42545
      vertex 6.05942 0 1.28197
    endloop
  endfacet
  facet normal 0 -1 0
    outer loop
      vertex 9.02 0 0
      vertex 4.5 0 0.921935
      vertex 0 0 0
    endloop
  endfacet
  facet normal 0 -1 0
    outer loop
      vertex 4.5 0 0.921935
      vertex 9.02 0 0
      vertex 4.63414 0 0.925888
    endloop
  endfacet
  facet normal 0 -1 0
    outer loop
      vertex 4.63414 0 0.925888
      vertex 9.02 0 0
      vertex 4.67487 0 0.927089
    endloop
  endfacet
  facet normal 0 -1 0
    outer loop
      vertex 4.67487 0 0.927089
      vertex 9.02 0 0
      vertex 4.71164 0 0.930587
    endloop
  endfacet
  facet normal 0 -1 0
    outer loop
      vertex 4.71164 0 0.930587
      vertex 9.02 0 0
      vertex 4.83124 0 0.941962
    endloop
  endfacet
  facet normal 0 -1 0
    outer loop
      vertex 8.00108 0 3.91695
      vertex 9.02 0 0
      vertex 9.02 0 9.02
    endloop
  endfacet
  facet normal 0 -1 0
    outer loop
      vertex 7.92613 0 3.68867
      vertex 9.02 0 0
      vertex 8.00108 0 3.91695
    endloop
  endfacet
  facet normal 0 -1 0
    outer loop
      vertex 7.64018 0 2.81766
      vertex 9.02 0 0
      vertex 7.92613 0 3.68867
    endloop
  endfacet
  facet normal 0 -1 0
    outer loop
      vertex 7.49508 0 2.62216
      vertex 9.02 0 0
      vertex 7.64018 0 2.81766
    endloop
  endfacet
  facet normal 0 -1 0
    outer loop
      vertex 6.26695 0 1.42545
      vertex 9.02 0 0
      vertex 6.96507 0 1.90808
    endloop
  endfacet
  facet normal 0 -1 0
    outer loop
      vertex 5.90325 0 1.22096
      vertex 9.02 0 0
      vertex 6.05942 0 1.28197
    endloop
  endfacet
  facet normal 0 -1 0
    outer loop
      vertex 5.85882 0 1.20361
      vertex 9.02 0 0
      vertex 5.90325 0 1.22096
    endloop
  endfacet
  facet normal 0 -1 0
    outer loop
      vertex 5.16163 0 1.01987
      vertex 9.02 0 0
      vertex 5.85882 0 1.20361
    endloop
  endfacet
  facet normal 0 -1 0
    outer loop
      vertex 4.95297 0 0.964883
      vertex 9.02 0 0
      vertex 5.16163 0 1.01987
    endloop
  endfacet
  facet normal 0 -1 0
    outer loop
      vertex 4.83124 0 0.941962
      vertex 9.02 0 0
      vertex 4.95297 0 0.964883
    endloop
  endfacet
  facet normal 0.789829 -0.180276 -0.586234
    outer loop
      vertex 3.155 8.73702 5.91421
      vertex 2.03493 0 7.09192
      vertex 1.50492 0 6.37784
    endloop
  endfacet
  facet normal 0.84839 -0.432276 -0.305569
    outer loop
      vertex 2.90189 9.4611 4.81287
      vertex 2.8052 8.85067 5.40798
      vertex 2.6213 8.91042 4.81287
    endloop
  endfacet
  facet normal -0.673286 -0.673286 0.30557
    outer loop
      vertex 5.54744 9.74168 3.59202
      vertex 6.09811 9.4611 4.18713
      vertex 5.6611 9.89811 4.18713
    endloop
  endfacet
  facet normal -0.673286 -0.673286 0.30557
    outer loop
      vertex 6.09811 9.4611 4.18713
      vertex 5.54744 9.74168 3.59202
      vertex 5.94168 9.34744 3.59202
    endloop
  endfacet
  facet normal -0.368849 -0.723906 -0.583019
    outer loop
      vertex 5.54744 9.74168 5.40798
      vertex 5.33125 9.44412 5.91421
      vertex 4.93702 9.645 5.91421
    endloop
  endfacet
  facet normal -0.983825 -0.179132 0
    outer loop
      vertex 8.00108 0 3.91695
      vertex 6.37869 8.91042 4.81287
      vertex 6.37869 8.91042 4.18713
    endloop
  endfacet
  facet normal -0.983825 -0.179132 0
    outer loop
      vertex 6.37869 8.91042 4.81287
      vertex 8.00108 0 3.91695
      vertex 8.00108 0 5.08305
    endloop
  endfacet
  facet normal 0.574495 -0.574495 -0.583019
    outer loop
      vertex 3.35588 9.13125 5.91421
      vertex 3.45256 9.74168 5.40798
      vertex 3.66875 9.44412 5.91421
    endloop
  endfacet
  facet normal 0.574495 -0.574495 -0.583019
    outer loop
      vertex 3.45256 9.74168 5.40798
      vertex 3.35588 9.13125 5.91421
      vertex 3.05832 9.34744 5.40798
    endloop
  endfacet
  facet normal -0.250637 -0.180753 -0.951057
    outer loop
      vertex 4.75312 8.4839 6.47538
      vertex 5.16163 0 7.98013
      vertex 4.95297 0 8.03512
    endloop
  endfacet
  facet normal -0.25064 -0.180753 -0.951056
    outer loop
      vertex 5.16163 0 7.98013
      vertex 4.75312 8.4839 6.47538
      vertex 5.23457 8.8337 6.28201
    endloop
  endfacet
  facet normal -0.357764 -0.182287 -0.915847
    outer loop
      vertex 5.85882 0 7.79639
      vertex 5.36354 8.58058 6.28201
      vertex 5.90325 0 7.77904
    endloop
  endfacet
  facet normal -0.35776 -0.182287 -0.915849
    outer loop
      vertex 5.36354 8.58058 6.28201
      vertex 5.85882 0 7.79639
      vertex 5.23457 8.8337 6.28201
    endloop
  endfacet
  facet normal -0.723906 -0.368849 -0.583019
    outer loop
      vertex 5.94168 9.34744 5.40798
      vertex 6.19479 8.85067 5.40798
      vertex 5.845 8.73702 5.91421
    endloop
  endfacet
  facet normal -0.148952 -0.940447 -0.30557
    outer loop
      vertex 5.11042 10.1787 4.81287
      vertex 5.05067 9.99479 5.40798
      vertex 4.5 10.2754 4.81287
    endloop
  endfacet
  facet normal 0.14187 -0.278434 -0.94992
    outer loop
      vertex 4.21942 9.16354 6.28201
      vertex 4.3161 8.55312 6.47538
      vertex 3.9663 9.03457 6.28201
    endloop
  endfacet
  facet normal -0.789829 -0.180276 0.586234
    outer loop
      vertex 6.96507 0 1.90808
      vertex 7.49508 0 2.62216
      vertex 5.845 8.73702 3.08579
    endloop
  endfacet
  facet normal 0.789829 -0.180276 0.586234
    outer loop
      vertex 2.03493 0 1.90808
      vertex 3.155 8.73702 3.08579
      vertex 1.50492 0 2.62216
    endloop
  endfacet
  facet normal -0.934679 -0.179488 -0.306853
    outer loop
      vertex 8.00108 0 5.08305
      vertex 6.19479 8.85067 5.40798
      vertex 6.37869 8.91042 4.81287
    endloop
  endfacet
  facet normal -0.934679 -0.179488 -0.306853
    outer loop
      vertex 6.19479 8.85067 5.40798
      vertex 8.00108 0 5.08305
      vertex 7.92613 0 5.31133
    endloop
  endfacet
  facet normal 0.891007 -0.45399 0
    outer loop
      vertex 2.6213 8.91042 4.81287
      vertex 2.90189 9.4611 4.18713
      vertex 2.90189 9.4611 4.81287
    endloop
  endfacet
  facet normal 0.891007 -0.45399 0
    outer loop
      vertex 2.90189 9.4611 4.18713
      vertex 2.6213 8.91042 4.81287
      vertex 2.6213 8.91042 4.18713
    endloop
  endfacet
  facet normal -0.723906 -0.368849 0.583019
    outer loop
      vertex 6.19479 8.85067 3.59202
      vertex 5.94168 9.34744 3.59202
      vertex 5.845 8.73702 3.08579
    endloop
  endfacet
  facet normal -0.559304 -0.180753 -0.809016
    outer loop
      vertex 5.36354 8.58058 6.28201
      vertex 6.26695 0 7.57455
      vertex 6.05942 0 7.71803
    endloop
  endfacet
  facet normal -0.559304 -0.180753 -0.809017
    outer loop
      vertex 6.26695 0 7.57455
      vertex 5.36354 8.58058 6.28201
      vertex 5.845 8.73702 5.91421
    endloop
  endfacet
  facet normal -0.418996 -0.418996 -0.805534
    outer loop
      vertex 5.23457 8.8337 6.28201
      vertex 5.33125 9.44412 5.91421
      vertex 5.64412 9.13125 5.91421
    endloop
  endfacet
  facet normal -0.418996 -0.418996 -0.805534
    outer loop
      vertex 5.33125 9.44412 5.91421
      vertex 5.23457 8.8337 6.28201
      vertex 5.0337 9.03457 6.28201
    endloop
  endfacet
  facet normal 0.934679 -0.179488 -0.306854
    outer loop
      vertex 1.28444 0 5.95274
      vertex 2.8052 8.85067 5.40798
      vertex 1.35982 0 6.18234
    endloop
  endfacet
  facet normal 0.934679 -0.179488 -0.306853
    outer loop
      vertex 2.8052 8.85067 5.40798
      vertex 1.28444 0 5.95274
      vertex 2.6213 8.91042 4.81287
    endloop
  endfacet
  facet normal 0.559304 -0.180753 -0.809017
    outer loop
      vertex 3.155 8.73702 5.91421
      vertex 2.73305 0 7.57455
      vertex 2.03493 0 7.09192
    endloop
  endfacet
  facet normal -0.0289669 -0.182864 -0.982711
    outer loop
      vertex 4.5 8.61287 6.47538
      vertex 4.63414 0 8.07411
      vertex 4.5 0 8.07806
    endloop
  endfacet
  facet normal 0.983825 -0.179132 0
    outer loop
      vertex 0.998924 0 5.08305
      vertex 2.6213 8.91042 4.18713
      vertex 2.6213 8.91042 4.81287
    endloop
  endfacet
  facet normal 0.983825 -0.179132 0
    outer loop
      vertex 2.6213 8.91042 4.18713
      vertex 0.998924 0 5.08305
      vertex 0.998924 0 3.91695
    endloop
  endfacet
  facet normal 0.127097 -0.802456 -0.583019
    outer loop
      vertex 4.5 9.71421 5.91421
      vertex 4.06298 9.645 5.91421
      vertex 3.94933 9.99479 5.40798
    endloop
  endfacet
  facet normal 0.723906 -0.368849 -0.583019
    outer loop
      vertex 3.05832 9.34744 5.40798
      vertex 3.155 8.73702 5.91421
      vertex 2.8052 8.85067 5.40798
    endloop
  endfacet
  facet normal 0.127097 -0.802456 0.583019
    outer loop
      vertex 4.06298 9.645 3.08579
      vertex 4.5 9.71421 3.08579
      vertex 3.94933 9.99479 3.59202
    endloop
  endfacet
  facet normal 0.432276 -0.848389 -0.30557
    outer loop
      vertex 3.94933 9.99479 5.40798
      vertex 3.45256 9.74168 5.40798
      vertex 3.3389 9.89811 4.81287
    endloop
  endfacet
  facet normal 0.673286 -0.673286 0.30557
    outer loop
      vertex 2.90189 9.4611 4.18713
      vertex 3.45256 9.74168 3.59202
      vertex 3.3389 9.89811 4.18713
    endloop
  endfacet
  facet normal 0.673286 -0.673286 0.30557
    outer loop
      vertex 3.45256 9.74168 3.59202
      vertex 2.90189 9.4611 4.18713
      vertex 3.05832 9.34744 3.59202
    endloop
  endfacet
  facet normal -0.559303 -0.180753 -0.809017
    outer loop
      vertex 6.96507 0 7.09192
      vertex 6.26695 0 7.57455
      vertex 5.845 8.73702 5.91421
    endloop
  endfacet
  facet normal -0.418996 -0.418996 0.805534
    outer loop
      vertex 5.33125 9.44412 3.08579
      vertex 5.23457 8.8337 2.71799
      vertex 5.64412 9.13125 3.08579
    endloop
  endfacet
  facet normal -0.418996 -0.418996 0.805534
    outer loop
      vertex 5.23457 8.8337 2.71799
      vertex 5.33125 9.44412 3.08579
      vertex 5.0337 9.03457 2.71799
    endloop
  endfacet
  facet normal -0.891007 -0.45399 0
    outer loop
      vertex 6.37869 8.91042 4.18713
      vertex 6.09811 9.4611 4.81287
      vertex 6.09811 9.4611 4.18713
    endloop
  endfacet
  facet normal -0.891007 -0.45399 0
    outer loop
      vertex 6.09811 9.4611 4.81287
      vertex 6.37869 8.91042 4.18713
      vertex 6.37869 8.91042 4.81287
    endloop
  endfacet
  facet normal -0.84839 -0.432276 -0.305569
    outer loop
      vertex 6.37869 8.91042 4.81287
      vertex 6.19479 8.85067 5.40798
      vertex 6.09811 9.4611 4.81287
    endloop
  endfacet
  facet normal 0.723906 -0.368849 0.583019
    outer loop
      vertex 3.155 8.73702 3.08579
      vertex 3.05832 9.34744 3.59202
      vertex 2.8052 8.85067 3.59202
    endloop
  endfacet
  facet normal 0.934679 -0.179488 0.306853
    outer loop
      vertex 1.28444 0 3.04726
      vertex 2.6213 8.91042 4.18713
      vertex 0.998924 0 3.91695
    endloop
  endfacet
  facet normal -0.559304 -0.180753 0.809017
    outer loop
      vertex 5.36354 8.58058 2.71799
      vertex 6.26695 0 1.42545
      vertex 5.845 8.73702 3.08579
    endloop
  endfacet
  facet normal -0.559304 -0.180753 0.809016
    outer loop
      vertex 6.26695 0 1.42545
      vertex 5.36354 8.58058 2.71799
      vertex 6.05942 0 1.28197
    endloop
  endfacet
  facet normal -0.156434 -0.987688 0
    outer loop
      vertex 4.5 10.2754 4.18713
      vertex 5.11042 10.1787 4.81287
      vertex 4.5 10.2754 4.81287
    endloop
  endfacet
  facet normal -0.156434 -0.987688 -0
    outer loop
      vertex 5.11042 10.1787 4.81287
      vertex 4.5 10.2754 4.18713
      vertex 5.11042 10.1787 4.18713
    endloop
  endfacet
  facet normal 0.148951 -0.940447 0.30557
    outer loop
      vertex 4.5 10.082 3.59202
      vertex 4.5 10.2754 4.18713
      vertex 3.94933 9.99479 3.59202
    endloop
  endfacet
  facet normal -0.0488844 -0.308647 -0.94992
    outer loop
      vertex 4.5 9.20798 6.28201
      vertex 4.78058 9.16354 6.28201
      vertex 4.5 8.61287 6.47538
    endloop
  endfacet
  facet normal 0.35776 -0.182287 -0.915849
    outer loop
      vertex 3.14118 0 7.79639
      vertex 3.63646 8.58058 6.28201
      vertex 3.76543 8.8337 6.28201
    endloop
  endfacet
  facet normal 0.357767 -0.182287 -0.915846
    outer loop
      vertex 3.63646 8.58058 6.28201
      vertex 3.14118 0 7.79639
      vertex 3.09675 0 7.77904
    endloop
  endfacet
  facet normal 0.559303 -0.180753 -0.809017
    outer loop
      vertex 2.73305 0 7.57455
      vertex 3.63646 8.58058 6.28201
      vertex 2.94058 0 7.71803
    endloop
  endfacet
  facet normal 0.559304 -0.180753 -0.809017
    outer loop
      vertex 3.63646 8.58058 6.28201
      vertex 2.73305 0 7.57455
      vertex 3.155 8.73702 5.91421
    endloop
  endfacet
  facet normal 0.148952 -0.940447 0.30557
    outer loop
      vertex 3.94933 9.99479 3.59202
      vertex 4.5 10.2754 4.18713
      vertex 3.88958 10.1787 4.18713
    endloop
  endfacet
  facet normal 0.0926954 -0.585255 -0.805534
    outer loop
      vertex 4.5 9.71421 5.91421
      vertex 4.21942 9.16354 6.28201
      vertex 4.06298 9.645 5.91421
    endloop
  endfacet
  facet normal 0.78983 -0.180276 -0.586233
    outer loop
      vertex 1.35982 0 6.18234
      vertex 3.155 8.73702 5.91421
      vertex 1.50492 0 6.37784
    endloop
  endfacet
  facet normal 0.789829 -0.180276 -0.586234
    outer loop
      vertex 3.155 8.73702 5.91421
      vertex 1.35982 0 6.18234
      vertex 2.8052 8.85067 5.40798
    endloop
  endfacet
  facet normal -0.559303 -0.180753 0.809017
    outer loop
      vertex 6.26695 0 1.42545
      vertex 6.96507 0 1.90808
      vertex 5.845 8.73702 3.08579
    endloop
  endfacet
  facet normal -0.14187 -0.278434 0.94992
    outer loop
      vertex 5.0337 9.03457 2.71799
      vertex 4.78058 9.16354 2.71799
      vertex 4.6839 8.55312 2.52462
    endloop
  endfacet
  facet normal -0.141869 -0.278434 0.94992
    outer loop
      vertex 4.6839 8.55312 2.52462
      vertex 4.78058 9.16354 2.71799
      vertex 4.59668 8.59756 2.52462
    endloop
  endfacet
  facet normal 0.559304 -0.180753 0.809016
    outer loop
      vertex 2.73305 0 1.42545
      vertex 3.155 8.73702 3.08579
      vertex 2.03493 0 1.90808
    endloop
  endfacet
  facet normal -0.527966 -0.269012 -0.805534
    outer loop
      vertex 5.845 8.73702 5.91421
      vertex 5.36354 8.58058 6.28201
      vertex 5.23457 8.8337 6.28201
    endloop
  endfacet
  facet normal -0.934679 -0.179488 -0.306854
    outer loop
      vertex 7.92613 0 5.31133
      vertex 7.64018 0 6.18234
      vertex 6.19479 8.85067 5.40798
    endloop
  endfacet
  facet normal -0.84839 -0.432276 0.305569
    outer loop
      vertex 6.19479 8.85067 3.59202
      vertex 6.37869 8.91042 4.18713
      vertex 6.09811 9.4611 4.18713
    endloop
  endfacet
  facet normal -0.707107 -0.707107 0
    outer loop
      vertex 6.09811 9.4611 4.18713
      vertex 5.6611 9.89811 4.81287
      vertex 5.6611 9.89811 4.18713
    endloop
  endfacet
  facet normal -0.707107 -0.707107 0
    outer loop
      vertex 5.6611 9.89811 4.81287
      vertex 6.09811 9.4611 4.18713
      vertex 6.09811 9.4611 4.81287
    endloop
  endfacet
  facet normal -0.934679 -0.179488 0.306853
    outer loop
      vertex 8.00108 0 3.91695
      vertex 6.19479 8.85067 3.59202
      vertex 7.92613 0 3.68867
    endloop
  endfacet
  facet normal -0.934679 -0.179488 0.306853
    outer loop
      vertex 6.19479 8.85067 3.59202
      vertex 8.00108 0 3.91695
      vertex 6.37869 8.91042 4.18713
    endloop
  endfacet
  facet normal -0.934679 -0.179488 0.306853
    outer loop
      vertex 7.64018 0 2.81766
      vertex 7.92613 0 3.68867
      vertex 6.19479 8.85067 3.59202
    endloop
  endfacet
  facet normal -0.789829 -0.180276 0.586234
    outer loop
      vertex 7.64018 0 2.81766
      vertex 5.845 8.73702 3.08579
      vertex 7.49508 0 2.62216
    endloop
  endfacet
  facet normal -0.789829 -0.180276 0.586234
    outer loop
      vertex 5.845 8.73702 3.08579
      vertex 7.64018 0 2.81766
      vertex 6.19479 8.85067 3.59202
    endloop
  endfacet
  facet normal -0.673286 -0.673286 -0.30557
    outer loop
      vertex 6.09811 9.4611 4.81287
      vertex 5.54744 9.74168 5.40798
      vertex 5.6611 9.89811 4.81287
    endloop
  endfacet
  facet normal -0.673286 -0.673286 -0.30557
    outer loop
      vertex 5.54744 9.74168 5.40798
      vertex 6.09811 9.4611 4.81287
      vertex 5.94168 9.34744 5.40798
    endloop
  endfacet
  facet normal 0.527966 -0.269012 0.805534
    outer loop
      vertex 3.76543 8.8337 2.71799
      vertex 3.35588 9.13125 3.08579
      vertex 3.155 8.73702 3.08579
    endloop
  endfacet
  facet normal 0.156434 -0.987688 0
    outer loop
      vertex 3.88958 10.1787 4.18713
      vertex 4.5 10.2754 4.81287
      vertex 3.88958 10.1787 4.81287
    endloop
  endfacet
  facet normal 0.156434 -0.987688 0
    outer loop
      vertex 4.5 10.2754 4.81287
      vertex 3.88958 10.1787 4.18713
      vertex 4.5 10.2754 4.18713
    endloop
  endfacet
  facet normal 0.0289668 -0.182864 -0.982711
    outer loop
      vertex 4.5 8.61287 6.47538
      vertex 4.5 0 8.07806
      vertex 4.36586 0 8.07411
    endloop
  endfacet
  facet normal -0.141869 -0.278434 -0.94992
    outer loop
      vertex 4.78058 9.16354 6.28201
      vertex 4.6839 8.55312 6.47538
      vertex 4.59668 8.59756 6.47538
    endloop
  endfacet
  facet normal 0.093096 -0.182711 -0.978749
    outer loop
      vertex 4.3161 8.55312 6.47538
      vertex 4.28835 0 8.06941
      vertex 4.16876 0 8.05804
    endloop
  endfacet
  facet normal 0.148952 -0.940447 -0.30557
    outer loop
      vertex 4.5 10.2754 4.81287
      vertex 3.94933 9.99479 5.40798
      vertex 3.88958 10.1787 4.81287
    endloop
  endfacet
  facet normal 0.673286 -0.673286 -0.30557
    outer loop
      vertex 3.45256 9.74168 5.40798
      vertex 2.90189 9.4611 4.81287
      vertex 3.3389 9.89811 4.81287
    endloop
  endfacet
  facet normal 0.673286 -0.673286 -0.30557
    outer loop
      vertex 2.90189 9.4611 4.81287
      vertex 3.45256 9.74168 5.40798
      vertex 3.05832 9.34744 5.40798
    endloop
  endfacet
  facet normal 0.368849 -0.723906 0.583019
    outer loop
      vertex 4.06298 9.645 3.08579
      vertex 3.94933 9.99479 3.59202
      vertex 3.45256 9.74168 3.59202
    endloop
  endfacet
  facet normal 0.357759 -0.182287 -0.915849
    outer loop
      vertex 3.63646 8.58058 6.28201
      vertex 3.09675 0 7.77904
      vertex 2.94058 0 7.71803
    endloop
  endfacet
  facet normal 0.269013 -0.527966 -0.805534
    outer loop
      vertex 4.21942 9.16354 6.28201
      vertex 3.9663 9.03457 6.28201
      vertex 3.66875 9.44412 5.91421
    endloop
  endfacet
  facet normal 0.25064 -0.180753 0.951056
    outer loop
      vertex 3.83837 0 1.01987
      vertex 3.76543 8.8337 2.71799
      vertex 3.14118 0 1.20361
    endloop
  endfacet
  facet normal 0.25064 -0.180753 0.951056
    outer loop
      vertex 4.24688 8.4839 2.52462
      vertex 3.83837 0 1.01987
      vertex 4.04703 0 0.964883
    endloop
  endfacet
  facet normal 0.25064 -0.180753 0.951056
    outer loop
      vertex 3.83837 0 1.01987
      vertex 4.24688 8.4839 2.52462
      vertex 3.76543 8.8337 2.71799
    endloop
  endfacet
  facet normal 0.0289628 -0.182864 0.982712
    outer loop
      vertex 4.5 0 0.921935
      vertex 4.5 8.61287 2.52462
      vertex 4.36586 0 0.925888
    endloop
  endfacet
  facet normal -0.25064 -0.180753 0.951056
    outer loop
      vertex 4.75312 8.4839 2.52462
      vertex 5.16163 0 1.01987
      vertex 5.23457 8.8337 2.71799
    endloop
  endfacet
  facet normal -0.25064 -0.180753 0.951056
    outer loop
      vertex 5.16163 0 1.01987
      vertex 4.75312 8.4839 2.52462
      vertex 4.95297 0 0.964883
    endloop
  endfacet
  facet normal 0.0488843 -0.308647 0.94992
    outer loop
      vertex 4.5 8.61287 2.52462
      vertex 4.5 9.20798 2.71799
      vertex 4.21942 9.16354 2.71799
    endloop
  endfacet
  facet normal 0.789829 -0.180276 0.586234
    outer loop
      vertex 1.35982 0 2.81766
      vertex 3.155 8.73702 3.08579
      vertex 2.8052 8.85067 3.59202
    endloop
  endfacet
  facet normal 0.789829 -0.180276 0.586234
    outer loop
      vertex 3.155 8.73702 3.08579
      vertex 1.35982 0 2.81766
      vertex 1.50492 0 2.62216
    endloop
  endfacet
  facet normal 0.934679 -0.179488 0.306853
    outer loop
      vertex 1.28444 0 3.04726
      vertex 2.8052 8.85067 3.59202
      vertex 2.6213 8.91042 4.18713
    endloop
  endfacet
  facet normal 0.934679 -0.179488 0.306853
    outer loop
      vertex 2.8052 8.85067 3.59202
      vertex 1.28444 0 3.04726
      vertex 1.35982 0 2.81766
    endloop
  endfacet
  facet normal -0.432276 -0.848389 0.30557
    outer loop
      vertex 5.54744 9.74168 3.59202
      vertex 5.6611 9.89811 4.18713
      vertex 5.05067 9.99479 3.59202
    endloop
  endfacet
  facet normal -0.35776 -0.182287 0.915849
    outer loop
      vertex 5.90325 0 1.22096
      vertex 6.05942 0 1.28197
      vertex 5.36354 8.58058 2.71799
    endloop
  endfacet
  facet normal 0.559304 -0.180753 0.809017
    outer loop
      vertex 2.73305 0 1.42545
      vertex 3.63646 8.58058 2.71799
      vertex 3.155 8.73702 3.08579
    endloop
  endfacet
  facet normal 0.559303 -0.180753 0.809017
    outer loop
      vertex 3.63646 8.58058 2.71799
      vertex 2.73305 0 1.42545
      vertex 2.94058 0 1.28197
    endloop
  endfacet
  facet normal 0.527966 -0.269012 0.805534
    outer loop
      vertex 3.63646 8.58058 2.71799
      vertex 3.76543 8.8337 2.71799
      vertex 3.155 8.73702 3.08579
    endloop
  endfacet
  facet normal -0.250641 -0.180753 -0.951056
    outer loop
      vertex 5.23457 8.8337 6.28201
      vertex 5.85882 0 7.79639
      vertex 5.16163 0 7.98013
    endloop
  endfacet
  facet normal -0.789829 -0.180276 -0.586234
    outer loop
      vertex 7.49508 0 6.37784
      vertex 6.96507 0 7.09192
      vertex 5.845 8.73702 5.91421
    endloop
  endfacet
  facet normal -0.789829 -0.180276 -0.586234
    outer loop
      vertex 7.64018 0 6.18234
      vertex 5.845 8.73702 5.91421
      vertex 6.19479 8.85067 5.40798
    endloop
  endfacet
  facet normal -0.78983 -0.180276 -0.586233
    outer loop
      vertex 5.845 8.73702 5.91421
      vertex 7.64018 0 6.18234
      vertex 7.49508 0 6.37784
    endloop
  endfacet
  facet normal 0.368849 -0.723906 -0.583019
    outer loop
      vertex 3.94933 9.99479 5.40798
      vertex 4.06298 9.645 5.91421
      vertex 3.45256 9.74168 5.40798
    endloop
  endfacet
  facet normal 0.269012 -0.527966 -0.805533
    outer loop
      vertex 4.06298 9.645 5.91421
      vertex 4.21942 9.16354 6.28201
      vertex 3.66875 9.44412 5.91421
    endloop
  endfacet
  facet normal -0.0926943 -0.585254 -0.805534
    outer loop
      vertex 4.5 9.71421 5.91421
      vertex 4.78058 9.16354 6.28201
      vertex 4.5 9.20798 6.28201
    endloop
  endfacet
  facet normal -0.848389 -0.432276 -0.30557
    outer loop
      vertex 6.09811 9.4611 4.81287
      vertex 6.19479 8.85067 5.40798
      vertex 5.94168 9.34744 5.40798
    endloop
  endfacet
  facet normal -0.848389 -0.432276 0.30557
    outer loop
      vertex 6.19479 8.85067 3.59202
      vertex 6.09811 9.4611 4.18713
      vertex 5.94168 9.34744 3.59202
    endloop
  endfacet
  facet normal -0.432276 -0.848389 -0.30557
    outer loop
      vertex 5.6611 9.89811 4.81287
      vertex 5.54744 9.74168 5.40798
      vertex 5.05067 9.99479 5.40798
    endloop
  endfacet
  facet normal 0.934679 -0.179488 -0.306853
    outer loop
      vertex 2.6213 8.91042 4.81287
      vertex 1.28444 0 5.95274
      vertex 0.998924 0 5.08305
    endloop
  endfacet
  facet normal 0.148951 -0.940447 -0.30557
    outer loop
      vertex 4.5 10.2754 4.81287
      vertex 4.5 10.082 5.40798
      vertex 3.94933 9.99479 5.40798
    endloop
  endfacet
  facet normal 0.127096 -0.802457 -0.583018
    outer loop
      vertex 4.5 10.082 5.40798
      vertex 4.5 9.71421 5.91421
      vertex 3.94933 9.99479 5.40798
    endloop
  endfacet
  facet normal 0.848389 -0.432276 -0.30557
    outer loop
      vertex 2.90189 9.4611 4.81287
      vertex 3.05832 9.34744 5.40798
      vertex 2.8052 8.85067 5.40798
    endloop
  endfacet
  facet normal 0.432276 -0.84839 -0.305569
    outer loop
      vertex 3.88958 10.1787 4.81287
      vertex 3.94933 9.99479 5.40798
      vertex 3.3389 9.89811 4.81287
    endloop
  endfacet
  facet normal 0.250641 -0.180753 -0.951056
    outer loop
      vertex 3.76543 8.8337 6.28201
      vertex 3.83837 0 7.98013
      vertex 3.14118 0 7.79639
    endloop
  endfacet
  facet normal 0.181943 -0.181943 -0.96633
    outer loop
      vertex 4.16876 0 8.05804
      vertex 4.24688 8.4839 6.47538
      vertex 4.3161 8.55312 6.47538
    endloop
  endfacet
  facet normal 0.18195 -0.181943 -0.966329
    outer loop
      vertex 4.24688 8.4839 6.47538
      vertex 4.16876 0 8.05804
      vertex 4.04703 0 8.03512
    endloop
  endfacet
  facet normal 0.35776 -0.182287 0.915849
    outer loop
      vertex 3.09675 0 1.22096
      vertex 3.63646 8.58058 2.71799
      vertex 2.94058 0 1.28197
    endloop
  endfacet
  facet normal 0.35776 -0.182287 0.915849
    outer loop
      vertex 3.63646 8.58058 2.71799
      vertex 3.14118 0 1.20361
      vertex 3.76543 8.8337 2.71799
    endloop
  endfacet
  facet normal 0.35776 -0.182287 0.915849
    outer loop
      vertex 3.14118 0 1.20361
      vertex 3.63646 8.58058 2.71799
      vertex 3.09675 0 1.22096
    endloop
  endfacet
  facet normal 0.14187 -0.278434 0.94992
    outer loop
      vertex 4.3161 8.55312 2.52462
      vertex 4.21942 9.16354 2.71799
      vertex 3.9663 9.03457 2.71799
    endloop
  endfacet
  facet normal -0.028963 -0.182864 0.982712
    outer loop
      vertex 4.63414 0 0.925888
      vertex 4.5 8.61287 2.52462
      vertex 4.5 0 0.921935
    endloop
  endfacet
  facet normal 0.432276 -0.848389 0.30557
    outer loop
      vertex 3.45256 9.74168 3.59202
      vertex 3.94933 9.99479 3.59202
      vertex 3.3389 9.89811 4.18713
    endloop
  endfacet
  facet normal 0.84839 -0.432276 0.305569
    outer loop
      vertex 2.8052 8.85067 3.59202
      vertex 2.90189 9.4611 4.18713
      vertex 2.6213 8.91042 4.18713
    endloop
  endfacet
  facet normal -0.527966 -0.269012 0.805534
    outer loop
      vertex 5.845 8.73702 3.08579
      vertex 5.64412 9.13125 3.08579
      vertex 5.23457 8.8337 2.71799
    endloop
  endfacet
  facet normal -0.25064 -0.180753 0.951056
    outer loop
      vertex 5.85882 0 1.20361
      vertex 5.23457 8.8337 2.71799
      vertex 5.16163 0 1.01987
    endloop
  endfacet
  facet normal 0.418996 -0.418996 0.805534
    outer loop
      vertex 3.66875 9.44412 3.08579
      vertex 3.76543 8.8337 2.71799
      vertex 3.9663 9.03457 2.71799
    endloop
  endfacet
  facet normal 0.418996 -0.418996 0.805534
    outer loop
      vertex 3.76543 8.8337 2.71799
      vertex 3.66875 9.44412 3.08579
      vertex 3.35588 9.13125 3.08579
    endloop
  endfacet
  facet normal 0.220967 -0.220967 0.94992
    outer loop
      vertex 3.9663 9.03457 2.71799
      vertex 4.24688 8.4839 2.52462
      vertex 4.3161 8.55312 2.52462
    endloop
  endfacet
  facet normal 0.220967 -0.220967 0.94992
    outer loop
      vertex 4.24688 8.4839 2.52462
      vertex 3.9663 9.03457 2.71799
      vertex 3.76543 8.8337 2.71799
    endloop
  endfacet
  facet normal 0.269013 -0.527966 0.805534
    outer loop
      vertex 3.9663 9.03457 2.71799
      vertex 4.21942 9.16354 2.71799
      vertex 3.66875 9.44412 3.08579
    endloop
  endfacet
  facet normal -0.127096 -0.802457 0.583018
    outer loop
      vertex 5.05067 9.99479 3.59202
      vertex 4.5 10.082 3.59202
      vertex 4.5 9.71421 3.08579
    endloop
  endfacet
  facet normal -0.127097 -0.802456 0.583019
    outer loop
      vertex 4.93702 9.645 3.08579
      vertex 5.05067 9.99479 3.59202
      vertex 4.5 9.71421 3.08579
    endloop
  endfacet
  facet normal -0.357759 -0.182287 -0.915849
    outer loop
      vertex 6.05942 0 7.71803
      vertex 5.90325 0 7.77904
      vertex 5.36354 8.58058 6.28201
    endloop
  endfacet
  facet normal -0.269013 -0.527966 -0.805534
    outer loop
      vertex 5.33125 9.44412 5.91421
      vertex 5.0337 9.03457 6.28201
      vertex 4.78058 9.16354 6.28201
    endloop
  endfacet
  facet normal 0.0930954 -0.182711 -0.978749
    outer loop
      vertex 4.32513 0 8.07291
      vertex 4.3161 8.55312 6.47538
      vertex 4.40332 8.59756 6.47538
    endloop
  endfacet
  facet normal 0.0930754 -0.182711 -0.978751
    outer loop
      vertex 4.3161 8.55312 6.47538
      vertex 4.32513 0 8.07291
      vertex 4.28835 0 8.06941
    endloop
  endfacet
  facet normal -0.0930754 -0.182711 -0.978751
    outer loop
      vertex 4.67487 0 8.07291
      vertex 4.6839 8.55312 6.47538
      vertex 4.71164 0 8.06941
    endloop
  endfacet
  facet normal -0.0930954 -0.182711 -0.978749
    outer loop
      vertex 4.6839 8.55312 6.47538
      vertex 4.67487 0 8.07291
      vertex 4.59668 8.59756 6.47538
    endloop
  endfacet
  facet normal 0.368849 -0.723906 -0.583019
    outer loop
      vertex 4.06298 9.645 5.91421
      vertex 3.66875 9.44412 5.91421
      vertex 3.45256 9.74168 5.40798
    endloop
  endfacet
  facet normal -0.45399 -0.891007 0
    outer loop
      vertex 5.11042 10.1787 4.18713
      vertex 5.6611 9.89811 4.81287
      vertex 5.11042 10.1787 4.81287
    endloop
  endfacet
  facet normal -0.45399 -0.891007 -0
    outer loop
      vertex 5.6611 9.89811 4.81287
      vertex 5.11042 10.1787 4.18713
      vertex 5.6611 9.89811 4.18713
    endloop
  endfacet
  facet normal -0.432276 -0.84839 -0.305569
    outer loop
      vertex 5.11042 10.1787 4.81287
      vertex 5.6611 9.89811 4.81287
      vertex 5.05067 9.99479 5.40798
    endloop
  endfacet
  facet normal -0.368849 -0.723906 -0.583019
    outer loop
      vertex 5.05067 9.99479 5.40798
      vertex 5.54744 9.74168 5.40798
      vertex 4.93702 9.645 5.91421
    endloop
  endfacet
  facet normal -0.127097 -0.802456 -0.583019
    outer loop
      vertex 5.05067 9.99479 5.40798
      vertex 4.93702 9.645 5.91421
      vertex 4.5 9.71421 5.91421
    endloop
  endfacet
  facet normal -0.127096 -0.802457 -0.583018
    outer loop
      vertex 4.5 10.082 5.40798
      vertex 5.05067 9.99479 5.40798
      vertex 4.5 9.71421 5.91421
    endloop
  endfacet
  facet normal -0.148951 -0.940447 -0.30557
    outer loop
      vertex 4.5 10.2754 4.81287
      vertex 5.05067 9.99479 5.40798
      vertex 4.5 10.082 5.40798
    endloop
  endfacet
  facet normal 0.181943 -0.181943 0.96633
    outer loop
      vertex 4.24688 8.4839 2.52462
      vertex 4.16876 0 0.941962
      vertex 4.3161 8.55312 2.52462
    endloop
  endfacet
  facet normal 0.181943 -0.181943 0.96633
    outer loop
      vertex 4.16876 0 0.941962
      vertex 4.24688 8.4839 2.52462
      vertex 4.04703 0 0.964883
    endloop
  endfacet
  facet normal 0.0930965 -0.182711 0.978749
    outer loop
      vertex 4.28835 0 0.930587
      vertex 4.3161 8.55312 2.52462
      vertex 4.16876 0 0.941962
    endloop
  endfacet
  facet normal 0.707107 -0.707107 0
    outer loop
      vertex 2.90189 9.4611 4.81287
      vertex 3.3389 9.89811 4.18713
      vertex 3.3389 9.89811 4.81287
    endloop
  endfacet
  facet normal 0.707107 -0.707107 0
    outer loop
      vertex 3.3389 9.89811 4.18713
      vertex 2.90189 9.4611 4.81287
      vertex 2.90189 9.4611 4.18713
    endloop
  endfacet
  facet normal 0.45399 -0.891007 0
    outer loop
      vertex 3.3389 9.89811 4.18713
      vertex 3.88958 10.1787 4.81287
      vertex 3.3389 9.89811 4.81287
    endloop
  endfacet
  facet normal 0.45399 -0.891007 0
    outer loop
      vertex 3.88958 10.1787 4.81287
      vertex 3.3389 9.89811 4.18713
      vertex 3.88958 10.1787 4.18713
    endloop
  endfacet
  facet normal -0.148951 -0.940447 0.30557
    outer loop
      vertex 5.05067 9.99479 3.59202
      vertex 4.5 10.2754 4.18713
      vertex 4.5 10.082 3.59202
    endloop
  endfacet
  facet normal -0.269012 -0.527966 0.805533
    outer loop
      vertex 5.33125 9.44412 3.08579
      vertex 4.93702 9.645 3.08579
      vertex 4.78058 9.16354 2.71799
    endloop
  endfacet
  facet normal -0.368849 -0.723906 0.583019
    outer loop
      vertex 5.54744 9.74168 3.59202
      vertex 5.05067 9.99479 3.59202
      vertex 4.93702 9.645 3.08579
    endloop
  endfacet
  facet normal -0.0926956 -0.585255 0.805534
    outer loop
      vertex 4.78058 9.16354 2.71799
      vertex 4.93702 9.645 3.08579
      vertex 4.5 9.71421 3.08579
    endloop
  endfacet
  facet normal -0.368849 -0.723906 0.583019
    outer loop
      vertex 5.33125 9.44412 3.08579
      vertex 5.54744 9.74168 3.59202
      vertex 4.93702 9.645 3.08579
    endloop
  endfacet
  facet normal 0.127096 -0.802457 0.583018
    outer loop
      vertex 4.5 9.71421 3.08579
      vertex 4.5 10.082 3.59202
      vertex 3.94933 9.99479 3.59202
    endloop
  endfacet
  facet normal -0.148952 -0.940447 0.30557
    outer loop
      vertex 5.05067 9.99479 3.59202
      vertex 5.11042 10.1787 4.18713
      vertex 4.5 10.2754 4.18713
    endloop
  endfacet
  facet normal -0.432276 -0.84839 0.305569
    outer loop
      vertex 5.6611 9.89811 4.18713
      vertex 5.11042 10.1787 4.18713
      vertex 5.05067 9.99479 3.59202
    endloop
  endfacet
  facet normal -0.527966 -0.269012 -0.805534
    outer loop
      vertex 5.64412 9.13125 5.91421
      vertex 5.845 8.73702 5.91421
      vertex 5.23457 8.8337 6.28201
    endloop
  endfacet
  facet normal -0.723906 -0.368849 -0.583019
    outer loop
      vertex 5.94168 9.34744 5.40798
      vertex 5.845 8.73702 5.91421
      vertex 5.64412 9.13125 5.91421
    endloop
  endfacet
  facet normal -0.093096 -0.182711 -0.978749
    outer loop
      vertex 4.83124 0 8.05804
      vertex 4.71164 0 8.06941
      vertex 4.6839 8.55312 6.47538
    endloop
  endfacet
  facet normal -0.18195 -0.181943 -0.966329
    outer loop
      vertex 4.83124 0 8.05804
      vertex 4.75312 8.4839 6.47538
      vertex 4.95297 0 8.03512
    endloop
  endfacet
  facet normal -0.181943 -0.181943 -0.96633
    outer loop
      vertex 4.75312 8.4839 6.47538
      vertex 4.83124 0 8.05804
      vertex 4.6839 8.55312 6.47538
    endloop
  endfacet
  facet normal 0.092694 -0.585254 -0.805534
    outer loop
      vertex 4.5 9.71421 5.91421
      vertex 4.5 9.20798 6.28201
      vertex 4.21942 9.16354 6.28201
    endloop
  endfacet
  facet normal 0.527966 -0.269012 -0.805534
    outer loop
      vertex 3.35588 9.13125 5.91421
      vertex 3.76543 8.8337 6.28201
      vertex 3.155 8.73702 5.91421
    endloop
  endfacet
  facet normal 0.723906 -0.368849 -0.583019
    outer loop
      vertex 3.35588 9.13125 5.91421
      vertex 3.155 8.73702 5.91421
      vertex 3.05832 9.34744 5.40798
    endloop
  endfacet
  facet normal 0.418996 -0.418996 -0.805534
    outer loop
      vertex 3.76543 8.8337 6.28201
      vertex 3.66875 9.44412 5.91421
      vertex 3.9663 9.03457 6.28201
    endloop
  endfacet
  facet normal 0.418996 -0.418996 -0.805534
    outer loop
      vertex 3.66875 9.44412 5.91421
      vertex 3.76543 8.8337 6.28201
      vertex 3.35588 9.13125 5.91421
    endloop
  endfacet
  facet normal 0.527966 -0.269012 -0.805534
    outer loop
      vertex 3.76543 8.8337 6.28201
      vertex 3.63646 8.58058 6.28201
      vertex 3.155 8.73702 5.91421
    endloop
  endfacet
  facet normal -0.269012 -0.527966 -0.805533
    outer loop
      vertex 4.93702 9.645 5.91421
      vertex 5.33125 9.44412 5.91421
      vertex 4.78058 9.16354 6.28201
    endloop
  endfacet
  facet normal -0.0926956 -0.585255 -0.805534
    outer loop
      vertex 4.93702 9.645 5.91421
      vertex 4.78058 9.16354 6.28201
      vertex 4.5 9.71421 5.91421
    endloop
  endfacet
  facet normal 0.0930954 -0.182711 0.978749
    outer loop
      vertex 4.3161 8.55312 2.52462
      vertex 4.32513 0 0.927089
      vertex 4.40332 8.59756 2.52462
    endloop
  endfacet
  facet normal 0.0930943 -0.182711 0.978749
    outer loop
      vertex 4.32513 0 0.927089
      vertex 4.3161 8.55312 2.52462
      vertex 4.28835 0 0.930587
    endloop
  endfacet
  facet normal 0.141869 -0.278434 0.94992
    outer loop
      vertex 4.3161 8.55312 2.52462
      vertex 4.40332 8.59756 2.52462
      vertex 4.21942 9.16354 2.71799
    endloop
  endfacet
  facet normal 0.432276 -0.84839 0.305569
    outer loop
      vertex 3.94933 9.99479 3.59202
      vertex 3.88958 10.1787 4.18713
      vertex 3.3389 9.89811 4.18713
    endloop
  endfacet
  facet normal -0.357757 -0.182287 0.91585
    outer loop
      vertex 5.36354 8.58058 2.71799
      vertex 5.85882 0 1.20361
      vertex 5.90325 0 1.22096
    endloop
  endfacet
  facet normal -0.35776 -0.182287 0.915849
    outer loop
      vertex 5.85882 0 1.20361
      vertex 5.36354 8.58058 2.71799
      vertex 5.23457 8.8337 2.71799
    endloop
  endfacet
  facet normal -0.527966 -0.269012 0.805534
    outer loop
      vertex 5.36354 8.58058 2.71799
      vertex 5.845 8.73702 3.08579
      vertex 5.23457 8.8337 2.71799
    endloop
  endfacet
  facet normal -0.0930965 -0.182711 0.978749
    outer loop
      vertex 4.71164 0 0.930587
      vertex 4.83124 0 0.941962
      vertex 4.6839 8.55312 2.52462
    endloop
  endfacet
  facet normal 0.092694 -0.585254 0.805534
    outer loop
      vertex 4.5 9.20798 2.71799
      vertex 4.5 9.71421 3.08579
      vertex 4.21942 9.16354 2.71799
    endloop
  endfacet
  facet normal 0.0926954 -0.585255 0.805534
    outer loop
      vertex 4.21942 9.16354 2.71799
      vertex 4.5 9.71421 3.08579
      vertex 4.06298 9.645 3.08579
    endloop
  endfacet
  facet normal -0.574495 -0.574495 -0.583019
    outer loop
      vertex 5.64412 9.13125 5.91421
      vertex 5.54744 9.74168 5.40798
      vertex 5.94168 9.34744 5.40798
    endloop
  endfacet
  facet normal -0.574495 -0.574495 -0.583019
    outer loop
      vertex 5.54744 9.74168 5.40798
      vertex 5.64412 9.13125 5.91421
      vertex 5.33125 9.44412 5.91421
    endloop
  endfacet
  facet normal -0.220967 -0.220967 -0.94992
    outer loop
      vertex 4.75312 8.4839 6.47538
      vertex 5.0337 9.03457 6.28201
      vertex 5.23457 8.8337 6.28201
    endloop
  endfacet
  facet normal -0.220967 -0.220967 -0.94992
    outer loop
      vertex 5.0337 9.03457 6.28201
      vertex 4.75312 8.4839 6.47538
      vertex 4.6839 8.55312 6.47538
    endloop
  endfacet
  facet normal 0.0488843 -0.308647 -0.94992
    outer loop
      vertex 4.5 9.20798 6.28201
      vertex 4.5 8.61287 6.47538
      vertex 4.21942 9.16354 6.28201
    endloop
  endfacet
  facet normal 0.028963 -0.182864 -0.982712
    outer loop
      vertex 4.36586 0 8.07411
      vertex 4.40332 8.59756 6.47538
      vertex 4.5 8.61287 6.47538
    endloop
  endfacet
  facet normal 0.0289679 -0.182864 -0.982711
    outer loop
      vertex 4.40332 8.59756 6.47538
      vertex 4.36586 0 8.07411
      vertex 4.32513 0 8.07291
    endloop
  endfacet
  facet normal 0.250637 -0.180753 -0.951057
    outer loop
      vertex 3.83837 0 7.98013
      vertex 4.24688 8.4839 6.47538
      vertex 4.04703 0 8.03512
    endloop
  endfacet
  facet normal 0.25064 -0.180753 -0.951056
    outer loop
      vertex 4.24688 8.4839 6.47538
      vertex 3.83837 0 7.98013
      vertex 3.76543 8.8337 6.28201
    endloop
  endfacet
  facet normal 0.220967 -0.220967 -0.94992
    outer loop
      vertex 4.24688 8.4839 6.47538
      vertex 3.9663 9.03457 6.28201
      vertex 4.3161 8.55312 6.47538
    endloop
  endfacet
  facet normal 0.220967 -0.220967 -0.94992
    outer loop
      vertex 3.9663 9.03457 6.28201
      vertex 4.24688 8.4839 6.47538
      vertex 3.76543 8.8337 6.28201
    endloop
  endfacet
  facet normal -0.14187 -0.278434 -0.94992
    outer loop
      vertex 4.78058 9.16354 6.28201
      vertex 5.0337 9.03457 6.28201
      vertex 4.6839 8.55312 6.47538
    endloop
  endfacet
  facet normal 0.0488852 -0.308647 0.94992
    outer loop
      vertex 4.40332 8.59756 2.52462
      vertex 4.5 8.61287 2.52462
      vertex 4.21942 9.16354 2.71799
    endloop
  endfacet
  facet normal 0.028963 -0.182864 0.982712
    outer loop
      vertex 4.40332 8.59756 2.52462
      vertex 4.36586 0 0.925888
      vertex 4.5 8.61287 2.52462
    endloop
  endfacet
  facet normal 0.0289636 -0.182864 0.982712
    outer loop
      vertex 4.36586 0 0.925888
      vertex 4.40332 8.59756 2.52462
      vertex 4.32513 0 0.927089
    endloop
  endfacet
  facet normal 0.269012 -0.527966 0.805533
    outer loop
      vertex 4.21942 9.16354 2.71799
      vertex 4.06298 9.645 3.08579
      vertex 3.66875 9.44412 3.08579
    endloop
  endfacet
  facet normal 0.848389 -0.432276 0.30557
    outer loop
      vertex 3.05832 9.34744 3.59202
      vertex 2.90189 9.4611 4.18713
      vertex 2.8052 8.85067 3.59202
    endloop
  endfacet
  facet normal -0.269013 -0.527966 0.805534
    outer loop
      vertex 5.0337 9.03457 2.71799
      vertex 5.33125 9.44412 3.08579
      vertex 4.78058 9.16354 2.71799
    endloop
  endfacet
  facet normal -0.0488857 -0.308646 0.94992
    outer loop
      vertex 4.59668 8.59756 2.52462
      vertex 4.78058 9.16354 2.71799
      vertex 4.5 8.61287 2.52462
    endloop
  endfacet
  facet normal -0.220967 -0.220967 0.94992
    outer loop
      vertex 5.0337 9.03457 2.71799
      vertex 4.75312 8.4839 2.52462
      vertex 5.23457 8.8337 2.71799
    endloop
  endfacet
  facet normal -0.220967 -0.220967 0.94992
    outer loop
      vertex 4.75312 8.4839 2.52462
      vertex 5.0337 9.03457 2.71799
      vertex 4.6839 8.55312 2.52462
    endloop
  endfacet
  facet normal -0.181943 -0.181943 0.96633
    outer loop
      vertex 4.75312 8.4839 2.52462
      vertex 4.83124 0 0.941962
      vertex 4.95297 0 0.964883
    endloop
  endfacet
  facet normal -0.181943 -0.181943 0.96633
    outer loop
      vertex 4.83124 0 0.941962
      vertex 4.75312 8.4839 2.52462
      vertex 4.6839 8.55312 2.52462
    endloop
  endfacet
  facet normal -0.574495 -0.574495 0.583019
    outer loop
      vertex 5.54744 9.74168 3.59202
      vertex 5.64412 9.13125 3.08579
      vertex 5.94168 9.34744 3.59202
    endloop
  endfacet
  facet normal -0.574495 -0.574495 0.583019
    outer loop
      vertex 5.64412 9.13125 3.08579
      vertex 5.54744 9.74168 3.59202
      vertex 5.33125 9.44412 3.08579
    endloop
  endfacet
  facet normal -0.723906 -0.368849 0.583019
    outer loop
      vertex 5.845 8.73702 3.08579
      vertex 5.94168 9.34744 3.59202
      vertex 5.64412 9.13125 3.08579
    endloop
  endfacet
  facet normal 0.0488852 -0.308647 -0.94992
    outer loop
      vertex 4.5 8.61287 6.47538
      vertex 4.40332 8.59756 6.47538
      vertex 4.21942 9.16354 6.28201
    endloop
  endfacet
  facet normal 0.141869 -0.278434 -0.94992
    outer loop
      vertex 4.40332 8.59756 6.47538
      vertex 4.3161 8.55312 6.47538
      vertex 4.21942 9.16354 6.28201
    endloop
  endfacet
  facet normal -0.0488857 -0.308646 -0.94992
    outer loop
      vertex 4.78058 9.16354 6.28201
      vertex 4.59668 8.59756 6.47538
      vertex 4.5 8.61287 6.47538
    endloop
  endfacet
  facet normal -0.0289682 -0.182864 -0.982711
    outer loop
      vertex 4.63414 0 8.07411
      vertex 4.59668 8.59756 6.47538
      vertex 4.67487 0 8.07291
    endloop
  endfacet
  facet normal -0.0289633 -0.182864 -0.982712
    outer loop
      vertex 4.59668 8.59756 6.47538
      vertex 4.63414 0 8.07411
      vertex 4.5 8.61287 6.47538
    endloop
  endfacet
  facet normal 0.574495 -0.574495 0.583019
    outer loop
      vertex 3.45256 9.74168 3.59202
      vertex 3.35588 9.13125 3.08579
      vertex 3.66875 9.44412 3.08579
    endloop
  endfacet
  facet normal 0.574495 -0.574495 0.583019
    outer loop
      vertex 3.35588 9.13125 3.08579
      vertex 3.45256 9.74168 3.59202
      vertex 3.05832 9.34744 3.59202
    endloop
  endfacet
  facet normal 0.723906 -0.368849 0.583019
    outer loop
      vertex 3.155 8.73702 3.08579
      vertex 3.35588 9.13125 3.08579
      vertex 3.05832 9.34744 3.59202
    endloop
  endfacet
  facet normal 0.368849 -0.723906 0.583019
    outer loop
      vertex 3.66875 9.44412 3.08579
      vertex 4.06298 9.645 3.08579
      vertex 3.45256 9.74168 3.59202
    endloop
  endfacet
  facet normal -0.0926943 -0.585254 0.805534
    outer loop
      vertex 4.78058 9.16354 2.71799
      vertex 4.5 9.71421 3.08579
      vertex 4.5 9.20798 2.71799
    endloop
  endfacet
  facet normal -0.0488844 -0.308647 0.94992
    outer loop
      vertex 4.78058 9.16354 2.71799
      vertex 4.5 9.20798 2.71799
      vertex 4.5 8.61287 2.52462
    endloop
  endfacet
  facet normal -0.0930943 -0.182711 0.978749
    outer loop
      vertex 4.6839 8.55312 2.52462
      vertex 4.67487 0 0.927089
      vertex 4.71164 0 0.930587
    endloop
  endfacet
  facet normal -0.0930954 -0.182711 0.978749
    outer loop
      vertex 4.67487 0 0.927089
      vertex 4.6839 8.55312 2.52462
      vertex 4.59668 8.59756 2.52462
    endloop
  endfacet
  facet normal -0.0289639 -0.182864 0.982712
    outer loop
      vertex 4.59668 8.59756 2.52462
      vertex 4.63414 0 0.925888
      vertex 4.67487 0 0.927089
    endloop
  endfacet
  facet normal -0.0289633 -0.182864 0.982712
    outer loop
      vertex 4.63414 0 0.925888
      vertex 4.59668 8.59756 2.52462
      vertex 4.5 8.61287 2.52462
    endloop
  endfacet
endsolid OpenSCAD_Model
