solid OpenSCAD_Model
  facet normal -1 0 0
    outer loop
      vertex 0 0 0
      vertex 0 15 9.02
      vertex 0 15 0
    endloop
  endfacet
  facet normal -1 -0 0
    outer loop
      vertex 0 15 9.02
      vertex 0 0 0
      vertex 0 0 9.02
    endloop
  endfacet
  facet normal -0 0 1
    outer loop
      vertex 0 15 9.02
      vertex 9.02 0 9.02
      vertex 9.02 15 9.02
    endloop
  endfacet
  facet normal 0 0 1
    outer loop
      vertex 9.02 0 9.02
      vertex 0 15 9.02
      vertex 0 0 9.02
    endloop
  endfacet
  facet normal 1 -0 0
    outer loop
      vertex 9.02 0 9.02
      vertex 9.02 15 0
      vertex 9.02 15 9.02
    endloop
  endfacet
  facet normal 1 0 0
    outer loop
      vertex 9.02 15 0
      vertex 9.02 0 9.02
      vertex 9.02 0 0
    endloop
  endfacet
  facet normal 0 1 -0
    outer loop
      vertex 9.02 15 0
      vertex 0 15 9.02
      vertex 9.02 15 9.02
    endloop
  endfacet
  facet normal 0 1 0
    outer loop
      vertex 0 15 9.02
      vertex 9.02 15 0
      vertex 0 15 0
    endloop
  endfacet
  facet normal 0 0 -1
    outer loop
      vertex 0 0 0
      vertex 9.02 15 0
      vertex 9.02 0 0
    endloop
  endfacet
  facet normal -0 0 -1
    outer loop
      vertex 9.02 15 0
      vertex 0 0 0
      vertex 0 15 0
    endloop
  endfacet
  facet normal 0 -1 0
    outer loop
      vertex 0 0 9.02
      vertex 4.5 0 6.98943
      vertex 9.02 0 9.02
    endloop
  endfacet
  facet normal 0 -1 0
    outer loop
      vertex 0 0 9.02
      vertex 4.31204 0 6.97839
      vertex 4.5 0 6.98943
    endloop
  endfacet
  facet normal 0 -1 0
    outer loop
      vertex 0 0 9.02
      vertex 4.11162 0 6.96662
      vertex 4.31204 0 6.97839
    endloop
  endfacet
  facet normal 0 -1 0
    outer loop
      vertex 0 0 9.02
      vertex 3.95689 0 6.93678
      vertex 4.11162 0 6.96662
    endloop
  endfacet
  facet normal 0 -1 0
    outer loop
      vertex 0 0 9.02
      vertex 3.7804 0 6.90274
      vertex 3.95689 0 6.93678
    endloop
  endfacet
  facet normal 0 -1 0
    outer loop
      vertex 0 0 9.02
      vertex 3.54796 0 6.80957
      vertex 3.7804 0 6.90274
    endloop
  endfacet
  facet normal 0 -1 0
    outer loop
      vertex 0 0 9.02
      vertex 3.29366 0 6.66014
      vertex 3.54796 0 6.80957
    endloop
  endfacet
  facet normal 0 -1 0
    outer loop
      vertex 0 0 9.02
      vertex 2.9268 0 6.44458
      vertex 3.29366 0 6.66014
    endloop
  endfacet
  facet normal 0 -1 0
    outer loop
      vertex 0 0 9.02
      vertex 2.8425 0 6.35587
      vertex 2.9268 0 6.44458
    endloop
  endfacet
  facet normal 0 -1 0
    outer loop
      vertex 0 0 9.02
      vertex 2.78876 0 6.29931
      vertex 2.8425 0 6.35587
    endloop
  endfacet
  facet normal 0 -1 0
    outer loop
      vertex 0 0 9.02
      vertex 2.60517 0 6.0687
      vertex 2.78876 0 6.29931
    endloop
  endfacet
  facet normal 0 -1 0
    outer loop
      vertex 0 0 9.02
      vertex 2.29624 0 5.68065
      vertex 2.60517 0 6.0687
    endloop
  endfacet
  facet normal 0 -1 0
    outer loop
      vertex 0 0 9.02
      vertex 2.1377 0 5.22521
      vertex 2.29624 0 5.68065
    endloop
  endfacet
  facet normal 0 -1 0
    outer loop
      vertex 0 0 9.02
      vertex 2.02852 0 4.91159
      vertex 2.1377 0 5.22521
    endloop
  endfacet
  facet normal 0 -1 0
    outer loop
      vertex 0 0 9.02
      vertex 2.02852 0 4.08841
      vertex 2.02852 0 4.91159
    endloop
  endfacet
  facet normal 0 -1 0
    outer loop
      vertex 0 0 0
      vertex 2.02852 0 4.08841
      vertex 0 0 9.02
    endloop
  endfacet
  facet normal 0 -1 -0
    outer loop
      vertex 2.02852 0 4.08841
      vertex 0 0 0
      vertex 2.1377 0 3.77478
    endloop
  endfacet
  facet normal 0 -1 0
    outer loop
      vertex 0 0 0
      vertex 3.29366 0 2.33986
      vertex 2.9268 0 2.55542
    endloop
  endfacet
  facet normal 0 -1 0
    outer loop
      vertex 0 0 0
      vertex 3.95689 0 2.06322
      vertex 3.7804 0 2.09726
    endloop
  endfacet
  facet normal 0 -1 0
    outer loop
      vertex 0 0 0
      vertex 4.31204 0 2.02161
      vertex 4.11162 0 2.03338
    endloop
  endfacet
  facet normal 0 -1 -0
    outer loop
      vertex 4.31204 0 2.02161
      vertex 0 0 0
      vertex 4.5 0 2.01057
    endloop
  endfacet
  facet normal 0 -1 -0
    outer loop
      vertex 3.95689 0 2.06322
      vertex 0 0 0
      vertex 4.11162 0 2.03338
    endloop
  endfacet
  facet normal 0 -1 -0
    outer loop
      vertex 3.54796 0 2.19043
      vertex 0 0 0
      vertex 3.7804 0 2.09726
    endloop
  endfacet
  facet normal 0 -1 -0
    outer loop
      vertex 3.29366 0 2.33986
      vertex 0 0 0
      vertex 3.54796 0 2.19043
    endloop
  endfacet
  facet normal 0 -1 -0
    outer loop
      vertex 2.8425 0 2.64413
      vertex 0 0 0
      vertex 2.9268 0 2.55542
    endloop
  endfacet
  facet normal 0 -1 -0
    outer loop
      vertex 2.78876 0 2.70069
      vertex 0 0 0
      vertex 2.8425 0 2.64413
    endloop
  endfacet
  facet normal 0 -1 -0
    outer loop
      vertex 2.60517 0 2.9313
      vertex 0 0 0
      vertex 2.78876 0 2.70069
    endloop
  endfacet
  facet normal 0 -1 -0
    outer loop
      vertex 2.29624 0 3.31934
      vertex 0 0 0
      vertex 2.60517 0 2.9313
    endloop
  endfacet
  facet normal 0 -1 -0
    outer loop
      vertex 2.1377 0 3.77478
      vertex 0 0 0
      vertex 2.29624 0 3.31934
    endloop
  endfacet
  facet normal 0 -1 0
    outer loop
      vertex 4.68796 0 6.97839
      vertex 9.02 0 9.02
      vertex 4.5 0 6.98943
    endloop
  endfacet
  facet normal 0 -1 0
    outer loop
      vertex 4.88837 0 6.96662
      vertex 9.02 0 9.02
      vertex 4.68796 0 6.97839
    endloop
  endfacet
  facet normal 0 -1 0
    outer loop
      vertex 5.04311 0 6.93678
      vertex 9.02 0 9.02
      vertex 4.88837 0 6.96662
    endloop
  endfacet
  facet normal 0 -1 0
    outer loop
      vertex 5.2196 0 6.90274
      vertex 9.02 0 9.02
      vertex 5.04311 0 6.93678
    endloop
  endfacet
  facet normal 0 -1 0
    outer loop
      vertex 5.45204 0 6.80957
      vertex 9.02 0 9.02
      vertex 5.2196 0 6.90274
    endloop
  endfacet
  facet normal 0 -1 0
    outer loop
      vertex 5.70634 0 6.66014
      vertex 9.02 0 9.02
      vertex 5.45204 0 6.80957
    endloop
  endfacet
  facet normal 0 -1 0
    outer loop
      vertex 6.0732 0 6.44458
      vertex 9.02 0 9.02
      vertex 5.70634 0 6.66014
    endloop
  endfacet
  facet normal 0 -1 0
    outer loop
      vertex 6.15749 0 6.35587
      vertex 9.02 0 9.02
      vertex 6.0732 0 6.44458
    endloop
  endfacet
  facet normal 0 -1 0
    outer loop
      vertex 6.21124 0 6.29931
      vertex 9.02 0 9.02
      vertex 6.15749 0 6.35587
    endloop
  endfacet
  facet normal 0 -1 0
    outer loop
      vertex 6.39483 0 6.0687
      vertex 9.02 0 9.02
      vertex 6.21124 0 6.29931
    endloop
  endfacet
  facet normal 0 -1 0
    outer loop
      vertex 6.70375 0 5.68065
      vertex 9.02 0 9.02
      vertex 6.39483 0 6.0687
    endloop
  endfacet
  facet normal 0 -1 0
    outer loop
      vertex 6.81065 0 5.3736
      vertex 9.02 0 9.02
      vertex 6.70375 0 5.68065
    endloop
  endfacet
  facet normal 0 -1 0
    outer loop
      vertex 6.97148 0 4.91159
      vertex 9.02 0 9.02
      vertex 6.81065 0 5.3736
    endloop
  endfacet
  facet normal 0 -1 0
    outer loop
      vertex 6.97148 0 4.08841
      vertex 9.02 0 9.02
      vertex 6.97148 0 4.91159
    endloop
  endfacet
  facet normal 0 -1 0
    outer loop
      vertex 9.02 0 0
      vertex 6.97148 0 4.08841
      vertex 6.81065 0 3.6264
    endloop
  endfacet
  facet normal 0 -1 0
    outer loop
      vertex 9.02 0 0
      vertex 6.81065 0 3.6264
      vertex 6.70375 0 3.31934
    endloop
  endfacet
  facet normal 0 -1 0
    outer loop
      vertex 9.02 0 0
      vertex 6.39483 0 2.9313
      vertex 6.21124 0 2.70069
    endloop
  endfacet
  facet normal 0 -1 0
    outer loop
      vertex 9.02 0 0
      vertex 6.15749 0 2.64413
      vertex 6.0732 0 2.55542
    endloop
  endfacet
  facet normal 0 -1 0
    outer loop
      vertex 9.02 0 0
      vertex 5.04311 0 2.06322
      vertex 4.88837 0 2.03338
    endloop
  endfacet
  facet normal 0 -1 0
    outer loop
      vertex 9.02 0 0
      vertex 4.68796 0 2.02161
      vertex 4.5 0 2.01057
    endloop
  endfacet
  facet normal 0 -1 0
    outer loop
      vertex 9.02 0 0
      vertex 4.5 0 2.01057
      vertex 0 0 0
    endloop
  endfacet
  facet normal 0 -1 0
    outer loop
      vertex 4.68796 0 2.02161
      vertex 9.02 0 0
      vertex 4.88837 0 2.03338
    endloop
  endfacet
  facet normal 0 -1 0
    outer loop
      vertex 5.04311 0 2.06322
      vertex 9.02 0 0
      vertex 5.2196 0 2.09726
    endloop
  endfacet
  facet normal 0 -1 0
    outer loop
      vertex 6.97148 0 4.08841
      vertex 9.02 0 0
      vertex 9.02 0 9.02
    endloop
  endfacet
  facet normal 0 -1 0
    outer loop
      vertex 6.39483 0 2.9313
      vertex 9.02 0 0
      vertex 6.70375 0 3.31934
    endloop
  endfacet
  facet normal 0 -1 0
    outer loop
      vertex 6.15749 0 2.64413
      vertex 9.02 0 0
      vertex 6.21124 0 2.70069
    endloop
  endfacet
  facet normal 0 -1 0
    outer loop
      vertex 5.70634 0 2.33986
      vertex 9.02 0 0
      vertex 6.0732 0 2.55542
    endloop
  endfacet
  facet normal 0 -1 0
    outer loop
      vertex 5.45204 0 2.19043
      vertex 9.02 0 0
      vertex 5.70634 0 2.33986
    endloop
  endfacet
  facet normal 0 -1 0
    outer loop
      vertex 5.2196 0 2.09726
      vertex 9.02 0 0
      vertex 5.45204 0 2.19043
    endloop
  endfacet
  facet normal -0.886365 -0.345179 -0.308559
    outer loop
      vertex 6.97148 0 4.91159
      vertex 6.19479 1.55067 5.40798
      vertex 6.37869 1.61042 4.81287
    endloop
  endfacet
  facet normal -0.886365 -0.345179 -0.30856
    outer loop
      vertex 6.19479 1.55067 5.40798
      vertex 6.97148 0 4.91159
      vertex 6.81065 0 5.3736
    endloop
  endfacet
  facet normal -0.723906 -0.368849 -0.583019
    outer loop
      vertex 5.94168 2.04744 5.40798
      vertex 5.845 1.43702 5.91421
      vertex 5.64412 1.83125 5.91421
    endloop
  endfacet
  facet normal -0.475383 -0.345691 0.809017
    outer loop
      vertex 5.45204 0 2.19043
      vertex 5.70634 0 2.33986
      vertex 5.23457 1.5337 2.71799
    endloop
  endfacet
  facet normal -0.84839 -0.432276 0.305569
    outer loop
      vertex 6.19479 1.55067 3.59202
      vertex 6.37869 1.61042 4.18713
      vertex 6.09811 2.1611 4.18713
    endloop
  endfacet
  facet normal -0.938443 -0.345434 0
    outer loop
      vertex 6.97148 0 4.08841
      vertex 6.37869 1.61042 4.81287
      vertex 6.37869 1.61042 4.18713
    endloop
  endfacet
  facet normal -0.938443 -0.345434 0
    outer loop
      vertex 6.37869 1.61042 4.81287
      vertex 6.97148 0 4.08841
      vertex 6.97148 0 4.91159
    endloop
  endfacet
  facet normal -0.475383 -0.345691 -0.809017
    outer loop
      vertex 5.70634 0 6.66014
      vertex 5.45204 0 6.80957
      vertex 5.23457 1.5337 6.28201
    endloop
  endfacet
  facet normal -0.0926957 -0.585255 0.805533
    outer loop
      vertex 4.93702 2.345 3.08579
      vertex 4.5 2.41421 3.08579
      vertex 4.5 1.90798 2.71799
    endloop
  endfacet
  facet normal 0.148952 -0.940447 0.305569
    outer loop
      vertex 4.5 2.78201 3.59202
      vertex 4.5 2.97538 4.18713
      vertex 3.88958 2.87869 4.18713
    endloop
  endfacet
  facet normal -0.475384 -0.345691 -0.809016
    outer loop
      vertex 5.23457 1.5337 6.28201
      vertex 6.0732 0 6.44458
      vertex 5.70634 0 6.66014
    endloop
  endfacet
  facet normal -0.475384 -0.345691 -0.809017
    outer loop
      vertex 6.0732 0 6.44458
      vertex 5.23457 1.5337 6.28201
      vertex 5.64412 1.83125 5.91421
    endloop
  endfacet
  facet normal -0.886365 -0.345179 -0.308559
    outer loop
      vertex 6.81065 0 5.3736
      vertex 6.70375 0 5.68065
      vertex 6.19479 1.55067 5.40798
    endloop
  endfacet
  facet normal -0.886365 -0.345179 0.308559
    outer loop
      vertex 6.70375 0 3.31934
      vertex 6.81065 0 3.6264
      vertex 6.19479 1.55067 3.59202
    endloop
  endfacet
  facet normal -0.148953 -0.940447 0.30557
    outer loop
      vertex 5.05067 2.69479 3.59202
      vertex 5.11042 2.87869 4.18713
      vertex 4.5 2.78201 3.59202
    endloop
  endfacet
  facet normal 0.723906 -0.368849 -0.583019
    outer loop
      vertex 3.05832 2.04744 5.40798
      vertex 3.155 1.43702 5.91421
      vertex 2.8052 1.55067 5.40798
    endloop
  endfacet
  facet normal 0.148952 -0.940447 -0.305569
    outer loop
      vertex 4.5 2.97538 4.81287
      vertex 4.5 2.78201 5.40798
      vertex 3.88958 2.87869 4.81287
    endloop
  endfacet
  facet normal 0.368849 -0.723906 -0.583019
    outer loop
      vertex 3.94933 2.69479 5.40798
      vertex 4.06298 2.345 5.91421
      vertex 3.45256 2.44168 5.40798
    endloop
  endfacet
  facet normal 0.734619 -0.343954 0.584833
    outer loop
      vertex 2.78876 0 2.70069
      vertex 3.155 1.43702 3.08579
      vertex 2.60517 0 2.9313
    endloop
  endfacet
  facet normal -0.707107 -0.707107 0
    outer loop
      vertex 6.09811 2.1611 4.18713
      vertex 5.6611 2.59811 4.81287
      vertex 5.6611 2.59811 4.18713
    endloop
  endfacet
  facet normal -0.707107 -0.707107 0
    outer loop
      vertex 5.6611 2.59811 4.81287
      vertex 6.09811 2.1611 4.18713
      vertex 6.09811 2.1611 4.81287
    endloop
  endfacet
  facet normal -0.45399 -0.891007 0
    outer loop
      vertex 5.11042 2.87869 4.18713
      vertex 5.6611 2.59811 4.81287
      vertex 5.11042 2.87869 4.81287
    endloop
  endfacet
  facet normal -0.45399 -0.891007 -0
    outer loop
      vertex 5.6611 2.59811 4.81287
      vertex 5.11042 2.87869 4.18713
      vertex 5.6611 2.59811 4.18713
    endloop
  endfacet
  facet normal 0.054978 -0.347115 -0.93621
    outer loop
      vertex 4.31204 0 6.97839
      vertex 4.21942 1.86354 6.28201
      vertex 4.5 1.90798 6.28201
    endloop
  endfacet
  facet normal 0.0549775 -0.347115 -0.93621
    outer loop
      vertex 4.21942 1.86354 6.28201
      vertex 4.31204 0 6.97839
      vertex 4.11162 0 6.96662
    endloop
  endfacet
  facet normal 0.418996 -0.418996 0.805534
    outer loop
      vertex 3.66875 2.14412 3.08579
      vertex 3.76543 1.5337 2.71799
      vertex 3.9663 1.73457 2.71799
    endloop
  endfacet
  facet normal 0.418996 -0.418996 0.805534
    outer loop
      vertex 3.76543 1.5337 2.71799
      vertex 3.66875 2.14412 3.08579
      vertex 3.35588 1.83125 3.08579
    endloop
  endfacet
  facet normal -0.73462 -0.343954 -0.584833
    outer loop
      vertex 6.70375 0 5.68065
      vertex 5.845 1.43702 5.91421
      vertex 6.19479 1.55067 5.40798
    endloop
  endfacet
  facet normal -0.73462 -0.343954 -0.584833
    outer loop
      vertex 5.845 1.43702 5.91421
      vertex 6.70375 0 5.68065
      vertex 6.39483 0 6.0687
    endloop
  endfacet
  facet normal -0.848389 -0.432276 -0.30557
    outer loop
      vertex 6.09811 2.1611 4.81287
      vertex 6.19479 1.55067 5.40798
      vertex 5.94168 2.04744 5.40798
    endloop
  endfacet
  facet normal 0.73462 -0.343954 0.584833
    outer loop
      vertex 2.29624 0 3.31934
      vertex 3.155 1.43702 3.08579
      vertex 2.8052 1.55067 3.59202
    endloop
  endfacet
  facet normal 0.73462 -0.343954 0.584833
    outer loop
      vertex 3.155 1.43702 3.08579
      vertex 2.29624 0 3.31934
      vertex 2.60517 0 2.9313
    endloop
  endfacet
  facet normal -0.269013 -0.527966 0.805534
    outer loop
      vertex 5.0337 1.73457 2.71799
      vertex 5.33125 2.14412 3.08579
      vertex 4.78058 1.86354 2.71799
    endloop
  endfacet
  facet normal -0.886365 -0.345179 0.30856
    outer loop
      vertex 6.97148 0 4.08841
      vertex 6.19479 1.55067 3.59202
      vertex 6.81065 0 3.6264
    endloop
  endfacet
  facet normal -0.886365 -0.345179 0.308559
    outer loop
      vertex 6.19479 1.55067 3.59202
      vertex 6.97148 0 4.08841
      vertex 6.37869 1.61042 4.18713
    endloop
  endfacet
  facet normal -0.73462 -0.343954 0.584833
    outer loop
      vertex 6.70375 0 3.31934
      vertex 5.845 1.43702 3.08579
      vertex 6.39483 0 2.9313
    endloop
  endfacet
  facet normal -0.73462 -0.343954 0.584833
    outer loop
      vertex 5.845 1.43702 3.08579
      vertex 6.70375 0 3.31934
      vertex 6.19479 1.55067 3.59202
    endloop
  endfacet
  facet normal -0.0926963 -0.585255 0.805534
    outer loop
      vertex 4.78058 1.86354 2.71799
      vertex 4.93702 2.345 3.08579
      vertex 4.5 1.90798 2.71799
    endloop
  endfacet
  facet normal -0.148952 -0.940447 0.305569
    outer loop
      vertex 5.11042 2.87869 4.18713
      vertex 4.5 2.97538 4.18713
      vertex 4.5 2.78201 3.59202
    endloop
  endfacet
  facet normal -0.723906 -0.368849 0.583019
    outer loop
      vertex 6.19479 1.55067 3.59202
      vertex 5.94168 2.04744 3.59202
      vertex 5.845 1.43702 3.08579
    endloop
  endfacet
  facet normal 0.84839 -0.432276 -0.305569
    outer loop
      vertex 2.90189 2.1611 4.81287
      vertex 2.8052 1.55067 5.40798
      vertex 2.6213 1.61042 4.81287
    endloop
  endfacet
  facet normal 0.723906 -0.368849 0.583019
    outer loop
      vertex 3.155 1.43702 3.08579
      vertex 3.05832 2.04744 3.59202
      vertex 2.8052 1.55067 3.59202
    endloop
  endfacet
  facet normal 0.0926955 -0.585255 -0.805533
    outer loop
      vertex 4.5 2.41421 5.91421
      vertex 4.5 1.90798 6.28201
      vertex 4.06298 2.345 5.91421
    endloop
  endfacet
  facet normal 0.127097 -0.802456 0.583019
    outer loop
      vertex 4.5 2.41421 3.08579
      vertex 4.5 2.78201 3.59202
      vertex 4.06298 2.345 3.08579
    endloop
  endfacet
  facet normal 0.723906 -0.368849 -0.583019
    outer loop
      vertex 3.35588 1.83125 5.91421
      vertex 3.155 1.43702 5.91421
      vertex 3.05832 2.04744 5.40798
    endloop
  endfacet
  facet normal 0.177514 -0.34839 0.920388
    outer loop
      vertex 3.9663 1.73457 2.71799
      vertex 3.95689 0 2.06322
      vertex 4.21942 1.86354 2.71799
    endloop
  endfacet
  facet normal 0.177514 -0.34839 0.920388
    outer loop
      vertex 3.95689 0 2.06322
      vertex 3.9663 1.73457 2.71799
      vertex 3.7804 0 2.09726
    endloop
  endfacet
  facet normal 0.0549782 -0.347115 0.93621
    outer loop
      vertex 4.5 0 2.01057
      vertex 4.5 1.90798 2.71799
      vertex 4.31204 0 2.02161
    endloop
  endfacet
  facet normal 0.886365 -0.345179 0.308559
    outer loop
      vertex 2.1377 0 3.77478
      vertex 2.8052 1.55067 3.59202
      vertex 2.6213 1.61042 4.18713
    endloop
  endfacet
  facet normal 0.886365 -0.345179 0.308559
    outer loop
      vertex 2.8052 1.55067 3.59202
      vertex 2.1377 0 3.77478
      vertex 2.29624 0 3.31934
    endloop
  endfacet
  facet normal 0.679995 -0.346475 -0.646191
    outer loop
      vertex 2.9268 0 6.44458
      vertex 3.155 1.43702 5.91421
      vertex 3.35588 1.83125 5.91421
    endloop
  endfacet
  facet normal 0.679994 -0.346475 -0.646191
    outer loop
      vertex 3.155 1.43702 5.91421
      vertex 2.9268 0 6.44458
      vertex 2.8425 0 6.35587
    endloop
  endfacet
  facet normal -0.723906 -0.368849 -0.583019
    outer loop
      vertex 5.94168 2.04744 5.40798
      vertex 6.19479 1.55067 5.40798
      vertex 5.845 1.43702 5.91421
    endloop
  endfacet
  facet normal -0.84839 -0.432276 -0.305569
    outer loop
      vertex 6.37869 1.61042 4.81287
      vertex 6.19479 1.55067 5.40798
      vertex 6.09811 2.1611 4.81287
    endloop
  endfacet
  facet normal -0.679994 -0.346475 -0.646191
    outer loop
      vertex 6.0732 0 6.44458
      vertex 5.845 1.43702 5.91421
      vertex 6.15749 0 6.35587
    endloop
  endfacet
  facet normal -0.679995 -0.346475 -0.646191
    outer loop
      vertex 5.845 1.43702 5.91421
      vertex 6.0732 0 6.44458
      vertex 5.64412 1.83125 5.91421
    endloop
  endfacet
  facet normal -0.148952 -0.940447 -0.305569
    outer loop
      vertex 4.5 2.97538 4.81287
      vertex 5.11042 2.87869 4.81287
      vertex 4.5 2.78201 5.40798
    endloop
  endfacet
  facet normal -0.148953 -0.940447 -0.30557
    outer loop
      vertex 5.11042 2.87869 4.81287
      vertex 5.05067 2.69479 5.40798
      vertex 4.5 2.78201 5.40798
    endloop
  endfacet
  facet normal -0.432276 -0.84839 -0.305569
    outer loop
      vertex 5.11042 2.87869 4.81287
      vertex 5.6611 2.59811 4.81287
      vertex 5.05067 2.69479 5.40798
    endloop
  endfacet
  facet normal -0.156434 -0.987688 0
    outer loop
      vertex 4.5 2.97538 4.18713
      vertex 5.11042 2.87869 4.81287
      vertex 4.5 2.97538 4.81287
    endloop
  endfacet
  facet normal -0.156434 -0.987688 -0
    outer loop
      vertex 5.11042 2.87869 4.81287
      vertex 4.5 2.97538 4.18713
      vertex 5.11042 2.87869 4.18713
    endloop
  endfacet
  facet normal -0.679995 -0.346475 0.646191
    outer loop
      vertex 6.0732 0 2.55542
      vertex 5.845 1.43702 3.08579
      vertex 5.64412 1.83125 3.08579
    endloop
  endfacet
  facet normal -0.679994 -0.346475 0.646191
    outer loop
      vertex 5.845 1.43702 3.08579
      vertex 6.0732 0 2.55542
      vertex 6.15749 0 2.64413
    endloop
  endfacet
  facet normal 0.269013 -0.527966 0.805534
    outer loop
      vertex 3.9663 1.73457 2.71799
      vertex 4.21942 1.86354 2.71799
      vertex 3.66875 2.14412 3.08579
    endloop
  endfacet
  facet normal 0.574495 -0.574495 0.583019
    outer loop
      vertex 3.45256 2.44168 3.59202
      vertex 3.35588 1.83125 3.08579
      vertex 3.66875 2.14412 3.08579
    endloop
  endfacet
  facet normal 0.574495 -0.574495 0.583019
    outer loop
      vertex 3.35588 1.83125 3.08579
      vertex 3.45256 2.44168 3.59202
      vertex 3.05832 2.04744 3.59202
    endloop
  endfacet
  facet normal 0.368849 -0.723906 0.583019
    outer loop
      vertex 3.66875 2.14412 3.08579
      vertex 4.06298 2.345 3.08579
      vertex 3.45256 2.44168 3.59202
    endloop
  endfacet
  facet normal -0.679995 -0.346475 -0.64619
    outer loop
      vertex 6.21124 0 6.29931
      vertex 6.15749 0 6.35587
      vertex 5.845 1.43702 5.91421
    endloop
  endfacet
  facet normal -0.73462 -0.343954 -0.584833
    outer loop
      vertex 6.39483 0 6.0687
      vertex 6.21124 0 6.29931
      vertex 5.845 1.43702 5.91421
    endloop
  endfacet
  facet normal 0.432276 -0.84839 -0.305569
    outer loop
      vertex 3.88958 2.87869 4.81287
      vertex 3.94933 2.69479 5.40798
      vertex 3.3389 2.59811 4.81287
    endloop
  endfacet
  facet normal -0.432276 -0.848389 -0.30557
    outer loop
      vertex 5.6611 2.59811 4.81287
      vertex 5.54744 2.44168 5.40798
      vertex 5.05067 2.69479 5.40798
    endloop
  endfacet
  facet normal 0.679994 -0.346475 0.646191
    outer loop
      vertex 2.9268 0 2.55542
      vertex 3.155 1.43702 3.08579
      vertex 2.8425 0 2.64413
    endloop
  endfacet
  facet normal 0.679995 -0.346475 0.646191
    outer loop
      vertex 3.155 1.43702 3.08579
      vertex 2.9268 0 2.55542
      vertex 3.35588 1.83125 3.08579
    endloop
  endfacet
  facet normal 0.34869 -0.34869 0.86996
    outer loop
      vertex 3.76543 1.5337 2.71799
      vertex 3.7804 0 2.09726
      vertex 3.9663 1.73457 2.71799
    endloop
  endfacet
  facet normal 0.348689 -0.34869 0.86996
    outer loop
      vertex 3.7804 0 2.09726
      vertex 3.76543 1.5337 2.71799
      vertex 3.54796 0 2.19043
    endloop
  endfacet
  facet normal 0.848389 -0.432276 -0.30557
    outer loop
      vertex 2.90189 2.1611 4.81287
      vertex 3.05832 2.04744 5.40798
      vertex 2.8052 1.55067 5.40798
    endloop
  endfacet
  facet normal 0.127097 -0.802456 0.583019
    outer loop
      vertex 4.06298 2.345 3.08579
      vertex 4.5 2.78201 3.59202
      vertex 3.94933 2.69479 3.59202
    endloop
  endfacet
  facet normal 0.886365 -0.345179 0.308559
    outer loop
      vertex 2.1377 0 3.77478
      vertex 2.6213 1.61042 4.18713
      vertex 2.02852 0 4.08841
    endloop
  endfacet
  facet normal -0.673286 -0.673286 -0.30557
    outer loop
      vertex 6.09811 2.1611 4.81287
      vertex 5.54744 2.44168 5.40798
      vertex 5.6611 2.59811 4.81287
    endloop
  endfacet
  facet normal -0.673286 -0.673286 -0.30557
    outer loop
      vertex 5.54744 2.44168 5.40798
      vertex 6.09811 2.1611 4.81287
      vertex 5.94168 2.04744 5.40798
    endloop
  endfacet
  facet normal -0.891007 -0.45399 0
    outer loop
      vertex 6.37869 1.61042 4.18713
      vertex 6.09811 2.1611 4.81287
      vertex 6.09811 2.1611 4.18713
    endloop
  endfacet
  facet normal -0.891007 -0.45399 0
    outer loop
      vertex 6.09811 2.1611 4.81287
      vertex 6.37869 1.61042 4.18713
      vertex 6.37869 1.61042 4.81287
    endloop
  endfacet
  facet normal -0.0549776 -0.347115 -0.93621
    outer loop
      vertex 4.68796 0 6.97839
      vertex 4.78058 1.86354 6.28201
      vertex 4.88837 0 6.96662
    endloop
  endfacet
  facet normal -0.0549782 -0.347115 -0.93621
    outer loop
      vertex 4.78058 1.86354 6.28201
      vertex 4.68796 0 6.97839
      vertex 4.5 1.90798 6.28201
    endloop
  endfacet
  facet normal 0.127097 -0.802456 -0.583019
    outer loop
      vertex 4.5 2.78201 5.40798
      vertex 4.06298 2.345 5.91421
      vertex 3.94933 2.69479 5.40798
    endloop
  endfacet
  facet normal -0.432276 -0.84839 0.305569
    outer loop
      vertex 5.6611 2.59811 4.18713
      vertex 5.11042 2.87869 4.18713
      vertex 5.05067 2.69479 3.59202
    endloop
  endfacet
  facet normal -0.127097 -0.802456 0.583019
    outer loop
      vertex 4.93702 2.345 3.08579
      vertex 5.05067 2.69479 3.59202
      vertex 4.5 2.78201 3.59202
    endloop
  endfacet
  facet normal -0.475384 -0.345691 0.809017
    outer loop
      vertex 5.23457 1.5337 2.71799
      vertex 6.0732 0 2.55542
      vertex 5.64412 1.83125 3.08579
    endloop
  endfacet
  facet normal -0.475384 -0.345691 0.809016
    outer loop
      vertex 6.0732 0 2.55542
      vertex 5.23457 1.5337 2.71799
      vertex 5.70634 0 2.33986
    endloop
  endfacet
  facet normal -0.418996 -0.418996 0.805534
    outer loop
      vertex 5.33125 2.14412 3.08579
      vertex 5.23457 1.5337 2.71799
      vertex 5.64412 1.83125 3.08579
    endloop
  endfacet
  facet normal -0.418996 -0.418996 0.805534
    outer loop
      vertex 5.23457 1.5337 2.71799
      vertex 5.33125 2.14412 3.08579
      vertex 5.0337 1.73457 2.71799
    endloop
  endfacet
  facet normal -0.73462 -0.343954 0.584833
    outer loop
      vertex 6.21124 0 2.70069
      vertex 6.39483 0 2.9313
      vertex 5.845 1.43702 3.08579
    endloop
  endfacet
  facet normal -0.679994 -0.346475 0.646191
    outer loop
      vertex 6.15749 0 2.64413
      vertex 6.21124 0 2.70069
      vertex 5.845 1.43702 3.08579
    endloop
  endfacet
  facet normal 0.0926955 -0.585255 0.805533
    outer loop
      vertex 4.5 1.90798 2.71799
      vertex 4.5 2.41421 3.08579
      vertex 4.06298 2.345 3.08579
    endloop
  endfacet
  facet normal 0.891007 -0.45399 0
    outer loop
      vertex 2.6213 1.61042 4.81287
      vertex 2.90189 2.1611 4.18713
      vertex 2.90189 2.1611 4.81287
    endloop
  endfacet
  facet normal 0.891007 -0.45399 0
    outer loop
      vertex 2.90189 2.1611 4.18713
      vertex 2.6213 1.61042 4.81287
      vertex 2.6213 1.61042 4.18713
    endloop
  endfacet
  facet normal 0.368849 -0.723906 0.583019
    outer loop
      vertex 4.06298 2.345 3.08579
      vertex 3.94933 2.69479 3.59202
      vertex 3.45256 2.44168 3.59202
    endloop
  endfacet
  facet normal -0.127097 -0.802456 0.583019
    outer loop
      vertex 4.93702 2.345 3.08579
      vertex 4.5 2.78201 3.59202
      vertex 4.5 2.41421 3.08579
    endloop
  endfacet
  facet normal -0.177514 -0.34839 0.920388
    outer loop
      vertex 4.88837 0 2.03338
      vertex 5.04311 0 2.06322
      vertex 4.78058 1.86354 2.71799
    endloop
  endfacet
  facet normal 0.177514 -0.34839 -0.920388
    outer loop
      vertex 4.21942 1.86354 6.28201
      vertex 4.11162 0 6.96662
      vertex 3.95689 0 6.93678
    endloop
  endfacet
  facet normal 0.34869 -0.34869 -0.86996
    outer loop
      vertex 3.7804 0 6.90274
      vertex 3.76543 1.5337 6.28201
      vertex 3.9663 1.73457 6.28201
    endloop
  endfacet
  facet normal 0.34869 -0.34869 -0.86996
    outer loop
      vertex 3.76543 1.5337 6.28201
      vertex 3.7804 0 6.90274
      vertex 3.54796 0 6.80957
    endloop
  endfacet
  facet normal 0.73462 -0.343954 -0.584833
    outer loop
      vertex 2.29624 0 5.68065
      vertex 3.155 1.43702 5.91421
      vertex 2.60517 0 6.0687
    endloop
  endfacet
  facet normal 0.73462 -0.343954 -0.584833
    outer loop
      vertex 3.155 1.43702 5.91421
      vertex 2.29624 0 5.68065
      vertex 2.8052 1.55067 5.40798
    endloop
  endfacet
  facet normal 0.475384 -0.345691 -0.809017
    outer loop
      vertex 3.76543 1.5337 6.28201
      vertex 3.54796 0 6.80957
      vertex 3.29366 0 6.66014
    endloop
  endfacet
  facet normal 0.734619 -0.343954 -0.584833
    outer loop
      vertex 3.155 1.43702 5.91421
      vertex 2.78876 0 6.29931
      vertex 2.60517 0 6.0687
    endloop
  endfacet
  facet normal 0.475384 -0.345691 0.809017
    outer loop
      vertex 3.54796 0 2.19043
      vertex 3.76543 1.5337 2.71799
      vertex 3.29366 0 2.33986
    endloop
  endfacet
  facet normal 0.679996 -0.346475 0.64619
    outer loop
      vertex 2.8425 0 2.64413
      vertex 3.155 1.43702 3.08579
      vertex 2.78876 0 2.70069
    endloop
  endfacet
  facet normal 0.84839 -0.432276 0.305569
    outer loop
      vertex 2.8052 1.55067 3.59202
      vertex 2.90189 2.1611 4.18713
      vertex 2.6213 1.61042 4.18713
    endloop
  endfacet
  facet normal 0.707107 -0.707107 0
    outer loop
      vertex 2.90189 2.1611 4.81287
      vertex 3.3389 2.59811 4.18713
      vertex 3.3389 2.59811 4.81287
    endloop
  endfacet
  facet normal 0.707107 -0.707107 0
    outer loop
      vertex 3.3389 2.59811 4.18713
      vertex 2.90189 2.1611 4.81287
      vertex 2.90189 2.1611 4.18713
    endloop
  endfacet
  facet normal 0.938443 -0.345434 0
    outer loop
      vertex 2.02852 0 4.91159
      vertex 2.6213 1.61042 4.18713
      vertex 2.6213 1.61042 4.81287
    endloop
  endfacet
  facet normal 0.938443 -0.345434 0
    outer loop
      vertex 2.6213 1.61042 4.18713
      vertex 2.02852 0 4.91159
      vertex 2.02852 0 4.08841
    endloop
  endfacet
  facet normal 0.432276 -0.84839 0.305569
    outer loop
      vertex 3.94933 2.69479 3.59202
      vertex 3.88958 2.87869 4.18713
      vertex 3.3389 2.59811 4.18713
    endloop
  endfacet
  facet normal -0.269012 -0.527966 -0.805533
    outer loop
      vertex 4.93702 2.345 5.91421
      vertex 5.33125 2.14412 5.91421
      vertex 4.78058 1.86354 6.28201
    endloop
  endfacet
  facet normal -0.368849 -0.723906 -0.583019
    outer loop
      vertex 5.54744 2.44168 5.40798
      vertex 5.33125 2.14412 5.91421
      vertex 4.93702 2.345 5.91421
    endloop
  endfacet
  facet normal -0.368849 -0.723906 0.583019
    outer loop
      vertex 5.33125 2.14412 3.08579
      vertex 5.54744 2.44168 3.59202
      vertex 4.93702 2.345 3.08579
    endloop
  endfacet
  facet normal -0.574495 -0.574495 0.583019
    outer loop
      vertex 5.54744 2.44168 3.59202
      vertex 5.64412 1.83125 3.08579
      vertex 5.94168 2.04744 3.59202
    endloop
  endfacet
  facet normal -0.574495 -0.574495 0.583019
    outer loop
      vertex 5.64412 1.83125 3.08579
      vertex 5.54744 2.44168 3.59202
      vertex 5.33125 2.14412 3.08579
    endloop
  endfacet
  facet normal -0.127097 -0.802456 -0.583019
    outer loop
      vertex 4.5 2.78201 5.40798
      vertex 4.93702 2.345 5.91421
      vertex 4.5 2.41421 5.91421
    endloop
  endfacet
  facet normal -0.127097 -0.802456 -0.583019
    outer loop
      vertex 5.05067 2.69479 5.40798
      vertex 4.93702 2.345 5.91421
      vertex 4.5 2.78201 5.40798
    endloop
  endfacet
  facet normal -0.368849 -0.723906 -0.583019
    outer loop
      vertex 5.05067 2.69479 5.40798
      vertex 5.54744 2.44168 5.40798
      vertex 4.93702 2.345 5.91421
    endloop
  endfacet
  facet normal -0.574495 -0.574495 -0.583019
    outer loop
      vertex 5.64412 1.83125 5.91421
      vertex 5.54744 2.44168 5.40798
      vertex 5.94168 2.04744 5.40798
    endloop
  endfacet
  facet normal -0.574495 -0.574495 -0.583019
    outer loop
      vertex 5.54744 2.44168 5.40798
      vertex 5.64412 1.83125 5.91421
      vertex 5.33125 2.14412 5.91421
    endloop
  endfacet
  facet normal -0.723906 -0.368849 0.583019
    outer loop
      vertex 5.845 1.43702 3.08579
      vertex 5.94168 2.04744 3.59202
      vertex 5.64412 1.83125 3.08579
    endloop
  endfacet
  facet normal -0.269012 -0.527966 0.805533
    outer loop
      vertex 5.33125 2.14412 3.08579
      vertex 4.93702 2.345 3.08579
      vertex 4.78058 1.86354 2.71799
    endloop
  endfacet
  facet normal -0.368849 -0.723906 0.583019
    outer loop
      vertex 5.54744 2.44168 3.59202
      vertex 5.05067 2.69479 3.59202
      vertex 4.93702 2.345 3.08579
    endloop
  endfacet
  facet normal -0.432276 -0.848389 0.30557
    outer loop
      vertex 5.54744 2.44168 3.59202
      vertex 5.6611 2.59811 4.18713
      vertex 5.05067 2.69479 3.59202
    endloop
  endfacet
  facet normal 0.432276 -0.848389 0.30557
    outer loop
      vertex 3.45256 2.44168 3.59202
      vertex 3.94933 2.69479 3.59202
      vertex 3.3389 2.59811 4.18713
    endloop
  endfacet
  facet normal 0.148953 -0.940447 0.30557
    outer loop
      vertex 3.94933 2.69479 3.59202
      vertex 4.5 2.78201 3.59202
      vertex 3.88958 2.87869 4.18713
    endloop
  endfacet
  facet normal 0.269012 -0.527966 0.805533
    outer loop
      vertex 4.21942 1.86354 2.71799
      vertex 4.06298 2.345 3.08579
      vertex 3.66875 2.14412 3.08579
    endloop
  endfacet
  facet normal 0.092696 -0.585255 0.805534
    outer loop
      vertex 4.21942 1.86354 2.71799
      vertex 4.5 1.90798 2.71799
      vertex 4.06298 2.345 3.08579
    endloop
  endfacet
  facet normal -0.34869 -0.34869 0.86996
    outer loop
      vertex 5.23457 1.5337 2.71799
      vertex 5.2196 0 2.09726
      vertex 5.45204 0 2.19043
    endloop
  endfacet
  facet normal -0.34869 -0.34869 0.86996
    outer loop
      vertex 5.2196 0 2.09726
      vertex 5.23457 1.5337 2.71799
      vertex 5.0337 1.73457 2.71799
    endloop
  endfacet
  facet normal -0.177514 -0.34839 0.920388
    outer loop
      vertex 5.0337 1.73457 2.71799
      vertex 5.04311 0 2.06322
      vertex 5.2196 0 2.09726
    endloop
  endfacet
  facet normal -0.177514 -0.34839 0.920388
    outer loop
      vertex 5.04311 0 2.06322
      vertex 5.0337 1.73457 2.71799
      vertex 4.78058 1.86354 2.71799
    endloop
  endfacet
  facet normal -0.0549783 -0.347115 0.93621
    outer loop
      vertex 4.68796 0 2.02161
      vertex 4.5 1.90798 2.71799
      vertex 4.5 0 2.01057
    endloop
  endfacet
  facet normal -0.0549776 -0.347115 0.93621
    outer loop
      vertex 4.78058 1.86354 2.71799
      vertex 4.68796 0 2.02161
      vertex 4.88837 0 2.03338
    endloop
  endfacet
  facet normal -0.0549782 -0.347115 0.93621
    outer loop
      vertex 4.68796 0 2.02161
      vertex 4.78058 1.86354 2.71799
      vertex 4.5 1.90798 2.71799
    endloop
  endfacet
  facet normal 0.054978 -0.347115 0.93621
    outer loop
      vertex 4.21942 1.86354 2.71799
      vertex 4.31204 0 2.02161
      vertex 4.5 1.90798 2.71799
    endloop
  endfacet
  facet normal 0.0549775 -0.347115 0.93621
    outer loop
      vertex 4.31204 0 2.02161
      vertex 4.21942 1.86354 2.71799
      vertex 4.11162 0 2.03338
    endloop
  endfacet
  facet normal 0.177514 -0.34839 0.920388
    outer loop
      vertex 4.11162 0 2.03338
      vertex 4.21942 1.86354 2.71799
      vertex 3.95689 0 2.06322
    endloop
  endfacet
  facet normal 0.673286 -0.673286 -0.30557
    outer loop
      vertex 3.45256 2.44168 5.40798
      vertex 2.90189 2.1611 4.81287
      vertex 3.3389 2.59811 4.81287
    endloop
  endfacet
  facet normal 0.673286 -0.673286 -0.30557
    outer loop
      vertex 2.90189 2.1611 4.81287
      vertex 3.45256 2.44168 5.40798
      vertex 3.05832 2.04744 5.40798
    endloop
  endfacet
  facet normal 0.148953 -0.940447 -0.30557
    outer loop
      vertex 4.5 2.78201 5.40798
      vertex 3.94933 2.69479 5.40798
      vertex 3.88958 2.87869 4.81287
    endloop
  endfacet
  facet normal 0.475384 -0.345691 -0.809017
    outer loop
      vertex 2.9268 0 6.44458
      vertex 3.76543 1.5337 6.28201
      vertex 3.29366 0 6.66014
    endloop
  endfacet
  facet normal 0.475384 -0.345691 -0.809017
    outer loop
      vertex 3.76543 1.5337 6.28201
      vertex 2.9268 0 6.44458
      vertex 3.35588 1.83125 5.91421
    endloop
  endfacet
  facet normal 0.679997 -0.346475 -0.646188
    outer loop
      vertex 3.155 1.43702 5.91421
      vertex 2.8425 0 6.35587
      vertex 2.78876 0 6.29931
    endloop
  endfacet
  facet normal 0.723906 -0.368849 0.583019
    outer loop
      vertex 3.155 1.43702 3.08579
      vertex 3.35588 1.83125 3.08579
      vertex 3.05832 2.04744 3.59202
    endloop
  endfacet
  facet normal 0.886365 -0.345179 -0.308559
    outer loop
      vertex 2.6213 1.61042 4.81287
      vertex 2.1377 0 5.22521
      vertex 2.02852 0 4.91159
    endloop
  endfacet
  facet normal 0.886365 -0.345179 -0.308559
    outer loop
      vertex 2.1377 0 5.22521
      vertex 2.8052 1.55067 5.40798
      vertex 2.29624 0 5.68065
    endloop
  endfacet
  facet normal 0.886365 -0.345179 -0.308559
    outer loop
      vertex 2.8052 1.55067 5.40798
      vertex 2.1377 0 5.22521
      vertex 2.6213 1.61042 4.81287
    endloop
  endfacet
  facet normal 0.673286 -0.673286 0.30557
    outer loop
      vertex 2.90189 2.1611 4.18713
      vertex 3.45256 2.44168 3.59202
      vertex 3.3389 2.59811 4.18713
    endloop
  endfacet
  facet normal 0.673286 -0.673286 0.30557
    outer loop
      vertex 3.45256 2.44168 3.59202
      vertex 2.90189 2.1611 4.18713
      vertex 3.05832 2.04744 3.59202
    endloop
  endfacet
  facet normal 0.848389 -0.432276 0.30557
    outer loop
      vertex 3.05832 2.04744 3.59202
      vertex 2.90189 2.1611 4.18713
      vertex 2.8052 1.55067 3.59202
    endloop
  endfacet
  facet normal -0.418996 -0.418996 -0.805534
    outer loop
      vertex 5.23457 1.5337 6.28201
      vertex 5.33125 2.14412 5.91421
      vertex 5.64412 1.83125 5.91421
    endloop
  endfacet
  facet normal -0.418996 -0.418996 -0.805534
    outer loop
      vertex 5.33125 2.14412 5.91421
      vertex 5.23457 1.5337 6.28201
      vertex 5.0337 1.73457 6.28201
    endloop
  endfacet
  facet normal -0.0926957 -0.585255 -0.805533
    outer loop
      vertex 4.5 2.41421 5.91421
      vertex 4.93702 2.345 5.91421
      vertex 4.5 1.90798 6.28201
    endloop
  endfacet
  facet normal 0.269012 -0.527966 -0.805533
    outer loop
      vertex 4.06298 2.345 5.91421
      vertex 4.21942 1.86354 6.28201
      vertex 3.66875 2.14412 5.91421
    endloop
  endfacet
  facet normal 0.432276 -0.848389 -0.30557
    outer loop
      vertex 3.94933 2.69479 5.40798
      vertex 3.45256 2.44168 5.40798
      vertex 3.3389 2.59811 4.81287
    endloop
  endfacet
  facet normal 0.127097 -0.802456 -0.583019
    outer loop
      vertex 4.5 2.78201 5.40798
      vertex 4.5 2.41421 5.91421
      vertex 4.06298 2.345 5.91421
    endloop
  endfacet
  facet normal -0.0926963 -0.585255 -0.805534
    outer loop
      vertex 4.93702 2.345 5.91421
      vertex 4.78058 1.86354 6.28201
      vertex 4.5 1.90798 6.28201
    endloop
  endfacet
  facet normal -0.673286 -0.673286 0.30557
    outer loop
      vertex 5.54744 2.44168 3.59202
      vertex 6.09811 2.1611 4.18713
      vertex 5.6611 2.59811 4.18713
    endloop
  endfacet
  facet normal -0.673286 -0.673286 0.30557
    outer loop
      vertex 6.09811 2.1611 4.18713
      vertex 5.54744 2.44168 3.59202
      vertex 5.94168 2.04744 3.59202
    endloop
  endfacet
  facet normal -0.848389 -0.432276 0.30557
    outer loop
      vertex 6.19479 1.55067 3.59202
      vertex 6.09811 2.1611 4.18713
      vertex 5.94168 2.04744 3.59202
    endloop
  endfacet
  facet normal 0.45399 -0.891007 0
    outer loop
      vertex 3.3389 2.59811 4.18713
      vertex 3.88958 2.87869 4.81287
      vertex 3.3389 2.59811 4.81287
    endloop
  endfacet
  facet normal 0.45399 -0.891007 0
    outer loop
      vertex 3.88958 2.87869 4.81287
      vertex 3.3389 2.59811 4.18713
      vertex 3.88958 2.87869 4.18713
    endloop
  endfacet
  facet normal 0.156434 -0.987688 0
    outer loop
      vertex 3.88958 2.87869 4.18713
      vertex 4.5 2.97538 4.81287
      vertex 3.88958 2.87869 4.81287
    endloop
  endfacet
  facet normal 0.156434 -0.987688 0
    outer loop
      vertex 4.5 2.97538 4.81287
      vertex 3.88958 2.87869 4.18713
      vertex 4.5 2.97538 4.18713
    endloop
  endfacet
  facet normal 0.092696 -0.585255 -0.805534
    outer loop
      vertex 4.5 1.90798 6.28201
      vertex 4.21942 1.86354 6.28201
      vertex 4.06298 2.345 5.91421
    endloop
  endfacet
  facet normal 0.574495 -0.574495 -0.583019
    outer loop
      vertex 3.35588 1.83125 5.91421
      vertex 3.45256 2.44168 5.40798
      vertex 3.66875 2.14412 5.91421
    endloop
  endfacet
  facet normal 0.574495 -0.574495 -0.583019
    outer loop
      vertex 3.45256 2.44168 5.40798
      vertex 3.35588 1.83125 5.91421
      vertex 3.05832 2.04744 5.40798
    endloop
  endfacet
  facet normal 0.177514 -0.34839 -0.920388
    outer loop
      vertex 3.95689 0 6.93678
      vertex 3.9663 1.73457 6.28201
      vertex 4.21942 1.86354 6.28201
    endloop
  endfacet
  facet normal 0.177514 -0.34839 -0.920388
    outer loop
      vertex 3.9663 1.73457 6.28201
      vertex 3.95689 0 6.93678
      vertex 3.7804 0 6.90274
    endloop
  endfacet
  facet normal 0.475384 -0.345691 0.809017
    outer loop
      vertex 2.9268 0 2.55542
      vertex 3.76543 1.5337 2.71799
      vertex 3.35588 1.83125 3.08579
    endloop
  endfacet
  facet normal 0.475384 -0.345691 0.809017
    outer loop
      vertex 3.76543 1.5337 2.71799
      vertex 2.9268 0 2.55542
      vertex 3.29366 0 2.33986
    endloop
  endfacet
  facet normal -0.0549772 -0.347114 -0.93621
    outer loop
      vertex 4.5 1.90798 6.28201
      vertex 4.68796 0 6.97839
      vertex 4.5 0 6.98943
    endloop
  endfacet
  facet normal 0.054977 -0.347114 -0.93621
    outer loop
      vertex 4.5 1.90798 6.28201
      vertex 4.5 0 6.98943
      vertex 4.31204 0 6.97839
    endloop
  endfacet
  facet normal -0.177514 -0.34839 -0.920388
    outer loop
      vertex 5.04311 0 6.93678
      vertex 4.88837 0 6.96662
      vertex 4.78058 1.86354 6.28201
    endloop
  endfacet
  facet normal -0.269013 -0.527966 -0.805534
    outer loop
      vertex 5.33125 2.14412 5.91421
      vertex 5.0337 1.73457 6.28201
      vertex 4.78058 1.86354 6.28201
    endloop
  endfacet
  facet normal 0.368849 -0.723906 -0.583019
    outer loop
      vertex 4.06298 2.345 5.91421
      vertex 3.66875 2.14412 5.91421
      vertex 3.45256 2.44168 5.40798
    endloop
  endfacet
  facet normal -0.177514 -0.34839 -0.920388
    outer loop
      vertex 5.04311 0 6.93678
      vertex 5.0337 1.73457 6.28201
      vertex 5.2196 0 6.90274
    endloop
  endfacet
  facet normal -0.177514 -0.34839 -0.920388
    outer loop
      vertex 5.0337 1.73457 6.28201
      vertex 5.04311 0 6.93678
      vertex 4.78058 1.86354 6.28201
    endloop
  endfacet
  facet normal -0.34869 -0.34869 -0.86996
    outer loop
      vertex 5.2196 0 6.90274
      vertex 5.23457 1.5337 6.28201
      vertex 5.45204 0 6.80957
    endloop
  endfacet
  facet normal -0.34869 -0.34869 -0.86996
    outer loop
      vertex 5.23457 1.5337 6.28201
      vertex 5.2196 0 6.90274
      vertex 5.0337 1.73457 6.28201
    endloop
  endfacet
  facet normal 0.418996 -0.418996 -0.805534
    outer loop
      vertex 3.76543 1.5337 6.28201
      vertex 3.66875 2.14412 5.91421
      vertex 3.9663 1.73457 6.28201
    endloop
  endfacet
  facet normal 0.418996 -0.418996 -0.805534
    outer loop
      vertex 3.66875 2.14412 5.91421
      vertex 3.76543 1.5337 6.28201
      vertex 3.35588 1.83125 5.91421
    endloop
  endfacet
  facet normal 0.269013 -0.527966 -0.805534
    outer loop
      vertex 4.21942 1.86354 6.28201
      vertex 3.9663 1.73457 6.28201
      vertex 3.66875 2.14412 5.91421
    endloop
  endfacet
endsolid OpenSCAD_Model
