solid OpenSCAD_Model
  facet normal -1 0 0
    outer loop
      vertex 0 0 0
      vertex 0 15 9.02
      vertex 0 15 0
    endloop
  endfacet
  facet normal -1 -0 0
    outer loop
      vertex 0 15 9.02
      vertex 0 0 0
      vertex 0 0 9.02
    endloop
  endfacet
  facet normal -0 0 1
    outer loop
      vertex 0 15 9.02
      vertex 9.02 0 9.02
      vertex 9.02 15 9.02
    endloop
  endfacet
  facet normal 0 0 1
    outer loop
      vertex 9.02 0 9.02
      vertex 0 15 9.02
      vertex 0 0 9.02
    endloop
  endfacet
  facet normal 1 -0 0
    outer loop
      vertex 9.02 0 9.02
      vertex 9.02 15 0
      vertex 9.02 15 9.02
    endloop
  endfacet
  facet normal 1 0 0
    outer loop
      vertex 9.02 15 0
      vertex 9.02 0 9.02
      vertex 9.02 0 0
    endloop
  endfacet
  facet normal 0 1 -0
    outer loop
      vertex 9.02 15 0
      vertex 0 15 9.02
      vertex 9.02 15 9.02
    endloop
  endfacet
  facet normal 0 1 0
    outer loop
      vertex 0 15 9.02
      vertex 9.02 15 0
      vertex 0 15 0
    endloop
  endfacet
  facet normal 0 0 -1
    outer loop
      vertex 0 0 0
      vertex 9.02 15 0
      vertex 9.02 0 0
    endloop
  endfacet
  facet normal -0 0 -1
    outer loop
      vertex 9.02 15 0
      vertex 0 0 0
      vertex 0 15 0
    endloop
  endfacet
  facet normal 0 -1 0
    outer loop
      vertex 0 0 9.02
      vertex 4.5 0 8.16494
      vertex 9.02 0 9.02
    endloop
  endfacet
  facet normal 0 -1 0
    outer loop
      vertex 0 0 9.02
      vertex 4.46235 0 8.16391
      vertex 4.5 0 8.16494
    endloop
  endfacet
  facet normal 0 -1 0
    outer loop
      vertex 0 0 9.02
      vertex 4.32086 0 8.16006
      vertex 4.46235 0 8.16391
    endloop
  endfacet
  facet normal 0 -1 0
    outer loop
      vertex 0 0 9.02
      vertex 4.19473 0 8.14896
      vertex 4.32086 0 8.16006
    endloop
  endfacet
  facet normal 0 -1 0
    outer loop
      vertex 0 0 9.02
      vertex 4.16058 0 8.14595
      vertex 4.19473 0 8.14896
    endloop
  endfacet
  facet normal 0 -1 0
    outer loop
      vertex 0 0 9.02
      vertex 4.03561 0 8.1242
      vertex 4.16058 0 8.14595
    endloop
  endfacet
  facet normal 0 -1 0
    outer loop
      vertex 0 0 9.02
      vertex 3.84228 0 8.07131
      vertex 4.03561 0 8.1242
    endloop
  endfacet
  facet normal 0 -1 0
    outer loop
      vertex 0 0 9.02
      vertex 3.11039 0 7.87108
      vertex 3.84228 0 8.07131
    endloop
  endfacet
  facet normal 0 -1 0
    outer loop
      vertex 0 0 9.02
      vertex 3.0689 0 7.85629
      vertex 3.11039 0 7.87108
    endloop
  endfacet
  facet normal 0 -1 0
    outer loop
      vertex 0 0 9.02
      vertex 2.90236 0 7.79691
      vertex 3.0689 0 7.85629
    endloop
  endfacet
  facet normal 0 -1 0
    outer loop
      vertex 0 0 9.02
      vertex 2.16646 0 7.28427
      vertex 2.90236 0 7.79691
    endloop
  endfacet
  facet normal 0 -1 0
    outer loop
      vertex 0 0 9.02
      vertex 1.97731 0 7.15251
      vertex 2.16646 0 7.28427
    endloop
  endfacet
  facet normal 0 -1 0
    outer loop
      vertex 0 0 9.02
      vertex 1.42251 0 6.40099
      vertex 1.97731 0 7.15251
    endloop
  endfacet
  facet normal 0 -1 0
    outer loop
      vertex 0 0 9.02
      vertex 1.28907 0 6.22024
      vertex 1.42251 0 6.40099
    endloop
  endfacet
  facet normal 0 -1 0
    outer loop
      vertex 0 0 9.02
      vertex 1.21969 0 6.00795
      vertex 1.28907 0 6.22024
    endloop
  endfacet
  facet normal 0 -1 0
    outer loop
      vertex 0 0 9.02
      vertex 0.921626 0 5.09592
      vertex 1.21969 0 6.00795
    endloop
  endfacet
  facet normal 0 -1 0
    outer loop
      vertex 0 0 9.02
      vertex 0.921626 0 3.90407
      vertex 0.921626 0 5.09592
    endloop
  endfacet
  facet normal 0 -1 0
    outer loop
      vertex 0 0 0
      vertex 1.21969 0 2.99205
      vertex 0.921626 0 3.90407
    endloop
  endfacet
  facet normal 0 -1 -0
    outer loop
      vertex 4.46235 0 0.836085
      vertex 0 0 0
      vertex 4.5 0 0.835059
    endloop
  endfacet
  facet normal 0 -1 -0
    outer loop
      vertex 4.32086 0 0.839944
      vertex 0 0 0
      vertex 4.46235 0 0.836085
    endloop
  endfacet
  facet normal 0 -1 -0
    outer loop
      vertex 4.19473 0 0.851042
      vertex 0 0 0
      vertex 4.32086 0 0.839944
    endloop
  endfacet
  facet normal 0 -1 -0
    outer loop
      vertex 4.16058 0 0.854048
      vertex 0 0 0
      vertex 4.19473 0 0.851042
    endloop
  endfacet
  facet normal 0 -1 -0
    outer loop
      vertex 4.03561 0 0.875799
      vertex 0 0 0
      vertex 4.16058 0 0.854048
    endloop
  endfacet
  facet normal 0 -1 -0
    outer loop
      vertex 3.84228 0 0.92869
      vertex 0 0 0
      vertex 4.03561 0 0.875799
    endloop
  endfacet
  facet normal 0 -1 -0
    outer loop
      vertex 3.11039 0 1.12892
      vertex 0 0 0
      vertex 3.84228 0 0.92869
    endloop
  endfacet
  facet normal 0 -1 -0
    outer loop
      vertex 3.0689 0 1.14371
      vertex 0 0 0
      vertex 3.11039 0 1.12892
    endloop
  endfacet
  facet normal 0 -1 -0
    outer loop
      vertex 2.90236 0 1.20309
      vertex 0 0 0
      vertex 3.0689 0 1.14371
    endloop
  endfacet
  facet normal 0 -1 -0
    outer loop
      vertex 2.16646 0 1.71573
      vertex 0 0 0
      vertex 2.90236 0 1.20309
    endloop
  endfacet
  facet normal 0 -1 -0
    outer loop
      vertex 1.97731 0 1.84749
      vertex 0 0 0
      vertex 2.16646 0 1.71573
    endloop
  endfacet
  facet normal 0 -1 -0
    outer loop
      vertex 1.42251 0 2.59901
      vertex 0 0 0
      vertex 1.97731 0 1.84749
    endloop
  endfacet
  facet normal 0 -1 -0
    outer loop
      vertex 1.28907 0 2.77975
      vertex 0 0 0
      vertex 1.42251 0 2.59901
    endloop
  endfacet
  facet normal 0 -1 -0
    outer loop
      vertex 1.21969 0 2.99205
      vertex 0 0 0
      vertex 1.28907 0 2.77975
    endloop
  endfacet
  facet normal 0 -1 0
    outer loop
      vertex 0 0 0
      vertex 0.921626 0 3.90407
      vertex 0 0 9.02
    endloop
  endfacet
  facet normal 0 -1 0
    outer loop
      vertex 4.53765 0 8.16391
      vertex 9.02 0 9.02
      vertex 4.5 0 8.16494
    endloop
  endfacet
  facet normal 0 -1 0
    outer loop
      vertex 4.67914 0 8.16006
      vertex 9.02 0 9.02
      vertex 4.53765 0 8.16391
    endloop
  endfacet
  facet normal 0 -1 0
    outer loop
      vertex 4.80527 0 8.14896
      vertex 9.02 0 9.02
      vertex 4.67914 0 8.16006
    endloop
  endfacet
  facet normal 0 -1 0
    outer loop
      vertex 4.83942 0 8.14595
      vertex 9.02 0 9.02
      vertex 4.80527 0 8.14896
    endloop
  endfacet
  facet normal 0 -1 0
    outer loop
      vertex 4.96439 0 8.1242
      vertex 9.02 0 9.02
      vertex 4.83942 0 8.14595
    endloop
  endfacet
  facet normal 0 -1 0
    outer loop
      vertex 5.15772 0 8.07131
      vertex 9.02 0 9.02
      vertex 4.96439 0 8.1242
    endloop
  endfacet
  facet normal 0 -1 0
    outer loop
      vertex 5.88961 0 7.87108
      vertex 9.02 0 9.02
      vertex 5.15772 0 8.07131
    endloop
  endfacet
  facet normal 0 -1 0
    outer loop
      vertex 5.9311 0 7.85629
      vertex 9.02 0 9.02
      vertex 5.88961 0 7.87108
    endloop
  endfacet
  facet normal 0 -1 0
    outer loop
      vertex 6.09764 0 7.79691
      vertex 9.02 0 9.02
      vertex 5.9311 0 7.85629
    endloop
  endfacet
  facet normal 0 -1 0
    outer loop
      vertex 6.83354 0 7.28427
      vertex 9.02 0 9.02
      vertex 6.09764 0 7.79691
    endloop
  endfacet
  facet normal 0 -1 0
    outer loop
      vertex 7.02269 0 7.15251
      vertex 9.02 0 9.02
      vertex 6.83354 0 7.28427
    endloop
  endfacet
  facet normal 0 -1 0
    outer loop
      vertex 7.57749 0 6.40099
      vertex 9.02 0 9.02
      vertex 7.02269 0 7.15251
    endloop
  endfacet
  facet normal 0 -1 0
    outer loop
      vertex 7.71093 0 6.22024
      vertex 9.02 0 9.02
      vertex 7.57749 0 6.40099
    endloop
  endfacet
  facet normal 0 -1 0
    outer loop
      vertex 8.0095 0 5.30667
      vertex 9.02 0 9.02
      vertex 7.71093 0 6.22024
    endloop
  endfacet
  facet normal 0 -1 0
    outer loop
      vertex 8.07837 0 5.09592
      vertex 9.02 0 9.02
      vertex 8.0095 0 5.30667
    endloop
  endfacet
  facet normal 0 -1 0
    outer loop
      vertex 8.07837 0 3.90407
      vertex 9.02 0 9.02
      vertex 8.07837 0 5.09592
    endloop
  endfacet
  facet normal 0 -1 0
    outer loop
      vertex 9.02 0 0
      vertex 8.0095 0 3.69332
      vertex 7.71093 0 2.77975
    endloop
  endfacet
  facet normal 0 -1 0
    outer loop
      vertex 9.02 0 0
      vertex 4.5 0 0.835059
      vertex 0 0 0
    endloop
  endfacet
  facet normal 0 -1 0
    outer loop
      vertex 4.5 0 0.835059
      vertex 9.02 0 0
      vertex 4.53765 0 0.836085
    endloop
  endfacet
  facet normal 0 -1 0
    outer loop
      vertex 4.53765 0 0.836085
      vertex 9.02 0 0
      vertex 4.67914 0 0.839944
    endloop
  endfacet
  facet normal 0 -1 0
    outer loop
      vertex 4.67914 0 0.839944
      vertex 9.02 0 0
      vertex 4.80527 0 0.851042
    endloop
  endfacet
  facet normal 0 -1 0
    outer loop
      vertex 4.80527 0 0.851042
      vertex 9.02 0 0
      vertex 4.83942 0 0.854048
    endloop
  endfacet
  facet normal 0 -1 0
    outer loop
      vertex 8.07837 0 3.90407
      vertex 9.02 0 0
      vertex 9.02 0 9.02
    endloop
  endfacet
  facet normal 0 -1 0
    outer loop
      vertex 8.0095 0 3.69332
      vertex 9.02 0 0
      vertex 8.07837 0 3.90407
    endloop
  endfacet
  facet normal 0 -1 0
    outer loop
      vertex 7.57749 0 2.59901
      vertex 9.02 0 0
      vertex 7.71093 0 2.77975
    endloop
  endfacet
  facet normal 0 -1 0
    outer loop
      vertex 7.02269 0 1.84749
      vertex 9.02 0 0
      vertex 7.57749 0 2.59901
    endloop
  endfacet
  facet normal 0 -1 0
    outer loop
      vertex 6.83354 0 1.71573
      vertex 9.02 0 0
      vertex 7.02269 0 1.84749
    endloop
  endfacet
  facet normal 0 -1 0
    outer loop
      vertex 6.09764 0 1.20309
      vertex 9.02 0 0
      vertex 6.83354 0 1.71573
    endloop
  endfacet
  facet normal 0 -1 0
    outer loop
      vertex 5.9311 0 1.14371
      vertex 9.02 0 0
      vertex 6.09764 0 1.20309
    endloop
  endfacet
  facet normal 0 -1 0
    outer loop
      vertex 5.88961 0 1.12892
      vertex 9.02 0 0
      vertex 5.9311 0 1.14371
    endloop
  endfacet
  facet normal 0 -1 0
    outer loop
      vertex 5.15772 0 0.92869
      vertex 9.02 0 0
      vertex 5.88961 0 1.12892
    endloop
  endfacet
  facet normal 0 -1 0
    outer loop
      vertex 4.96439 0 0.875799
      vertex 9.02 0 0
      vertex 5.15772 0 0.92869
    endloop
  endfacet
  facet normal 0 -1 0
    outer loop
      vertex 4.83942 0 0.854048
      vertex 9.02 0 0
      vertex 4.96439 0 0.875799
    endloop
  endfacet
  facet normal -0.527966 -0.269013 0.805534
    outer loop
      vertex 5.36354 9.78058 2.71799
      vertex 5.64412 10.3313 3.08579
      vertex 5.23457 10.0337 2.71799
    endloop
  endfacet
  facet normal -0.368849 -0.723906 0.583019
    outer loop
      vertex 5.54744 10.9417 3.59202
      vertex 5.05067 11.1948 3.59202
      vertex 4.93702 10.845 3.08579
    endloop
  endfacet
  facet normal 0.937314 -0.166149 0.306328
    outer loop
      vertex 1.21969 0 2.99205
      vertex 2.6213 10.1104 4.18713
      vertex 0.921626 0 3.90407
    endloop
  endfacet
  facet normal 0.848389 -0.432276 0.30557
    outer loop
      vertex 3.05832 10.5474 3.59202
      vertex 2.90189 10.6611 4.18713
      vertex 2.8052 10.0507 3.59202
    endloop
  endfacet
  facet normal -0.148952 -0.940447 0.305569
    outer loop
      vertex 5.11042 11.3787 4.18713
      vertex 4.5 11.4754 4.18713
      vertex 4.5 11.282 3.59202
    endloop
  endfacet
  facet normal 0.260153 -0.167583 -0.950913
    outer loop
      vertex 3.76543 10.0337 6.28201
      vertex 3.84228 0 8.07131
      vertex 3.11039 0 7.87108
    endloop
  endfacet
  facet normal -0.79322 -0.166982 0.585593
    outer loop
      vertex 7.02269 0 1.84749
      vertex 7.57749 0 2.59901
      vertex 5.845 9.93702 3.08579
    endloop
  endfacet
  facet normal -0.723906 -0.368849 -0.583019
    outer loop
      vertex 5.94168 10.5474 5.40798
      vertex 5.845 9.93702 5.91421
      vertex 5.64412 10.3313 5.91421
    endloop
  endfacet
  facet normal -0.269012 -0.527966 -0.805533
    outer loop
      vertex 4.93702 10.845 5.91421
      vertex 5.33125 10.6441 5.91421
      vertex 4.78058 10.3635 6.28201
    endloop
  endfacet
  facet normal 0.0863838 -0.169535 0.981731
    outer loop
      vertex 4.3161 9.75312 2.52462
      vertex 4.19473 0 0.851042
      vertex 4.40332 9.79756 2.52462
    endloop
  endfacet
  facet normal 0.0863844 -0.169535 0.981731
    outer loop
      vertex 4.19473 0 0.851042
      vertex 4.3161 9.75312 2.52462
      vertex 4.16058 0 0.854048
    endloop
  endfacet
  facet normal 0.0863838 -0.169535 -0.981731
    outer loop
      vertex 4.19473 0 8.14896
      vertex 4.3161 9.75312 6.47538
      vertex 4.40332 9.79756 6.47538
    endloop
  endfacet
  facet normal 0.0863691 -0.169535 -0.981732
    outer loop
      vertex 4.3161 9.75312 6.47538
      vertex 4.19473 0 8.14896
      vertex 4.16058 0 8.14595
    endloop
  endfacet
  facet normal -0.527966 -0.269013 -0.805534
    outer loop
      vertex 5.64412 10.3313 5.91421
      vertex 5.36354 9.78058 6.28201
      vertex 5.23457 10.0337 6.28201
    endloop
  endfacet
  facet normal 0.527966 -0.269013 -0.805534
    outer loop
      vertex 3.76543 10.0337 6.28201
      vertex 3.63646 9.78058 6.28201
      vertex 3.35588 10.3313 5.91421
    endloop
  endfacet
  facet normal -0.574495 -0.574495 -0.583019
    outer loop
      vertex 5.64412 10.3313 5.91421
      vertex 5.54744 10.9417 5.40798
      vertex 5.94168 10.5474 5.40798
    endloop
  endfacet
  facet normal -0.574495 -0.574495 -0.583019
    outer loop
      vertex 5.54744 10.9417 5.40798
      vertex 5.64412 10.3313 5.91421
      vertex 5.33125 10.6441 5.91421
    endloop
  endfacet
  facet normal -0.848389 -0.432276 -0.30557
    outer loop
      vertex 6.09811 10.6611 4.81287
      vertex 6.19479 10.0507 5.40798
      vertex 5.94168 10.5474 5.40798
    endloop
  endfacet
  facet normal -0.368849 -0.723906 -0.583019
    outer loop
      vertex 5.05067 11.1948 5.40798
      vertex 5.54744 10.9417 5.40798
      vertex 4.93702 10.845 5.91421
    endloop
  endfacet
  facet normal -0.563514 -0.167589 0.808929
    outer loop
      vertex 6.09764 0 1.20309
      vertex 6.83354 0 1.71573
      vertex 5.36354 9.78058 2.71799
    endloop
  endfacet
  facet normal -0.937314 -0.166149 0.306328
    outer loop
      vertex 7.71093 0 2.77975
      vertex 8.0095 0 3.69332
      vertex 6.19479 10.0507 3.59202
    endloop
  endfacet
  facet normal -0.563514 -0.167589 0.808929
    outer loop
      vertex 5.36354 9.78058 2.71799
      vertex 7.02269 0 1.84749
      vertex 5.845 9.93702 3.08579
    endloop
  endfacet
  facet normal -0.563514 -0.16759 0.808928
    outer loop
      vertex 7.02269 0 1.84749
      vertex 5.36354 9.78058 2.71799
      vertex 6.83354 0 1.71573
    endloop
  endfacet
  facet normal 0.127097 -0.802456 -0.583019
    outer loop
      vertex 4.5 11.282 5.40798
      vertex 4.5 10.9142 5.91421
      vertex 4.06298 10.845 5.91421
    endloop
  endfacet
  facet normal -0.563514 -0.16759 -0.808928
    outer loop
      vertex 5.36354 9.78058 6.28201
      vertex 7.02269 0 7.15251
      vertex 6.83354 0 7.28427
    endloop
  endfacet
  facet normal -0.563514 -0.167589 -0.808929
    outer loop
      vertex 7.02269 0 7.15251
      vertex 5.36354 9.78058 6.28201
      vertex 5.845 9.93702 5.91421
    endloop
  endfacet
  facet normal 0.848389 -0.432276 -0.30557
    outer loop
      vertex 2.90189 10.6611 4.81287
      vertex 3.05832 10.5474 5.40798
      vertex 2.8052 10.0507 5.40798
    endloop
  endfacet
  facet normal 0.0268602 -0.16962 -0.985143
    outer loop
      vertex 4.40332 9.79756 6.47538
      vertex 4.46235 0 8.16391
      vertex 4.32086 0 8.16006
    endloop
  endfacet
  facet normal 0.937314 -0.166149 0.306328
    outer loop
      vertex 1.21969 0 2.99205
      vertex 2.8052 10.0507 3.59202
      vertex 2.6213 10.1104 4.18713
    endloop
  endfacet
  facet normal 0.937314 -0.166149 0.306328
    outer loop
      vertex 2.8052 10.0507 3.59202
      vertex 1.21969 0 2.99205
      vertex 1.28907 0 2.77975
    endloop
  endfacet
  facet normal 0.79322 -0.166982 -0.585592
    outer loop
      vertex 1.28907 0 6.22024
      vertex 3.155 9.93702 5.91421
      vertex 1.42251 0 6.40099
    endloop
  endfacet
  facet normal 0.79322 -0.166982 -0.585592
    outer loop
      vertex 3.155 9.93702 5.91421
      vertex 1.28907 0 6.22024
      vertex 2.8052 10.0507 5.40798
    endloop
  endfacet
  facet normal -0.937314 -0.166149 -0.306328
    outer loop
      vertex 8.0095 0 5.30667
      vertex 7.71093 0 6.22024
      vertex 6.19479 10.0507 5.40798
    endloop
  endfacet
  facet normal -0.269013 -0.527966 -0.805534
    outer loop
      vertex 5.33125 10.6441 5.91421
      vertex 5.0337 10.2346 6.28201
      vertex 4.78058 10.3635 6.28201
    endloop
  endfacet
  facet normal 0.127097 -0.802456 0.583019
    outer loop
      vertex 4.06298 10.845 3.08579
      vertex 4.5 11.282 3.59202
      vertex 3.94933 11.1948 3.59202
    endloop
  endfacet
  facet normal -0.269013 -0.527966 0.805534
    outer loop
      vertex 5.0337 10.2346 2.71799
      vertex 5.33125 10.6441 3.08579
      vertex 4.78058 10.3635 2.71799
    endloop
  endfacet
  facet normal -0.723906 -0.368849 0.583019
    outer loop
      vertex 5.845 9.93702 3.08579
      vertex 5.94168 10.5474 3.59202
      vertex 5.64412 10.3313 3.08579
    endloop
  endfacet
  facet normal -0.937314 -0.166149 -0.306328
    outer loop
      vertex 8.07837 0 5.09592
      vertex 6.19479 10.0507 5.40798
      vertex 6.37869 10.1104 4.81287
    endloop
  endfacet
  facet normal -0.937314 -0.166149 -0.306328
    outer loop
      vertex 6.19479 10.0507 5.40798
      vertex 8.07837 0 5.09592
      vertex 8.0095 0 5.30667
    endloop
  endfacet
  facet normal -0.84839 -0.432276 0.305569
    outer loop
      vertex 6.19479 10.0507 3.59202
      vertex 6.37869 10.1104 4.18713
      vertex 6.09811 10.6611 4.18713
    endloop
  endfacet
  facet normal 0.148952 -0.940447 -0.305569
    outer loop
      vertex 4.5 11.4754 4.81287
      vertex 4.5 11.282 5.40798
      vertex 3.88958 11.3787 4.81287
    endloop
  endfacet
  facet normal -0.673286 -0.673286 -0.30557
    outer loop
      vertex 6.09811 10.6611 4.81287
      vertex 5.54744 10.9417 5.40798
      vertex 5.6611 11.0981 4.81287
    endloop
  endfacet
  facet normal -0.673286 -0.673286 -0.30557
    outer loop
      vertex 5.54744 10.9417 5.40798
      vertex 6.09811 10.6611 4.81287
      vertex 5.94168 10.5474 5.40798
    endloop
  endfacet
  facet normal -0.84839 -0.432276 -0.305569
    outer loop
      vertex 6.37869 10.1104 4.81287
      vertex 6.19479 10.0507 5.40798
      vertex 6.09811 10.6611 4.81287
    endloop
  endfacet
  facet normal 0.723906 -0.368849 -0.583019
    outer loop
      vertex 3.05832 10.5474 5.40798
      vertex 3.155 9.93702 5.91421
      vertex 2.8052 10.0507 5.40798
    endloop
  endfacet
  facet normal 0.563514 -0.167589 0.808929
    outer loop
      vertex 2.90236 0 1.20309
      vertex 3.63646 9.78058 2.71799
      vertex 2.16646 0 1.71573
    endloop
  endfacet
  facet normal 0.986162 -0.165785 0
    outer loop
      vertex 0.921626 0 5.09592
      vertex 2.6213 10.1104 4.18713
      vertex 2.6213 10.1104 4.81287
    endloop
  endfacet
  facet normal 0.986162 -0.165785 0
    outer loop
      vertex 2.6213 10.1104 4.18713
      vertex 0.921626 0 5.09592
      vertex 0.921626 0 3.90407
    endloop
  endfacet
  facet normal 0.563514 -0.167589 0.808929
    outer loop
      vertex 1.97731 0 1.84749
      vertex 3.63646 9.78058 2.71799
      vertex 3.155 9.93702 3.08579
    endloop
  endfacet
  facet normal 0.563514 -0.167589 0.808929
    outer loop
      vertex 3.63646 9.78058 2.71799
      vertex 1.97731 0 1.84749
      vertex 2.16646 0 1.71573
    endloop
  endfacet
  facet normal -0.156434 -0.987688 0
    outer loop
      vertex 4.5 11.4754 4.18713
      vertex 5.11042 11.3787 4.81287
      vertex 4.5 11.4754 4.81287
    endloop
  endfacet
  facet normal -0.156434 -0.987688 -0
    outer loop
      vertex 5.11042 11.3787 4.81287
      vertex 4.5 11.4754 4.18713
      vertex 5.11042 11.3787 4.18713
    endloop
  endfacet
  facet normal -0.220967 -0.220967 -0.94992
    outer loop
      vertex 4.75312 9.6839 6.47538
      vertex 5.0337 10.2346 6.28201
      vertex 5.23457 10.0337 6.28201
    endloop
  endfacet
  facet normal -0.220967 -0.220967 -0.94992
    outer loop
      vertex 5.0337 10.2346 6.28201
      vertex 4.75312 9.6839 6.47538
      vertex 4.6839 9.75312 6.47538
    endloop
  endfacet
  facet normal -0.79322 -0.166982 -0.585592
    outer loop
      vertex 7.57749 0 6.40099
      vertex 7.02269 0 7.15251
      vertex 5.845 9.93702 5.91421
    endloop
  endfacet
  facet normal -0.79322 -0.166982 -0.585592
    outer loop
      vertex 7.71093 0 6.22024
      vertex 5.845 9.93702 5.91421
      vertex 6.19479 10.0507 5.40798
    endloop
  endfacet
  facet normal -0.79322 -0.166982 -0.585592
    outer loop
      vertex 5.845 9.93702 5.91421
      vertex 7.71093 0 6.22024
      vertex 7.57749 0 6.40099
    endloop
  endfacet
  facet normal -0.127097 -0.802456 -0.583019
    outer loop
      vertex 4.5 11.282 5.40798
      vertex 4.93702 10.845 5.91421
      vertex 4.5 10.9142 5.91421
    endloop
  endfacet
  facet normal 0.127097 -0.802456 -0.583019
    outer loop
      vertex 4.5 11.282 5.40798
      vertex 4.06298 10.845 5.91421
      vertex 3.94933 11.1948 5.40798
    endloop
  endfacet
  facet normal 0.45399 -0.891007 0
    outer loop
      vertex 3.3389 11.0981 4.18713
      vertex 3.88958 11.3787 4.81287
      vertex 3.3389 11.0981 4.81287
    endloop
  endfacet
  facet normal 0.45399 -0.891007 0
    outer loop
      vertex 3.88958 11.3787 4.81287
      vertex 3.3389 11.0981 4.18713
      vertex 3.88958 11.3787 4.18713
    endloop
  endfacet
  facet normal 0.527966 -0.269012 0.805533
    outer loop
      vertex 3.63646 9.78058 2.71799
      vertex 3.35588 10.3313 3.08579
      vertex 3.155 9.93702 3.08579
    endloop
  endfacet
  facet normal -0.793221 -0.166982 0.585592
    outer loop
      vertex 7.71093 0 2.77975
      vertex 5.845 9.93702 3.08579
      vertex 7.57749 0 2.59901
    endloop
  endfacet
  facet normal -0.79322 -0.166982 0.585592
    outer loop
      vertex 5.845 9.93702 3.08579
      vertex 7.71093 0 2.77975
      vertex 6.19479 10.0507 3.59202
    endloop
  endfacet
  facet normal -0.891007 -0.45399 0
    outer loop
      vertex 6.37869 10.1104 4.18713
      vertex 6.09811 10.6611 4.81287
      vertex 6.09811 10.6611 4.18713
    endloop
  endfacet
  facet normal -0.891007 -0.45399 0
    outer loop
      vertex 6.09811 10.6611 4.81287
      vertex 6.37869 10.1104 4.18713
      vertex 6.37869 10.1104 4.81287
    endloop
  endfacet
  facet normal -0.937314 -0.166149 0.306328
    outer loop
      vertex 8.07837 0 3.90407
      vertex 6.19479 10.0507 3.59202
      vertex 8.0095 0 3.69332
    endloop
  endfacet
  facet normal -0.937314 -0.166149 0.306328
    outer loop
      vertex 6.19479 10.0507 3.59202
      vertex 8.07837 0 3.90407
      vertex 6.37869 10.1104 4.18713
    endloop
  endfacet
  facet normal -0.432276 -0.848389 0.30557
    outer loop
      vertex 5.54744 10.9417 3.59202
      vertex 5.6611 11.0981 4.18713
      vertex 5.05067 11.1948 3.59202
    endloop
  endfacet
  facet normal 0.707107 -0.707107 0
    outer loop
      vertex 2.90189 10.6611 4.81287
      vertex 3.3389 11.0981 4.18713
      vertex 3.3389 11.0981 4.81287
    endloop
  endfacet
  facet normal 0.707107 -0.707107 0
    outer loop
      vertex 3.3389 11.0981 4.18713
      vertex 2.90189 10.6611 4.81287
      vertex 2.90189 10.6611 4.18713
    endloop
  endfacet
  facet normal 0.368849 -0.723906 -0.583019
    outer loop
      vertex 3.94933 11.1948 5.40798
      vertex 4.06298 10.845 5.91421
      vertex 3.45256 10.9417 5.40798
    endloop
  endfacet
  facet normal -0.148952 -0.940447 -0.305569
    outer loop
      vertex 4.5 11.4754 4.81287
      vertex 5.11042 11.3787 4.81287
      vertex 4.5 11.282 5.40798
    endloop
  endfacet
  facet normal -0.127097 -0.802456 -0.583019
    outer loop
      vertex 5.05067 11.1948 5.40798
      vertex 4.93702 10.845 5.91421
      vertex 4.5 11.282 5.40798
    endloop
  endfacet
  facet normal -0.707107 -0.707107 0
    outer loop
      vertex 6.09811 10.6611 4.18713
      vertex 5.6611 11.0981 4.81287
      vertex 5.6611 11.0981 4.18713
    endloop
  endfacet
  facet normal -0.707107 -0.707107 0
    outer loop
      vertex 5.6611 11.0981 4.81287
      vertex 6.09811 10.6611 4.18713
      vertex 6.09811 10.6611 4.81287
    endloop
  endfacet
  facet normal 0.33099 -0.168648 0.928442
    outer loop
      vertex 3.63646 9.78058 2.71799
      vertex 3.11039 0 1.12892
      vertex 3.76543 10.0337 2.71799
    endloop
  endfacet
  facet normal 0.33099 -0.168648 0.928441
    outer loop
      vertex 3.11039 0 1.12892
      vertex 3.63646 9.78058 2.71799
      vertex 3.0689 0 1.14371
    endloop
  endfacet
  facet normal 0.79322 -0.166982 0.585592
    outer loop
      vertex 1.97731 0 1.84749
      vertex 3.155 9.93702 3.08579
      vertex 1.42251 0 2.59901
    endloop
  endfacet
  facet normal 0.79322 -0.166982 0.585592
    outer loop
      vertex 1.28907 0 2.77975
      vertex 3.155 9.93702 3.08579
      vertex 2.8052 10.0507 3.59202
    endloop
  endfacet
  facet normal 0.793221 -0.166982 0.585592
    outer loop
      vertex 3.155 9.93702 3.08579
      vertex 1.28907 0 2.77975
      vertex 1.42251 0 2.59901
    endloop
  endfacet
  facet normal 0.563514 -0.167589 -0.808929
    outer loop
      vertex 1.97731 0 7.15251
      vertex 3.63646 9.78058 6.28201
      vertex 2.16646 0 7.28427
    endloop
  endfacet
  facet normal 0.563514 -0.167589 -0.808929
    outer loop
      vertex 3.63646 9.78058 6.28201
      vertex 1.97731 0 7.15251
      vertex 3.155 9.93702 5.91421
    endloop
  endfacet
  facet normal 0.563514 -0.167589 -0.808929
    outer loop
      vertex 3.63646 9.78058 6.28201
      vertex 2.90236 0 7.79691
      vertex 2.16646 0 7.28427
    endloop
  endfacet
  facet normal 0.574495 -0.574495 -0.583019
    outer loop
      vertex 3.35588 10.3313 5.91421
      vertex 3.45256 10.9417 5.40798
      vertex 3.66875 10.6441 5.91421
    endloop
  endfacet
  facet normal 0.574495 -0.574495 -0.583019
    outer loop
      vertex 3.45256 10.9417 5.40798
      vertex 3.35588 10.3313 5.91421
      vertex 3.05832 10.5474 5.40798
    endloop
  endfacet
  facet normal 0.527966 -0.269012 -0.805533
    outer loop
      vertex 3.35588 10.3313 5.91421
      vertex 3.63646 9.78058 6.28201
      vertex 3.155 9.93702 5.91421
    endloop
  endfacet
  facet normal 0.673286 -0.673286 -0.30557
    outer loop
      vertex 3.45256 10.9417 5.40798
      vertex 2.90189 10.6611 4.81287
      vertex 3.3389 11.0981 4.81287
    endloop
  endfacet
  facet normal 0.673286 -0.673286 -0.30557
    outer loop
      vertex 2.90189 10.6611 4.81287
      vertex 3.45256 10.9417 5.40798
      vertex 3.05832 10.5474 5.40798
    endloop
  endfacet
  facet normal 0.84839 -0.432276 0.305569
    outer loop
      vertex 2.8052 10.0507 3.59202
      vertex 2.90189 10.6611 4.18713
      vertex 2.6213 10.1104 4.18713
    endloop
  endfacet
  facet normal 0.891007 -0.45399 0
    outer loop
      vertex 2.6213 10.1104 4.81287
      vertex 2.90189 10.6611 4.18713
      vertex 2.90189 10.6611 4.81287
    endloop
  endfacet
  facet normal 0.891007 -0.45399 0
    outer loop
      vertex 2.90189 10.6611 4.18713
      vertex 2.6213 10.1104 4.81287
      vertex 2.6213 10.1104 4.18713
    endloop
  endfacet
  facet normal 0.0863877 -0.169535 -0.981731
    outer loop
      vertex 4.40332 9.79756 6.47538
      vertex 4.32086 0 8.16006
      vertex 4.19473 0 8.14896
    endloop
  endfacet
  facet normal -0.16902 -0.169016 -0.971013
    outer loop
      vertex 4.83942 0 8.14595
      vertex 4.75312 9.6839 6.47538
      vertex 4.96439 0 8.1242
    endloop
  endfacet
  facet normal -0.169017 -0.169017 -0.971013
    outer loop
      vertex 4.75312 9.6839 6.47538
      vertex 4.83942 0 8.14595
      vertex 4.6839 9.75312 6.47538
    endloop
  endfacet
  facet normal 0.169017 -0.169017 -0.971013
    outer loop
      vertex 4.16058 0 8.14595
      vertex 4.24688 9.6839 6.47538
      vertex 4.3161 9.75312 6.47538
    endloop
  endfacet
  facet normal 0.16902 -0.169016 -0.971013
    outer loop
      vertex 4.24688 9.6839 6.47538
      vertex 4.16058 0 8.14595
      vertex 4.03561 0 8.1242
    endloop
  endfacet
  facet normal -0.0268743 -0.16962 -0.985143
    outer loop
      vertex 4.5 0 8.16494
      vertex 4.59668 9.79756 6.47538
      vertex 4.53765 0 8.16391
    endloop
  endfacet
  facet normal -0.0268641 -0.16962 -0.985143
    outer loop
      vertex 4.59668 9.79756 6.47538
      vertex 4.5 0 8.16494
      vertex 4.5 9.81287 6.47538
    endloop
  endfacet
  facet normal -0.563514 -0.167589 -0.808929
    outer loop
      vertex 6.83354 0 7.28427
      vertex 6.09764 0 7.79691
      vertex 5.36354 9.78058 6.28201
    endloop
  endfacet
  facet normal -0.527966 -0.269012 -0.805533
    outer loop
      vertex 5.64412 10.3313 5.91421
      vertex 5.845 9.93702 5.91421
      vertex 5.36354 9.78058 6.28201
    endloop
  endfacet
  facet normal -0.723906 -0.368849 -0.583019
    outer loop
      vertex 5.94168 10.5474 5.40798
      vertex 6.19479 10.0507 5.40798
      vertex 5.845 9.93702 5.91421
    endloop
  endfacet
  facet normal -0.368849 -0.723906 -0.583019
    outer loop
      vertex 5.54744 10.9417 5.40798
      vertex 5.33125 10.6441 5.91421
      vertex 4.93702 10.845 5.91421
    endloop
  endfacet
  facet normal -0.0863877 -0.169535 -0.981731
    outer loop
      vertex 4.80527 0 8.14896
      vertex 4.67914 0 8.16006
      vertex 4.59668 9.79756 6.47538
    endloop
  endfacet
  facet normal 0.723906 -0.368849 -0.583019
    outer loop
      vertex 3.35588 10.3313 5.91421
      vertex 3.155 9.93702 5.91421
      vertex 3.05832 10.5474 5.40798
    endloop
  endfacet
  facet normal -0.0926957 -0.585255 -0.805533
    outer loop
      vertex 4.5 10.9142 5.91421
      vertex 4.93702 10.845 5.91421
      vertex 4.5 10.408 6.28201
    endloop
  endfacet
  facet normal -0.986162 -0.165785 0
    outer loop
      vertex 8.07837 0 3.90407
      vertex 6.37869 10.1104 4.81287
      vertex 6.37869 10.1104 4.18713
    endloop
  endfacet
  facet normal -0.986162 -0.165785 0
    outer loop
      vertex 6.37869 10.1104 4.81287
      vertex 8.07837 0 3.90407
      vertex 8.07837 0 5.09592
    endloop
  endfacet
  facet normal -0.368849 -0.723906 0.583019
    outer loop
      vertex 5.33125 10.6441 3.08579
      vertex 5.54744 10.9417 3.59202
      vertex 4.93702 10.845 3.08579
    endloop
  endfacet
  facet normal -0.260152 -0.167583 0.950914
    outer loop
      vertex 5.88961 0 1.12892
      vertex 5.23457 10.0337 2.71799
      vertex 5.15772 0 0.92869
    endloop
  endfacet
  facet normal -0.527966 -0.269012 0.805533
    outer loop
      vertex 5.845 9.93702 3.08579
      vertex 5.64412 10.3313 3.08579
      vertex 5.36354 9.78058 2.71799
    endloop
  endfacet
  facet normal -0.141871 -0.278433 0.94992
    outer loop
      vertex 4.6839 9.75312 2.52462
      vertex 5.0337 10.2346 2.71799
      vertex 4.59668 9.79756 2.52462
    endloop
  endfacet
  facet normal 0.269013 -0.527966 0.805534
    outer loop
      vertex 3.9663 10.2346 2.71799
      vertex 4.21942 10.3635 2.71799
      vertex 3.66875 10.6441 3.08579
    endloop
  endfacet
  facet normal 0.148953 -0.940447 -0.30557
    outer loop
      vertex 4.5 11.282 5.40798
      vertex 3.94933 11.1948 5.40798
      vertex 3.88958 11.3787 4.81287
    endloop
  endfacet
  facet normal 0.432276 -0.84839 -0.305569
    outer loop
      vertex 3.88958 11.3787 4.81287
      vertex 3.94933 11.1948 5.40798
      vertex 3.3389 11.0981 4.81287
    endloop
  endfacet
  facet normal 0.432276 -0.848389 -0.30557
    outer loop
      vertex 3.94933 11.1948 5.40798
      vertex 3.45256 10.9417 5.40798
      vertex 3.3389 11.0981 4.81287
    endloop
  endfacet
  facet normal -0.148953 -0.940447 -0.30557
    outer loop
      vertex 5.11042 11.3787 4.81287
      vertex 5.05067 11.1948 5.40798
      vertex 4.5 11.282 5.40798
    endloop
  endfacet
  facet normal 0.330991 -0.168648 0.928441
    outer loop
      vertex 3.0689 0 1.14371
      vertex 3.63646 9.78058 2.71799
      vertex 2.90236 0 1.20309
    endloop
  endfacet
  facet normal 0.418996 -0.418996 0.805534
    outer loop
      vertex 3.66875 10.6441 3.08579
      vertex 3.76543 10.0337 2.71799
      vertex 3.9663 10.2346 2.71799
    endloop
  endfacet
  facet normal 0.418996 -0.418996 0.805534
    outer loop
      vertex 3.76543 10.0337 2.71799
      vertex 3.66875 10.6441 3.08579
      vertex 3.35588 10.3313 3.08579
    endloop
  endfacet
  facet normal 0.723906 -0.368849 0.583019
    outer loop
      vertex 3.155 9.93702 3.08579
      vertex 3.35588 10.3313 3.08579
      vertex 3.05832 10.5474 3.59202
    endloop
  endfacet
  facet normal 0.673286 -0.673286 0.30557
    outer loop
      vertex 2.90189 10.6611 4.18713
      vertex 3.45256 10.9417 3.59202
      vertex 3.3389 11.0981 4.18713
    endloop
  endfacet
  facet normal 0.673286 -0.673286 0.30557
    outer loop
      vertex 3.45256 10.9417 3.59202
      vertex 2.90189 10.6611 4.18713
      vertex 3.05832 10.5474 3.59202
    endloop
  endfacet
  facet normal 0.79322 -0.166982 -0.585592
    outer loop
      vertex 3.155 9.93702 5.91421
      vertex 1.97731 0 7.15251
      vertex 1.42251 0 6.40099
    endloop
  endfacet
  facet normal 0.937314 -0.166149 -0.306328
    outer loop
      vertex 2.6213 10.1104 4.81287
      vertex 1.21969 0 6.00795
      vertex 0.921626 0 5.09592
    endloop
  endfacet
  facet normal 0.937314 -0.166149 -0.306328
    outer loop
      vertex 1.21969 0 6.00795
      vertex 2.8052 10.0507 5.40798
      vertex 1.28907 0 6.22024
    endloop
  endfacet
  facet normal 0.937314 -0.166149 -0.306328
    outer loop
      vertex 2.8052 10.0507 5.40798
      vertex 1.21969 0 6.00795
      vertex 2.6213 10.1104 4.81287
    endloop
  endfacet
  facet normal 0.33099 -0.168648 -0.928442
    outer loop
      vertex 3.11039 0 7.87108
      vertex 3.63646 9.78058 6.28201
      vertex 3.76543 10.0337 6.28201
    endloop
  endfacet
  facet normal 0.330985 -0.168648 -0.928443
    outer loop
      vertex 3.63646 9.78058 6.28201
      vertex 3.11039 0 7.87108
      vertex 3.0689 0 7.85629
    endloop
  endfacet
  facet normal 0.330991 -0.168648 -0.928441
    outer loop
      vertex 3.63646 9.78058 6.28201
      vertex 3.0689 0 7.85629
      vertex 2.90236 0 7.79691
    endloop
  endfacet
  facet normal -0.330992 -0.168648 -0.928441
    outer loop
      vertex 6.09764 0 7.79691
      vertex 5.9311 0 7.85629
      vertex 5.36354 9.78058 6.28201
    endloop
  endfacet
  facet normal -0.0268602 -0.16962 -0.985143
    outer loop
      vertex 4.59668 9.79756 6.47538
      vertex 4.67914 0 8.16006
      vertex 4.53765 0 8.16391
    endloop
  endfacet
  facet normal -0.330982 -0.168648 -0.928444
    outer loop
      vertex 5.88961 0 7.87108
      vertex 5.36354 9.78058 6.28201
      vertex 5.9311 0 7.85629
    endloop
  endfacet
  facet normal -0.33099 -0.168648 -0.928442
    outer loop
      vertex 5.36354 9.78058 6.28201
      vertex 5.88961 0 7.87108
      vertex 5.23457 10.0337 6.28201
    endloop
  endfacet
  facet normal -0.418996 -0.418996 -0.805534
    outer loop
      vertex 5.23457 10.0337 6.28201
      vertex 5.33125 10.6441 5.91421
      vertex 5.64412 10.3313 5.91421
    endloop
  endfacet
  facet normal -0.418996 -0.418996 -0.805534
    outer loop
      vertex 5.33125 10.6441 5.91421
      vertex 5.23457 10.0337 6.28201
      vertex 5.0337 10.2346 6.28201
    endloop
  endfacet
  facet normal -0.260154 -0.167583 -0.950913
    outer loop
      vertex 5.23457 10.0337 6.28201
      vertex 5.88961 0 7.87108
      vertex 5.15772 0 8.07131
    endloop
  endfacet
  facet normal -0.14187 -0.278434 -0.94992
    outer loop
      vertex 4.78058 10.3635 6.28201
      vertex 5.0337 10.2346 6.28201
      vertex 4.59668 9.79756 6.47538
    endloop
  endfacet
  facet normal -0.0488827 -0.308647 -0.94992
    outer loop
      vertex 4.5 10.408 6.28201
      vertex 4.59668 9.79756 6.47538
      vertex 4.5 9.81287 6.47538
    endloop
  endfacet
  facet normal 0.141871 -0.278433 -0.94992
    outer loop
      vertex 4.40332 9.79756 6.47538
      vertex 4.3161 9.75312 6.47538
      vertex 3.9663 10.2346 6.28201
    endloop
  endfacet
  facet normal 0.14187 -0.278434 -0.94992
    outer loop
      vertex 4.21942 10.3635 6.28201
      vertex 4.40332 9.79756 6.47538
      vertex 3.9663 10.2346 6.28201
    endloop
  endfacet
  facet normal 0.0926955 -0.585255 -0.805533
    outer loop
      vertex 4.5 10.9142 5.91421
      vertex 4.5 10.408 6.28201
      vertex 4.06298 10.845 5.91421
    endloop
  endfacet
  facet normal 0.0488853 -0.308647 -0.94992
    outer loop
      vertex 4.5 10.408 6.28201
      vertex 4.40332 9.79756 6.47538
      vertex 4.21942 10.3635 6.28201
    endloop
  endfacet
  facet normal 0.418996 -0.418996 -0.805534
    outer loop
      vertex 3.76543 10.0337 6.28201
      vertex 3.66875 10.6441 5.91421
      vertex 3.9663 10.2346 6.28201
    endloop
  endfacet
  facet normal 0.418996 -0.418996 -0.805534
    outer loop
      vertex 3.66875 10.6441 5.91421
      vertex 3.76543 10.0337 6.28201
      vertex 3.35588 10.3313 5.91421
    endloop
  endfacet
  facet normal -0.848389 -0.432276 0.30557
    outer loop
      vertex 6.19479 10.0507 3.59202
      vertex 6.09811 10.6611 4.18713
      vertex 5.94168 10.5474 3.59202
    endloop
  endfacet
  facet normal -0.723906 -0.368849 0.583019
    outer loop
      vertex 6.19479 10.0507 3.59202
      vertex 5.94168 10.5474 3.59202
      vertex 5.845 9.93702 3.08579
    endloop
  endfacet
  facet normal 0.148952 -0.940447 0.305569
    outer loop
      vertex 4.5 11.282 3.59202
      vertex 4.5 11.4754 4.18713
      vertex 3.88958 11.3787 4.18713
    endloop
  endfacet
  facet normal 0.0926955 -0.585255 0.805533
    outer loop
      vertex 4.5 10.408 2.71799
      vertex 4.5 10.9142 3.08579
      vertex 4.06298 10.845 3.08579
    endloop
  endfacet
  facet normal 0.0488853 -0.308647 0.94992
    outer loop
      vertex 4.40332 9.79756 2.52462
      vertex 4.5 10.408 2.71799
      vertex 4.21942 10.3635 2.71799
    endloop
  endfacet
  facet normal 0.260152 -0.167583 0.950914
    outer loop
      vertex 3.84228 0 0.92869
      vertex 3.76543 10.0337 2.71799
      vertex 3.11039 0 1.12892
    endloop
  endfacet
  facet normal -0.330987 -0.168648 0.928443
    outer loop
      vertex 5.36354 9.78058 2.71799
      vertex 5.88961 0 1.12892
      vertex 5.9311 0 1.14371
    endloop
  endfacet
  facet normal -0.33099 -0.168648 0.928442
    outer loop
      vertex 5.88961 0 1.12892
      vertex 5.36354 9.78058 2.71799
      vertex 5.23457 10.0337 2.71799
    endloop
  endfacet
  facet normal -0.330992 -0.168648 0.928441
    outer loop
      vertex 5.9311 0 1.14371
      vertex 6.09764 0 1.20309
      vertex 5.36354 9.78058 2.71799
    endloop
  endfacet
  facet normal -0.0863844 -0.169535 0.981731
    outer loop
      vertex 4.6839 9.75312 2.52462
      vertex 4.80527 0 0.851042
      vertex 4.83942 0 0.854048
    endloop
  endfacet
  facet normal -0.0863838 -0.169535 0.981731
    outer loop
      vertex 4.80527 0 0.851042
      vertex 4.6839 9.75312 2.52462
      vertex 4.59668 9.79756 2.52462
    endloop
  endfacet
  facet normal -0.14187 -0.278434 0.94992
    outer loop
      vertex 5.0337 10.2346 2.71799
      vertex 4.78058 10.3635 2.71799
      vertex 4.59668 9.79756 2.52462
    endloop
  endfacet
  facet normal -0.148953 -0.940447 0.30557
    outer loop
      vertex 5.05067 11.1948 3.59202
      vertex 5.11042 11.3787 4.18713
      vertex 4.5 11.282 3.59202
    endloop
  endfacet
  facet normal 0.574495 -0.574495 0.583019
    outer loop
      vertex 3.45256 10.9417 3.59202
      vertex 3.35588 10.3313 3.08579
      vertex 3.66875 10.6441 3.08579
    endloop
  endfacet
  facet normal 0.574495 -0.574495 0.583019
    outer loop
      vertex 3.35588 10.3313 3.08579
      vertex 3.45256 10.9417 3.59202
      vertex 3.05832 10.5474 3.59202
    endloop
  endfacet
  facet normal 0.723906 -0.368849 0.583019
    outer loop
      vertex 3.155 9.93702 3.08579
      vertex 3.05832 10.5474 3.59202
      vertex 2.8052 10.0507 3.59202
    endloop
  endfacet
  facet normal 0.220967 -0.220967 0.94992
    outer loop
      vertex 3.9663 10.2346 2.71799
      vertex 4.24688 9.6839 2.52462
      vertex 4.3161 9.75312 2.52462
    endloop
  endfacet
  facet normal 0.220967 -0.220967 0.94992
    outer loop
      vertex 4.24688 9.6839 2.52462
      vertex 3.9663 10.2346 2.71799
      vertex 3.76543 10.0337 2.71799
    endloop
  endfacet
  facet normal 0.527966 -0.269013 0.805534
    outer loop
      vertex 3.63646 9.78058 2.71799
      vertex 3.76543 10.0337 2.71799
      vertex 3.35588 10.3313 3.08579
    endloop
  endfacet
  facet normal 0.84839 -0.432276 -0.305569
    outer loop
      vertex 2.90189 10.6611 4.81287
      vertex 2.8052 10.0507 5.40798
      vertex 2.6213 10.1104 4.81287
    endloop
  endfacet
  facet normal -0.260148 -0.167583 -0.950915
    outer loop
      vertex 4.75312 9.6839 6.47538
      vertex 5.15772 0 8.07131
      vertex 4.96439 0 8.1242
    endloop
  endfacet
  facet normal -0.260152 -0.167583 -0.950914
    outer loop
      vertex 5.15772 0 8.07131
      vertex 4.75312 9.6839 6.47538
      vertex 5.23457 10.0337 6.28201
    endloop
  endfacet
  facet normal 0.092696 -0.585255 -0.805534
    outer loop
      vertex 4.5 10.408 6.28201
      vertex 4.21942 10.3635 6.28201
      vertex 4.06298 10.845 5.91421
    endloop
  endfacet
  facet normal 0.269013 -0.527966 -0.805534
    outer loop
      vertex 4.21942 10.3635 6.28201
      vertex 3.9663 10.2346 6.28201
      vertex 3.66875 10.6441 5.91421
    endloop
  endfacet
  facet normal -0.141871 -0.278433 -0.94992
    outer loop
      vertex 5.0337 10.2346 6.28201
      vertex 4.6839 9.75312 6.47538
      vertex 4.59668 9.79756 6.47538
    endloop
  endfacet
  facet normal -0.0863691 -0.169535 -0.981732
    outer loop
      vertex 4.80527 0 8.14896
      vertex 4.6839 9.75312 6.47538
      vertex 4.83942 0 8.14595
    endloop
  endfacet
  facet normal -0.0863838 -0.169535 -0.981731
    outer loop
      vertex 4.6839 9.75312 6.47538
      vertex 4.80527 0 8.14896
      vertex 4.59668 9.79756 6.47538
    endloop
  endfacet
  facet normal -0.0488855 -0.308647 -0.94992
    outer loop
      vertex 4.78058 10.3635 6.28201
      vertex 4.59668 9.79756 6.47538
      vertex 4.5 10.408 6.28201
    endloop
  endfacet
  facet normal -0.0926963 -0.585255 -0.805534
    outer loop
      vertex 4.93702 10.845 5.91421
      vertex 4.78058 10.3635 6.28201
      vertex 4.5 10.408 6.28201
    endloop
  endfacet
  facet normal 0.260148 -0.167583 -0.950915
    outer loop
      vertex 3.84228 0 8.07131
      vertex 4.24688 9.6839 6.47538
      vertex 4.03561 0 8.1242
    endloop
  endfacet
  facet normal 0.260152 -0.167583 -0.950914
    outer loop
      vertex 4.24688 9.6839 6.47538
      vertex 3.84228 0 8.07131
      vertex 3.76543 10.0337 6.28201
    endloop
  endfacet
  facet normal 0.269012 -0.527966 -0.805533
    outer loop
      vertex 4.06298 10.845 5.91421
      vertex 4.21942 10.3635 6.28201
      vertex 3.66875 10.6441 5.91421
    endloop
  endfacet
  facet normal 0.368849 -0.723906 -0.583019
    outer loop
      vertex 4.06298 10.845 5.91421
      vertex 3.66875 10.6441 5.91421
      vertex 3.45256 10.9417 5.40798
    endloop
  endfacet
  facet normal -0.673286 -0.673286 0.30557
    outer loop
      vertex 5.54744 10.9417 3.59202
      vertex 6.09811 10.6611 4.18713
      vertex 5.6611 11.0981 4.18713
    endloop
  endfacet
  facet normal -0.673286 -0.673286 0.30557
    outer loop
      vertex 6.09811 10.6611 4.18713
      vertex 5.54744 10.9417 3.59202
      vertex 5.94168 10.5474 3.59202
    endloop
  endfacet
  facet normal 0.156434 -0.987688 0
    outer loop
      vertex 3.88958 11.3787 4.18713
      vertex 4.5 11.4754 4.81287
      vertex 3.88958 11.3787 4.81287
    endloop
  endfacet
  facet normal 0.156434 -0.987688 0
    outer loop
      vertex 4.5 11.4754 4.81287
      vertex 3.88958 11.3787 4.18713
      vertex 4.5 11.4754 4.18713
    endloop
  endfacet
  facet normal 0.0863831 -0.169535 0.981731
    outer loop
      vertex 4.32086 0 0.839944
      vertex 4.40332 9.79756 2.52462
      vertex 4.19473 0 0.851042
    endloop
  endfacet
  facet normal 0.0268651 -0.16962 0.985143
    outer loop
      vertex 4.46235 0 0.836085
      vertex 4.40332 9.79756 2.52462
      vertex 4.32086 0 0.839944
    endloop
  endfacet
  facet normal -0.0926963 -0.585255 0.805534
    outer loop
      vertex 4.78058 10.3635 2.71799
      vertex 4.93702 10.845 3.08579
      vertex 4.5 10.408 2.71799
    endloop
  endfacet
  facet normal -0.0863831 -0.169535 0.981731
    outer loop
      vertex 4.67914 0 0.839944
      vertex 4.80527 0 0.851042
      vertex 4.59668 9.79756 2.52462
    endloop
  endfacet
  facet normal -0.169016 -0.169016 0.971013
    outer loop
      vertex 4.75312 9.6839 2.52462
      vertex 4.83942 0 0.854048
      vertex 4.96439 0 0.875799
    endloop
  endfacet
  facet normal -0.169016 -0.169016 0.971013
    outer loop
      vertex 4.83942 0 0.854048
      vertex 4.75312 9.6839 2.52462
      vertex 4.6839 9.75312 2.52462
    endloop
  endfacet
  facet normal 0.169016 -0.169016 0.971013
    outer loop
      vertex 4.24688 9.6839 2.52462
      vertex 4.16058 0 0.854048
      vertex 4.3161 9.75312 2.52462
    endloop
  endfacet
  facet normal 0.169016 -0.169016 0.971013
    outer loop
      vertex 4.16058 0 0.854048
      vertex 4.24688 9.6839 2.52462
      vertex 4.03561 0 0.875799
    endloop
  endfacet
  facet normal -0.418996 -0.418996 0.805534
    outer loop
      vertex 5.33125 10.6441 3.08579
      vertex 5.23457 10.0337 2.71799
      vertex 5.64412 10.3313 3.08579
    endloop
  endfacet
  facet normal -0.418996 -0.418996 0.805534
    outer loop
      vertex 5.23457 10.0337 2.71799
      vertex 5.33125 10.6441 3.08579
      vertex 5.0337 10.2346 2.71799
    endloop
  endfacet
  facet normal -0.432276 -0.84839 -0.305569
    outer loop
      vertex 5.11042 11.3787 4.81287
      vertex 5.6611 11.0981 4.81287
      vertex 5.05067 11.1948 5.40798
    endloop
  endfacet
  facet normal -0.432276 -0.848389 -0.30557
    outer loop
      vertex 5.6611 11.0981 4.81287
      vertex 5.54744 10.9417 5.40798
      vertex 5.05067 11.1948 5.40798
    endloop
  endfacet
  facet normal -0.45399 -0.891007 0
    outer loop
      vertex 5.11042 11.3787 4.18713
      vertex 5.6611 11.0981 4.81287
      vertex 5.11042 11.3787 4.81287
    endloop
  endfacet
  facet normal -0.45399 -0.891007 -0
    outer loop
      vertex 5.6611 11.0981 4.81287
      vertex 5.11042 11.3787 4.18713
      vertex 5.6611 11.0981 4.18713
    endloop
  endfacet
  facet normal -0.432276 -0.84839 0.305569
    outer loop
      vertex 5.6611 11.0981 4.18713
      vertex 5.11042 11.3787 4.18713
      vertex 5.05067 11.1948 3.59202
    endloop
  endfacet
  facet normal 0.14187 -0.278434 0.94992
    outer loop
      vertex 4.40332 9.79756 2.52462
      vertex 4.21942 10.3635 2.71799
      vertex 3.9663 10.2346 2.71799
    endloop
  endfacet
  facet normal 0.141871 -0.278433 0.94992
    outer loop
      vertex 4.3161 9.75312 2.52462
      vertex 4.40332 9.79756 2.52462
      vertex 3.9663 10.2346 2.71799
    endloop
  endfacet
  facet normal 0.0488822 -0.308647 -0.94992
    outer loop
      vertex 4.5 10.408 6.28201
      vertex 4.5 9.81287 6.47538
      vertex 4.40332 9.79756 6.47538
    endloop
  endfacet
  facet normal 0.026874 -0.16962 -0.985143
    outer loop
      vertex 4.40332 9.79756 6.47538
      vertex 4.5 0 8.16494
      vertex 4.46235 0 8.16391
    endloop
  endfacet
  facet normal 0.0268638 -0.16962 -0.985143
    outer loop
      vertex 4.5 0 8.16494
      vertex 4.40332 9.79756 6.47538
      vertex 4.5 9.81287 6.47538
    endloop
  endfacet
  facet normal 0.220967 -0.220967 -0.94992
    outer loop
      vertex 4.24688 9.6839 6.47538
      vertex 3.9663 10.2346 6.28201
      vertex 4.3161 9.75312 6.47538
    endloop
  endfacet
  facet normal 0.220967 -0.220967 -0.94992
    outer loop
      vertex 3.9663 10.2346 6.28201
      vertex 4.24688 9.6839 6.47538
      vertex 3.76543 10.0337 6.28201
    endloop
  endfacet
  facet normal -0.269012 -0.527966 0.805533
    outer loop
      vertex 5.33125 10.6441 3.08579
      vertex 4.93702 10.845 3.08579
      vertex 4.78058 10.3635 2.71799
    endloop
  endfacet
  facet normal -0.574495 -0.574495 0.583019
    outer loop
      vertex 5.54744 10.9417 3.59202
      vertex 5.64412 10.3313 3.08579
      vertex 5.94168 10.5474 3.59202
    endloop
  endfacet
  facet normal -0.574495 -0.574495 0.583019
    outer loop
      vertex 5.64412 10.3313 3.08579
      vertex 5.54744 10.9417 3.59202
      vertex 5.33125 10.6441 3.08579
    endloop
  endfacet
  facet normal 0.432276 -0.84839 0.305569
    outer loop
      vertex 3.94933 11.1948 3.59202
      vertex 3.88958 11.3787 4.18713
      vertex 3.3389 11.0981 4.18713
    endloop
  endfacet
  facet normal 0.148953 -0.940447 0.30557
    outer loop
      vertex 3.94933 11.1948 3.59202
      vertex 4.5 11.282 3.59202
      vertex 3.88958 11.3787 4.18713
    endloop
  endfacet
  facet normal -0.127097 -0.802456 0.583019
    outer loop
      vertex 4.93702 10.845 3.08579
      vertex 5.05067 11.1948 3.59202
      vertex 4.5 11.282 3.59202
    endloop
  endfacet
  facet normal 0.127097 -0.802456 0.583019
    outer loop
      vertex 4.5 10.9142 3.08579
      vertex 4.5 11.282 3.59202
      vertex 4.06298 10.845 3.08579
    endloop
  endfacet
  facet normal 0.092696 -0.585255 0.805534
    outer loop
      vertex 4.21942 10.3635 2.71799
      vertex 4.5 10.408 2.71799
      vertex 4.06298 10.845 3.08579
    endloop
  endfacet
  facet normal -0.0268641 -0.16962 0.985143
    outer loop
      vertex 4.5 0 0.835059
      vertex 4.59668 9.79756 2.52462
      vertex 4.5 9.81287 2.52462
    endloop
  endfacet
  facet normal -0.0268634 -0.16962 0.985143
    outer loop
      vertex 4.59668 9.79756 2.52462
      vertex 4.5 0 0.835059
      vertex 4.53765 0 0.836085
    endloop
  endfacet
  facet normal -0.0488855 -0.308647 0.94992
    outer loop
      vertex 4.59668 9.79756 2.52462
      vertex 4.78058 10.3635 2.71799
      vertex 4.5 10.408 2.71799
    endloop
  endfacet
  facet normal -0.0488827 -0.308647 0.94992
    outer loop
      vertex 4.59668 9.79756 2.52462
      vertex 4.5 10.408 2.71799
      vertex 4.5 9.81287 2.52462
    endloop
  endfacet
  facet normal -0.0268652 -0.16962 0.985143
    outer loop
      vertex 4.67914 0 0.839944
      vertex 4.59668 9.79756 2.52462
      vertex 4.53765 0 0.836085
    endloop
  endfacet
  facet normal 0.260152 -0.167583 0.950914
    outer loop
      vertex 4.24688 9.6839 2.52462
      vertex 3.84228 0 0.92869
      vertex 4.03561 0 0.875799
    endloop
  endfacet
  facet normal 0.260152 -0.167583 0.950914
    outer loop
      vertex 3.84228 0 0.92869
      vertex 4.24688 9.6839 2.52462
      vertex 3.76543 10.0337 2.71799
    endloop
  endfacet
  facet normal -0.220967 -0.220967 0.94992
    outer loop
      vertex 5.0337 10.2346 2.71799
      vertex 4.75312 9.6839 2.52462
      vertex 5.23457 10.0337 2.71799
    endloop
  endfacet
  facet normal -0.220967 -0.220967 0.94992
    outer loop
      vertex 4.75312 9.6839 2.52462
      vertex 5.0337 10.2346 2.71799
      vertex 4.6839 9.75312 2.52462
    endloop
  endfacet
  facet normal -0.260152 -0.167583 0.950914
    outer loop
      vertex 4.75312 9.6839 2.52462
      vertex 5.15772 0 0.92869
      vertex 5.23457 10.0337 2.71799
    endloop
  endfacet
  facet normal -0.260152 -0.167583 0.950914
    outer loop
      vertex 5.15772 0 0.92869
      vertex 4.75312 9.6839 2.52462
      vertex 4.96439 0 0.875799
    endloop
  endfacet
  facet normal 0.368849 -0.723906 0.583019
    outer loop
      vertex 4.06298 10.845 3.08579
      vertex 3.94933 11.1948 3.59202
      vertex 3.45256 10.9417 3.59202
    endloop
  endfacet
  facet normal 0.432276 -0.848389 0.30557
    outer loop
      vertex 3.45256 10.9417 3.59202
      vertex 3.94933 11.1948 3.59202
      vertex 3.3389 11.0981 4.18713
    endloop
  endfacet
  facet normal 0.368849 -0.723906 0.583019
    outer loop
      vertex 3.66875 10.6441 3.08579
      vertex 4.06298 10.845 3.08579
      vertex 3.45256 10.9417 3.59202
    endloop
  endfacet
  facet normal 0.269012 -0.527966 0.805533
    outer loop
      vertex 4.21942 10.3635 2.71799
      vertex 4.06298 10.845 3.08579
      vertex 3.66875 10.6441 3.08579
    endloop
  endfacet
  facet normal -0.127097 -0.802456 0.583019
    outer loop
      vertex 4.93702 10.845 3.08579
      vertex 4.5 11.282 3.59202
      vertex 4.5 10.9142 3.08579
    endloop
  endfacet
  facet normal -0.0926957 -0.585255 0.805533
    outer loop
      vertex 4.93702 10.845 3.08579
      vertex 4.5 10.9142 3.08579
      vertex 4.5 10.408 2.71799
    endloop
  endfacet
  facet normal 0.0268638 -0.16962 0.985143
    outer loop
      vertex 4.40332 9.79756 2.52462
      vertex 4.5 0 0.835059
      vertex 4.5 9.81287 2.52462
    endloop
  endfacet
  facet normal 0.0268631 -0.16962 0.985143
    outer loop
      vertex 4.5 0 0.835059
      vertex 4.40332 9.79756 2.52462
      vertex 4.46235 0 0.836085
    endloop
  endfacet
  facet normal 0.0488822 -0.308647 0.94992
    outer loop
      vertex 4.5 9.81287 2.52462
      vertex 4.5 10.408 2.71799
      vertex 4.40332 9.79756 2.52462
    endloop
  endfacet
endsolid OpenSCAD_Model
