solid OpenSCAD_Model
  facet normal -1 0 0
    outer loop
      vertex 0 0 0
      vertex 0 15 9.02
      vertex 0 15 0
    endloop
  endfacet
  facet normal -1 -0 0
    outer loop
      vertex 0 15 9.02
      vertex 0 0 0
      vertex 0 0 9.02
    endloop
  endfacet
  facet normal -0 0 1
    outer loop
      vertex 0 15 9.02
      vertex 9.02 0 9.02
      vertex 9.02 15 9.02
    endloop
  endfacet
  facet normal 0 0 1
    outer loop
      vertex 9.02 0 9.02
      vertex 0 15 9.02
      vertex 0 0 9.02
    endloop
  endfacet
  facet normal 1 -0 0
    outer loop
      vertex 9.02 0 9.02
      vertex 9.02 15 0
      vertex 9.02 15 9.02
    endloop
  endfacet
  facet normal 1 0 0
    outer loop
      vertex 9.02 15 0
      vertex 9.02 0 9.02
      vertex 9.02 0 0
    endloop
  endfacet
  facet normal 0 1 -0
    outer loop
      vertex 9.02 15 0
      vertex 0 15 9.02
      vertex 9.02 15 9.02
    endloop
  endfacet
  facet normal 0 1 0
    outer loop
      vertex 0 15 9.02
      vertex 9.02 15 0
      vertex 0 15 0
    endloop
  endfacet
  facet normal 0 0 -1
    outer loop
      vertex 0 0 0
      vertex 9.02 15 0
      vertex 9.02 0 0
    endloop
  endfacet
  facet normal -0 0 -1
    outer loop
      vertex 9.02 15 0
      vertex 0 0 0
      vertex 0 15 0
    endloop
  endfacet
  facet normal 0 -1 0
    outer loop
      vertex 0 0 9.02
      vertex 4.5 0 8.23974
      vertex 9.02 0 9.02
    endloop
  endfacet
  facet normal 0 -1 0
    outer loop
      vertex 0 0 9.02
      vertex 4.35228 0 8.23599
      vertex 4.5 0 8.23974
    endloop
  endfacet
  facet normal 0 -1 0
    outer loop
      vertex 0 0 9.02
      vertex 4.31719 0 8.2351
      vertex 4.35228 0 8.23599
    endloop
  endfacet
  facet normal 0 -1 0
    outer loop
      vertex 0 0 9.02
      vertex 4.18534 0 8.22431
      vertex 4.31719 0 8.2351
    endloop
  endfacet
  facet normal 0 -1 0
    outer loop
      vertex 0 0 9.02
      vertex 4.15352 0 8.2217
      vertex 4.18534 0 8.22431
    endloop
  endfacet
  facet normal 0 -1 0
    outer loop
      vertex 0 0 9.02
      vertex 4.12829 0 8.21762
      vertex 4.15352 0 8.2217
    endloop
  endfacet
  facet normal 0 -1 0
    outer loop
      vertex 0 0 9.02
      vertex 4.02577 0 8.20103
      vertex 4.12829 0 8.21762
    endloop
  endfacet
  facet normal 0 -1 0
    outer loop
      vertex 0 0 9.02
      vertex 3.84567 0 8.15019
      vertex 4.02577 0 8.20103
    endloop
  endfacet
  facet normal 0 -1 0
    outer loop
      vertex 0 0 9.02
      vertex 3.08396 0 7.93519
      vertex 3.84567 0 8.15019
    endloop
  endfacet
  facet normal 0 -1 0
    outer loop
      vertex 0 0 9.02
      vertex 3.04505 0 7.92243
      vertex 3.08396 0 7.93519
    endloop
  endfacet
  facet normal 0 -1 0
    outer loop
      vertex 0 0 9.02
      vertex 2.86943 0 7.86486
      vertex 3.04505 0 7.92243
    endloop
  endfacet
  facet normal 0 -1 0
    outer loop
      vertex 0 0 9.02
      vertex 2.10306 0 7.32749
      vertex 2.86943 0 7.86486
    endloop
  endfacet
  facet normal 0 -1 0
    outer loop
      vertex 0 0 9.02
      vertex 1.92778 0 7.20459
      vertex 2.10306 0 7.32749
    endloop
  endfacet
  facet normal 0 -1 0
    outer loop
      vertex 0 0 9.02
      vertex 1.35186 0 6.42084
      vertex 1.92778 0 7.20459
    endloop
  endfacet
  facet normal 0 -1 0
    outer loop
      vertex 0 0 9.02
      vertex 1.22835 0 6.25277
      vertex 1.35186 0 6.42084
    endloop
  endfacet
  facet normal 0 -1 0
    outer loop
      vertex 0 0 9.02
      vertex 1.16409 0 6.05536
      vertex 1.22835 0 6.25277
    endloop
  endfacet
  facet normal 0 -1 0
    outer loop
      vertex 0 0 9.02
      vertex 0.855342 0 5.10696
      vertex 1.16409 0 6.05536
    endloop
  endfacet
  facet normal 0 -1 0
    outer loop
      vertex 0 0 9.02
      vertex 0.853307 0 5.08343
      vertex 0.855342 0 5.10696
    endloop
  endfacet
  facet normal 0 -1 0
    outer loop
      vertex 0 0 9.02
      vertex 0.852807 0 5.07766
      vertex 0.853307 0 5.08343
    endloop
  endfacet
  facet normal 0 -1 0
    outer loop
      vertex 0 0 9.02
      vertex 0.852807 0 3.92234
      vertex 0.852807 0 5.07766
    endloop
  endfacet
  facet normal 0 -1 0
    outer loop
      vertex 0 0 0
      vertex 0.852807 0 3.92234
      vertex 0 0 9.02
    endloop
  endfacet
  facet normal 0 -1 -0
    outer loop
      vertex 0.852807 0 3.92234
      vertex 0 0 0
      vertex 0.853307 0 3.91657
    endloop
  endfacet
  facet normal 0 -1 0
    outer loop
      vertex 0 0 0
      vertex 2.10306 0 1.67251
      vertex 1.92778 0 1.79541
    endloop
  endfacet
  facet normal 0 -1 0
    outer loop
      vertex 4.15352 0 0.778297
      vertex 4.31719 0 0.7649
      vertex 4.18534 0 0.775692
    endloop
  endfacet
  facet normal 0 -1 -0
    outer loop
      vertex 4.35228 0 0.764009
      vertex 0 0 0
      vertex 4.5 0 0.760261
    endloop
  endfacet
  facet normal 0 -1 -0
    outer loop
      vertex 4.31719 0 0.7649
      vertex 0 0 0
      vertex 4.35228 0 0.764009
    endloop
  endfacet
  facet normal 0 -1 -0
    outer loop
      vertex 4.15352 0 0.778297
      vertex 0 0 0
      vertex 4.31719 0 0.7649
    endloop
  endfacet
  facet normal 0 -1 -0
    outer loop
      vertex 4.12829 0 0.78238
      vertex 0 0 0
      vertex 4.15352 0 0.778297
    endloop
  endfacet
  facet normal 0 -1 -0
    outer loop
      vertex 4.02577 0 0.798973
      vertex 0 0 0
      vertex 4.12829 0 0.78238
    endloop
  endfacet
  facet normal 0 -1 -0
    outer loop
      vertex 3.25712 0 1.01593
      vertex 0 0 0
      vertex 4.02577 0 0.798973
    endloop
  endfacet
  facet normal 0 -1 -0
    outer loop
      vertex 3.08396 0 1.06481
      vertex 0 0 0
      vertex 3.25712 0 1.01593
    endloop
  endfacet
  facet normal 0 -1 -0
    outer loop
      vertex 3.04505 0 1.07757
      vertex 0 0 0
      vertex 3.08396 0 1.06481
    endloop
  endfacet
  facet normal 0 -1 -0
    outer loop
      vertex 2.86943 0 1.13514
      vertex 0 0 0
      vertex 3.04505 0 1.07757
    endloop
  endfacet
  facet normal 0 -1 -0
    outer loop
      vertex 2.10306 0 1.67251
      vertex 0 0 0
      vertex 2.86943 0 1.13514
    endloop
  endfacet
  facet normal 0 -1 -0
    outer loop
      vertex 1.35186 0 2.57916
      vertex 0 0 0
      vertex 1.92778 0 1.79541
    endloop
  endfacet
  facet normal 0 -1 -0
    outer loop
      vertex 1.22835 0 2.74722
      vertex 0 0 0
      vertex 1.35186 0 2.57916
    endloop
  endfacet
  facet normal 0 -1 -0
    outer loop
      vertex 1.16409 0 2.94464
      vertex 0 0 0
      vertex 1.22835 0 2.74722
    endloop
  endfacet
  facet normal 0 -1 -0
    outer loop
      vertex 0.855342 0 3.89304
      vertex 0 0 0
      vertex 1.16409 0 2.94464
    endloop
  endfacet
  facet normal 0 -1 -0
    outer loop
      vertex 0.853307 0 3.91657
      vertex 0 0 0
      vertex 0.855342 0 3.89304
    endloop
  endfacet
  facet normal 0 -1 0
    outer loop
      vertex 4.64772 0 8.23599
      vertex 9.02 0 9.02
      vertex 4.5 0 8.23974
    endloop
  endfacet
  facet normal 0 -1 0
    outer loop
      vertex 4.68281 0 8.2351
      vertex 9.02 0 9.02
      vertex 4.64772 0 8.23599
    endloop
  endfacet
  facet normal 0 -1 0
    outer loop
      vertex 4.81466 0 8.22431
      vertex 9.02 0 9.02
      vertex 4.68281 0 8.2351
    endloop
  endfacet
  facet normal 0 -1 0
    outer loop
      vertex 4.84648 0 8.2217
      vertex 9.02 0 9.02
      vertex 4.81466 0 8.22431
    endloop
  endfacet
  facet normal 0 -1 0
    outer loop
      vertex 4.87171 0 8.21762
      vertex 9.02 0 9.02
      vertex 4.84648 0 8.2217
    endloop
  endfacet
  facet normal 0 -1 0
    outer loop
      vertex 4.97423 0 8.20103
      vertex 9.02 0 9.02
      vertex 4.87171 0 8.21762
    endloop
  endfacet
  facet normal 0 -1 0
    outer loop
      vertex 5.15433 0 8.15019
      vertex 9.02 0 9.02
      vertex 4.97423 0 8.20103
    endloop
  endfacet
  facet normal 0 -1 0
    outer loop
      vertex 5.91604 0 7.93519
      vertex 9.02 0 9.02
      vertex 5.15433 0 8.15019
    endloop
  endfacet
  facet normal 0 -1 0
    outer loop
      vertex 5.95495 0 7.92243
      vertex 9.02 0 9.02
      vertex 5.91604 0 7.93519
    endloop
  endfacet
  facet normal 0 -1 0
    outer loop
      vertex 6.13057 0 7.86486
      vertex 9.02 0 9.02
      vertex 5.95495 0 7.92243
    endloop
  endfacet
  facet normal 0 -1 0
    outer loop
      vertex 6.89694 0 7.32749
      vertex 9.02 0 9.02
      vertex 6.13057 0 7.86486
    endloop
  endfacet
  facet normal 0 -1 0
    outer loop
      vertex 7.07222 0 7.20459
      vertex 9.02 0 9.02
      vertex 6.89694 0 7.32749
    endloop
  endfacet
  facet normal 0 -1 0
    outer loop
      vertex 7.64814 0 6.42084
      vertex 9.02 0 9.02
      vertex 7.07222 0 7.20459
    endloop
  endfacet
  facet normal 0 -1 0
    outer loop
      vertex 7.77165 0 6.25277
      vertex 9.02 0 9.02
      vertex 7.64814 0 6.42084
    endloop
  endfacet
  facet normal 0 -1 0
    outer loop
      vertex 7.83591 0 6.05536
      vertex 9.02 0 9.02
      vertex 7.77165 0 6.25277
    endloop
  endfacet
  facet normal 0 -1 0
    outer loop
      vertex 8.14466 0 5.10696
      vertex 9.02 0 9.02
      vertex 7.83591 0 6.05536
    endloop
  endfacet
  facet normal 0 -1 0
    outer loop
      vertex 8.14669 0 5.08343
      vertex 9.02 0 9.02
      vertex 8.14466 0 5.10696
    endloop
  endfacet
  facet normal 0 -1 0
    outer loop
      vertex 8.14719 0 5.07766
      vertex 9.02 0 9.02
      vertex 8.14669 0 5.08343
    endloop
  endfacet
  facet normal 0 -1 0
    outer loop
      vertex 8.14719 0 3.92234
      vertex 9.02 0 9.02
      vertex 8.14719 0 5.07766
    endloop
  endfacet
  facet normal 0 -1 0
    outer loop
      vertex 9.02 0 0
      vertex 8.14719 0 3.92234
      vertex 8.14669 0 3.91657
    endloop
  endfacet
  facet normal 0 -1 0
    outer loop
      vertex 9.02 0 0
      vertex 8.14669 0 3.91657
      vertex 8.14466 0 3.89304
    endloop
  endfacet
  facet normal 0 -1 0
    outer loop
      vertex 9.02 0 0
      vertex 7.83591 0 2.94464
      vertex 7.77165 0 2.74722
    endloop
  endfacet
  facet normal 0 -1 0
    outer loop
      vertex 4.68281 0 0.7649
      vertex 4.84648 0 0.778297
      vertex 4.81466 0 0.775692
    endloop
  endfacet
  facet normal 0 -1 0
    outer loop
      vertex 9.02 0 0
      vertex 4.5 0 0.760261
      vertex 0 0 0
    endloop
  endfacet
  facet normal 0 -1 0
    outer loop
      vertex 4.5 0 0.760261
      vertex 9.02 0 0
      vertex 4.64772 0 0.764009
    endloop
  endfacet
  facet normal 0 -1 0
    outer loop
      vertex 4.64772 0 0.764009
      vertex 9.02 0 0
      vertex 4.68281 0 0.7649
    endloop
  endfacet
  facet normal 0 -1 0
    outer loop
      vertex 8.14719 0 3.92234
      vertex 9.02 0 0
      vertex 9.02 0 9.02
    endloop
  endfacet
  facet normal 0 -1 0
    outer loop
      vertex 7.83591 0 2.94464
      vertex 9.02 0 0
      vertex 8.14466 0 3.89304
    endloop
  endfacet
  facet normal 0 -1 0
    outer loop
      vertex 7.64814 0 2.57916
      vertex 9.02 0 0
      vertex 7.77165 0 2.74722
    endloop
  endfacet
  facet normal 0 -1 0
    outer loop
      vertex 7.07222 0 1.79541
      vertex 9.02 0 0
      vertex 7.64814 0 2.57916
    endloop
  endfacet
  facet normal 0 -1 0
    outer loop
      vertex 6.89694 0 1.67251
      vertex 9.02 0 0
      vertex 7.07222 0 1.79541
    endloop
  endfacet
  facet normal 0 -1 0
    outer loop
      vertex 6.13057 0 1.13514
      vertex 9.02 0 0
      vertex 6.89694 0 1.67251
    endloop
  endfacet
  facet normal 0 -1 0
    outer loop
      vertex 5.95495 0 1.07757
      vertex 9.02 0 0
      vertex 6.13057 0 1.13514
    endloop
  endfacet
  facet normal 0 -1 0
    outer loop
      vertex 5.91604 0 1.06481
      vertex 9.02 0 0
      vertex 5.95495 0 1.07757
    endloop
  endfacet
  facet normal 0 -1 0
    outer loop
      vertex 5.74288 0 1.01593
      vertex 9.02 0 0
      vertex 5.91604 0 1.06481
    endloop
  endfacet
  facet normal 0 -1 0
    outer loop
      vertex 4.97423 0 0.798973
      vertex 9.02 0 0
      vertex 5.74288 0 1.01593
    endloop
  endfacet
  facet normal 0 -1 0
    outer loop
      vertex 4.87171 0 0.78238
      vertex 9.02 0 0
      vertex 4.97423 0 0.798973
    endloop
  endfacet
  facet normal 0 -1 0
    outer loop
      vertex 4.84648 0 0.778297
      vertex 9.02 0 0
      vertex 4.87171 0 0.78238
    endloop
  endfacet
  facet normal 0 -1 0
    outer loop
      vertex 4.68281 0 0.7649
      vertex 9.02 0 0
      vertex 4.84648 0 0.778297
    endloop
  endfacet
  facet normal 0.848389 -0.432276 0.30557
    outer loop
      vertex 3.05832 11.7474 3.59202
      vertex 2.90189 11.8611 4.18713
      vertex 2.6213 11.3104 4.18713
    endloop
  endfacet
  facet normal -0.268315 -0.156168 -0.950589
    outer loop
      vertex 5.23457 11.2337 6.28201
      vertex 5.91604 0 7.93519
      vertex 5.15433 0 8.15019
    endloop
  endfacet
  facet normal -0.796026 -0.155491 0.584949
    outer loop
      vertex 7.77165 0 2.74722
      vertex 5.845 11.137 3.08579
      vertex 7.64814 0 2.57916
    endloop
  endfacet
  facet normal -0.796025 -0.155491 0.58495
    outer loop
      vertex 5.845 11.137 3.08579
      vertex 7.77165 0 2.74722
      vertex 6.19479 11.2507 3.59202
    endloop
  endfacet
  facet normal -0.15776 -0.157759 0.974794
    outer loop
      vertex 4.87171 0 0.78238
      vertex 4.97423 0 0.798973
      vertex 4.75312 10.8839 2.52462
    endloop
  endfacet
  facet normal -0.723906 -0.368849 0.583018
    outer loop
      vertex 6.19479 11.2507 3.59202
      vertex 5.94168 11.7474 3.59202
      vertex 5.64412 11.5313 3.08579
    endloop
  endfacet
  facet normal -0.30769 -0.156774 -0.938482
    outer loop
      vertex 5.91604 0 7.93519
      vertex 5.36354 10.9806 6.28201
      vertex 5.95495 0 7.92243
    endloop
  endfacet
  facet normal -0.307686 -0.156774 -0.938483
    outer loop
      vertex 5.36354 10.9806 6.28201
      vertex 5.91604 0 7.93519
      vertex 5.23457 11.2337 6.28201
    endloop
  endfacet
  facet normal -0.939445 -0.154633 0.305829
    outer loop
      vertex 7.83591 0 2.94464
      vertex 6.19479 11.2507 3.59202
      vertex 7.77165 0 2.74722
    endloop
  endfacet
  facet normal -0.939445 -0.154633 0.30583
    outer loop
      vertex 6.19479 11.2507 3.59202
      vertex 7.83591 0 2.94464
      vertex 6.37869 11.3104 4.18713
    endloop
  endfacet
  facet normal -0.0805578 -0.158102 0.984131
    outer loop
      vertex 4.68281 0 0.7649
      vertex 4.81466 0 0.775692
      vertex 4.59668 10.9976 2.52462
    endloop
  endfacet
  facet normal -0.307688 -0.156774 -0.938483
    outer loop
      vertex 6.13057 0 7.86486
      vertex 5.95495 0 7.92243
      vertex 5.36354 10.9806 6.28201
    endloop
  endfacet
  facet normal 0.984107 -0.155867 -0.0850861
    outer loop
      vertex 0.853307 0 5.08343
      vertex 2.52462 10.7 4.81287
      vertex 2.6213 11.3104 4.81287
    endloop
  endfacet
  facet normal 0.984107 -0.155867 -0.0850865
    outer loop
      vertex 2.52462 10.7 4.81287
      vertex 0.853307 0 5.08343
      vertex 0.852807 0 5.07766
    endloop
  endfacet
  facet normal -0.567065 -0.156189 -0.808729
    outer loop
      vertex 6.89694 0 7.32749
      vertex 6.13057 0 7.86486
      vertex 5.36354 10.9806 6.28201
    endloop
  endfacet
  facet normal -0.567065 -0.156189 0.808729
    outer loop
      vertex 5.36354 10.9806 2.71799
      vertex 7.07222 0 1.79541
      vertex 5.845 11.137 3.08579
    endloop
  endfacet
  facet normal -0.567065 -0.156189 0.808729
    outer loop
      vertex 7.07222 0 1.79541
      vertex 5.36354 10.9806 2.71799
      vertex 6.89694 0 1.67251
    endloop
  endfacet
  facet normal -0.891006 -0.453991 0
    outer loop
      vertex 6.37869 11.3104 4.18713
      vertex 6.09811 11.8611 4.81287
      vertex 6.09811 11.8611 4.18713
    endloop
  endfacet
  facet normal -0.891006 -0.453991 0
    outer loop
      vertex 6.09811 11.8611 4.81287
      vertex 6.37869 11.3104 4.18713
      vertex 6.37869 11.3104 4.81287
    endloop
  endfacet
  facet normal 0.432275 -0.84839 0.305569
    outer loop
      vertex 3.94933 12.3948 3.59202
      vertex 3.88958 12.5787 4.18713
      vertex 3.45256 12.1417 3.59202
    endloop
  endfacet
  facet normal 0.939445 -0.154633 0.30583
    outer loop
      vertex 1.16409 0 2.94464
      vertex 2.6213 11.3104 4.18713
      vertex 0.855342 0 3.89304
    endloop
  endfacet
  facet normal 0.796025 -0.155491 0.58495
    outer loop
      vertex 1.92778 0 1.79541
      vertex 3.155 11.137 3.08579
      vertex 1.35186 0 2.57916
    endloop
  endfacet
  facet normal 0.092696 -0.585255 0.805534
    outer loop
      vertex 4.21942 11.5635 2.71799
      vertex 4.5 11.608 2.71799
      vertex 4.06298 12.045 3.08579
    endloop
  endfacet
  facet normal -0.368848 -0.723906 -0.583019
    outer loop
      vertex 5.05067 12.3948 5.40798
      vertex 5.54744 12.1417 5.40798
      vertex 4.93702 12.045 5.91421
    endloop
  endfacet
  facet normal 0.220965 -0.220968 -0.94992
    outer loop
      vertex 4.3161 10.9531 6.47538
      vertex 4.24688 10.8839 6.47538
      vertex 3.9663 11.4346 6.28201
    endloop
  endfacet
  facet normal 0.307688 -0.156774 0.938483
    outer loop
      vertex 3.04505 0 1.07757
      vertex 3.63646 10.9806 2.71799
      vertex 2.86943 0 1.13514
    endloop
  endfacet
  facet normal 0.891006 -0.453991 0
    outer loop
      vertex 2.6213 11.3104 4.81287
      vertex 2.90189 11.8611 4.18713
      vertex 2.90189 11.8611 4.81287
    endloop
  endfacet
  facet normal 0.891006 -0.453991 0
    outer loop
      vertex 2.90189 11.8611 4.18713
      vertex 2.6213 11.3104 4.81287
      vertex 2.6213 11.3104 4.18713
    endloop
  endfacet
  facet normal 0.723906 -0.368849 0.583018
    outer loop
      vertex 3.35588 11.5313 3.08579
      vertex 3.05832 11.7474 3.59202
      vertex 2.8052 11.2507 3.59202
    endloop
  endfacet
  facet normal -0.268315 -0.156168 0.950589
    outer loop
      vertex 4.97423 0 0.798973
      vertex 5.74288 0 1.01593
      vertex 4.75312 10.8839 2.52462
    endloop
  endfacet
  facet normal -0.796025 -0.155491 0.58495
    outer loop
      vertex 7.07222 0 1.79541
      vertex 7.64814 0 2.57916
      vertex 5.845 11.137 3.08579
    endloop
  endfacet
  facet normal -0.984104 -0.155867 0.0851139
    outer loop
      vertex 8.14466 0 3.89304
      vertex 8.14669 0 3.91657
      vertex 6.37869 11.3104 4.18713
    endloop
  endfacet
  facet normal -0.307687 -0.156774 0.938483
    outer loop
      vertex 5.95495 0 1.07757
      vertex 6.13057 0 1.13514
      vertex 5.36354 10.9806 2.71799
    endloop
  endfacet
  facet normal -0.527965 -0.269013 0.805534
    outer loop
      vertex 5.36354 10.9806 2.71799
      vertex 5.64412 11.5313 3.08579
      vertex 5.23457 11.2337 2.71799
    endloop
  endfacet
  facet normal 0.0488853 -0.308647 0.94992
    outer loop
      vertex 4.5 11.0129 2.52462
      vertex 4.5 11.608 2.71799
      vertex 4.21942 11.5635 2.71799
    endloop
  endfacet
  facet normal -0.268319 -0.156168 -0.950588
    outer loop
      vertex 4.75312 10.8839 6.47538
      vertex 5.15433 0 8.15019
      vertex 4.97423 0 8.20103
    endloop
  endfacet
  facet normal -0.268315 -0.156168 -0.950589
    outer loop
      vertex 5.15433 0 8.15019
      vertex 4.75312 10.8839 6.47538
      vertex 5.23457 11.2337 6.28201
    endloop
  endfacet
  facet normal 0.368849 -0.723905 0.58302
    outer loop
      vertex 3.66875 11.8441 3.08579
      vertex 4.06298 12.045 3.08579
      vertex 3.45256 12.1417 3.59202
    endloop
  endfacet
  facet normal 0.157757 -0.157759 -0.974795
    outer loop
      vertex 4.15352 0 8.2217
      vertex 4.24688 10.8839 6.47538
      vertex 4.3161 10.9531 6.47538
    endloop
  endfacet
  facet normal 0.157771 -0.157759 -0.974793
    outer loop
      vertex 4.24688 10.8839 6.47538
      vertex 4.15352 0 8.2217
      vertex 4.12829 0 8.21762
    endloop
  endfacet
  facet normal 0.567065 -0.156189 0.808729
    outer loop
      vertex 2.86943 0 1.13514
      vertex 3.63646 10.9806 2.71799
      vertex 2.10306 0 1.67251
    endloop
  endfacet
  facet normal 0.939445 -0.154633 0.30583
    outer loop
      vertex 1.16409 0 2.94464
      vertex 2.8052 11.2507 3.59202
      vertex 2.6213 11.3104 4.18713
    endloop
  endfacet
  facet normal 0.939445 -0.154633 0.305831
    outer loop
      vertex 2.8052 11.2507 3.59202
      vertex 1.16409 0 2.94464
      vertex 1.22835 0 2.74722
    endloop
  endfacet
  facet normal 0.418996 -0.418996 0.805534
    outer loop
      vertex 3.76543 11.2337 2.71799
      vertex 3.9663 11.4346 2.71799
      vertex 3.35588 11.5313 3.08579
    endloop
  endfacet
  facet normal 0.268315 -0.156168 0.950589
    outer loop
      vertex 4.02577 0 0.798973
      vertex 4.24688 10.8839 2.52462
      vertex 3.25712 0 1.01593
    endloop
  endfacet
  facet normal -0.984107 -0.155867 0.0850836
    outer loop
      vertex 8.14669 0 3.91657
      vertex 6.47538 10.7 4.18713
      vertex 6.37869 11.3104 4.18713
    endloop
  endfacet
  facet normal -0.984115 -0.155866 0.0849958
    outer loop
      vertex 6.47538 10.7 4.18713
      vertex 8.14669 0 3.91657
      vertex 8.14719 0 3.92234
    endloop
  endfacet
  facet normal -0.148953 -0.940447 -0.30557
    outer loop
      vertex 5.11042 12.5787 4.81287
      vertex 5.05067 12.3948 5.40798
      vertex 4.5 12.482 5.40798
    endloop
  endfacet
  facet normal -0.987688 -0.156434 0
    outer loop
      vertex 6.47538 10.7 4.18713
      vertex 6.37869 11.3104 4.81287
      vertex 6.37869 11.3104 4.18713
    endloop
  endfacet
  facet normal -0.987688 -0.156434 0
    outer loop
      vertex 6.37869 11.3104 4.81287
      vertex 6.47538 10.7 4.18713
      vertex 6.47538 10.7 4.81287
    endloop
  endfacet
  facet normal -0.707107 -0.707107 0
    outer loop
      vertex 6.09811 11.8611 4.18713
      vertex 5.6611 12.2981 4.81287
      vertex 5.6611 12.2981 4.18713
    endloop
  endfacet
  facet normal -0.707107 -0.707107 0
    outer loop
      vertex 5.6611 12.2981 4.81287
      vertex 6.09811 11.8611 4.18713
      vertex 6.09811 11.8611 4.81287
    endloop
  endfacet
  facet normal -0.574494 -0.574495 -0.58302
    outer loop
      vertex 5.54744 12.1417 5.40798
      vertex 5.64412 11.5313 5.91421
      vertex 5.33125 11.8441 5.91421
    endloop
  endfacet
  facet normal -0.0488858 -0.308647 -0.94992
    outer loop
      vertex 4.78058 11.5635 6.28201
      vertex 4.59668 10.9976 6.47538
      vertex 4.5 11.0129 6.47538
    endloop
  endfacet
  facet normal -0.157752 -0.157759 -0.974795
    outer loop
      vertex 4.97423 0 8.20103
      vertex 4.87171 0 8.21762
      vertex 4.75312 10.8839 6.47538
    endloop
  endfacet
  facet normal -0.939445 -0.154633 -0.30583
    outer loop
      vertex 7.83591 0 6.05536
      vertex 6.19479 11.2507 5.40798
      vertex 6.37869 11.3104 4.81287
    endloop
  endfacet
  facet normal -0.939445 -0.154633 -0.305829
    outer loop
      vertex 6.19479 11.2507 5.40798
      vertex 7.83591 0 6.05536
      vertex 7.77165 0 6.25277
    endloop
  endfacet
  facet normal 0.307686 -0.156774 0.938483
    outer loop
      vertex 3.63646 10.9806 2.71799
      vertex 3.08396 0 1.06481
      vertex 3.76543 11.2337 2.71799
    endloop
  endfacet
  facet normal 0.307685 -0.156774 0.938484
    outer loop
      vertex 3.08396 0 1.06481
      vertex 3.63646 10.9806 2.71799
      vertex 3.04505 0 1.07757
    endloop
  endfacet
  facet normal 0.527966 -0.269012 -0.805534
    outer loop
      vertex 3.35588 11.5313 5.91421
      vertex 3.63646 10.9806 6.28201
      vertex 3.155 11.137 5.91421
    endloop
  endfacet
  facet normal -0.988013 -0.154372 0
    outer loop
      vertex 8.14719 0 3.92234
      vertex 6.47538 10.7 4.81287
      vertex 6.47538 10.7 4.18713
    endloop
  endfacet
  facet normal -0.988013 -0.154372 0
    outer loop
      vertex 6.47538 10.7 4.81287
      vertex 8.14719 0 3.92234
      vertex 8.14719 0 5.07766
    endloop
  endfacet
  facet normal 0.0805585 -0.158102 0.984131
    outer loop
      vertex 4.3161 10.9531 2.52462
      vertex 4.18534 0 0.775692
      vertex 4.40332 10.9976 2.52462
    endloop
  endfacet
  facet normal 0.0805576 -0.158102 0.984131
    outer loop
      vertex 4.18534 0 0.775692
      vertex 4.3161 10.9531 2.52462
      vertex 4.15352 0 0.778297
    endloop
  endfacet
  facet normal 0.673286 -0.673286 -0.305569
    outer loop
      vertex 3.3389 12.2981 4.81287
      vertex 3.45256 12.1417 5.40798
      vertex 2.90189 11.8611 4.81287
    endloop
  endfacet
  facet normal -0.0250469 -0.158142 0.987099
    outer loop
      vertex 4.64772 0 0.764009
      vertex 4.5 11.0129 2.52462
      vertex 4.5 0 0.760261
    endloop
  endfacet
  facet normal -0.0805576 -0.158102 0.984131
    outer loop
      vertex 4.6839 10.9531 2.52462
      vertex 4.81466 0 0.775692
      vertex 4.84648 0 0.778297
    endloop
  endfacet
  facet normal -0.0805585 -0.158102 0.984131
    outer loop
      vertex 4.81466 0 0.775692
      vertex 4.6839 10.9531 2.52462
      vertex 4.59668 10.9976 2.52462
    endloop
  endfacet
  facet normal -0.939445 -0.154633 0.305831
    outer loop
      vertex 7.83591 0 2.94464
      vertex 8.14466 0 3.89304
      vertex 6.37869 11.3104 4.18713
    endloop
  endfacet
  facet normal -0.673286 -0.673286 -0.305569
    outer loop
      vertex 5.6611 12.2981 4.81287
      vertex 6.09811 11.8611 4.81287
      vertex 5.54744 12.1417 5.40798
    endloop
  endfacet
  facet normal -0.723906 -0.368849 -0.583018
    outer loop
      vertex 5.94168 11.7474 5.40798
      vertex 6.19479 11.2507 5.40798
      vertex 5.64412 11.5313 5.91421
    endloop
  endfacet
  facet normal -0.796025 -0.155491 -0.58495
    outer loop
      vertex 7.64814 0 6.42084
      vertex 7.07222 0 7.20459
      vertex 5.845 11.137 5.91421
    endloop
  endfacet
  facet normal 0.0488853 -0.308647 -0.94992
    outer loop
      vertex 4.5 11.0129 6.47538
      vertex 4.40332 10.9976 6.47538
      vertex 4.21942 11.5635 6.28201
    endloop
  endfacet
  facet normal -0.157771 -0.157759 -0.974793
    outer loop
      vertex 4.84648 0 8.2217
      vertex 4.75312 10.8839 6.47538
      vertex 4.87171 0 8.21762
    endloop
  endfacet
  facet normal -0.157757 -0.157759 -0.974795
    outer loop
      vertex 4.75312 10.8839 6.47538
      vertex 4.84648 0 8.2217
      vertex 4.6839 10.9531 6.47538
    endloop
  endfacet
  facet normal 0.307688 -0.156774 -0.938483
    outer loop
      vertex 3.63646 10.9806 6.28201
      vertex 3.04505 0 7.92243
      vertex 2.86943 0 7.86486
    endloop
  endfacet
  facet normal 0.157752 -0.157759 -0.974795
    outer loop
      vertex 4.24688 10.8839 6.47538
      vertex 4.12829 0 8.21762
      vertex 4.02577 0 8.20103
    endloop
  endfacet
  facet normal -0.368849 -0.723905 0.58302
    outer loop
      vertex 5.33125 11.8441 3.08579
      vertex 5.54744 12.1417 3.59202
      vertex 4.93702 12.045 3.08579
    endloop
  endfacet
  facet normal 0.796025 -0.155491 0.58495
    outer loop
      vertex 1.22835 0 2.74722
      vertex 3.155 11.137 3.08579
      vertex 2.8052 11.2507 3.59202
    endloop
  endfacet
  facet normal 0.796025 -0.155491 0.58495
    outer loop
      vertex 3.155 11.137 3.08579
      vertex 1.22835 0 2.74722
      vertex 1.35186 0 2.57916
    endloop
  endfacet
  facet normal 0.574496 -0.574495 0.583018
    outer loop
      vertex 3.35588 11.5313 3.08579
      vertex 3.45256 12.1417 3.59202
      vertex 3.05832 11.7474 3.59202
    endloop
  endfacet
  facet normal 0.673286 -0.673285 0.30557
    outer loop
      vertex 3.05832 11.7474 3.59202
      vertex 3.45256 12.1417 3.59202
      vertex 2.90189 11.8611 4.18713
    endloop
  endfacet
  facet normal 0.848389 -0.432276 -0.30557
    outer loop
      vertex 2.90189 11.8611 4.81287
      vertex 3.05832 11.7474 5.40798
      vertex 2.6213 11.3104 4.81287
    endloop
  endfacet
  facet normal 0.984107 -0.155867 0.0850865
    outer loop
      vertex 0.853307 0 3.91657
      vertex 2.52462 10.7 4.18713
      vertex 0.852807 0 3.92234
    endloop
  endfacet
  facet normal 0.984107 -0.155867 0.0850862
    outer loop
      vertex 2.52462 10.7 4.18713
      vertex 0.853307 0 3.91657
      vertex 2.6213 11.3104 4.18713
    endloop
  endfacet
  facet normal 0.723906 -0.368848 0.583019
    outer loop
      vertex 3.155 11.137 3.08579
      vertex 3.35588 11.5313 3.08579
      vertex 2.8052 11.2507 3.59202
    endloop
  endfacet
  facet normal -0.269013 -0.527966 0.805534
    outer loop
      vertex 5.0337 11.4346 2.71799
      vertex 5.33125 11.8441 3.08579
      vertex 4.78058 11.5635 2.71799
    endloop
  endfacet
  facet normal -0.527965 -0.269013 -0.805534
    outer loop
      vertex 5.64412 11.5313 5.91421
      vertex 5.36354 10.9806 6.28201
      vertex 5.23457 11.2337 6.28201
    endloop
  endfacet
  facet normal -0.939445 -0.154633 -0.305831
    outer loop
      vertex 8.14466 0 5.10696
      vertex 7.83591 0 6.05536
      vertex 6.37869 11.3104 4.81287
    endloop
  endfacet
  facet normal -0.574494 -0.574495 0.58302
    outer loop
      vertex 5.64412 11.5313 3.08579
      vertex 5.54744 12.1417 3.59202
      vertex 5.33125 11.8441 3.08579
    endloop
  endfacet
  facet normal -0.0926957 -0.585255 0.805533
    outer loop
      vertex 4.93702 12.045 3.08579
      vertex 4.5 12.1142 3.08579
      vertex 4.5 11.608 2.71799
    endloop
  endfacet
  facet normal 0.127097 -0.802456 -0.583019
    outer loop
      vertex 4.5 12.482 5.40798
      vertex 4.06298 12.045 5.91421
      vertex 3.94933 12.3948 5.40798
    endloop
  endfacet
  facet normal 0.148952 -0.940447 -0.305569
    outer loop
      vertex 4.5 12.6754 4.81287
      vertex 4.5 12.482 5.40798
      vertex 3.88958 12.5787 4.81287
    endloop
  endfacet
  facet normal -0.14187 -0.278434 -0.94992
    outer loop
      vertex 4.78058 11.5635 6.28201
      vertex 5.0337 11.4346 6.28201
      vertex 4.59668 10.9976 6.47538
    endloop
  endfacet
  facet normal -0.269013 -0.527966 -0.805534
    outer loop
      vertex 5.33125 11.8441 5.91421
      vertex 5.0337 11.4346 6.28201
      vertex 4.78058 11.5635 6.28201
    endloop
  endfacet
  facet normal 0.141871 -0.278433 -0.94992
    outer loop
      vertex 4.40332 10.9976 6.47538
      vertex 4.3161 10.9531 6.47538
      vertex 3.9663 11.4346 6.28201
    endloop
  endfacet
  facet normal 0.0926955 -0.585255 -0.805533
    outer loop
      vertex 4.5 12.1142 5.91421
      vertex 4.5 11.608 6.28201
      vertex 4.06298 12.045 5.91421
    endloop
  endfacet
  facet normal 0.0805582 -0.158102 -0.984131
    outer loop
      vertex 4.40332 10.9976 6.47538
      vertex 4.31719 0 8.2351
      vertex 4.18534 0 8.22431
    endloop
  endfacet
  facet normal 0.0250475 -0.158142 -0.987099
    outer loop
      vertex 4.35228 0 8.23599
      vertex 4.40332 10.9976 6.47538
      vertex 4.5 11.0129 6.47538
    endloop
  endfacet
  facet normal 0.0250581 -0.158142 -0.987098
    outer loop
      vertex 4.40332 10.9976 6.47538
      vertex 4.35228 0 8.23599
      vertex 4.31719 0 8.2351
    endloop
  endfacet
  facet normal 0.0805585 -0.158102 -0.984131
    outer loop
      vertex 4.18534 0 8.22431
      vertex 4.3161 10.9531 6.47538
      vertex 4.40332 10.9976 6.47538
    endloop
  endfacet
  facet normal 0.0805558 -0.158102 -0.984131
    outer loop
      vertex 4.3161 10.9531 6.47538
      vertex 4.18534 0 8.22431
      vertex 4.15352 0 8.2217
    endloop
  endfacet
  facet normal 0.15776 -0.157759 0.974794
    outer loop
      vertex 4.12829 0 0.78238
      vertex 4.24688 10.8839 2.52462
      vertex 4.02577 0 0.798973
    endloop
  endfacet
  facet normal -0.025048 -0.158142 0.987099
    outer loop
      vertex 4.59668 10.9976 2.52462
      vertex 4.64772 0 0.764009
      vertex 4.68281 0 0.7649
    endloop
  endfacet
  facet normal -0.0250477 -0.158142 0.987099
    outer loop
      vertex 4.64772 0 0.764009
      vertex 4.59668 10.9976 2.52462
      vertex 4.5 11.0129 2.52462
    endloop
  endfacet
  facet normal 0.527965 -0.269013 0.805534
    outer loop
      vertex 3.63646 10.9806 2.71799
      vertex 3.76543 11.2337 2.71799
      vertex 3.35588 11.5313 3.08579
    endloop
  endfacet
  facet normal 0.0488853 -0.308647 0.94992
    outer loop
      vertex 4.40332 10.9976 2.52462
      vertex 4.5 11.0129 2.52462
      vertex 4.21942 11.5635 2.71799
    endloop
  endfacet
  facet normal 0.418996 -0.418997 0.805534
    outer loop
      vertex 3.9663 11.4346 2.71799
      vertex 3.66875 11.8441 3.08579
      vertex 3.35588 11.5313 3.08579
    endloop
  endfacet
  facet normal 0.574494 -0.574495 0.58302
    outer loop
      vertex 3.66875 11.8441 3.08579
      vertex 3.45256 12.1417 3.59202
      vertex 3.35588 11.5313 3.08579
    endloop
  endfacet
  facet normal 0.527966 -0.269012 0.805534
    outer loop
      vertex 3.63646 10.9806 2.71799
      vertex 3.35588 11.5313 3.08579
      vertex 3.155 11.137 3.08579
    endloop
  endfacet
  facet normal 0.567065 -0.156189 0.808729
    outer loop
      vertex 1.92778 0 1.79541
      vertex 3.63646 10.9806 2.71799
      vertex 3.155 11.137 3.08579
    endloop
  endfacet
  facet normal 0.567065 -0.156189 0.808729
    outer loop
      vertex 3.63646 10.9806 2.71799
      vertex 1.92778 0 1.79541
      vertex 2.10306 0 1.67251
    endloop
  endfacet
  facet normal 0.527965 -0.269013 -0.805534
    outer loop
      vertex 3.76543 11.2337 6.28201
      vertex 3.63646 10.9806 6.28201
      vertex 3.35588 11.5313 5.91421
    endloop
  endfacet
  facet normal 0.848389 -0.432276 0.30557
    outer loop
      vertex 2.8052 11.2507 3.59202
      vertex 3.05832 11.7474 3.59202
      vertex 2.6213 11.3104 4.18713
    endloop
  endfacet
  facet normal 0.984105 -0.155867 0.0851089
    outer loop
      vertex 0.855342 0 3.89304
      vertex 2.6213 11.3104 4.18713
      vertex 0.853307 0 3.91657
    endloop
  endfacet
  facet normal 0.988013 -0.154372 0
    outer loop
      vertex 0.852807 0 5.07766
      vertex 2.52462 10.7 4.18713
      vertex 2.52462 10.7 4.81287
    endloop
  endfacet
  facet normal 0.988013 -0.154372 0
    outer loop
      vertex 2.52462 10.7 4.18713
      vertex 0.852807 0 5.07766
      vertex 0.852807 0 3.92234
    endloop
  endfacet
  facet normal 0.939445 -0.154633 -0.30583
    outer loop
      vertex 2.6213 11.3104 4.81287
      vertex 1.16409 0 6.05536
      vertex 0.855342 0 5.10696
    endloop
  endfacet
  facet normal 0.984105 -0.155867 -0.0851098
    outer loop
      vertex 2.6213 11.3104 4.81287
      vertex 0.855342 0 5.10696
      vertex 0.853307 0 5.08343
    endloop
  endfacet
  facet normal -0.368849 -0.723905 -0.58302
    outer loop
      vertex 5.54744 12.1417 5.40798
      vertex 5.33125 11.8441 5.91421
      vertex 4.93702 12.045 5.91421
    endloop
  endfacet
  facet normal 0.148953 -0.940447 -0.30557
    outer loop
      vertex 4.5 12.482 5.40798
      vertex 3.94933 12.3948 5.40798
      vertex 3.88958 12.5787 4.81287
    endloop
  endfacet
  facet normal -0.127097 -0.802456 -0.583019
    outer loop
      vertex 4.5 12.482 5.40798
      vertex 4.93702 12.045 5.91421
      vertex 4.5 12.1142 5.91421
    endloop
  endfacet
  facet normal -0.796025 -0.155491 -0.58495
    outer loop
      vertex 7.77165 0 6.25277
      vertex 5.845 11.137 5.91421
      vertex 6.19479 11.2507 5.40798
    endloop
  endfacet
  facet normal -0.796026 -0.155491 -0.584949
    outer loop
      vertex 5.845 11.137 5.91421
      vertex 7.77165 0 6.25277
      vertex 7.64814 0 6.42084
    endloop
  endfacet
  facet normal -0.220967 -0.220967 0.94992
    outer loop
      vertex 5.23457 11.2337 2.71799
      vertex 5.0337 11.4346 2.71799
      vertex 4.75312 10.8839 2.52462
    endloop
  endfacet
  facet normal -0.418996 -0.418997 0.805534
    outer loop
      vertex 5.64412 11.5313 3.08579
      vertex 5.33125 11.8441 3.08579
      vertex 5.0337 11.4346 2.71799
    endloop
  endfacet
  facet normal -0.127097 -0.802456 0.583019
    outer loop
      vertex 4.93702 12.045 3.08579
      vertex 4.5 12.482 3.59202
      vertex 4.5 12.1142 3.08579
    endloop
  endfacet
  facet normal -0.574496 -0.574495 0.583018
    outer loop
      vertex 5.64412 11.5313 3.08579
      vertex 5.94168 11.7474 3.59202
      vertex 5.54744 12.1417 3.59202
    endloop
  endfacet
  facet normal -0.673286 -0.673286 0.305569
    outer loop
      vertex 6.09811 11.8611 4.18713
      vertex 5.6611 12.2981 4.18713
      vertex 5.54744 12.1417 3.59202
    endloop
  endfacet
  facet normal -0.567065 -0.156189 0.808729
    outer loop
      vertex 6.13057 0 1.13514
      vertex 6.89694 0 1.67251
      vertex 5.36354 10.9806 2.71799
    endloop
  endfacet
  facet normal 0.939445 -0.154633 -0.305831
    outer loop
      vertex 1.16409 0 6.05536
      vertex 2.8052 11.2507 5.40798
      vertex 1.22835 0 6.25277
    endloop
  endfacet
  facet normal 0.939445 -0.154633 -0.30583
    outer loop
      vertex 2.8052 11.2507 5.40798
      vertex 1.16409 0 6.05536
      vertex 2.6213 11.3104 4.81287
    endloop
  endfacet
  facet normal -0.527966 -0.269012 -0.805534
    outer loop
      vertex 5.64412 11.5313 5.91421
      vertex 5.845 11.137 5.91421
      vertex 5.36354 10.9806 6.28201
    endloop
  endfacet
  facet normal -0.0805558 -0.158102 -0.984131
    outer loop
      vertex 4.81466 0 8.22431
      vertex 4.6839 10.9531 6.47538
      vertex 4.84648 0 8.2217
    endloop
  endfacet
  facet normal -0.0805585 -0.158102 -0.984131
    outer loop
      vertex 4.6839 10.9531 6.47538
      vertex 4.81466 0 8.22431
      vertex 4.59668 10.9976 6.47538
    endloop
  endfacet
  facet normal -0.220967 -0.220967 -0.94992
    outer loop
      vertex 5.0337 11.4346 6.28201
      vertex 5.23457 11.2337 6.28201
      vertex 4.75312 10.8839 6.47538
    endloop
  endfacet
  facet normal 0.432275 -0.84839 -0.305569
    outer loop
      vertex 3.88958 12.5787 4.81287
      vertex 3.94933 12.3948 5.40798
      vertex 3.45256 12.1417 5.40798
    endloop
  endfacet
  facet normal 0.567065 -0.156189 -0.808729
    outer loop
      vertex 3.63646 10.9806 6.28201
      vertex 2.86943 0 7.86486
      vertex 2.10306 0 7.32749
    endloop
  endfacet
  facet normal -0.0805582 -0.158102 -0.984131
    outer loop
      vertex 4.81466 0 8.22431
      vertex 4.68281 0 8.2351
      vertex 4.59668 10.9976 6.47538
    endloop
  endfacet
  facet normal 0.0250444 -0.158142 -0.987099
    outer loop
      vertex 4.5 11.0129 6.47538
      vertex 4.5 0 8.23974
      vertex 4.35228 0 8.23599
    endloop
  endfacet
  facet normal -0.0250445 -0.158142 -0.987099
    outer loop
      vertex 4.5 11.0129 6.47538
      vertex 4.64772 0 8.23599
      vertex 4.5 0 8.23974
    endloop
  endfacet
  facet normal -0.0250581 -0.158142 -0.987098
    outer loop
      vertex 4.64772 0 8.23599
      vertex 4.59668 10.9976 6.47538
      vertex 4.68281 0 8.2351
    endloop
  endfacet
  facet normal -0.0250477 -0.158142 -0.987099
    outer loop
      vertex 4.59668 10.9976 6.47538
      vertex 4.64772 0 8.23599
      vertex 4.5 11.0129 6.47538
    endloop
  endfacet
  facet normal 0.127097 -0.802456 -0.583019
    outer loop
      vertex 4.5 12.482 5.40798
      vertex 4.5 12.1142 5.91421
      vertex 4.06298 12.045 5.91421
    endloop
  endfacet
  facet normal 0.796025 -0.155491 -0.58495
    outer loop
      vertex 3.155 11.137 5.91421
      vertex 1.92778 0 7.20459
      vertex 1.35186 0 6.42084
    endloop
  endfacet
  facet normal 0.14187 -0.278434 -0.94992
    outer loop
      vertex 4.21942 11.5635 6.28201
      vertex 4.40332 10.9976 6.47538
      vertex 3.9663 11.4346 6.28201
    endloop
  endfacet
  facet normal -0.368848 -0.723906 0.583019
    outer loop
      vertex 5.54744 12.1417 3.59202
      vertex 5.05067 12.3948 3.59202
      vertex 4.93702 12.045 3.08579
    endloop
  endfacet
  facet normal -0.141871 -0.278433 0.94992
    outer loop
      vertex 4.6839 10.9531 2.52462
      vertex 5.0337 11.4346 2.71799
      vertex 4.59668 10.9976 2.52462
    endloop
  endfacet
  facet normal 0.14187 -0.278434 0.94992
    outer loop
      vertex 4.40332 10.9976 2.52462
      vertex 4.21942 11.5635 2.71799
      vertex 3.9663 11.4346 2.71799
    endloop
  endfacet
  facet normal 0.141871 -0.278433 0.94992
    outer loop
      vertex 4.3161 10.9531 2.52462
      vertex 4.40332 10.9976 2.52462
      vertex 3.9663 11.4346 2.71799
    endloop
  endfacet
  facet normal 0.269013 -0.527966 0.805534
    outer loop
      vertex 3.9663 11.4346 2.71799
      vertex 4.21942 11.5635 2.71799
      vertex 3.66875 11.8441 3.08579
    endloop
  endfacet
  facet normal 0.269012 -0.527966 0.805533
    outer loop
      vertex 4.21942 11.5635 2.71799
      vertex 4.06298 12.045 3.08579
      vertex 3.66875 11.8441 3.08579
    endloop
  endfacet
  facet normal 0.220967 -0.220967 0.94992
    outer loop
      vertex 4.24688 10.8839 2.52462
      vertex 3.9663 11.4346 2.71799
      vertex 3.76543 11.2337 2.71799
    endloop
  endfacet
  facet normal 0.268315 -0.156168 0.950589
    outer loop
      vertex 3.08396 0 1.06481
      vertex 4.24688 10.8839 2.52462
      vertex 3.76543 11.2337 2.71799
    endloop
  endfacet
  facet normal 0.268316 -0.156168 0.950588
    outer loop
      vertex 4.24688 10.8839 2.52462
      vertex 3.08396 0 1.06481
      vertex 3.25712 0 1.01593
    endloop
  endfacet
  facet normal 0.987688 -0.156434 0
    outer loop
      vertex 2.52462 10.7 4.81287
      vertex 2.6213 11.3104 4.18713
      vertex 2.6213 11.3104 4.81287
    endloop
  endfacet
  facet normal 0.987688 -0.156434 0
    outer loop
      vertex 2.6213 11.3104 4.18713
      vertex 2.52462 10.7 4.81287
      vertex 2.52462 10.7 4.18713
    endloop
  endfacet
  facet normal 0.307686 -0.156774 -0.938483
    outer loop
      vertex 3.08396 0 7.93519
      vertex 3.63646 10.9806 6.28201
      vertex 3.76543 11.2337 6.28201
    endloop
  endfacet
  facet normal 0.30769 -0.156774 -0.938482
    outer loop
      vertex 3.63646 10.9806 6.28201
      vertex 3.08396 0 7.93519
      vertex 3.04505 0 7.92243
    endloop
  endfacet
  facet normal 0.432276 -0.84839 -0.305569
    outer loop
      vertex 3.88958 12.5787 4.81287
      vertex 3.45256 12.1417 5.40798
      vertex 3.3389 12.2981 4.81287
    endloop
  endfacet
  facet normal 0.156434 -0.987688 0
    outer loop
      vertex 3.88958 12.5787 4.18713
      vertex 4.5 12.6754 4.81287
      vertex 3.88958 12.5787 4.81287
    endloop
  endfacet
  facet normal 0.156434 -0.987688 0
    outer loop
      vertex 4.5 12.6754 4.81287
      vertex 3.88958 12.5787 4.18713
      vertex 4.5 12.6754 4.18713
    endloop
  endfacet
  facet normal -0.0926963 -0.585255 -0.805534
    outer loop
      vertex 4.93702 12.045 5.91421
      vertex 4.78058 11.5635 6.28201
      vertex 4.5 11.608 6.28201
    endloop
  endfacet
  facet normal -0.127097 -0.802456 -0.583019
    outer loop
      vertex 5.05067 12.3948 5.40798
      vertex 4.93702 12.045 5.91421
      vertex 4.5 12.482 5.40798
    endloop
  endfacet
  facet normal -0.574496 -0.574495 -0.583018
    outer loop
      vertex 5.94168 11.7474 5.40798
      vertex 5.64412 11.5313 5.91421
      vertex 5.54744 12.1417 5.40798
    endloop
  endfacet
  facet normal -0.567065 -0.156189 -0.808729
    outer loop
      vertex 5.36354 10.9806 6.28201
      vertex 7.07222 0 7.20459
      vertex 6.89694 0 7.32749
    endloop
  endfacet
  facet normal -0.567065 -0.156189 -0.808729
    outer loop
      vertex 7.07222 0 7.20459
      vertex 5.36354 10.9806 6.28201
      vertex 5.845 11.137 5.91421
    endloop
  endfacet
  facet normal -0.984104 -0.155867 -0.0851147
    outer loop
      vertex 8.14669 0 5.08343
      vertex 8.14466 0 5.10696
      vertex 6.37869 11.3104 4.81287
    endloop
  endfacet
  facet normal -0.848389 -0.432276 -0.30557
    outer loop
      vertex 6.09811 11.8611 4.81287
      vertex 6.37869 11.3104 4.81287
      vertex 5.94168 11.7474 5.40798
    endloop
  endfacet
  facet normal -0.848389 -0.432276 -0.30557
    outer loop
      vertex 6.37869 11.3104 4.81287
      vertex 6.19479 11.2507 5.40798
      vertex 5.94168 11.7474 5.40798
    endloop
  endfacet
  facet normal -0.673286 -0.673285 0.30557
    outer loop
      vertex 5.94168 11.7474 3.59202
      vertex 6.09811 11.8611 4.18713
      vertex 5.54744 12.1417 3.59202
    endloop
  endfacet
  facet normal -0.418996 -0.418996 0.805534
    outer loop
      vertex 5.23457 11.2337 2.71799
      vertex 5.64412 11.5313 3.08579
      vertex 5.0337 11.4346 2.71799
    endloop
  endfacet
  facet normal -0.14187 -0.278434 0.94992
    outer loop
      vertex 5.0337 11.4346 2.71799
      vertex 4.78058 11.5635 2.71799
      vertex 4.59668 10.9976 2.52462
    endloop
  endfacet
  facet normal 0.0926955 -0.585255 0.805533
    outer loop
      vertex 4.5 11.608 2.71799
      vertex 4.5 12.1142 3.08579
      vertex 4.06298 12.045 3.08579
    endloop
  endfacet
  facet normal -0.723906 -0.368848 0.583019
    outer loop
      vertex 5.845 11.137 3.08579
      vertex 6.19479 11.2507 3.59202
      vertex 5.64412 11.5313 3.08579
    endloop
  endfacet
  facet normal -0.527966 -0.269012 0.805534
    outer loop
      vertex 5.845 11.137 3.08579
      vertex 5.64412 11.5313 3.08579
      vertex 5.36354 10.9806 2.71799
    endloop
  endfacet
  facet normal 0.148952 -0.940447 0.305569
    outer loop
      vertex 4.5 12.482 3.59202
      vertex 4.5 12.6754 4.18713
      vertex 3.88958 12.5787 4.18713
    endloop
  endfacet
  facet normal -0.127097 -0.802456 0.583019
    outer loop
      vertex 4.93702 12.045 3.08579
      vertex 5.05067 12.3948 3.59202
      vertex 4.5 12.482 3.59202
    endloop
  endfacet
  facet normal -0.148952 -0.940447 -0.305569
    outer loop
      vertex 4.5 12.6754 4.81287
      vertex 5.11042 12.5787 4.81287
      vertex 4.5 12.482 5.40798
    endloop
  endfacet
  facet normal -0.432275 -0.84839 0.305569
    outer loop
      vertex 5.54744 12.1417 3.59202
      vertex 5.11042 12.5787 4.18713
      vertex 5.05067 12.3948 3.59202
    endloop
  endfacet
  facet normal -0.156434 -0.987688 0
    outer loop
      vertex 4.5 12.6754 4.18713
      vertex 5.11042 12.5787 4.81287
      vertex 4.5 12.6754 4.81287
    endloop
  endfacet
  facet normal -0.156434 -0.987688 -0
    outer loop
      vertex 5.11042 12.5787 4.81287
      vertex 4.5 12.6754 4.18713
      vertex 5.11042 12.5787 4.18713
    endloop
  endfacet
  facet normal -0.848389 -0.432276 0.30557
    outer loop
      vertex 6.37869 11.3104 4.18713
      vertex 6.09811 11.8611 4.18713
      vertex 5.94168 11.7474 3.59202
    endloop
  endfacet
  facet normal -0.848389 -0.432276 0.30557
    outer loop
      vertex 6.19479 11.2507 3.59202
      vertex 6.37869 11.3104 4.18713
      vertex 5.94168 11.7474 3.59202
    endloop
  endfacet
  facet normal -0.220965 -0.220968 -0.94992
    outer loop
      vertex 5.0337 11.4346 6.28201
      vertex 4.75312 10.8839 6.47538
      vertex 4.6839 10.9531 6.47538
    endloop
  endfacet
  facet normal -0.141871 -0.278433 -0.94992
    outer loop
      vertex 5.0337 11.4346 6.28201
      vertex 4.6839 10.9531 6.47538
      vertex 4.59668 10.9976 6.47538
    endloop
  endfacet
  facet normal 0.268315 -0.156168 -0.950589
    outer loop
      vertex 3.76543 11.2337 6.28201
      vertex 3.84567 0 8.15019
      vertex 3.08396 0 7.93519
    endloop
  endfacet
  facet normal 0.268319 -0.156168 -0.950588
    outer loop
      vertex 3.84567 0 8.15019
      vertex 4.24688 10.8839 6.47538
      vertex 4.02577 0 8.20103
    endloop
  endfacet
  facet normal 0.268315 -0.156168 -0.950589
    outer loop
      vertex 4.24688 10.8839 6.47538
      vertex 3.84567 0 8.15019
      vertex 3.76543 11.2337 6.28201
    endloop
  endfacet
  facet normal 0.0250475 -0.158142 0.987099
    outer loop
      vertex 4.40332 10.9976 2.52462
      vertex 4.35228 0 0.764009
      vertex 4.5 11.0129 2.52462
    endloop
  endfacet
  facet normal 0.025048 -0.158142 0.987099
    outer loop
      vertex 4.35228 0 0.764009
      vertex 4.40332 10.9976 2.52462
      vertex 4.31719 0 0.7649
    endloop
  endfacet
  facet normal 0.0250468 -0.158142 0.987099
    outer loop
      vertex 4.5 0 0.760261
      vertex 4.5 11.0129 2.52462
      vertex 4.35228 0 0.764009
    endloop
  endfacet
  facet normal 0.673286 -0.673286 0.305569
    outer loop
      vertex 3.45256 12.1417 3.59202
      vertex 3.3389 12.2981 4.18713
      vertex 2.90189 11.8611 4.18713
    endloop
  endfacet
  facet normal 0.707107 -0.707107 0
    outer loop
      vertex 2.90189 11.8611 4.81287
      vertex 3.3389 12.2981 4.18713
      vertex 3.3389 12.2981 4.81287
    endloop
  endfacet
  facet normal 0.707107 -0.707107 0
    outer loop
      vertex 3.3389 12.2981 4.18713
      vertex 2.90189 11.8611 4.81287
      vertex 2.90189 11.8611 4.18713
    endloop
  endfacet
  facet normal -0.0926957 -0.585255 -0.805533
    outer loop
      vertex 4.5 12.1142 5.91421
      vertex 4.93702 12.045 5.91421
      vertex 4.5 11.608 6.28201
    endloop
  endfacet
  facet normal -0.269012 -0.527966 -0.805533
    outer loop
      vertex 4.93702 12.045 5.91421
      vertex 5.33125 11.8441 5.91421
      vertex 4.78058 11.5635 6.28201
    endloop
  endfacet
  facet normal 0.0488853 -0.308647 -0.94992
    outer loop
      vertex 4.5 11.608 6.28201
      vertex 4.5 11.0129 6.47538
      vertex 4.21942 11.5635 6.28201
    endloop
  endfacet
  facet normal -0.0488855 -0.308647 -0.94992
    outer loop
      vertex 4.5 11.608 6.28201
      vertex 4.78058 11.5635 6.28201
      vertex 4.5 11.0129 6.47538
    endloop
  endfacet
  facet normal -0.984115 -0.155866 -0.0849958
    outer loop
      vertex 8.14669 0 5.08343
      vertex 6.47538 10.7 4.81287
      vertex 8.14719 0 5.07766
    endloop
  endfacet
  facet normal -0.984107 -0.155867 -0.0850835
    outer loop
      vertex 6.47538 10.7 4.81287
      vertex 8.14669 0 5.08343
      vertex 6.37869 11.3104 4.81287
    endloop
  endfacet
  facet normal -0.673286 -0.673285 -0.30557
    outer loop
      vertex 6.09811 11.8611 4.81287
      vertex 5.94168 11.7474 5.40798
      vertex 5.54744 12.1417 5.40798
    endloop
  endfacet
  facet normal -0.723906 -0.368848 -0.583019
    outer loop
      vertex 6.19479 11.2507 5.40798
      vertex 5.845 11.137 5.91421
      vertex 5.64412 11.5313 5.91421
    endloop
  endfacet
  facet normal -0.220965 -0.220968 0.94992
    outer loop
      vertex 4.75312 10.8839 2.52462
      vertex 5.0337 11.4346 2.71799
      vertex 4.6839 10.9531 2.52462
    endloop
  endfacet
  facet normal -0.15776 -0.157759 0.974794
    outer loop
      vertex 4.75312 10.8839 2.52462
      vertex 4.84648 0 0.778297
      vertex 4.87171 0 0.78238
    endloop
  endfacet
  facet normal -0.157757 -0.157759 0.974795
    outer loop
      vertex 4.84648 0 0.778297
      vertex 4.75312 10.8839 2.52462
      vertex 4.6839 10.9531 2.52462
    endloop
  endfacet
  facet normal -0.0488858 -0.308647 0.94992
    outer loop
      vertex 4.59668 10.9976 2.52462
      vertex 4.78058 11.5635 2.71799
      vertex 4.5 11.0129 2.52462
    endloop
  endfacet
  facet normal -0.0488855 -0.308647 0.94992
    outer loop
      vertex 4.78058 11.5635 2.71799
      vertex 4.5 11.608 2.71799
      vertex 4.5 11.0129 2.52462
    endloop
  endfacet
  facet normal -0.148953 -0.940447 0.30557
    outer loop
      vertex 5.05067 12.3948 3.59202
      vertex 5.11042 12.5787 4.18713
      vertex 4.5 12.482 3.59202
    endloop
  endfacet
  facet normal -0.148952 -0.940447 0.305569
    outer loop
      vertex 5.11042 12.5787 4.18713
      vertex 4.5 12.6754 4.18713
      vertex 4.5 12.482 3.59202
    endloop
  endfacet
  facet normal -0.307685 -0.156774 0.938484
    outer loop
      vertex 5.36354 10.9806 2.71799
      vertex 5.91604 0 1.06481
      vertex 5.95495 0 1.07757
    endloop
  endfacet
  facet normal -0.307686 -0.156774 0.938483
    outer loop
      vertex 5.91604 0 1.06481
      vertex 5.36354 10.9806 2.71799
      vertex 5.23457 11.2337 2.71799
    endloop
  endfacet
  facet normal -0.268315 -0.156168 0.950589
    outer loop
      vertex 4.75312 10.8839 2.52462
      vertex 5.91604 0 1.06481
      vertex 5.23457 11.2337 2.71799
    endloop
  endfacet
  facet normal -0.268316 -0.156168 0.950588
    outer loop
      vertex 5.91604 0 1.06481
      vertex 4.75312 10.8839 2.52462
      vertex 5.74288 0 1.01593
    endloop
  endfacet
  facet normal 0.127097 -0.802456 0.583019
    outer loop
      vertex 4.5 12.1142 3.08579
      vertex 4.5 12.482 3.59202
      vertex 4.06298 12.045 3.08579
    endloop
  endfacet
  facet normal 0.148953 -0.940447 0.30557
    outer loop
      vertex 3.94933 12.3948 3.59202
      vertex 4.5 12.482 3.59202
      vertex 3.88958 12.5787 4.18713
    endloop
  endfacet
  facet normal -0.432275 -0.84839 -0.305569
    outer loop
      vertex 5.11042 12.5787 4.81287
      vertex 5.54744 12.1417 5.40798
      vertex 5.05067 12.3948 5.40798
    endloop
  endfacet
  facet normal -0.432276 -0.84839 -0.305569
    outer loop
      vertex 5.6611 12.2981 4.81287
      vertex 5.54744 12.1417 5.40798
      vertex 5.11042 12.5787 4.81287
    endloop
  endfacet
  facet normal 0.567065 -0.156189 -0.808729
    outer loop
      vertex 1.92778 0 7.20459
      vertex 3.63646 10.9806 6.28201
      vertex 2.10306 0 7.32749
    endloop
  endfacet
  facet normal 0.567065 -0.156189 -0.808729
    outer loop
      vertex 3.63646 10.9806 6.28201
      vertex 1.92778 0 7.20459
      vertex 3.155 11.137 5.91421
    endloop
  endfacet
  facet normal 0.220967 -0.220967 -0.94992
    outer loop
      vertex 3.9663 11.4346 6.28201
      vertex 4.24688 10.8839 6.47538
      vertex 3.76543 11.2337 6.28201
    endloop
  endfacet
  facet normal 0.269013 -0.527966 -0.805534
    outer loop
      vertex 4.21942 11.5635 6.28201
      vertex 3.9663 11.4346 6.28201
      vertex 3.66875 11.8441 5.91421
    endloop
  endfacet
  facet normal 0.723906 -0.368848 -0.583019
    outer loop
      vertex 3.35588 11.5313 5.91421
      vertex 3.155 11.137 5.91421
      vertex 2.8052 11.2507 5.40798
    endloop
  endfacet
  facet normal 0.0805578 -0.158102 0.984131
    outer loop
      vertex 4.31719 0 0.7649
      vertex 4.40332 10.9976 2.52462
      vertex 4.18534 0 0.775692
    endloop
  endfacet
  facet normal 0.45399 -0.891007 0
    outer loop
      vertex 3.3389 12.2981 4.18713
      vertex 3.88958 12.5787 4.81287
      vertex 3.3389 12.2981 4.81287
    endloop
  endfacet
  facet normal 0.45399 -0.891007 0
    outer loop
      vertex 3.88958 12.5787 4.81287
      vertex 3.3389 12.2981 4.18713
      vertex 3.88958 12.5787 4.18713
    endloop
  endfacet
  facet normal 0.432276 -0.84839 0.305569
    outer loop
      vertex 3.45256 12.1417 3.59202
      vertex 3.88958 12.5787 4.18713
      vertex 3.3389 12.2981 4.18713
    endloop
  endfacet
  facet normal -0.418996 -0.418997 -0.805534
    outer loop
      vertex 5.33125 11.8441 5.91421
      vertex 5.64412 11.5313 5.91421
      vertex 5.0337 11.4346 6.28201
    endloop
  endfacet
  facet normal -0.418996 -0.418996 -0.805534
    outer loop
      vertex 5.64412 11.5313 5.91421
      vertex 5.23457 11.2337 6.28201
      vertex 5.0337 11.4346 6.28201
    endloop
  endfacet
  facet normal -0.269012 -0.527966 0.805533
    outer loop
      vertex 5.33125 11.8441 3.08579
      vertex 4.93702 12.045 3.08579
      vertex 4.78058 11.5635 2.71799
    endloop
  endfacet
  facet normal -0.0926963 -0.585255 0.805534
    outer loop
      vertex 4.78058 11.5635 2.71799
      vertex 4.93702 12.045 3.08579
      vertex 4.5 11.608 2.71799
    endloop
  endfacet
  facet normal 0.127097 -0.802456 0.583019
    outer loop
      vertex 4.06298 12.045 3.08579
      vertex 4.5 12.482 3.59202
      vertex 3.94933 12.3948 3.59202
    endloop
  endfacet
  facet normal 0.368848 -0.723906 0.583019
    outer loop
      vertex 4.06298 12.045 3.08579
      vertex 3.94933 12.3948 3.59202
      vertex 3.45256 12.1417 3.59202
    endloop
  endfacet
  facet normal -0.45399 -0.891007 0
    outer loop
      vertex 5.11042 12.5787 4.18713
      vertex 5.6611 12.2981 4.81287
      vertex 5.11042 12.5787 4.81287
    endloop
  endfacet
  facet normal -0.45399 -0.891007 -0
    outer loop
      vertex 5.6611 12.2981 4.81287
      vertex 5.11042 12.5787 4.18713
      vertex 5.6611 12.2981 4.18713
    endloop
  endfacet
  facet normal -0.432276 -0.84839 0.305569
    outer loop
      vertex 5.54744 12.1417 3.59202
      vertex 5.6611 12.2981 4.18713
      vertex 5.11042 12.5787 4.18713
    endloop
  endfacet
  facet normal 0.269012 -0.527966 -0.805533
    outer loop
      vertex 4.06298 12.045 5.91421
      vertex 4.21942 11.5635 6.28201
      vertex 3.66875 11.8441 5.91421
    endloop
  endfacet
  facet normal 0.092696 -0.585255 -0.805534
    outer loop
      vertex 4.5 11.608 6.28201
      vertex 4.21942 11.5635 6.28201
      vertex 4.06298 12.045 5.91421
    endloop
  endfacet
  facet normal 0.796025 -0.155491 -0.58495
    outer loop
      vertex 1.22835 0 6.25277
      vertex 3.155 11.137 5.91421
      vertex 1.35186 0 6.42084
    endloop
  endfacet
  facet normal 0.796025 -0.155491 -0.58495
    outer loop
      vertex 3.155 11.137 5.91421
      vertex 1.22835 0 6.25277
      vertex 2.8052 11.2507 5.40798
    endloop
  endfacet
  facet normal 0.574494 -0.574495 -0.58302
    outer loop
      vertex 3.45256 12.1417 5.40798
      vertex 3.66875 11.8441 5.91421
      vertex 3.35588 11.5313 5.91421
    endloop
  endfacet
  facet normal 0.157757 -0.157759 0.974795
    outer loop
      vertex 4.24688 10.8839 2.52462
      vertex 4.15352 0 0.778297
      vertex 4.3161 10.9531 2.52462
    endloop
  endfacet
  facet normal 0.15776 -0.157759 0.974794
    outer loop
      vertex 4.15352 0 0.778297
      vertex 4.24688 10.8839 2.52462
      vertex 4.12829 0 0.78238
    endloop
  endfacet
  facet normal 0.220965 -0.220968 0.94992
    outer loop
      vertex 4.24688 10.8839 2.52462
      vertex 4.3161 10.9531 2.52462
      vertex 3.9663 11.4346 2.71799
    endloop
  endfacet
  facet normal 0.673286 -0.673285 -0.30557
    outer loop
      vertex 3.45256 12.1417 5.40798
      vertex 3.05832 11.7474 5.40798
      vertex 2.90189 11.8611 4.81287
    endloop
  endfacet
  facet normal 0.848389 -0.432276 -0.30557
    outer loop
      vertex 3.05832 11.7474 5.40798
      vertex 2.8052 11.2507 5.40798
      vertex 2.6213 11.3104 4.81287
    endloop
  endfacet
  facet normal 0.368848 -0.723906 -0.583019
    outer loop
      vertex 3.94933 12.3948 5.40798
      vertex 4.06298 12.045 5.91421
      vertex 3.45256 12.1417 5.40798
    endloop
  endfacet
  facet normal 0.368849 -0.723905 -0.58302
    outer loop
      vertex 4.06298 12.045 5.91421
      vertex 3.66875 11.8441 5.91421
      vertex 3.45256 12.1417 5.40798
    endloop
  endfacet
  facet normal 0.723906 -0.368849 -0.583018
    outer loop
      vertex 3.05832 11.7474 5.40798
      vertex 3.35588 11.5313 5.91421
      vertex 2.8052 11.2507 5.40798
    endloop
  endfacet
  facet normal 0.574496 -0.574495 -0.583018
    outer loop
      vertex 3.45256 12.1417 5.40798
      vertex 3.35588 11.5313 5.91421
      vertex 3.05832 11.7474 5.40798
    endloop
  endfacet
  facet normal 0.418996 -0.418996 -0.805534
    outer loop
      vertex 3.9663 11.4346 6.28201
      vertex 3.76543 11.2337 6.28201
      vertex 3.35588 11.5313 5.91421
    endloop
  endfacet
  facet normal 0.418996 -0.418997 -0.805534
    outer loop
      vertex 3.66875 11.8441 5.91421
      vertex 3.9663 11.4346 6.28201
      vertex 3.35588 11.5313 5.91421
    endloop
  endfacet
endsolid OpenSCAD_Model
