solid OpenSCAD_Model
  facet normal -1 0 0
    outer loop
      vertex 0 0 0
      vertex 0 15 9.02
      vertex 0 15 0
    endloop
  endfacet
  facet normal -1 -0 0
    outer loop
      vertex 0 15 9.02
      vertex 0 0 0
      vertex 0 0 9.02
    endloop
  endfacet
  facet normal -0 0 1
    outer loop
      vertex 0 15 9.02
      vertex 9.02 0 9.02
      vertex 9.02 15 9.02
    endloop
  endfacet
  facet normal 0 0 1
    outer loop
      vertex 9.02 0 9.02
      vertex 0 15 9.02
      vertex 0 0 9.02
    endloop
  endfacet
  facet normal 1 -0 0
    outer loop
      vertex 9.02 0 9.02
      vertex 9.02 15 0
      vertex 9.02 15 9.02
    endloop
  endfacet
  facet normal 1 0 0
    outer loop
      vertex 9.02 15 0
      vertex 9.02 0 9.02
      vertex 9.02 0 0
    endloop
  endfacet
  facet normal 0 1 -0
    outer loop
      vertex 9.02 15 0
      vertex 0 15 9.02
      vertex 9.02 15 9.02
    endloop
  endfacet
  facet normal 0 1 0
    outer loop
      vertex 0 15 9.02
      vertex 9.02 15 0
      vertex 0 15 0
    endloop
  endfacet
  facet normal 0 0 -1
    outer loop
      vertex 0 0 0
      vertex 9.02 15 0
      vertex 9.02 0 0
    endloop
  endfacet
  facet normal -0 0 -1
    outer loop
      vertex 9.02 15 0
      vertex 0 0 0
      vertex 0 15 0
    endloop
  endfacet
  facet normal 0 -1 0
    outer loop
      vertex 0 0 9.02
      vertex 4.5 0 7.74617
      vertex 9.02 0 9.02
    endloop
  endfacet
  facet normal 0 -1 0
    outer loop
      vertex 0 0 9.02
      vertex 4.44767 0 7.74419
      vertex 4.5 0 7.74617
    endloop
  endfacet
  facet normal 0 -1 0
    outer loop
      vertex 0 0 9.02
      vertex 4.34141 0 7.74016
      vertex 4.44767 0 7.74419
    endloop
  endfacet
  facet normal 0 -1 0
    outer loop
      vertex 0 0 9.02
      vertex 4.24712 0 7.72862
      vertex 4.34141 0 7.74016
    endloop
  endfacet
  facet normal 0 -1 0
    outer loop
      vertex 0 0 9.02
      vertex 4.19997 0 7.72285
      vertex 4.24712 0 7.72862
    endloop
  endfacet
  facet normal 0 -1 0
    outer loop
      vertex 0 0 9.02
      vertex 4.00997 0 7.68119
      vertex 4.19997 0 7.72285
    endloop
  endfacet
  facet normal 0 -1 0
    outer loop
      vertex 0 0 9.02
      vertex 3.57577 0 7.58599
      vertex 4.00997 0 7.68119
    endloop
  endfacet
  facet normal 0 -1 0
    outer loop
      vertex 0 0 9.02
      vertex 3.2597 0 7.50887
      vertex 3.57577 0 7.58599
    endloop
  endfacet
  facet normal 0 -1 0
    outer loop
      vertex 0 0 9.02
      vertex 3.20467 0 7.47969
      vertex 3.2597 0 7.50887
    endloop
  endfacet
  facet normal 0 -1 0
    outer loop
      vertex 0 0 9.02
      vertex 3.08645 0 7.41701
      vertex 3.20467 0 7.47969
    endloop
  endfacet
  facet normal 0 -1 0
    outer loop
      vertex 0 0 9.02
      vertex 2.52482 0 7.03994
      vertex 3.08645 0 7.41701
    endloop
  endfacet
  facet normal 0 -1 0
    outer loop
      vertex 0 0 9.02
      vertex 2.25601 0 6.85947
      vertex 2.52482 0 7.03994
    endloop
  endfacet
  facet normal 0 -1 0
    outer loop
      vertex 0 0 9.02
      vertex 1.82331 0 6.28838
      vertex 2.25601 0 6.85947
    endloop
  endfacet
  facet normal 0 -1 0
    outer loop
      vertex 0 0 9.02
      vertex 1.63234 0 6.03634
      vertex 1.82331 0 6.28838
    endloop
  endfacet
  facet normal 0 -1 0
    outer loop
      vertex 0 0 9.02
      vertex 1.53349 0 5.74039
      vertex 1.63234 0 6.03634
    endloop
  endfacet
  facet normal 0 -1 0
    outer loop
      vertex 0 0 9.02
      vertex 1.29732 0 5.03336
      vertex 1.53349 0 5.74039
    endloop
  endfacet
  facet normal 0 -1 0
    outer loop
      vertex 0 0 9.02
      vertex 1.29732 0 3.96664
      vertex 1.29732 0 5.03336
    endloop
  endfacet
  facet normal 0 -1 0
    outer loop
      vertex 0 0 0
      vertex 4.00997 0 1.31881
      vertex 3.57577 0 1.41401
    endloop
  endfacet
  facet normal 0 -1 -0
    outer loop
      vertex 4.44767 0 1.25581
      vertex 0 0 0
      vertex 4.5 0 1.25383
    endloop
  endfacet
  facet normal 0 -1 -0
    outer loop
      vertex 4.34141 0 1.25984
      vertex 0 0 0
      vertex 4.44767 0 1.25581
    endloop
  endfacet
  facet normal 0 -1 -0
    outer loop
      vertex 4.24712 0 1.27138
      vertex 0 0 0
      vertex 4.34141 0 1.25984
    endloop
  endfacet
  facet normal 0 -1 -0
    outer loop
      vertex 4.19997 0 1.27715
      vertex 0 0 0
      vertex 4.24712 0 1.27138
    endloop
  endfacet
  facet normal 0 -1 -0
    outer loop
      vertex 4.00997 0 1.31881
      vertex 0 0 0
      vertex 4.19997 0 1.27715
    endloop
  endfacet
  facet normal 0 -1 -0
    outer loop
      vertex 3.2597 0 1.49113
      vertex 0 0 0
      vertex 3.57577 0 1.41401
    endloop
  endfacet
  facet normal 0 -1 -0
    outer loop
      vertex 3.20467 0 1.52031
      vertex 0 0 0
      vertex 3.2597 0 1.49113
    endloop
  endfacet
  facet normal 0 -1 -0
    outer loop
      vertex 3.08645 0 1.58299
      vertex 0 0 0
      vertex 3.20467 0 1.52031
    endloop
  endfacet
  facet normal 0 -1 -0
    outer loop
      vertex 2.52482 0 1.96006
      vertex 0 0 0
      vertex 3.08645 0 1.58299
    endloop
  endfacet
  facet normal 0 -1 -0
    outer loop
      vertex 2.25601 0 2.14053
      vertex 0 0 0
      vertex 2.52482 0 1.96006
    endloop
  endfacet
  facet normal 0 -1 -0
    outer loop
      vertex 1.82331 0 2.71162
      vertex 0 0 0
      vertex 2.25601 0 2.14053
    endloop
  endfacet
  facet normal 0 -1 -0
    outer loop
      vertex 1.63234 0 2.96366
      vertex 0 0 0
      vertex 1.82331 0 2.71162
    endloop
  endfacet
  facet normal 0 -1 -0
    outer loop
      vertex 1.53349 0 3.25961
      vertex 0 0 0
      vertex 1.63234 0 2.96366
    endloop
  endfacet
  facet normal 0 -1 -0
    outer loop
      vertex 1.29732 0 3.96664
      vertex 0 0 0
      vertex 1.53349 0 3.25961
    endloop
  endfacet
  facet normal 0 -1 0
    outer loop
      vertex 0 0 0
      vertex 1.29732 0 3.96664
      vertex 0 0 9.02
    endloop
  endfacet
  facet normal 0 -1 0
    outer loop
      vertex 4.55232 0 7.74419
      vertex 9.02 0 9.02
      vertex 4.5 0 7.74617
    endloop
  endfacet
  facet normal 0 -1 0
    outer loop
      vertex 4.65858 0 7.74016
      vertex 9.02 0 9.02
      vertex 4.55232 0 7.74419
    endloop
  endfacet
  facet normal 0 -1 0
    outer loop
      vertex 4.75288 0 7.72862
      vertex 9.02 0 9.02
      vertex 4.65858 0 7.74016
    endloop
  endfacet
  facet normal 0 -1 0
    outer loop
      vertex 4.80003 0 7.72285
      vertex 9.02 0 9.02
      vertex 4.75288 0 7.72862
    endloop
  endfacet
  facet normal 0 -1 0
    outer loop
      vertex 4.99003 0 7.68119
      vertex 9.02 0 9.02
      vertex 4.80003 0 7.72285
    endloop
  endfacet
  facet normal 0 -1 0
    outer loop
      vertex 5.42423 0 7.58599
      vertex 9.02 0 9.02
      vertex 4.99003 0 7.68119
    endloop
  endfacet
  facet normal 0 -1 0
    outer loop
      vertex 5.7403 0 7.50887
      vertex 9.02 0 9.02
      vertex 5.42423 0 7.58599
    endloop
  endfacet
  facet normal 0 -1 0
    outer loop
      vertex 5.79533 0 7.47969
      vertex 9.02 0 9.02
      vertex 5.7403 0 7.50887
    endloop
  endfacet
  facet normal 0 -1 0
    outer loop
      vertex 5.91354 0 7.41701
      vertex 9.02 0 9.02
      vertex 5.79533 0 7.47969
    endloop
  endfacet
  facet normal 0 -1 0
    outer loop
      vertex 6.47518 0 7.03994
      vertex 9.02 0 9.02
      vertex 5.91354 0 7.41701
    endloop
  endfacet
  facet normal 0 -1 0
    outer loop
      vertex 6.74399 0 6.85947
      vertex 9.02 0 9.02
      vertex 6.47518 0 7.03994
    endloop
  endfacet
  facet normal 0 -1 0
    outer loop
      vertex 7.17669 0 6.28838
      vertex 9.02 0 9.02
      vertex 6.74399 0 6.85947
    endloop
  endfacet
  facet normal 0 -1 0
    outer loop
      vertex 7.36766 0 6.03634
      vertex 9.02 0 9.02
      vertex 7.17669 0 6.28838
    endloop
  endfacet
  facet normal 0 -1 0
    outer loop
      vertex 7.60382 0 5.32932
      vertex 9.02 0 9.02
      vertex 7.36766 0 6.03634
    endloop
  endfacet
  facet normal 0 -1 0
    outer loop
      vertex 7.70268 0 5.03336
      vertex 9.02 0 9.02
      vertex 7.60382 0 5.32932
    endloop
  endfacet
  facet normal 0 -1 0
    outer loop
      vertex 7.70268 0 3.96664
      vertex 9.02 0 9.02
      vertex 7.70268 0 5.03336
    endloop
  endfacet
  facet normal 0 -1 0
    outer loop
      vertex 9.02 0 0
      vertex 6.47518 0 1.96006
      vertex 5.91354 0 1.58299
    endloop
  endfacet
  facet normal 0 -1 0
    outer loop
      vertex 9.02 0 0
      vertex 4.99003 0 1.31881
      vertex 4.80003 0 1.27715
    endloop
  endfacet
  facet normal 0 -1 0
    outer loop
      vertex 9.02 0 0
      vertex 4.5 0 1.25383
      vertex 0 0 0
    endloop
  endfacet
  facet normal 0 -1 0
    outer loop
      vertex 4.5 0 1.25383
      vertex 9.02 0 0
      vertex 4.55232 0 1.25581
    endloop
  endfacet
  facet normal 0 -1 0
    outer loop
      vertex 4.55232 0 1.25581
      vertex 9.02 0 0
      vertex 4.65858 0 1.25984
    endloop
  endfacet
  facet normal 0 -1 0
    outer loop
      vertex 4.65858 0 1.25984
      vertex 9.02 0 0
      vertex 4.75288 0 1.27138
    endloop
  endfacet
  facet normal 0 -1 0
    outer loop
      vertex 4.75288 0 1.27138
      vertex 9.02 0 0
      vertex 4.80003 0 1.27715
    endloop
  endfacet
  facet normal 0 -1 0
    outer loop
      vertex 4.99003 0 1.31881
      vertex 9.02 0 0
      vertex 5.42423 0 1.41401
    endloop
  endfacet
  facet normal 0 -1 0
    outer loop
      vertex 7.70268 0 3.96664
      vertex 9.02 0 0
      vertex 9.02 0 9.02
    endloop
  endfacet
  facet normal 0 -1 0
    outer loop
      vertex 7.60382 0 3.67068
      vertex 9.02 0 0
      vertex 7.70268 0 3.96664
    endloop
  endfacet
  facet normal 0 -1 0
    outer loop
      vertex 7.36766 0 2.96366
      vertex 9.02 0 0
      vertex 7.60382 0 3.67068
    endloop
  endfacet
  facet normal 0 -1 0
    outer loop
      vertex 7.17669 0 2.71162
      vertex 9.02 0 0
      vertex 7.36766 0 2.96366
    endloop
  endfacet
  facet normal 0 -1 0
    outer loop
      vertex 6.74399 0 2.14053
      vertex 9.02 0 0
      vertex 7.17669 0 2.71162
    endloop
  endfacet
  facet normal 0 -1 0
    outer loop
      vertex 6.47518 0 1.96006
      vertex 9.02 0 0
      vertex 6.74399 0 2.14053
    endloop
  endfacet
  facet normal 0 -1 0
    outer loop
      vertex 5.79533 0 1.52031
      vertex 9.02 0 0
      vertex 5.91354 0 1.58299
    endloop
  endfacet
  facet normal 0 -1 0
    outer loop
      vertex 5.7403 0 1.49113
      vertex 9.02 0 0
      vertex 5.79533 0 1.52031
    endloop
  endfacet
  facet normal 0 -1 0
    outer loop
      vertex 5.42423 0 1.41401
      vertex 9.02 0 0
      vertex 5.7403 0 1.49113
    endloop
  endfacet
  facet normal 0.848389 -0.432276 -0.30557
    outer loop
      vertex 2.90189 6.1611 4.81287
      vertex 3.05832 6.04744 5.40798
      vertex 2.8052 5.55067 5.40798
    endloop
  endfacet
  facet normal -0.127097 -0.802456 0.583019
    outer loop
      vertex 4.93702 6.345 3.08579
      vertex 4.5 6.78201 3.59202
      vertex 4.5 6.41421 3.08579
    endloop
  endfacet
  facet normal 0.148953 -0.940447 -0.30557
    outer loop
      vertex 4.5 6.78201 5.40798
      vertex 3.94933 6.69479 5.40798
      vertex 3.88958 6.87869 4.81287
    endloop
  endfacet
  facet normal -0.542439 -0.230157 -0.807953
    outer loop
      vertex 6.47518 0 7.03994
      vertex 5.845 5.43702 5.91421
      vertex 6.74399 0 6.85947
    endloop
  endfacet
  facet normal -0.542439 -0.230157 -0.807953
    outer loop
      vertex 5.845 5.43702 5.91421
      vertex 6.47518 0 7.03994
      vertex 5.36354 5.28058 6.28201
    endloop
  endfacet
  facet normal 0.0368189 -0.232472 -0.971906
    outer loop
      vertex 4.40332 5.29756 6.47538
      vertex 4.44767 0 7.74419
      vertex 4.34141 0 7.74016
    endloop
  endfacet
  facet normal -0.269013 -0.527966 -0.805534
    outer loop
      vertex 5.33125 6.14412 5.91421
      vertex 5.0337 5.73457 6.28201
      vertex 4.78058 5.86354 6.28201
    endloop
  endfacet
  facet normal -0.141871 -0.278433 0.94992
    outer loop
      vertex 4.6839 5.25312 2.52462
      vertex 5.0337 5.73457 2.71799
      vertex 4.59668 5.29756 2.52462
    endloop
  endfacet
  facet normal -0.542439 -0.230157 0.807953
    outer loop
      vertex 5.845 5.43702 3.08579
      vertex 6.47518 0 1.96006
      vertex 6.74399 0 2.14053
    endloop
  endfacet
  facet normal -0.542439 -0.230157 0.807953
    outer loop
      vertex 6.47518 0 1.96006
      vertex 5.845 5.43702 3.08579
      vertex 5.36354 5.28058 2.71799
    endloop
  endfacet
  facet normal 0.923068 -0.22995 -0.308331
    outer loop
      vertex 2.6213 5.61042 4.81287
      vertex 1.53349 0 5.74039
      vertex 1.29732 0 5.03336
    endloop
  endfacet
  facet normal -0.418996 -0.418996 0.805534
    outer loop
      vertex 5.33125 6.14412 3.08579
      vertex 5.23457 5.5337 2.71799
      vertex 5.64412 5.83125 3.08579
    endloop
  endfacet
  facet normal -0.418996 -0.418996 0.805534
    outer loop
      vertex 5.23457 5.5337 2.71799
      vertex 5.33125 6.14412 3.08579
      vertex 5.0337 5.73457 2.71799
    endloop
  endfacet
  facet normal 0.542439 -0.230158 0.807953
    outer loop
      vertex 3.155 5.43702 3.08579
      vertex 2.52482 0 1.96006
      vertex 3.63646 5.28058 2.71799
    endloop
  endfacet
  facet normal 0.542439 -0.230158 0.807953
    outer loop
      vertex 2.52482 0 1.96006
      vertex 3.155 5.43702 3.08579
      vertex 2.25601 0 2.14053
    endloop
  endfacet
  facet normal 0.455651 -0.232165 0.85935
    outer loop
      vertex 3.20467 0 1.52031
      vertex 3.63646 5.28058 2.71799
      vertex 3.08645 0 1.58299
    endloop
  endfacet
  facet normal -0.891007 -0.45399 0
    outer loop
      vertex 6.37869 5.61042 4.18713
      vertex 6.09811 6.1611 4.81287
      vertex 6.09811 6.1611 4.18713
    endloop
  endfacet
  facet normal -0.891007 -0.45399 0
    outer loop
      vertex 6.09811 6.1611 4.81287
      vertex 6.37869 5.61042 4.18713
      vertex 6.37869 5.61042 4.81287
    endloop
  endfacet
  facet normal -0.84839 -0.432276 -0.305569
    outer loop
      vertex 6.37869 5.61042 4.81287
      vertex 6.19479 5.55067 5.40798
      vertex 6.09811 6.1611 4.81287
    endloop
  endfacet
  facet normal -0.230659 -0.230659 0.9453
    outer loop
      vertex 5.23457 5.5337 2.71799
      vertex 5.42423 0 1.41401
      vertex 5.7403 0 1.49113
    endloop
  endfacet
  facet normal -0.230659 -0.230659 0.945301
    outer loop
      vertex 5.42423 0 1.41401
      vertex 5.23457 5.5337 2.71799
      vertex 5.0337 5.73457 2.71799
    endloop
  endfacet
  facet normal -0.0368186 -0.232472 -0.971906
    outer loop
      vertex 4.5 0 7.74617
      vertex 4.59668 5.29756 6.47538
      vertex 4.55232 0 7.74419
    endloop
  endfacet
  facet normal -0.0368183 -0.232472 -0.971906
    outer loop
      vertex 4.59668 5.29756 6.47538
      vertex 4.5 0 7.74617
      vertex 4.5 5.31287 6.47538
    endloop
  endfacet
  facet normal -0.208413 -0.230333 0.950532
    outer loop
      vertex 4.6839 5.25312 2.52462
      vertex 4.99003 0 1.31881
      vertex 5.0337 5.73457 2.71799
    endloop
  endfacet
  facet normal -0.208414 -0.230333 0.950532
    outer loop
      vertex 4.99003 0 1.31881
      vertex 4.6839 5.25312 2.52462
      vertex 4.80003 0 1.27715
    endloop
  endfacet
  facet normal 0.14187 -0.278434 0.94992
    outer loop
      vertex 4.40332 5.29756 2.52462
      vertex 4.21942 5.86354 2.71799
      vertex 3.9663 5.73457 2.71799
    endloop
  endfacet
  facet normal -0.432276 -0.84839 -0.305569
    outer loop
      vertex 5.11042 6.87869 4.81287
      vertex 5.6611 6.59811 4.81287
      vertex 5.05067 6.69479 5.40798
    endloop
  endfacet
  facet normal -0.527966 -0.269012 0.805533
    outer loop
      vertex 5.845 5.43702 3.08579
      vertex 5.64412 5.83125 3.08579
      vertex 5.36354 5.28058 2.71799
    endloop
  endfacet
  facet normal 0.141871 -0.278433 0.94992
    outer loop
      vertex 4.3161 5.25312 2.52462
      vertex 4.40332 5.29756 2.52462
      vertex 3.9663 5.73457 2.71799
    endloop
  endfacet
  facet normal -0.127097 -0.802456 -0.583019
    outer loop
      vertex 4.5 6.78201 5.40798
      vertex 4.93702 6.345 5.91421
      vertex 4.5 6.41421 5.91421
    endloop
  endfacet
  facet normal -0.848389 -0.432276 0.30557
    outer loop
      vertex 6.19479 5.55067 3.59202
      vertex 6.09811 6.1611 4.18713
      vertex 5.94168 6.04744 3.59202
    endloop
  endfacet
  facet normal -0.923068 -0.22995 -0.308332
    outer loop
      vertex 7.70268 0 5.03336
      vertex 6.19479 5.55067 5.40798
      vertex 6.37869 5.61042 4.81287
    endloop
  endfacet
  facet normal -0.923068 -0.22995 -0.308332
    outer loop
      vertex 6.19479 5.55067 5.40798
      vertex 7.70268 0 5.03336
      vertex 7.60382 0 5.32932
    endloop
  endfacet
  facet normal -0.973267 -0.229678 0
    outer loop
      vertex 7.70268 0 3.96664
      vertex 6.37869 5.61042 4.81287
      vertex 6.37869 5.61042 4.18713
    endloop
  endfacet
  facet normal -0.973267 -0.229678 0
    outer loop
      vertex 6.37869 5.61042 4.81287
      vertex 7.70268 0 3.96664
      vertex 7.70268 0 5.03336
    endloop
  endfacet
  facet normal -0.673286 -0.673286 -0.30557
    outer loop
      vertex 6.09811 6.1611 4.81287
      vertex 5.54744 6.44168 5.40798
      vertex 5.6611 6.59811 4.81287
    endloop
  endfacet
  facet normal -0.673286 -0.673286 -0.30557
    outer loop
      vertex 5.54744 6.44168 5.40798
      vertex 6.09811 6.1611 4.81287
      vertex 5.94168 6.04744 5.40798
    endloop
  endfacet
  facet normal 0.230659 -0.230659 -0.9453
    outer loop
      vertex 3.57577 0 7.58599
      vertex 3.76543 5.5337 6.28201
      vertex 3.9663 5.73457 6.28201
    endloop
  endfacet
  facet normal 0.230658 -0.230659 -0.945301
    outer loop
      vertex 3.76543 5.5337 6.28201
      vertex 3.57577 0 7.58599
      vertex 3.2597 0 7.50887
    endloop
  endfacet
  facet normal 0.368849 -0.723906 -0.583019
    outer loop
      vertex 3.94933 6.69479 5.40798
      vertex 4.06298 6.345 5.91421
      vertex 3.45256 6.44168 5.40798
    endloop
  endfacet
  facet normal 0.230659 -0.230659 0.9453
    outer loop
      vertex 3.76543 5.5337 2.71799
      vertex 3.57577 0 1.41401
      vertex 3.9663 5.73457 2.71799
    endloop
  endfacet
  facet normal 0.230659 -0.230659 0.9453
    outer loop
      vertex 3.57577 0 1.41401
      vertex 3.76543 5.5337 2.71799
      vertex 3.2597 0 1.49113
    endloop
  endfacet
  facet normal 0.775606 -0.230412 0.587662
    outer loop
      vertex 2.25601 0 2.14053
      vertex 3.155 5.43702 3.08579
      vertex 1.82331 0 2.71162
    endloop
  endfacet
  facet normal 0.707107 -0.707107 0
    outer loop
      vertex 2.90189 6.1611 4.81287
      vertex 3.3389 6.59811 4.18713
      vertex 3.3389 6.59811 4.81287
    endloop
  endfacet
  facet normal 0.707107 -0.707107 0
    outer loop
      vertex 3.3389 6.59811 4.18713
      vertex 2.90189 6.1611 4.81287
      vertex 2.90189 6.1611 4.18713
    endloop
  endfacet
  facet normal 0.092696 -0.585255 0.805534
    outer loop
      vertex 4.21942 5.86354 2.71799
      vertex 4.5 5.90798 2.71799
      vertex 4.06298 6.345 3.08579
    endloop
  endfacet
  facet normal -0.923068 -0.22995 -0.308332
    outer loop
      vertex 7.60382 0 5.32932
      vertex 7.36766 0 6.03634
      vertex 6.19479 5.55067 5.40798
    endloop
  endfacet
  facet normal -0.527966 -0.269012 -0.805533
    outer loop
      vertex 5.64412 5.83125 5.91421
      vertex 5.845 5.43702 5.91421
      vertex 5.36354 5.28058 6.28201
    endloop
  endfacet
  facet normal -0.127097 -0.802456 0.583019
    outer loop
      vertex 4.93702 6.345 3.08579
      vertex 5.05067 6.69479 3.59202
      vertex 4.5 6.78201 3.59202
    endloop
  endfacet
  facet normal -0.148952 -0.940447 0.305569
    outer loop
      vertex 5.11042 6.87869 4.18713
      vertex 4.5 6.97538 4.18713
      vertex 4.5 6.78201 3.59202
    endloop
  endfacet
  facet normal -0.923068 -0.22995 0.308332
    outer loop
      vertex 7.36766 0 2.96366
      vertex 7.60382 0 3.67068
      vertex 6.19479 5.55067 3.59202
    endloop
  endfacet
  facet normal -0.723906 -0.368849 0.583019
    outer loop
      vertex 5.845 5.43702 3.08579
      vertex 5.94168 6.04744 3.59202
      vertex 5.64412 5.83125 3.08579
    endloop
  endfacet
  facet normal -0.527966 -0.269013 0.805534
    outer loop
      vertex 5.36354 5.28058 2.71799
      vertex 5.64412 5.83125 3.08579
      vertex 5.23457 5.5337 2.71799
    endloop
  endfacet
  facet normal -0.723906 -0.368849 0.583019
    outer loop
      vertex 6.19479 5.55067 3.59202
      vertex 5.94168 6.04744 3.59202
      vertex 5.845 5.43702 3.08579
    endloop
  endfacet
  facet normal -0.848389 -0.432276 -0.30557
    outer loop
      vertex 6.09811 6.1611 4.81287
      vertex 6.19479 5.55067 5.40798
      vertex 5.94168 6.04744 5.40798
    endloop
  endfacet
  facet normal -0.527966 -0.269013 -0.805534
    outer loop
      vertex 5.64412 5.83125 5.91421
      vertex 5.36354 5.28058 6.28201
      vertex 5.23457 5.5337 6.28201
    endloop
  endfacet
  facet normal 0.432276 -0.84839 0.305569
    outer loop
      vertex 3.94933 6.69479 3.59202
      vertex 3.88958 6.87869 4.18713
      vertex 3.3389 6.59811 4.18713
    endloop
  endfacet
  facet normal 0.542438 -0.230157 -0.807953
    outer loop
      vertex 3.63646 5.28058 6.28201
      vertex 3.08645 0 7.41701
      vertex 2.52482 0 7.03994
    endloop
  endfacet
  facet normal 0.775606 -0.230412 -0.587662
    outer loop
      vertex 3.155 5.43702 5.91421
      vertex 2.25601 0 6.85947
      vertex 1.82331 0 6.28838
    endloop
  endfacet
  facet normal -0.368849 -0.723906 -0.583019
    outer loop
      vertex 5.54744 6.44168 5.40798
      vertex 5.33125 6.14412 5.91421
      vertex 4.93702 6.345 5.91421
    endloop
  endfacet
  facet normal 0.208414 -0.230333 0.950532
    outer loop
      vertex 4.3161 5.25312 2.52462
      vertex 4.00997 0 1.31881
      vertex 4.19997 0 1.27715
    endloop
  endfacet
  facet normal 0.208413 -0.230333 0.950532
    outer loop
      vertex 4.00997 0 1.31881
      vertex 4.3161 5.25312 2.52462
      vertex 3.9663 5.73457 2.71799
    endloop
  endfacet
  facet normal -0.0488827 -0.308647 0.94992
    outer loop
      vertex 4.59668 5.29756 2.52462
      vertex 4.5 5.90798 2.71799
      vertex 4.5 5.31287 2.52462
    endloop
  endfacet
  facet normal 0.527966 -0.269013 0.805534
    outer loop
      vertex 3.63646 5.28058 2.71799
      vertex 3.76543 5.5337 2.71799
      vertex 3.35588 5.83125 3.08579
    endloop
  endfacet
  facet normal 0.455649 -0.232165 0.859351
    outer loop
      vertex 3.63646 5.28058 2.71799
      vertex 3.2597 0 1.49113
      vertex 3.76543 5.5337 2.71799
    endloop
  endfacet
  facet normal 0.455647 -0.232165 0.859351
    outer loop
      vertex 3.2597 0 1.49113
      vertex 3.63646 5.28058 2.71799
      vertex 3.20467 0 1.52031
    endloop
  endfacet
  facet normal 0.527966 -0.269012 0.805533
    outer loop
      vertex 3.63646 5.28058 2.71799
      vertex 3.35588 5.83125 3.08579
      vertex 3.155 5.43702 3.08579
    endloop
  endfacet
  facet normal 0.891007 -0.45399 0
    outer loop
      vertex 2.6213 5.61042 4.81287
      vertex 2.90189 6.1611 4.18713
      vertex 2.90189 6.1611 4.81287
    endloop
  endfacet
  facet normal 0.891007 -0.45399 0
    outer loop
      vertex 2.90189 6.1611 4.18713
      vertex 2.6213 5.61042 4.81287
      vertex 2.6213 5.61042 4.18713
    endloop
  endfacet
  facet normal -0.775606 -0.230412 -0.587662
    outer loop
      vertex 7.17669 0 6.28838
      vertex 6.74399 0 6.85947
      vertex 5.845 5.43702 5.91421
    endloop
  endfacet
  facet normal -0.775606 -0.230412 -0.587662
    outer loop
      vertex 7.36766 0 6.03634
      vertex 5.845 5.43702 5.91421
      vertex 6.19479 5.55067 5.40798
    endloop
  endfacet
  facet normal -0.775605 -0.230412 -0.587662
    outer loop
      vertex 5.845 5.43702 5.91421
      vertex 7.36766 0 6.03634
      vertex 7.17669 0 6.28838
    endloop
  endfacet
  facet normal 0.542439 -0.230158 -0.807953
    outer loop
      vertex 2.52482 0 7.03994
      vertex 3.155 5.43702 5.91421
      vertex 3.63646 5.28058 6.28201
    endloop
  endfacet
  facet normal 0.542439 -0.230158 -0.807953
    outer loop
      vertex 3.155 5.43702 5.91421
      vertex 2.52482 0 7.03994
      vertex 2.25601 0 6.85947
    endloop
  endfacet
  facet normal -0.208413 -0.230333 -0.950532
    outer loop
      vertex 4.6839 5.25312 6.47538
      vertex 4.99003 0 7.68119
      vertex 4.80003 0 7.72285
    endloop
  endfacet
  facet normal -0.208413 -0.230333 -0.950532
    outer loop
      vertex 4.99003 0 7.68119
      vertex 4.6839 5.25312 6.47538
      vertex 5.0337 5.73457 6.28201
    endloop
  endfacet
  facet normal -0.432276 -0.848389 0.30557
    outer loop
      vertex 5.54744 6.44168 3.59202
      vertex 5.6611 6.59811 4.18713
      vertex 5.05067 6.69479 3.59202
    endloop
  endfacet
  facet normal -0.148953 -0.940447 0.30557
    outer loop
      vertex 5.05067 6.69479 3.59202
      vertex 5.11042 6.87869 4.18713
      vertex 4.5 6.78201 3.59202
    endloop
  endfacet
  facet normal -0.0926963 -0.585255 0.805534
    outer loop
      vertex 4.78058 5.86354 2.71799
      vertex 4.93702 6.345 3.08579
      vertex 4.5 5.90798 2.71799
    endloop
  endfacet
  facet normal -0.432276 -0.84839 0.305569
    outer loop
      vertex 5.6611 6.59811 4.18713
      vertex 5.11042 6.87869 4.18713
      vertex 5.05067 6.69479 3.59202
    endloop
  endfacet
  facet normal -0.574495 -0.574495 0.583019
    outer loop
      vertex 5.54744 6.44168 3.59202
      vertex 5.64412 5.83125 3.08579
      vertex 5.94168 6.04744 3.59202
    endloop
  endfacet
  facet normal -0.574495 -0.574495 0.583019
    outer loop
      vertex 5.64412 5.83125 3.08579
      vertex 5.54744 6.44168 3.59202
      vertex 5.33125 6.14412 3.08579
    endloop
  endfacet
  facet normal -0.673286 -0.673286 0.30557
    outer loop
      vertex 5.54744 6.44168 3.59202
      vertex 6.09811 6.1611 4.18713
      vertex 5.6611 6.59811 4.18713
    endloop
  endfacet
  facet normal -0.673286 -0.673286 0.30557
    outer loop
      vertex 6.09811 6.1611 4.18713
      vertex 5.54744 6.44168 3.59202
      vertex 5.94168 6.04744 3.59202
    endloop
  endfacet
  facet normal 0.148952 -0.940447 0.305569
    outer loop
      vertex 4.5 6.78201 3.59202
      vertex 4.5 6.97538 4.18713
      vertex 3.88958 6.87869 4.18713
    endloop
  endfacet
  facet normal 0.127097 -0.802456 0.583019
    outer loop
      vertex 4.06298 6.345 3.08579
      vertex 4.5 6.78201 3.59202
      vertex 3.94933 6.69479 3.59202
    endloop
  endfacet
  facet normal -0.775606 -0.230412 0.587662
    outer loop
      vertex 7.36766 0 2.96366
      vertex 5.845 5.43702 3.08579
      vertex 7.17669 0 2.71162
    endloop
  endfacet
  facet normal -0.775606 -0.230412 0.587662
    outer loop
      vertex 5.845 5.43702 3.08579
      vertex 7.36766 0 2.96366
      vertex 6.19479 5.55067 3.59202
    endloop
  endfacet
  facet normal -0.775606 -0.230412 0.587662
    outer loop
      vertex 6.74399 0 2.14053
      vertex 7.17669 0 2.71162
      vertex 5.845 5.43702 3.08579
    endloop
  endfacet
  facet normal -0.923068 -0.22995 0.308332
    outer loop
      vertex 7.70268 0 3.96664
      vertex 6.19479 5.55067 3.59202
      vertex 7.60382 0 3.67068
    endloop
  endfacet
  facet normal -0.923068 -0.22995 0.308332
    outer loop
      vertex 6.19479 5.55067 3.59202
      vertex 7.70268 0 3.96664
      vertex 6.37869 5.61042 4.18713
    endloop
  endfacet
  facet normal -0.84839 -0.432276 0.305569
    outer loop
      vertex 6.19479 5.55067 3.59202
      vertex 6.37869 5.61042 4.18713
      vertex 6.09811 6.1611 4.18713
    endloop
  endfacet
  facet normal -0.455651 -0.232165 0.85935
    outer loop
      vertex 5.79533 0 1.52031
      vertex 5.91354 0 1.58299
      vertex 5.36354 5.28058 2.71799
    endloop
  endfacet
  facet normal -0.542439 -0.230157 0.807953
    outer loop
      vertex 5.91354 0 1.58299
      vertex 6.47518 0 1.96006
      vertex 5.36354 5.28058 2.71799
    endloop
  endfacet
  facet normal -0.455646 -0.232165 0.859352
    outer loop
      vertex 5.36354 5.28058 2.71799
      vertex 5.7403 0 1.49113
      vertex 5.79533 0 1.52031
    endloop
  endfacet
  facet normal -0.455649 -0.232165 0.859351
    outer loop
      vertex 5.7403 0 1.49113
      vertex 5.36354 5.28058 2.71799
      vertex 5.23457 5.5337 2.71799
    endloop
  endfacet
  facet normal 0.269012 -0.527966 -0.805533
    outer loop
      vertex 4.06298 6.345 5.91421
      vertex 4.21942 5.86354 6.28201
      vertex 3.66875 6.14412 5.91421
    endloop
  endfacet
  facet normal -0.723906 -0.368849 -0.583019
    outer loop
      vertex 5.94168 6.04744 5.40798
      vertex 5.845 5.43702 5.91421
      vertex 5.64412 5.83125 5.91421
    endloop
  endfacet
  facet normal -0.208413 -0.230333 0.950532
    outer loop
      vertex 5.42423 0 1.41401
      vertex 5.0337 5.73457 2.71799
      vertex 4.99003 0 1.31881
    endloop
  endfacet
  facet normal 0.127097 -0.802456 -0.583019
    outer loop
      vertex 4.5 6.78201 5.40798
      vertex 4.06298 6.345 5.91421
      vertex 3.94933 6.69479 5.40798
    endloop
  endfacet
  facet normal 0.923068 -0.22995 -0.308332
    outer loop
      vertex 1.53349 0 5.74039
      vertex 2.8052 5.55067 5.40798
      vertex 1.63234 0 6.03634
    endloop
  endfacet
  facet normal 0.923068 -0.22995 -0.308332
    outer loop
      vertex 2.8052 5.55067 5.40798
      vertex 1.53349 0 5.74039
      vertex 2.6213 5.61042 4.81287
    endloop
  endfacet
  facet normal 0.973267 -0.229678 0
    outer loop
      vertex 1.29732 0 5.03336
      vertex 2.6213 5.61042 4.18713
      vertex 2.6213 5.61042 4.81287
    endloop
  endfacet
  facet normal 0.973267 -0.229678 0
    outer loop
      vertex 2.6213 5.61042 4.18713
      vertex 1.29732 0 5.03336
      vertex 1.29732 0 3.96664
    endloop
  endfacet
  facet normal -0.455651 -0.232165 -0.85935
    outer loop
      vertex 5.91354 0 7.41701
      vertex 5.79533 0 7.47969
      vertex 5.36354 5.28058 6.28201
    endloop
  endfacet
  facet normal 0.542439 -0.230157 0.807953
    outer loop
      vertex 3.08645 0 1.58299
      vertex 3.63646 5.28058 2.71799
      vertex 2.52482 0 1.96006
    endloop
  endfacet
  facet normal -0.118161 -0.231901 0.965536
    outer loop
      vertex 4.6839 5.25312 2.52462
      vertex 4.75288 0 1.27138
      vertex 4.80003 0 1.27715
    endloop
  endfacet
  facet normal -0.118162 -0.231901 0.965536
    outer loop
      vertex 4.75288 0 1.27138
      vertex 4.6839 5.25312 2.52462
      vertex 4.59668 5.29756 2.52462
    endloop
  endfacet
  facet normal -0.036819 -0.232472 0.971906
    outer loop
      vertex 4.65858 0 1.25984
      vertex 4.59668 5.29756 2.52462
      vertex 4.55232 0 1.25581
    endloop
  endfacet
  facet normal 0.127097 -0.802456 0.583019
    outer loop
      vertex 4.5 6.41421 3.08579
      vertex 4.5 6.78201 3.59202
      vertex 4.06298 6.345 3.08579
    endloop
  endfacet
  facet normal -0.0368183 -0.232472 0.971906
    outer loop
      vertex 4.5 0 1.25383
      vertex 4.59668 5.29756 2.52462
      vertex 4.5 5.31287 2.52462
    endloop
  endfacet
  facet normal -0.0368186 -0.232472 0.971906
    outer loop
      vertex 4.59668 5.29756 2.52462
      vertex 4.5 0 1.25383
      vertex 4.55232 0 1.25581
    endloop
  endfacet
  facet normal 0.673286 -0.673286 0.30557
    outer loop
      vertex 2.90189 6.1611 4.18713
      vertex 3.45256 6.44168 3.59202
      vertex 3.3389 6.59811 4.18713
    endloop
  endfacet
  facet normal 0.673286 -0.673286 0.30557
    outer loop
      vertex 3.45256 6.44168 3.59202
      vertex 2.90189 6.1611 4.18713
      vertex 3.05832 6.04744 3.59202
    endloop
  endfacet
  facet normal 0.368849 -0.723906 0.583019
    outer loop
      vertex 3.66875 6.14412 3.08579
      vertex 4.06298 6.345 3.08579
      vertex 3.45256 6.44168 3.59202
    endloop
  endfacet
  facet normal 0.418996 -0.418996 0.805534
    outer loop
      vertex 3.66875 6.14412 3.08579
      vertex 3.76543 5.5337 2.71799
      vertex 3.9663 5.73457 2.71799
    endloop
  endfacet
  facet normal 0.418996 -0.418996 0.805534
    outer loop
      vertex 3.76543 5.5337 2.71799
      vertex 3.66875 6.14412 3.08579
      vertex 3.35588 5.83125 3.08579
    endloop
  endfacet
  facet normal 0.923068 -0.22995 0.308331
    outer loop
      vertex 1.53349 0 3.25961
      vertex 2.6213 5.61042 4.18713
      vertex 1.29732 0 3.96664
    endloop
  endfacet
  facet normal 0.574495 -0.574495 0.583019
    outer loop
      vertex 3.45256 6.44168 3.59202
      vertex 3.35588 5.83125 3.08579
      vertex 3.66875 6.14412 3.08579
    endloop
  endfacet
  facet normal 0.574495 -0.574495 0.583019
    outer loop
      vertex 3.35588 5.83125 3.08579
      vertex 3.45256 6.44168 3.59202
      vertex 3.05832 6.04744 3.59202
    endloop
  endfacet
  facet normal -0.14187 -0.278434 -0.94992
    outer loop
      vertex 4.78058 5.86354 6.28201
      vertex 5.0337 5.73457 6.28201
      vertex 4.59668 5.29756 6.47538
    endloop
  endfacet
  facet normal -0.118166 -0.231901 -0.965535
    outer loop
      vertex 4.75288 0 7.72862
      vertex 4.6839 5.25312 6.47538
      vertex 4.80003 0 7.72285
    endloop
  endfacet
  facet normal -0.118162 -0.231901 -0.965536
    outer loop
      vertex 4.6839 5.25312 6.47538
      vertex 4.75288 0 7.72862
      vertex 4.59668 5.29756 6.47538
    endloop
  endfacet
  facet normal 0.208414 -0.230333 -0.950531
    outer loop
      vertex 3.9663 5.73457 6.28201
      vertex 4.00997 0 7.68119
      vertex 3.57577 0 7.58599
    endloop
  endfacet
  facet normal 0.118162 -0.231901 -0.965536
    outer loop
      vertex 4.24712 0 7.72862
      vertex 4.3161 5.25312 6.47538
      vertex 4.40332 5.29756 6.47538
    endloop
  endfacet
  facet normal 0.118166 -0.231901 -0.965535
    outer loop
      vertex 4.3161 5.25312 6.47538
      vertex 4.24712 0 7.72862
      vertex 4.19997 0 7.72285
    endloop
  endfacet
  facet normal -0.036819 -0.232472 -0.971906
    outer loop
      vertex 4.59668 5.29756 6.47538
      vertex 4.65858 0 7.74016
      vertex 4.55232 0 7.74419
    endloop
  endfacet
  facet normal -0.156434 -0.987688 0
    outer loop
      vertex 4.5 6.97538 4.18713
      vertex 5.11042 6.87869 4.81287
      vertex 4.5 6.97538 4.81287
    endloop
  endfacet
  facet normal -0.156434 -0.987688 -0
    outer loop
      vertex 5.11042 6.87869 4.81287
      vertex 4.5 6.97538 4.18713
      vertex 5.11042 6.87869 4.18713
    endloop
  endfacet
  facet normal -0.45399 -0.891007 0
    outer loop
      vertex 5.11042 6.87869 4.18713
      vertex 5.6611 6.59811 4.81287
      vertex 5.11042 6.87869 4.81287
    endloop
  endfacet
  facet normal -0.45399 -0.891007 -0
    outer loop
      vertex 5.6611 6.59811 4.81287
      vertex 5.11042 6.87869 4.18713
      vertex 5.6611 6.59811 4.18713
    endloop
  endfacet
  facet normal -0.707107 -0.707107 0
    outer loop
      vertex 6.09811 6.1611 4.18713
      vertex 5.6611 6.59811 4.81287
      vertex 5.6611 6.59811 4.18713
    endloop
  endfacet
  facet normal -0.707107 -0.707107 0
    outer loop
      vertex 5.6611 6.59811 4.81287
      vertex 6.09811 6.1611 4.18713
      vertex 6.09811 6.1611 4.81287
    endloop
  endfacet
  facet normal 0.148953 -0.940447 0.30557
    outer loop
      vertex 3.94933 6.69479 3.59202
      vertex 4.5 6.78201 3.59202
      vertex 3.88958 6.87869 4.18713
    endloop
  endfacet
  facet normal 0.127097 -0.802456 -0.583019
    outer loop
      vertex 4.5 6.78201 5.40798
      vertex 4.5 6.41421 5.91421
      vertex 4.06298 6.345 5.91421
    endloop
  endfacet
  facet normal -0.0926957 -0.585255 -0.805533
    outer loop
      vertex 4.5 6.41421 5.91421
      vertex 4.93702 6.345 5.91421
      vertex 4.5 5.90798 6.28201
    endloop
  endfacet
  facet normal -0.723906 -0.368849 -0.583019
    outer loop
      vertex 5.94168 6.04744 5.40798
      vertex 6.19479 5.55067 5.40798
      vertex 5.845 5.43702 5.91421
    endloop
  endfacet
  facet normal 0.208413 -0.230333 0.950532
    outer loop
      vertex 4.00997 0 1.31881
      vertex 3.9663 5.73457 2.71799
      vertex 3.57577 0 1.41401
    endloop
  endfacet
  facet normal 0.0488853 -0.308647 0.94992
    outer loop
      vertex 4.40332 5.29756 2.52462
      vertex 4.5 5.90798 2.71799
      vertex 4.21942 5.86354 2.71799
    endloop
  endfacet
  facet normal 0.0368189 -0.232472 0.971906
    outer loop
      vertex 4.44767 0 1.25581
      vertex 4.40332 5.29756 2.52462
      vertex 4.34141 0 1.25984
    endloop
  endfacet
  facet normal 0.148952 -0.940447 -0.305569
    outer loop
      vertex 4.5 6.97538 4.81287
      vertex 4.5 6.78201 5.40798
      vertex 3.88958 6.87869 4.81287
    endloop
  endfacet
  facet normal 0.432276 -0.84839 -0.305569
    outer loop
      vertex 3.88958 6.87869 4.81287
      vertex 3.94933 6.69479 5.40798
      vertex 3.3389 6.59811 4.81287
    endloop
  endfacet
  facet normal 0.775605 -0.230412 -0.587662
    outer loop
      vertex 1.63234 0 6.03634
      vertex 3.155 5.43702 5.91421
      vertex 1.82331 0 6.28838
    endloop
  endfacet
  facet normal 0.775606 -0.230412 -0.587662
    outer loop
      vertex 3.155 5.43702 5.91421
      vertex 1.63234 0 6.03634
      vertex 2.8052 5.55067 5.40798
    endloop
  endfacet
  facet normal 0.84839 -0.432276 -0.305569
    outer loop
      vertex 2.90189 6.1611 4.81287
      vertex 2.8052 5.55067 5.40798
      vertex 2.6213 5.61042 4.81287
    endloop
  endfacet
  facet normal 0.723906 -0.368849 0.583019
    outer loop
      vertex 3.155 5.43702 3.08579
      vertex 3.35588 5.83125 3.08579
      vertex 3.05832 6.04744 3.59202
    endloop
  endfacet
  facet normal 0.848389 -0.432276 0.30557
    outer loop
      vertex 3.05832 6.04744 3.59202
      vertex 2.90189 6.1611 4.18713
      vertex 2.8052 5.55067 3.59202
    endloop
  endfacet
  facet normal 0.208413 -0.230333 -0.950532
    outer loop
      vertex 4.00997 0 7.68119
      vertex 4.3161 5.25312 6.47538
      vertex 4.19997 0 7.72285
    endloop
  endfacet
  facet normal 0.208413 -0.230333 -0.950532
    outer loop
      vertex 4.3161 5.25312 6.47538
      vertex 4.00997 0 7.68119
      vertex 3.9663 5.73457 6.28201
    endloop
  endfacet
  facet normal -0.455652 -0.232165 -0.859349
    outer loop
      vertex 5.7403 0 7.50887
      vertex 5.36354 5.28058 6.28201
      vertex 5.79533 0 7.47969
    endloop
  endfacet
  facet normal -0.455649 -0.232165 -0.859351
    outer loop
      vertex 5.36354 5.28058 6.28201
      vertex 5.7403 0 7.50887
      vertex 5.23457 5.5337 6.28201
    endloop
  endfacet
  facet normal -0.542439 -0.230157 -0.807953
    outer loop
      vertex 6.47518 0 7.03994
      vertex 5.91354 0 7.41701
      vertex 5.36354 5.28058 6.28201
    endloop
  endfacet
  facet normal -0.11816 -0.231901 0.965536
    outer loop
      vertex 4.65858 0 1.25984
      vertex 4.75288 0 1.27138
      vertex 4.59668 5.29756 2.52462
    endloop
  endfacet
  facet normal -0.269012 -0.527966 0.805533
    outer loop
      vertex 5.33125 6.14412 3.08579
      vertex 4.93702 6.345 3.08579
      vertex 4.78058 5.86354 2.71799
    endloop
  endfacet
  facet normal -0.269013 -0.527966 0.805534
    outer loop
      vertex 5.0337 5.73457 2.71799
      vertex 5.33125 6.14412 3.08579
      vertex 4.78058 5.86354 2.71799
    endloop
  endfacet
  facet normal -0.0926957 -0.585255 0.805533
    outer loop
      vertex 4.93702 6.345 3.08579
      vertex 4.5 6.41421 3.08579
      vertex 4.5 5.90798 2.71799
    endloop
  endfacet
  facet normal 0.0926955 -0.585255 0.805533
    outer loop
      vertex 4.5 5.90798 2.71799
      vertex 4.5 6.41421 3.08579
      vertex 4.06298 6.345 3.08579
    endloop
  endfacet
  facet normal 0.923068 -0.22995 0.308332
    outer loop
      vertex 1.53349 0 3.25961
      vertex 2.8052 5.55067 3.59202
      vertex 2.6213 5.61042 4.18713
    endloop
  endfacet
  facet normal 0.923068 -0.22995 0.308332
    outer loop
      vertex 2.8052 5.55067 3.59202
      vertex 1.53349 0 3.25961
      vertex 1.63234 0 2.96366
    endloop
  endfacet
  facet normal 0.84839 -0.432276 0.305569
    outer loop
      vertex 2.8052 5.55067 3.59202
      vertex 2.90189 6.1611 4.18713
      vertex 2.6213 5.61042 4.18713
    endloop
  endfacet
  facet normal 0.0488853 -0.308647 -0.94992
    outer loop
      vertex 4.5 5.90798 6.28201
      vertex 4.40332 5.29756 6.47538
      vertex 4.21942 5.86354 6.28201
    endloop
  endfacet
  facet normal 0.0368182 -0.232472 -0.971906
    outer loop
      vertex 4.40332 5.29756 6.47538
      vertex 4.5 0 7.74617
      vertex 4.44767 0 7.74419
    endloop
  endfacet
  facet normal 0.0368179 -0.232472 -0.971906
    outer loop
      vertex 4.5 0 7.74617
      vertex 4.40332 5.29756 6.47538
      vertex 4.5 5.31287 6.47538
    endloop
  endfacet
  facet normal -0.368849 -0.723906 0.583019
    outer loop
      vertex 5.33125 6.14412 3.08579
      vertex 5.54744 6.44168 3.59202
      vertex 4.93702 6.345 3.08579
    endloop
  endfacet
  facet normal -0.368849 -0.723906 0.583019
    outer loop
      vertex 5.54744 6.44168 3.59202
      vertex 5.05067 6.69479 3.59202
      vertex 4.93702 6.345 3.08579
    endloop
  endfacet
  facet normal 0.45399 -0.891007 0
    outer loop
      vertex 3.3389 6.59811 4.18713
      vertex 3.88958 6.87869 4.81287
      vertex 3.3389 6.59811 4.81287
    endloop
  endfacet
  facet normal 0.45399 -0.891007 0
    outer loop
      vertex 3.88958 6.87869 4.81287
      vertex 3.3389 6.59811 4.18713
      vertex 3.88958 6.87869 4.18713
    endloop
  endfacet
  facet normal 0.156434 -0.987688 0
    outer loop
      vertex 3.88958 6.87869 4.18713
      vertex 4.5 6.97538 4.81287
      vertex 3.88958 6.87869 4.81287
    endloop
  endfacet
  facet normal 0.156434 -0.987688 0
    outer loop
      vertex 4.5 6.97538 4.81287
      vertex 3.88958 6.87869 4.18713
      vertex 4.5 6.97538 4.18713
    endloop
  endfacet
  facet normal 0.432276 -0.848389 0.30557
    outer loop
      vertex 3.45256 6.44168 3.59202
      vertex 3.94933 6.69479 3.59202
      vertex 3.3389 6.59811 4.18713
    endloop
  endfacet
  facet normal 0.368849 -0.723906 0.583019
    outer loop
      vertex 4.06298 6.345 3.08579
      vertex 3.94933 6.69479 3.59202
      vertex 3.45256 6.44168 3.59202
    endloop
  endfacet
  facet normal -0.148953 -0.940447 -0.30557
    outer loop
      vertex 5.11042 6.87869 4.81287
      vertex 5.05067 6.69479 5.40798
      vertex 4.5 6.78201 5.40798
    endloop
  endfacet
  facet normal -0.0488855 -0.308647 -0.94992
    outer loop
      vertex 4.78058 5.86354 6.28201
      vertex 4.59668 5.29756 6.47538
      vertex 4.5 5.90798 6.28201
    endloop
  endfacet
  facet normal -0.127097 -0.802456 -0.583019
    outer loop
      vertex 5.05067 6.69479 5.40798
      vertex 4.93702 6.345 5.91421
      vertex 4.5 6.78201 5.40798
    endloop
  endfacet
  facet normal -0.432276 -0.848389 -0.30557
    outer loop
      vertex 5.6611 6.59811 4.81287
      vertex 5.54744 6.44168 5.40798
      vertex 5.05067 6.69479 5.40798
    endloop
  endfacet
  facet normal 0.11816 -0.231901 0.965536
    outer loop
      vertex 4.34141 0 1.25984
      vertex 4.40332 5.29756 2.52462
      vertex 4.24712 0 1.27138
    endloop
  endfacet
  facet normal 0.118162 -0.231901 0.965536
    outer loop
      vertex 4.3161 5.25312 2.52462
      vertex 4.24712 0 1.27138
      vertex 4.40332 5.29756 2.52462
    endloop
  endfacet
  facet normal 0.118161 -0.231901 0.965536
    outer loop
      vertex 4.24712 0 1.27138
      vertex 4.3161 5.25312 2.52462
      vertex 4.19997 0 1.27715
    endloop
  endfacet
  facet normal 0.269013 -0.527966 0.805534
    outer loop
      vertex 3.9663 5.73457 2.71799
      vertex 4.21942 5.86354 2.71799
      vertex 3.66875 6.14412 3.08579
    endloop
  endfacet
  facet normal 0.269012 -0.527966 0.805533
    outer loop
      vertex 4.21942 5.86354 2.71799
      vertex 4.06298 6.345 3.08579
      vertex 3.66875 6.14412 3.08579
    endloop
  endfacet
  facet normal -0.148952 -0.940447 -0.305569
    outer loop
      vertex 4.5 6.97538 4.81287
      vertex 5.11042 6.87869 4.81287
      vertex 4.5 6.78201 5.40798
    endloop
  endfacet
  facet normal 0.723906 -0.368849 -0.583019
    outer loop
      vertex 3.05832 6.04744 5.40798
      vertex 3.155 5.43702 5.91421
      vertex 2.8052 5.55067 5.40798
    endloop
  endfacet
  facet normal 0.723906 -0.368849 -0.583019
    outer loop
      vertex 3.35588 5.83125 5.91421
      vertex 3.155 5.43702 5.91421
      vertex 3.05832 6.04744 5.40798
    endloop
  endfacet
  facet normal 0.269013 -0.527966 -0.805534
    outer loop
      vertex 4.21942 5.86354 6.28201
      vertex 3.9663 5.73457 6.28201
      vertex 3.66875 6.14412 5.91421
    endloop
  endfacet
  facet normal -0.141871 -0.278433 -0.94992
    outer loop
      vertex 5.0337 5.73457 6.28201
      vertex 4.6839 5.25312 6.47538
      vertex 4.59668 5.29756 6.47538
    endloop
  endfacet
  facet normal -0.0488855 -0.308647 0.94992
    outer loop
      vertex 4.59668 5.29756 2.52462
      vertex 4.78058 5.86354 2.71799
      vertex 4.5 5.90798 2.71799
    endloop
  endfacet
  facet normal -0.14187 -0.278434 0.94992
    outer loop
      vertex 5.0337 5.73457 2.71799
      vertex 4.78058 5.86354 2.71799
      vertex 4.59668 5.29756 2.52462
    endloop
  endfacet
  facet normal 0.723906 -0.368849 0.583019
    outer loop
      vertex 3.155 5.43702 3.08579
      vertex 3.05832 6.04744 3.59202
      vertex 2.8052 5.55067 3.59202
    endloop
  endfacet
  facet normal 0.775606 -0.230412 0.587662
    outer loop
      vertex 1.63234 0 2.96366
      vertex 3.155 5.43702 3.08579
      vertex 2.8052 5.55067 3.59202
    endloop
  endfacet
  facet normal 0.775606 -0.230412 0.587662
    outer loop
      vertex 3.155 5.43702 3.08579
      vertex 1.63234 0 2.96366
      vertex 1.82331 0 2.71162
    endloop
  endfacet
  facet normal 0.11816 -0.231901 -0.965536
    outer loop
      vertex 4.40332 5.29756 6.47538
      vertex 4.34141 0 7.74016
      vertex 4.24712 0 7.72862
    endloop
  endfacet
  facet normal -0.0488827 -0.308647 -0.94992
    outer loop
      vertex 4.5 5.90798 6.28201
      vertex 4.59668 5.29756 6.47538
      vertex 4.5 5.31287 6.47538
    endloop
  endfacet
  facet normal 0.0488822 -0.308647 -0.94992
    outer loop
      vertex 4.5 5.90798 6.28201
      vertex 4.5 5.31287 6.47538
      vertex 4.40332 5.29756 6.47538
    endloop
  endfacet
  facet normal -0.208415 -0.230333 -0.950531
    outer loop
      vertex 5.0337 5.73457 6.28201
      vertex 5.42423 0 7.58599
      vertex 4.99003 0 7.68119
    endloop
  endfacet
  facet normal -0.230658 -0.230659 -0.945301
    outer loop
      vertex 5.42423 0 7.58599
      vertex 5.23457 5.5337 6.28201
      vertex 5.7403 0 7.50887
    endloop
  endfacet
  facet normal -0.230659 -0.230659 -0.945301
    outer loop
      vertex 5.23457 5.5337 6.28201
      vertex 5.42423 0 7.58599
      vertex 5.0337 5.73457 6.28201
    endloop
  endfacet
  facet normal 0.0488822 -0.308647 0.94992
    outer loop
      vertex 4.5 5.31287 2.52462
      vertex 4.5 5.90798 2.71799
      vertex 4.40332 5.29756 2.52462
    endloop
  endfacet
  facet normal 0.0368179 -0.232472 0.971906
    outer loop
      vertex 4.40332 5.29756 2.52462
      vertex 4.5 0 1.25383
      vertex 4.5 5.31287 2.52462
    endloop
  endfacet
  facet normal 0.0368182 -0.232472 0.971906
    outer loop
      vertex 4.5 0 1.25383
      vertex 4.40332 5.29756 2.52462
      vertex 4.44767 0 1.25581
    endloop
  endfacet
  facet normal 0.527966 -0.269012 -0.805533
    outer loop
      vertex 3.35588 5.83125 5.91421
      vertex 3.63646 5.28058 6.28201
      vertex 3.155 5.43702 5.91421
    endloop
  endfacet
  facet normal 0.527966 -0.269013 -0.805534
    outer loop
      vertex 3.76543 5.5337 6.28201
      vertex 3.63646 5.28058 6.28201
      vertex 3.35588 5.83125 5.91421
    endloop
  endfacet
  facet normal 0.418996 -0.418996 -0.805534
    outer loop
      vertex 3.76543 5.5337 6.28201
      vertex 3.66875 6.14412 5.91421
      vertex 3.9663 5.73457 6.28201
    endloop
  endfacet
  facet normal 0.418996 -0.418996 -0.805534
    outer loop
      vertex 3.66875 6.14412 5.91421
      vertex 3.76543 5.5337 6.28201
      vertex 3.35588 5.83125 5.91421
    endloop
  endfacet
  facet normal 0.368849 -0.723906 -0.583019
    outer loop
      vertex 4.06298 6.345 5.91421
      vertex 3.66875 6.14412 5.91421
      vertex 3.45256 6.44168 5.40798
    endloop
  endfacet
  facet normal 0.432276 -0.848389 -0.30557
    outer loop
      vertex 3.94933 6.69479 5.40798
      vertex 3.45256 6.44168 5.40798
      vertex 3.3389 6.59811 4.81287
    endloop
  endfacet
  facet normal 0.141871 -0.278433 -0.94992
    outer loop
      vertex 4.40332 5.29756 6.47538
      vertex 4.3161 5.25312 6.47538
      vertex 3.9663 5.73457 6.28201
    endloop
  endfacet
  facet normal 0.14187 -0.278434 -0.94992
    outer loop
      vertex 4.21942 5.86354 6.28201
      vertex 4.40332 5.29756 6.47538
      vertex 3.9663 5.73457 6.28201
    endloop
  endfacet
  facet normal 0.455649 -0.232165 -0.859351
    outer loop
      vertex 3.2597 0 7.50887
      vertex 3.63646 5.28058 6.28201
      vertex 3.76543 5.5337 6.28201
    endloop
  endfacet
  facet normal 0.455653 -0.232165 -0.859348
    outer loop
      vertex 3.63646 5.28058 6.28201
      vertex 3.2597 0 7.50887
      vertex 3.20467 0 7.47969
    endloop
  endfacet
  facet normal 0.455651 -0.232165 -0.85935
    outer loop
      vertex 3.63646 5.28058 6.28201
      vertex 3.20467 0 7.47969
      vertex 3.08645 0 7.41701
    endloop
  endfacet
  facet normal -0.11816 -0.231901 -0.965536
    outer loop
      vertex 4.75288 0 7.72862
      vertex 4.65858 0 7.74016
      vertex 4.59668 5.29756 6.47538
    endloop
  endfacet
  facet normal 0.0926955 -0.585255 -0.805533
    outer loop
      vertex 4.5 6.41421 5.91421
      vertex 4.5 5.90798 6.28201
      vertex 4.06298 6.345 5.91421
    endloop
  endfacet
  facet normal 0.092696 -0.585255 -0.805534
    outer loop
      vertex 4.5 5.90798 6.28201
      vertex 4.21942 5.86354 6.28201
      vertex 4.06298 6.345 5.91421
    endloop
  endfacet
  facet normal -0.368849 -0.723906 -0.583019
    outer loop
      vertex 5.05067 6.69479 5.40798
      vertex 5.54744 6.44168 5.40798
      vertex 4.93702 6.345 5.91421
    endloop
  endfacet
  facet normal 0.574495 -0.574495 -0.583019
    outer loop
      vertex 3.35588 5.83125 5.91421
      vertex 3.45256 6.44168 5.40798
      vertex 3.66875 6.14412 5.91421
    endloop
  endfacet
  facet normal 0.574495 -0.574495 -0.583019
    outer loop
      vertex 3.45256 6.44168 5.40798
      vertex 3.35588 5.83125 5.91421
      vertex 3.05832 6.04744 5.40798
    endloop
  endfacet
  facet normal 0.673286 -0.673286 -0.30557
    outer loop
      vertex 3.45256 6.44168 5.40798
      vertex 2.90189 6.1611 4.81287
      vertex 3.3389 6.59811 4.81287
    endloop
  endfacet
  facet normal 0.673286 -0.673286 -0.30557
    outer loop
      vertex 2.90189 6.1611 4.81287
      vertex 3.45256 6.44168 5.40798
      vertex 3.05832 6.04744 5.40798
    endloop
  endfacet
  facet normal -0.418996 -0.418996 -0.805534
    outer loop
      vertex 5.23457 5.5337 6.28201
      vertex 5.33125 6.14412 5.91421
      vertex 5.64412 5.83125 5.91421
    endloop
  endfacet
  facet normal -0.418996 -0.418996 -0.805534
    outer loop
      vertex 5.33125 6.14412 5.91421
      vertex 5.23457 5.5337 6.28201
      vertex 5.0337 5.73457 6.28201
    endloop
  endfacet
  facet normal -0.574495 -0.574495 -0.583019
    outer loop
      vertex 5.64412 5.83125 5.91421
      vertex 5.54744 6.44168 5.40798
      vertex 5.94168 6.04744 5.40798
    endloop
  endfacet
  facet normal -0.574495 -0.574495 -0.583019
    outer loop
      vertex 5.54744 6.44168 5.40798
      vertex 5.64412 5.83125 5.91421
      vertex 5.33125 6.14412 5.91421
    endloop
  endfacet
  facet normal -0.0926963 -0.585255 -0.805534
    outer loop
      vertex 4.93702 6.345 5.91421
      vertex 4.78058 5.86354 6.28201
      vertex 4.5 5.90798 6.28201
    endloop
  endfacet
  facet normal -0.269012 -0.527966 -0.805533
    outer loop
      vertex 4.93702 6.345 5.91421
      vertex 5.33125 6.14412 5.91421
      vertex 4.78058 5.86354 6.28201
    endloop
  endfacet
endsolid OpenSCAD_Model
