solid OpenSCAD_Model
  facet normal -1 0 0
    outer loop
      vertex 0 0 0
      vertex 0 15 9.02
      vertex 0 15 0
    endloop
  endfacet
  facet normal -1 -0 0
    outer loop
      vertex 0 15 9.02
      vertex 0 0 0
      vertex 0 0 9.02
    endloop
  endfacet
  facet normal -0 0 1
    outer loop
      vertex 0 15 9.02
      vertex 9.02 0 9.02
      vertex 9.02 15 9.02
    endloop
  endfacet
  facet normal 0 0 1
    outer loop
      vertex 9.02 0 9.02
      vertex 0 15 9.02
      vertex 0 0 9.02
    endloop
  endfacet
  facet normal 1 -0 0
    outer loop
      vertex 9.02 0 9.02
      vertex 9.02 15 0
      vertex 9.02 15 9.02
    endloop
  endfacet
  facet normal 1 0 0
    outer loop
      vertex 9.02 15 0
      vertex 9.02 0 9.02
      vertex 9.02 0 0
    endloop
  endfacet
  facet normal 0 1 -0
    outer loop
      vertex 9.02 15 0
      vertex 0 15 9.02
      vertex 9.02 15 9.02
    endloop
  endfacet
  facet normal 0 1 0
    outer loop
      vertex 0 15 9.02
      vertex 9.02 15 0
      vertex 0 15 0
    endloop
  endfacet
  facet normal 0 0 -1
    outer loop
      vertex 0 0 0
      vertex 9.02 15 0
      vertex 9.02 0 0
    endloop
  endfacet
  facet normal -0 0 -1
    outer loop
      vertex 9.02 15 0
      vertex 0 0 0
      vertex 0 15 0
    endloop
  endfacet
  facet normal 0 -1 0
    outer loop
      vertex 0 0 9.02
      vertex 4.5 0 8.01191
      vertex 9.02 0 9.02
    endloop
  endfacet
  facet normal 0 -1 0
    outer loop
      vertex 0 0 9.02
      vertex 4.45699 0 8.01057
      vertex 4.5 0 8.01191
    endloop
  endfacet
  facet normal 0 -1 0
    outer loop
      vertex 0 0 9.02
      vertex 4.32838 0 8.00656
      vertex 4.45699 0 8.01057
    endloop
  endfacet
  facet normal 0 -1 0
    outer loop
      vertex 0 0 9.02
      vertex 4.21391 0 7.99505
      vertex 4.32838 0 8.00656
    endloop
  endfacet
  facet normal 0 -1 0
    outer loop
      vertex 0 0 9.02
      vertex 4.17499 0 7.99114
      vertex 4.21391 0 7.99505
    endloop
  endfacet
  facet normal 0 -1 0
    outer loop
      vertex 0 0 9.02
      vertex 4.0557 0 7.96739
      vertex 4.17499 0 7.99114
    endloop
  endfacet
  facet normal 0 -1 0
    outer loop
      vertex 0 0 9.02
      vertex 3.8354 0 7.91101
      vertex 4.0557 0 7.96739
    endloop
  endfacet
  facet normal 0 -1 0
    outer loop
      vertex 0 0 9.02
      vertex 3.16469 0 7.73936
      vertex 3.8354 0 7.91101
    endloop
  endfacet
  facet normal 0 -1 0
    outer loop
      vertex 0 0 9.02
      vertex 3.11807 0 7.71991
      vertex 3.16469 0 7.73936
    endloop
  endfacet
  facet normal 0 -1 0
    outer loop
      vertex 0 0 9.02
      vertex 2.96968 0 7.65799
      vertex 3.11807 0 7.71991
    endloop
  endfacet
  facet normal 0 -1 0
    outer loop
      vertex 0 0 9.02
      vertex 2.29673 0 7.19545
      vertex 2.96968 0 7.65799
    endloop
  endfacet
  facet normal 0 -1 0
    outer loop
      vertex 0 0 9.02
      vertex 2.07888 0 7.04571
      vertex 2.29673 0 7.19545
    endloop
  endfacet
  facet normal 0 -1 0
    outer loop
      vertex 0 0 9.02
      vertex 1.56793 0 6.36013
      vertex 2.07888 0 7.04571
    endloop
  endfacet
  facet normal 0 -1 0
    outer loop
      vertex 0 0 9.02
      vertex 1.41385 0 6.15339
      vertex 1.56793 0 6.36013
    endloop
  endfacet
  facet normal 0 -1 0
    outer loop
      vertex 0 0 9.02
      vertex 1.33387 0 5.9106
      vertex 1.41385 0 6.15339
    endloop
  endfacet
  facet normal 0 -1 0
    outer loop
      vertex 0 0 9.02
      vertex 1.05801 0 5.07321
      vertex 1.33387 0 5.9106
    endloop
  endfacet
  facet normal 0 -1 0
    outer loop
      vertex 0 0 9.02
      vertex 1.05801 0 3.92679
      vertex 1.05801 0 5.07321
    endloop
  endfacet
  facet normal 0 -1 0
    outer loop
      vertex 0 0 0
      vertex 2.29673 0 1.80455
      vertex 2.07888 0 1.95428
    endloop
  endfacet
  facet normal 0 -1 -0
    outer loop
      vertex 4.45699 0 0.98943
      vertex 0 0 0
      vertex 4.5 0 0.98809
    endloop
  endfacet
  facet normal 0 -1 -0
    outer loop
      vertex 4.32838 0 0.993436
      vertex 0 0 0
      vertex 4.45699 0 0.98943
    endloop
  endfacet
  facet normal 0 -1 -0
    outer loop
      vertex 4.21391 0 1.00494
      vertex 0 0 0
      vertex 4.32838 0 0.993436
    endloop
  endfacet
  facet normal 0 -1 -0
    outer loop
      vertex 4.17499 0 1.00886
      vertex 0 0 0
      vertex 4.21391 0 1.00494
    endloop
  endfacet
  facet normal 0 -1 -0
    outer loop
      vertex 4.0557 0 1.03261
      vertex 0 0 0
      vertex 4.17499 0 1.00886
    endloop
  endfacet
  facet normal 0 -1 -0
    outer loop
      vertex 3.8354 0 1.08899
      vertex 0 0 0
      vertex 4.0557 0 1.03261
    endloop
  endfacet
  facet normal 0 -1 -0
    outer loop
      vertex 3.16469 0 1.26064
      vertex 0 0 0
      vertex 3.8354 0 1.08899
    endloop
  endfacet
  facet normal 0 -1 -0
    outer loop
      vertex 3.11807 0 1.28009
      vertex 0 0 0
      vertex 3.16469 0 1.26064
    endloop
  endfacet
  facet normal 0 -1 -0
    outer loop
      vertex 2.96968 0 1.34201
      vertex 0 0 0
      vertex 3.11807 0 1.28009
    endloop
  endfacet
  facet normal 0 -1 -0
    outer loop
      vertex 2.29673 0 1.80455
      vertex 0 0 0
      vertex 2.96968 0 1.34201
    endloop
  endfacet
  facet normal 0 -1 -0
    outer loop
      vertex 1.56793 0 2.63987
      vertex 0 0 0
      vertex 2.07888 0 1.95428
    endloop
  endfacet
  facet normal 0 -1 -0
    outer loop
      vertex 1.41385 0 2.84661
      vertex 0 0 0
      vertex 1.56793 0 2.63987
    endloop
  endfacet
  facet normal 0 -1 -0
    outer loop
      vertex 1.33387 0 3.0894
      vertex 0 0 0
      vertex 1.41385 0 2.84661
    endloop
  endfacet
  facet normal 0 -1 -0
    outer loop
      vertex 1.05801 0 3.92679
      vertex 0 0 0
      vertex 1.33387 0 3.0894
    endloop
  endfacet
  facet normal 0 -1 0
    outer loop
      vertex 0 0 0
      vertex 1.05801 0 3.92679
      vertex 0 0 9.02
    endloop
  endfacet
  facet normal 0 -1 0
    outer loop
      vertex 4.54301 0 8.01057
      vertex 9.02 0 9.02
      vertex 4.5 0 8.01191
    endloop
  endfacet
  facet normal 0 -1 0
    outer loop
      vertex 4.67162 0 8.00656
      vertex 9.02 0 9.02
      vertex 4.54301 0 8.01057
    endloop
  endfacet
  facet normal 0 -1 0
    outer loop
      vertex 4.78608 0 7.99505
      vertex 9.02 0 9.02
      vertex 4.67162 0 8.00656
    endloop
  endfacet
  facet normal 0 -1 0
    outer loop
      vertex 4.82501 0 7.99114
      vertex 9.02 0 9.02
      vertex 4.78608 0 7.99505
    endloop
  endfacet
  facet normal 0 -1 0
    outer loop
      vertex 4.9443 0 7.96739
      vertex 9.02 0 9.02
      vertex 4.82501 0 7.99114
    endloop
  endfacet
  facet normal 0 -1 0
    outer loop
      vertex 5.1646 0 7.91101
      vertex 9.02 0 9.02
      vertex 4.9443 0 7.96739
    endloop
  endfacet
  facet normal 0 -1 0
    outer loop
      vertex 5.83531 0 7.73936
      vertex 9.02 0 9.02
      vertex 5.1646 0 7.91101
    endloop
  endfacet
  facet normal 0 -1 0
    outer loop
      vertex 5.88193 0 7.71991
      vertex 9.02 0 9.02
      vertex 5.83531 0 7.73936
    endloop
  endfacet
  facet normal 0 -1 0
    outer loop
      vertex 6.03032 0 7.65799
      vertex 9.02 0 9.02
      vertex 5.88193 0 7.71991
    endloop
  endfacet
  facet normal 0 -1 0
    outer loop
      vertex 6.70327 0 7.19545
      vertex 9.02 0 9.02
      vertex 6.03032 0 7.65799
    endloop
  endfacet
  facet normal 0 -1 0
    outer loop
      vertex 6.92112 0 7.04571
      vertex 9.02 0 9.02
      vertex 6.70327 0 7.19545
    endloop
  endfacet
  facet normal 0 -1 0
    outer loop
      vertex 7.43207 0 6.36013
      vertex 9.02 0 9.02
      vertex 6.92112 0 7.04571
    endloop
  endfacet
  facet normal 0 -1 0
    outer loop
      vertex 7.58615 0 6.15339
      vertex 9.02 0 9.02
      vertex 7.43207 0 6.36013
    endloop
  endfacet
  facet normal 0 -1 0
    outer loop
      vertex 7.86238 0 5.31489
      vertex 9.02 0 9.02
      vertex 7.58615 0 6.15339
    endloop
  endfacet
  facet normal 0 -1 0
    outer loop
      vertex 7.94199 0 5.07321
      vertex 9.02 0 9.02
      vertex 7.86238 0 5.31489
    endloop
  endfacet
  facet normal 0 -1 0
    outer loop
      vertex 7.94199 0 3.92679
      vertex 9.02 0 9.02
      vertex 7.94199 0 5.07321
    endloop
  endfacet
  facet normal 0 -1 0
    outer loop
      vertex 9.02 0 0
      vertex 5.88193 0 1.28009
      vertex 5.83531 0 1.26064
    endloop
  endfacet
  facet normal 0 -1 0
    outer loop
      vertex 9.02 0 0
      vertex 4.5 0 0.98809
      vertex 0 0 0
    endloop
  endfacet
  facet normal 0 -1 0
    outer loop
      vertex 4.5 0 0.98809
      vertex 9.02 0 0
      vertex 4.54301 0 0.98943
    endloop
  endfacet
  facet normal 0 -1 0
    outer loop
      vertex 4.54301 0 0.98943
      vertex 9.02 0 0
      vertex 4.67162 0 0.993436
    endloop
  endfacet
  facet normal 0 -1 0
    outer loop
      vertex 4.67162 0 0.993436
      vertex 9.02 0 0
      vertex 4.78608 0 1.00494
    endloop
  endfacet
  facet normal 0 -1 0
    outer loop
      vertex 4.78608 0 1.00494
      vertex 9.02 0 0
      vertex 4.82501 0 1.00886
    endloop
  endfacet
  facet normal 0 -1 0
    outer loop
      vertex 7.94199 0 3.92679
      vertex 9.02 0 0
      vertex 9.02 0 9.02
    endloop
  endfacet
  facet normal 0 -1 0
    outer loop
      vertex 7.86238 0 3.68511
      vertex 9.02 0 0
      vertex 7.94199 0 3.92679
    endloop
  endfacet
  facet normal 0 -1 0
    outer loop
      vertex 7.58615 0 2.84661
      vertex 9.02 0 0
      vertex 7.86238 0 3.68511
    endloop
  endfacet
  facet normal 0 -1 0
    outer loop
      vertex 7.43207 0 2.63987
      vertex 9.02 0 0
      vertex 7.58615 0 2.84661
    endloop
  endfacet
  facet normal 0 -1 0
    outer loop
      vertex 6.92112 0 1.95428
      vertex 9.02 0 0
      vertex 7.43207 0 2.63987
    endloop
  endfacet
  facet normal 0 -1 0
    outer loop
      vertex 6.70327 0 1.80455
      vertex 9.02 0 0
      vertex 6.92112 0 1.95428
    endloop
  endfacet
  facet normal 0 -1 0
    outer loop
      vertex 6.03032 0 1.34201
      vertex 9.02 0 0
      vertex 6.70327 0 1.80455
    endloop
  endfacet
  facet normal 0 -1 0
    outer loop
      vertex 5.88193 0 1.28009
      vertex 9.02 0 0
      vertex 6.03032 0 1.34201
    endloop
  endfacet
  facet normal 0 -1 0
    outer loop
      vertex 5.1646 0 1.08899
      vertex 9.02 0 0
      vertex 5.83531 0 1.26064
    endloop
  endfacet
  facet normal 0 -1 0
    outer loop
      vertex 4.9443 0 1.03261
      vertex 9.02 0 0
      vertex 5.1646 0 1.08899
    endloop
  endfacet
  facet normal 0 -1 0
    outer loop
      vertex 4.82501 0 1.00886
      vertex 9.02 0 0
      vertex 4.9443 0 1.03261
    endloop
  endfacet
  facet normal 0.891007 -0.45399 0
    outer loop
      vertex 2.6213 8.11042 4.81287
      vertex 2.90189 8.6611 4.18713
      vertex 2.90189 8.6611 4.81287
    endloop
  endfacet
  facet normal 0.891007 -0.45399 0
    outer loop
      vertex 2.90189 8.6611 4.18713
      vertex 2.6213 8.11042 4.81287
      vertex 2.6213 8.11042 4.18713
    endloop
  endfacet
  facet normal 0.787152 -0.190357 -0.586648
    outer loop
      vertex 1.41385 0 6.15339
      vertex 3.155 7.93702 5.91421
      vertex 1.56793 0 6.36013
    endloop
  endfacet
  facet normal 0.787153 -0.190357 -0.586647
    outer loop
      vertex 3.155 7.93702 5.91421
      vertex 1.41385 0 6.15339
      vertex 2.8052 8.05067 5.40798
    endloop
  endfacet
  facet normal 0.848389 -0.432276 -0.30557
    outer loop
      vertex 2.90189 8.6611 4.81287
      vertex 3.05832 8.54744 5.40798
      vertex 2.8052 8.05067 5.40798
    endloop
  endfacet
  facet normal 0.127097 -0.802456 0.583019
    outer loop
      vertex 4.5 8.91421 3.08579
      vertex 4.5 9.28201 3.59202
      vertex 4.06298 8.845 3.08579
    endloop
  endfacet
  facet normal 0.932559 -0.189614 -0.307214
    outer loop
      vertex 1.33387 0 5.9106
      vertex 2.8052 8.05067 5.40798
      vertex 1.41385 0 6.15339
    endloop
  endfacet
  facet normal 0.932559 -0.189614 -0.307215
    outer loop
      vertex 2.8052 8.05067 5.40798
      vertex 1.33387 0 5.9106
      vertex 2.6213 8.11042 4.81287
    endloop
  endfacet
  facet normal -0.24338 -0.190714 0.950997
    outer loop
      vertex 5.83531 0 1.26064
      vertex 5.23457 8.0337 2.71799
      vertex 5.1646 0 1.08899
    endloop
  endfacet
  facet normal -0.574495 -0.574495 -0.583019
    outer loop
      vertex 5.64412 8.33125 5.91421
      vertex 5.54744 8.94168 5.40798
      vertex 5.94168 8.54744 5.40798
    endloop
  endfacet
  facet normal -0.574495 -0.574495 -0.583019
    outer loop
      vertex 5.54744 8.94168 5.40798
      vertex 5.64412 8.33125 5.91421
      vertex 5.33125 8.64412 5.91421
    endloop
  endfacet
  facet normal 0.787153 -0.190357 -0.586647
    outer loop
      vertex 3.155 7.93702 5.91421
      vertex 2.07888 0 7.04571
      vertex 1.56793 0 6.36013
    endloop
  endfacet
  facet normal -0.981926 -0.189268 0
    outer loop
      vertex 7.94199 0 3.92679
      vertex 6.37869 8.11042 4.81287
      vertex 6.37869 8.11042 4.18713
    endloop
  endfacet
  facet normal -0.981926 -0.189268 0
    outer loop
      vertex 6.37869 8.11042 4.81287
      vertex 7.94199 0 3.92679
      vertex 7.94199 0 5.07321
    endloop
  endfacet
  facet normal -0.84839 -0.432276 -0.305569
    outer loop
      vertex 6.37869 8.11042 4.81287
      vertex 6.19479 8.05067 5.40798
      vertex 6.09811 8.6611 4.81287
    endloop
  endfacet
  facet normal -0.432276 -0.848389 -0.30557
    outer loop
      vertex 5.6611 9.09811 4.81287
      vertex 5.54744 8.94168 5.40798
      vertex 5.05067 9.19479 5.40798
    endloop
  endfacet
  facet normal -0.37788 -0.192539 -0.905614
    outer loop
      vertex 6.03032 0 7.65799
      vertex 5.88193 0 7.71991
      vertex 5.36354 7.78058 6.28201
    endloop
  endfacet
  facet normal 0.723906 -0.368849 -0.583019
    outer loop
      vertex 3.35588 8.33125 5.91421
      vertex 3.155 7.93702 5.91421
      vertex 3.05832 8.54744 5.40798
    endloop
  endfacet
  facet normal 0.787153 -0.190357 0.586647
    outer loop
      vertex 2.07888 0 1.95428
      vertex 3.155 7.93702 3.08579
      vertex 1.56793 0 2.63987
    endloop
  endfacet
  facet normal 0.24338 -0.190714 0.950997
    outer loop
      vertex 3.8354 0 1.08899
      vertex 3.76543 8.0337 2.71799
      vertex 3.16469 0 1.26064
    endloop
  endfacet
  facet normal -0.368849 -0.723906 0.583019
    outer loop
      vertex 5.33125 8.64412 3.08579
      vertex 5.54744 8.94168 3.59202
      vertex 4.93702 8.845 3.08579
    endloop
  endfacet
  facet normal 0.0488853 -0.308647 0.94992
    outer loop
      vertex 4.40332 7.79756 2.52462
      vertex 4.5 8.40798 2.71799
      vertex 4.21942 8.36354 2.71799
    endloop
  endfacet
  facet normal 0.556038 -0.190717 0.80898
    outer loop
      vertex 3.155 7.93702 3.08579
      vertex 2.29673 0 1.80455
      vertex 3.63646 7.78058 2.71799
    endloop
  endfacet
  facet normal 0.556038 -0.190717 0.80898
    outer loop
      vertex 2.29673 0 1.80455
      vertex 3.155 7.93702 3.08579
      vertex 2.07888 0 1.95428
    endloop
  endfacet
  facet normal -0.0488827 -0.308647 0.94992
    outer loop
      vertex 4.59668 7.79756 2.52462
      vertex 4.5 8.40798 2.71799
      vertex 4.5 7.81287 2.52462
    endloop
  endfacet
  facet normal -0.556038 -0.190717 0.80898
    outer loop
      vertex 6.03032 0 1.34201
      vertex 6.70327 0 1.80455
      vertex 5.36354 7.78058 2.71799
    endloop
  endfacet
  facet normal -0.932559 -0.189614 -0.307215
    outer loop
      vertex 7.86238 0 5.31489
      vertex 7.58615 0 6.15339
      vertex 6.19479 8.05067 5.40798
    endloop
  endfacet
  facet normal -0.556038 -0.190717 -0.80898
    outer loop
      vertex 6.70327 0 7.19545
      vertex 6.03032 0 7.65799
      vertex 5.36354 7.78058 6.28201
    endloop
  endfacet
  facet normal -0.368849 -0.723906 -0.583019
    outer loop
      vertex 5.05067 9.19479 5.40798
      vertex 5.54744 8.94168 5.40798
      vertex 4.93702 8.845 5.91421
    endloop
  endfacet
  facet normal -0.377878 -0.192539 0.905614
    outer loop
      vertex 5.88193 0 1.28009
      vertex 6.03032 0 1.34201
      vertex 5.36354 7.78058 2.71799
    endloop
  endfacet
  facet normal -0.432276 -0.84839 0.305569
    outer loop
      vertex 5.6611 9.09811 4.18713
      vertex 5.11042 9.37869 4.18713
      vertex 5.05067 9.19479 3.59202
    endloop
  endfacet
  facet normal -0.84839 -0.432276 0.305569
    outer loop
      vertex 6.19479 8.05067 3.59202
      vertex 6.37869 8.11042 4.18713
      vertex 6.09811 8.6611 4.18713
    endloop
  endfacet
  facet normal -0.0926957 -0.585255 -0.805533
    outer loop
      vertex 4.5 8.91421 5.91421
      vertex 4.93702 8.845 5.91421
      vertex 4.5 8.40798 6.28201
    endloop
  endfacet
  facet normal -0.707107 -0.707107 0
    outer loop
      vertex 6.09811 8.6611 4.18713
      vertex 5.6611 9.09811 4.81287
      vertex 5.6611 9.09811 4.18713
    endloop
  endfacet
  facet normal -0.707107 -0.707107 0
    outer loop
      vertex 5.6611 9.09811 4.81287
      vertex 6.09811 8.6611 4.18713
      vertex 6.09811 8.6611 4.81287
    endloop
  endfacet
  facet normal -0.932559 -0.189614 -0.307215
    outer loop
      vertex 7.94199 0 5.07321
      vertex 6.19479 8.05067 5.40798
      vertex 6.37869 8.11042 4.81287
    endloop
  endfacet
  facet normal -0.932559 -0.189614 -0.307215
    outer loop
      vertex 6.19479 8.05067 5.40798
      vertex 7.94199 0 5.07321
      vertex 7.86238 0 5.31489
    endloop
  endfacet
  facet normal -0.787153 -0.190357 0.586647
    outer loop
      vertex 7.58615 0 2.84661
      vertex 5.845 7.93702 3.08579
      vertex 7.43207 0 2.63987
    endloop
  endfacet
  facet normal -0.787153 -0.190357 0.586647
    outer loop
      vertex 5.845 7.93702 3.08579
      vertex 7.58615 0 2.84661
      vertex 6.19479 8.05067 3.59202
    endloop
  endfacet
  facet normal -0.377879 -0.192539 0.905614
    outer loop
      vertex 5.36354 7.78058 2.71799
      vertex 5.83531 0 1.26064
      vertex 5.88193 0 1.28009
    endloop
  endfacet
  facet normal -0.377878 -0.192539 0.905614
    outer loop
      vertex 5.83531 0 1.26064
      vertex 5.36354 7.78058 2.71799
      vertex 5.23457 8.0337 2.71799
    endloop
  endfacet
  facet normal -0.368849 -0.723906 0.583019
    outer loop
      vertex 5.54744 8.94168 3.59202
      vertex 5.05067 9.19479 3.59202
      vertex 4.93702 8.845 3.08579
    endloop
  endfacet
  facet normal 0.432276 -0.84839 0.305569
    outer loop
      vertex 3.94933 9.19479 3.59202
      vertex 3.88958 9.37869 4.18713
      vertex 3.3389 9.09811 4.18713
    endloop
  endfacet
  facet normal -0.127097 -0.802456 -0.583019
    outer loop
      vertex 4.5 9.28201 5.40798
      vertex 4.93702 8.845 5.91421
      vertex 4.5 8.91421 5.91421
    endloop
  endfacet
  facet normal 0.14187 -0.278434 -0.94992
    outer loop
      vertex 4.21942 8.36354 6.28201
      vertex 4.40332 7.79756 6.47538
      vertex 3.9663 8.23457 6.28201
    endloop
  endfacet
  facet normal -0.24338 -0.190714 -0.950997
    outer loop
      vertex 5.23457 8.0337 6.28201
      vertex 5.83531 0 7.73936
      vertex 5.1646 0 7.91101
    endloop
  endfacet
  facet normal 0.723906 -0.368849 -0.583019
    outer loop
      vertex 3.05832 8.54744 5.40798
      vertex 3.155 7.93702 5.91421
      vertex 2.8052 8.05067 5.40798
    endloop
  endfacet
  facet normal 0.556038 -0.190717 0.80898
    outer loop
      vertex 2.96968 0 1.34201
      vertex 3.63646 7.78058 2.71799
      vertex 2.29673 0 1.80455
    endloop
  endfacet
  facet normal 0.723906 -0.368849 0.583019
    outer loop
      vertex 3.155 7.93702 3.08579
      vertex 3.35588 8.33125 3.08579
      vertex 3.05832 8.54744 3.59202
    endloop
  endfacet
  facet normal 0.377878 -0.192539 0.905614
    outer loop
      vertex 3.63646 7.78058 2.71799
      vertex 3.16469 0 1.26064
      vertex 3.76543 8.0337 2.71799
    endloop
  endfacet
  facet normal 0.377879 -0.192539 0.905614
    outer loop
      vertex 3.16469 0 1.26064
      vertex 3.63646 7.78058 2.71799
      vertex 3.11807 0 1.28009
    endloop
  endfacet
  facet normal -0.891007 -0.45399 0
    outer loop
      vertex 6.37869 8.11042 4.18713
      vertex 6.09811 8.6611 4.81287
      vertex 6.09811 8.6611 4.18713
    endloop
  endfacet
  facet normal -0.891007 -0.45399 0
    outer loop
      vertex 6.09811 8.6611 4.81287
      vertex 6.37869 8.11042 4.18713
      vertex 6.37869 8.11042 4.81287
    endloop
  endfacet
  facet normal -0.787152 -0.190357 0.586648
    outer loop
      vertex 6.92112 0 1.95428
      vertex 7.43207 0 2.63987
      vertex 5.845 7.93702 3.08579
    endloop
  endfacet
  facet normal 0.243379 -0.190714 0.950997
    outer loop
      vertex 4.24688 7.6839 2.52462
      vertex 3.8354 0 1.08899
      vertex 4.0557 0 1.03261
    endloop
  endfacet
  facet normal 0.243379 -0.190714 0.950997
    outer loop
      vertex 3.8354 0 1.08899
      vertex 4.24688 7.6839 2.52462
      vertex 3.76543 8.0337 2.71799
    endloop
  endfacet
  facet normal -0.0926957 -0.585255 0.805533
    outer loop
      vertex 4.93702 8.845 3.08579
      vertex 4.5 8.91421 3.08579
      vertex 4.5 8.40798 2.71799
    endloop
  endfacet
  facet normal 0.148952 -0.940447 -0.305569
    outer loop
      vertex 4.5 9.47538 4.81287
      vertex 4.5 9.28201 5.40798
      vertex 3.88958 9.37869 4.81287
    endloop
  endfacet
  facet normal -0.723906 -0.368849 -0.583019
    outer loop
      vertex 5.94168 8.54744 5.40798
      vertex 6.19479 8.05067 5.40798
      vertex 5.845 7.93702 5.91421
    endloop
  endfacet
  facet normal -0.932559 -0.189614 0.307214
    outer loop
      vertex 7.94199 0 3.92679
      vertex 6.19479 8.05067 3.59202
      vertex 7.86238 0 3.68511
    endloop
  endfacet
  facet normal -0.932559 -0.189614 0.307215
    outer loop
      vertex 6.19479 8.05067 3.59202
      vertex 7.94199 0 3.92679
      vertex 6.37869 8.11042 4.18713
    endloop
  endfacet
  facet normal -0.45399 -0.891007 0
    outer loop
      vertex 5.11042 9.37869 4.18713
      vertex 5.6611 9.09811 4.81287
      vertex 5.11042 9.37869 4.81287
    endloop
  endfacet
  facet normal -0.45399 -0.891007 -0
    outer loop
      vertex 5.6611 9.09811 4.81287
      vertex 5.11042 9.37869 4.18713
      vertex 5.6611 9.09811 4.18713
    endloop
  endfacet
  facet normal -0.848389 -0.432276 -0.30557
    outer loop
      vertex 6.09811 8.6611 4.81287
      vertex 6.19479 8.05067 5.40798
      vertex 5.94168 8.54744 5.40798
    endloop
  endfacet
  facet normal 0.432276 -0.848389 -0.30557
    outer loop
      vertex 3.94933 9.19479 5.40798
      vertex 3.45256 8.94168 5.40798
      vertex 3.3389 9.09811 4.81287
    endloop
  endfacet
  facet normal -0.148952 -0.940447 -0.305569
    outer loop
      vertex 4.5 9.47538 4.81287
      vertex 5.11042 9.37869 4.81287
      vertex 4.5 9.28201 5.40798
    endloop
  endfacet
  facet normal 0.0305522 -0.19288 -0.980747
    outer loop
      vertex 4.40332 7.79756 6.47538
      vertex 4.5 0 8.01191
      vertex 4.45699 0 8.01057
    endloop
  endfacet
  facet normal 0.0305476 -0.192881 -0.980747
    outer loop
      vertex 4.5 0 8.01191
      vertex 4.40332 7.79756 6.47538
      vertex 4.5 7.81287 6.47538
    endloop
  endfacet
  facet normal 0.269012 -0.527966 0.805533
    outer loop
      vertex 4.21942 8.36354 2.71799
      vertex 4.06298 8.845 3.08579
      vertex 3.66875 8.64412 3.08579
    endloop
  endfacet
  facet normal 0.574495 -0.574495 -0.583019
    outer loop
      vertex 3.35588 8.33125 5.91421
      vertex 3.45256 8.94168 5.40798
      vertex 3.66875 8.64412 5.91421
    endloop
  endfacet
  facet normal 0.574495 -0.574495 -0.583019
    outer loop
      vertex 3.45256 8.94168 5.40798
      vertex 3.35588 8.33125 5.91421
      vertex 3.05832 8.54744 5.40798
    endloop
  endfacet
  facet normal 0.0305513 -0.19288 -0.980747
    outer loop
      vertex 4.40332 7.79756 6.47538
      vertex 4.45699 0 8.01057
      vertex 4.32838 0 8.00656
    endloop
  endfacet
  facet normal 0.673286 -0.673286 0.30557
    outer loop
      vertex 2.90189 8.6611 4.18713
      vertex 3.45256 8.94168 3.59202
      vertex 3.3389 9.09811 4.18713
    endloop
  endfacet
  facet normal 0.673286 -0.673286 0.30557
    outer loop
      vertex 3.45256 8.94168 3.59202
      vertex 2.90189 8.6611 4.18713
      vertex 3.05832 8.54744 3.59202
    endloop
  endfacet
  facet normal 0.932559 -0.189614 0.307214
    outer loop
      vertex 1.33387 0 3.0894
      vertex 2.6213 8.11042 4.18713
      vertex 1.05801 0 3.92679
    endloop
  endfacet
  facet normal 0.0926955 -0.585255 0.805533
    outer loop
      vertex 4.5 8.40798 2.71799
      vertex 4.5 8.91421 3.08579
      vertex 4.06298 8.845 3.08579
    endloop
  endfacet
  facet normal -0.243379 -0.190714 0.950997
    outer loop
      vertex 4.75312 7.6839 2.52462
      vertex 5.1646 0 1.08899
      vertex 5.23457 8.0337 2.71799
    endloop
  endfacet
  facet normal -0.243379 -0.190714 0.950997
    outer loop
      vertex 5.1646 0 1.08899
      vertex 4.75312 7.6839 2.52462
      vertex 4.9443 0 1.03261
    endloop
  endfacet
  facet normal -0.723906 -0.368849 0.583019
    outer loop
      vertex 5.845 7.93702 3.08579
      vertex 5.94168 8.54744 3.59202
      vertex 5.64412 8.33125 3.08579
    endloop
  endfacet
  facet normal -0.556038 -0.190717 0.80898
    outer loop
      vertex 5.845 7.93702 3.08579
      vertex 6.70327 0 1.80455
      vertex 6.92112 0 1.95428
    endloop
  endfacet
  facet normal -0.556038 -0.190717 0.80898
    outer loop
      vertex 6.70327 0 1.80455
      vertex 5.845 7.93702 3.08579
      vertex 5.36354 7.78058 2.71799
    endloop
  endfacet
  facet normal -0.0305479 -0.19288 0.980747
    outer loop
      vertex 4.5 0 0.98809
      vertex 4.59668 7.79756 2.52462
      vertex 4.5 7.81287 2.52462
    endloop
  endfacet
  facet normal -0.0305481 -0.19288 0.980747
    outer loop
      vertex 4.59668 7.79756 2.52462
      vertex 4.5 0 0.98809
      vertex 4.54301 0 0.98943
    endloop
  endfacet
  facet normal -0.574495 -0.574495 0.583019
    outer loop
      vertex 5.54744 8.94168 3.59202
      vertex 5.64412 8.33125 3.08579
      vertex 5.94168 8.54744 3.59202
    endloop
  endfacet
  facet normal -0.574495 -0.574495 0.583019
    outer loop
      vertex 5.64412 8.33125 3.08579
      vertex 5.54744 8.94168 3.59202
      vertex 5.33125 8.64412 3.08579
    endloop
  endfacet
  facet normal -0.932559 -0.189614 0.307215
    outer loop
      vertex 7.58615 0 2.84661
      vertex 7.86238 0 3.68511
      vertex 6.19479 8.05067 3.59202
    endloop
  endfacet
  facet normal 0.148952 -0.940447 0.305569
    outer loop
      vertex 4.5 9.28201 3.59202
      vertex 4.5 9.47538 4.18713
      vertex 3.88958 9.37869 4.18713
    endloop
  endfacet
  facet normal 0.127097 -0.802456 0.583019
    outer loop
      vertex 4.06298 8.845 3.08579
      vertex 4.5 9.28201 3.59202
      vertex 3.94933 9.19479 3.59202
    endloop
  endfacet
  facet normal -0.148953 -0.940447 0.30557
    outer loop
      vertex 5.05067 9.19479 3.59202
      vertex 5.11042 9.37869 4.18713
      vertex 4.5 9.28201 3.59202
    endloop
  endfacet
  facet normal -0.148952 -0.940447 0.305569
    outer loop
      vertex 5.11042 9.37869 4.18713
      vertex 4.5 9.47538 4.18713
      vertex 4.5 9.28201 3.59202
    endloop
  endfacet
  facet normal -0.556039 -0.190717 -0.808979
    outer loop
      vertex 6.70327 0 7.19545
      vertex 5.845 7.93702 5.91421
      vertex 6.92112 0 7.04571
    endloop
  endfacet
  facet normal -0.556038 -0.190717 -0.80898
    outer loop
      vertex 5.845 7.93702 5.91421
      vertex 6.70327 0 7.19545
      vertex 5.36354 7.78058 6.28201
    endloop
  endfacet
  facet normal -0.377883 -0.192539 -0.905612
    outer loop
      vertex 5.83531 0 7.73936
      vertex 5.36354 7.78058 6.28201
      vertex 5.88193 0 7.71991
    endloop
  endfacet
  facet normal -0.377878 -0.192539 -0.905614
    outer loop
      vertex 5.36354 7.78058 6.28201
      vertex 5.83531 0 7.73936
      vertex 5.23457 8.0337 6.28201
    endloop
  endfacet
  facet normal 0.848389 -0.432276 0.30557
    outer loop
      vertex 3.05832 8.54744 3.59202
      vertex 2.90189 8.6611 4.18713
      vertex 2.8052 8.05067 3.59202
    endloop
  endfacet
  facet normal 0.127097 -0.802456 -0.583019
    outer loop
      vertex 4.5 9.28201 5.40798
      vertex 4.5 8.91421 5.91421
      vertex 4.06298 8.845 5.91421
    endloop
  endfacet
  facet normal 0.418996 -0.418996 -0.805534
    outer loop
      vertex 3.76543 8.0337 6.28201
      vertex 3.66875 8.64412 5.91421
      vertex 3.9663 8.23457 6.28201
    endloop
  endfacet
  facet normal 0.418996 -0.418996 -0.805534
    outer loop
      vertex 3.66875 8.64412 5.91421
      vertex 3.76543 8.0337 6.28201
      vertex 3.35588 8.33125 5.91421
    endloop
  endfacet
  facet normal -0.127097 -0.802456 -0.583019
    outer loop
      vertex 5.05067 9.19479 5.40798
      vertex 4.93702 8.845 5.91421
      vertex 4.5 9.28201 5.40798
    endloop
  endfacet
  facet normal -0.0981658 -0.192665 -0.976342
    outer loop
      vertex 4.78608 0 7.99505
      vertex 4.67162 0 8.00656
      vertex 4.59668 7.79756 6.47538
    endloop
  endfacet
  facet normal -0.220967 -0.220967 -0.94992
    outer loop
      vertex 4.75312 7.6839 6.47538
      vertex 5.0337 8.23457 6.28201
      vertex 5.23457 8.0337 6.28201
    endloop
  endfacet
  facet normal -0.220967 -0.220967 -0.94992
    outer loop
      vertex 5.0337 8.23457 6.28201
      vertex 4.75312 7.6839 6.47538
      vertex 4.6839 7.75312 6.47538
    endloop
  endfacet
  facet normal 0.527966 -0.269013 -0.805534
    outer loop
      vertex 3.76543 8.0337 6.28201
      vertex 3.63646 7.78058 6.28201
      vertex 3.35588 8.33125 5.91421
    endloop
  endfacet
  facet normal 0.377878 -0.192539 -0.905614
    outer loop
      vertex 3.16469 0 7.73936
      vertex 3.63646 7.78058 6.28201
      vertex 3.76543 8.0337 6.28201
    endloop
  endfacet
  facet normal 0.377883 -0.192539 -0.905612
    outer loop
      vertex 3.63646 7.78058 6.28201
      vertex 3.16469 0 7.73936
      vertex 3.11807 0 7.71991
    endloop
  endfacet
  facet normal 0.981926 -0.189268 0
    outer loop
      vertex 1.05801 0 5.07321
      vertex 2.6213 8.11042 4.18713
      vertex 2.6213 8.11042 4.81287
    endloop
  endfacet
  facet normal 0.981926 -0.189268 0
    outer loop
      vertex 2.6213 8.11042 4.18713
      vertex 1.05801 0 5.07321
      vertex 1.05801 0 3.92679
    endloop
  endfacet
  facet normal 0.84839 -0.432276 -0.305569
    outer loop
      vertex 2.90189 8.6611 4.81287
      vertex 2.8052 8.05067 5.40798
      vertex 2.6213 8.11042 4.81287
    endloop
  endfacet
  facet normal 0.527966 -0.269013 0.805534
    outer loop
      vertex 3.63646 7.78058 2.71799
      vertex 3.76543 8.0337 2.71799
      vertex 3.35588 8.33125 3.08579
    endloop
  endfacet
  facet normal 0.527966 -0.269012 0.805533
    outer loop
      vertex 3.63646 7.78058 2.71799
      vertex 3.35588 8.33125 3.08579
      vertex 3.155 7.93702 3.08579
    endloop
  endfacet
  facet normal -0.191673 -0.191673 0.962561
    outer loop
      vertex 4.75312 7.6839 2.52462
      vertex 4.82501 0 1.00886
      vertex 4.9443 0 1.03261
    endloop
  endfacet
  facet normal -0.191673 -0.191673 0.962561
    outer loop
      vertex 4.82501 0 1.00886
      vertex 4.75312 7.6839 2.52462
      vertex 4.6839 7.75312 2.52462
    endloop
  endfacet
  facet normal 0.092696 -0.585255 0.805534
    outer loop
      vertex 4.21942 8.36354 2.71799
      vertex 4.5 8.40798 2.71799
      vertex 4.06298 8.845 3.08579
    endloop
  endfacet
  facet normal -0.432276 -0.848389 0.30557
    outer loop
      vertex 5.54744 8.94168 3.59202
      vertex 5.6611 9.09811 4.18713
      vertex 5.05067 9.19479 3.59202
    endloop
  endfacet
  facet normal 0.574495 -0.574495 0.583019
    outer loop
      vertex 3.45256 8.94168 3.59202
      vertex 3.35588 8.33125 3.08579
      vertex 3.66875 8.64412 3.08579
    endloop
  endfacet
  facet normal 0.574495 -0.574495 0.583019
    outer loop
      vertex 3.35588 8.33125 3.08579
      vertex 3.45256 8.94168 3.59202
      vertex 3.05832 8.54744 3.59202
    endloop
  endfacet
  facet normal 0.148953 -0.940447 0.30557
    outer loop
      vertex 3.94933 9.19479 3.59202
      vertex 4.5 9.28201 3.59202
      vertex 3.88958 9.37869 4.18713
    endloop
  endfacet
  facet normal -0.243379 -0.190714 -0.950997
    outer loop
      vertex 4.75312 7.6839 6.47538
      vertex 5.1646 0 7.91101
      vertex 4.9443 0 7.96739
    endloop
  endfacet
  facet normal -0.243379 -0.190714 -0.950997
    outer loop
      vertex 5.1646 0 7.91101
      vertex 4.75312 7.6839 6.47538
      vertex 5.23457 8.0337 6.28201
    endloop
  endfacet
  facet normal -0.368849 -0.723906 -0.583019
    outer loop
      vertex 5.54744 8.94168 5.40798
      vertex 5.33125 8.64412 5.91421
      vertex 4.93702 8.845 5.91421
    endloop
  endfacet
  facet normal -0.787152 -0.190357 -0.586648
    outer loop
      vertex 7.43207 0 6.36013
      vertex 6.92112 0 7.04571
      vertex 5.845 7.93702 5.91421
    endloop
  endfacet
  facet normal -0.787153 -0.190357 -0.586647
    outer loop
      vertex 7.58615 0 6.15339
      vertex 5.845 7.93702 5.91421
      vertex 6.19479 8.05067 5.40798
    endloop
  endfacet
  facet normal -0.787152 -0.190357 -0.586648
    outer loop
      vertex 5.845 7.93702 5.91421
      vertex 7.58615 0 6.15339
      vertex 7.43207 0 6.36013
    endloop
  endfacet
  facet normal 0.723906 -0.368849 0.583019
    outer loop
      vertex 3.155 7.93702 3.08579
      vertex 3.05832 8.54744 3.59202
      vertex 2.8052 8.05067 3.59202
    endloop
  endfacet
  facet normal 0.787153 -0.190357 0.586647
    outer loop
      vertex 1.41385 0 2.84661
      vertex 3.155 7.93702 3.08579
      vertex 2.8052 8.05067 3.59202
    endloop
  endfacet
  facet normal 0.787153 -0.190357 0.586647
    outer loop
      vertex 3.155 7.93702 3.08579
      vertex 1.41385 0 2.84661
      vertex 1.56793 0 2.63987
    endloop
  endfacet
  facet normal 0.127097 -0.802456 -0.583019
    outer loop
      vertex 4.5 9.28201 5.40798
      vertex 4.06298 8.845 5.91421
      vertex 3.94933 9.19479 5.40798
    endloop
  endfacet
  facet normal 0.556038 -0.190717 -0.80898
    outer loop
      vertex 3.63646 7.78058 6.28201
      vertex 2.96968 0 7.65799
      vertex 2.29673 0 7.19545
    endloop
  endfacet
  facet normal 0.377881 -0.192539 -0.905613
    outer loop
      vertex 3.63646 7.78058 6.28201
      vertex 3.11807 0 7.71991
      vertex 2.96968 0 7.65799
    endloop
  endfacet
  facet normal -0.156434 -0.987688 0
    outer loop
      vertex 4.5 9.47538 4.18713
      vertex 5.11042 9.37869 4.81287
      vertex 4.5 9.47538 4.81287
    endloop
  endfacet
  facet normal -0.156434 -0.987688 -0
    outer loop
      vertex 5.11042 9.37869 4.81287
      vertex 4.5 9.47538 4.18713
      vertex 5.11042 9.37869 4.18713
    endloop
  endfacet
  facet normal 0.243379 -0.190714 -0.950997
    outer loop
      vertex 3.8354 0 7.91101
      vertex 4.24688 7.6839 6.47538
      vertex 4.0557 0 7.96739
    endloop
  endfacet
  facet normal 0.243379 -0.190714 -0.950997
    outer loop
      vertex 4.24688 7.6839 6.47538
      vertex 3.8354 0 7.91101
      vertex 3.76543 8.0337 6.28201
    endloop
  endfacet
  facet normal 0.377879 -0.192539 0.905614
    outer loop
      vertex 3.11807 0 1.28009
      vertex 3.63646 7.78058 2.71799
      vertex 2.96968 0 1.34201
    endloop
  endfacet
  facet normal 0.932559 -0.189614 -0.307214
    outer loop
      vertex 2.6213 8.11042 4.81287
      vertex 1.33387 0 5.9106
      vertex 1.05801 0 5.07321
    endloop
  endfacet
  facet normal 0.707107 -0.707107 0
    outer loop
      vertex 2.90189 8.6611 4.81287
      vertex 3.3389 9.09811 4.18713
      vertex 3.3389 9.09811 4.81287
    endloop
  endfacet
  facet normal 0.707107 -0.707107 0
    outer loop
      vertex 3.3389 9.09811 4.18713
      vertex 2.90189 8.6611 4.81287
      vertex 2.90189 8.6611 4.18713
    endloop
  endfacet
  facet normal -0.14187 -0.278434 0.94992
    outer loop
      vertex 5.0337 8.23457 2.71799
      vertex 4.78058 8.36354 2.71799
      vertex 4.59668 7.79756 2.52462
    endloop
  endfacet
  facet normal 0.269013 -0.527966 0.805534
    outer loop
      vertex 3.9663 8.23457 2.71799
      vertex 4.21942 8.36354 2.71799
      vertex 3.66875 8.64412 3.08579
    endloop
  endfacet
  facet normal -0.127097 -0.802456 0.583019
    outer loop
      vertex 4.93702 8.845 3.08579
      vertex 4.5 9.28201 3.59202
      vertex 4.5 8.91421 3.08579
    endloop
  endfacet
  facet normal -0.127097 -0.802456 0.583019
    outer loop
      vertex 4.93702 8.845 3.08579
      vertex 5.05067 9.19479 3.59202
      vertex 4.5 9.28201 3.59202
    endloop
  endfacet
  facet normal -0.0488855 -0.308647 0.94992
    outer loop
      vertex 4.59668 7.79756 2.52462
      vertex 4.78058 8.36354 2.71799
      vertex 4.5 8.40798 2.71799
    endloop
  endfacet
  facet normal -0.418996 -0.418996 0.805534
    outer loop
      vertex 5.33125 8.64412 3.08579
      vertex 5.23457 8.0337 2.71799
      vertex 5.64412 8.33125 3.08579
    endloop
  endfacet
  facet normal -0.418996 -0.418996 0.805534
    outer loop
      vertex 5.23457 8.0337 2.71799
      vertex 5.33125 8.64412 3.08579
      vertex 5.0337 8.23457 2.71799
    endloop
  endfacet
  facet normal -0.673286 -0.673286 0.30557
    outer loop
      vertex 5.54744 8.94168 3.59202
      vertex 6.09811 8.6611 4.18713
      vertex 5.6611 9.09811 4.18713
    endloop
  endfacet
  facet normal -0.673286 -0.673286 0.30557
    outer loop
      vertex 6.09811 8.6611 4.18713
      vertex 5.54744 8.94168 3.59202
      vertex 5.94168 8.54744 3.59202
    endloop
  endfacet
  facet normal 0.156434 -0.987688 0
    outer loop
      vertex 3.88958 9.37869 4.18713
      vertex 4.5 9.47538 4.81287
      vertex 3.88958 9.37869 4.81287
    endloop
  endfacet
  facet normal 0.156434 -0.987688 0
    outer loop
      vertex 4.5 9.47538 4.81287
      vertex 3.88958 9.37869 4.18713
      vertex 4.5 9.47538 4.18713
    endloop
  endfacet
  facet normal 0.432276 -0.848389 0.30557
    outer loop
      vertex 3.45256 8.94168 3.59202
      vertex 3.94933 9.19479 3.59202
      vertex 3.3389 9.09811 4.18713
    endloop
  endfacet
  facet normal 0.368849 -0.723906 0.583019
    outer loop
      vertex 4.06298 8.845 3.08579
      vertex 3.94933 9.19479 3.59202
      vertex 3.45256 8.94168 3.59202
    endloop
  endfacet
  facet normal -0.0305515 -0.19288 -0.980747
    outer loop
      vertex 4.59668 7.79756 6.47538
      vertex 4.67162 0 8.00656
      vertex 4.54301 0 8.01057
    endloop
  endfacet
  facet normal -0.527966 -0.269013 -0.805534
    outer loop
      vertex 5.64412 8.33125 5.91421
      vertex 5.36354 7.78058 6.28201
      vertex 5.23457 8.0337 6.28201
    endloop
  endfacet
  facet normal -0.191675 -0.191673 -0.96256
    outer loop
      vertex 4.82501 0 7.99114
      vertex 4.75312 7.6839 6.47538
      vertex 4.9443 0 7.96739
    endloop
  endfacet
  facet normal -0.191673 -0.191673 -0.962561
    outer loop
      vertex 4.75312 7.6839 6.47538
      vertex 4.82501 0 7.99114
      vertex 4.6839 7.75312 6.47538
    endloop
  endfacet
  facet normal -0.527966 -0.269012 -0.805533
    outer loop
      vertex 5.64412 8.33125 5.91421
      vertex 5.845 7.93702 5.91421
      vertex 5.36354 7.78058 6.28201
    endloop
  endfacet
  facet normal -0.723906 -0.368849 -0.583019
    outer loop
      vertex 5.94168 8.54744 5.40798
      vertex 5.845 7.93702 5.91421
      vertex 5.64412 8.33125 5.91421
    endloop
  endfacet
  facet normal 0.673286 -0.673286 -0.30557
    outer loop
      vertex 3.45256 8.94168 5.40798
      vertex 2.90189 8.6611 4.81287
      vertex 3.3389 9.09811 4.81287
    endloop
  endfacet
  facet normal 0.673286 -0.673286 -0.30557
    outer loop
      vertex 2.90189 8.6611 4.81287
      vertex 3.45256 8.94168 5.40798
      vertex 3.05832 8.54744 5.40798
    endloop
  endfacet
  facet normal 0.148953 -0.940447 -0.30557
    outer loop
      vertex 4.5 9.28201 5.40798
      vertex 3.94933 9.19479 5.40798
      vertex 3.88958 9.37869 4.81287
    endloop
  endfacet
  facet normal 0.368849 -0.723906 -0.583019
    outer loop
      vertex 4.06298 8.845 5.91421
      vertex 3.66875 8.64412 5.91421
      vertex 3.45256 8.94168 5.40798
    endloop
  endfacet
  facet normal 0.269012 -0.527966 -0.805533
    outer loop
      vertex 4.06298 8.845 5.91421
      vertex 4.21942 8.36354 6.28201
      vertex 3.66875 8.64412 5.91421
    endloop
  endfacet
  facet normal 0.0488853 -0.308647 -0.94992
    outer loop
      vertex 4.5 8.40798 6.28201
      vertex 4.40332 7.79756 6.47538
      vertex 4.21942 8.36354 6.28201
    endloop
  endfacet
  facet normal 0.527966 -0.269012 -0.805533
    outer loop
      vertex 3.35588 8.33125 5.91421
      vertex 3.63646 7.78058 6.28201
      vertex 3.155 7.93702 5.91421
    endloop
  endfacet
  facet normal 0.556038 -0.190717 -0.80898
    outer loop
      vertex 2.29673 0 7.19545
      vertex 3.155 7.93702 5.91421
      vertex 3.63646 7.78058 6.28201
    endloop
  endfacet
  facet normal 0.556039 -0.190717 -0.808979
    outer loop
      vertex 3.155 7.93702 5.91421
      vertex 2.29673 0 7.19545
      vertex 2.07888 0 7.04571
    endloop
  endfacet
  facet normal -0.148953 -0.940447 -0.30557
    outer loop
      vertex 5.11042 9.37869 4.81287
      vertex 5.05067 9.19479 5.40798
      vertex 4.5 9.28201 5.40798
    endloop
  endfacet
  facet normal -0.432276 -0.84839 -0.305569
    outer loop
      vertex 5.11042 9.37869 4.81287
      vertex 5.6611 9.09811 4.81287
      vertex 5.05067 9.19479 5.40798
    endloop
  endfacet
  facet normal 0.24338 -0.190714 -0.950997
    outer loop
      vertex 3.76543 8.0337 6.28201
      vertex 3.8354 0 7.91101
      vertex 3.16469 0 7.73936
    endloop
  endfacet
  facet normal 0.141871 -0.278433 -0.94992
    outer loop
      vertex 4.40332 7.79756 6.47538
      vertex 4.3161 7.75312 6.47538
      vertex 3.9663 8.23457 6.28201
    endloop
  endfacet
  facet normal 0.0981658 -0.192665 -0.976342
    outer loop
      vertex 4.40332 7.79756 6.47538
      vertex 4.32838 0 8.00656
      vertex 4.21391 0 7.99505
    endloop
  endfacet
  facet normal 0.84839 -0.432276 0.305569
    outer loop
      vertex 2.8052 8.05067 3.59202
      vertex 2.90189 8.6611 4.18713
      vertex 2.6213 8.11042 4.18713
    endloop
  endfacet
  facet normal 0.932559 -0.189614 0.307215
    outer loop
      vertex 1.33387 0 3.0894
      vertex 2.8052 8.05067 3.59202
      vertex 2.6213 8.11042 4.18713
    endloop
  endfacet
  facet normal 0.932559 -0.189614 0.307215
    outer loop
      vertex 2.8052 8.05067 3.59202
      vertex 1.33387 0 3.0894
      vertex 1.41385 0 2.84661
    endloop
  endfacet
  facet normal 0.418996 -0.418996 0.805534
    outer loop
      vertex 3.66875 8.64412 3.08579
      vertex 3.76543 8.0337 2.71799
      vertex 3.9663 8.23457 2.71799
    endloop
  endfacet
  facet normal 0.418996 -0.418996 0.805534
    outer loop
      vertex 3.76543 8.0337 2.71799
      vertex 3.66875 8.64412 3.08579
      vertex 3.35588 8.33125 3.08579
    endloop
  endfacet
  facet normal 0.14187 -0.278434 0.94992
    outer loop
      vertex 4.40332 7.79756 2.52462
      vertex 4.21942 8.36354 2.71799
      vertex 3.9663 8.23457 2.71799
    endloop
  endfacet
  facet normal -0.269013 -0.527966 0.805534
    outer loop
      vertex 5.0337 8.23457 2.71799
      vertex 5.33125 8.64412 3.08579
      vertex 4.78058 8.36354 2.71799
    endloop
  endfacet
  facet normal -0.220967 -0.220967 0.94992
    outer loop
      vertex 5.0337 8.23457 2.71799
      vertex 4.75312 7.6839 2.52462
      vertex 5.23457 8.0337 2.71799
    endloop
  endfacet
  facet normal -0.220967 -0.220967 0.94992
    outer loop
      vertex 4.75312 7.6839 2.52462
      vertex 5.0337 8.23457 2.71799
      vertex 4.6839 7.75312 2.52462
    endloop
  endfacet
  facet normal -0.723906 -0.368849 0.583019
    outer loop
      vertex 6.19479 8.05067 3.59202
      vertex 5.94168 8.54744 3.59202
      vertex 5.845 7.93702 3.08579
    endloop
  endfacet
  facet normal -0.848389 -0.432276 0.30557
    outer loop
      vertex 6.19479 8.05067 3.59202
      vertex 6.09811 8.6611 4.18713
      vertex 5.94168 8.54744 3.59202
    endloop
  endfacet
  facet normal -0.527966 -0.269012 0.805533
    outer loop
      vertex 5.845 7.93702 3.08579
      vertex 5.64412 8.33125 3.08579
      vertex 5.36354 7.78058 2.71799
    endloop
  endfacet
  facet normal -0.527966 -0.269013 0.805534
    outer loop
      vertex 5.36354 7.78058 2.71799
      vertex 5.64412 8.33125 3.08579
      vertex 5.23457 8.0337 2.71799
    endloop
  endfacet
  facet normal 0.368849 -0.723906 0.583019
    outer loop
      vertex 3.66875 8.64412 3.08579
      vertex 4.06298 8.845 3.08579
      vertex 3.45256 8.94168 3.59202
    endloop
  endfacet
  facet normal -0.673286 -0.673286 -0.30557
    outer loop
      vertex 6.09811 8.6611 4.81287
      vertex 5.54744 8.94168 5.40798
      vertex 5.6611 9.09811 4.81287
    endloop
  endfacet
  facet normal -0.673286 -0.673286 -0.30557
    outer loop
      vertex 5.54744 8.94168 5.40798
      vertex 6.09811 8.6611 4.81287
      vertex 5.94168 8.54744 5.40798
    endloop
  endfacet
  facet normal 0.269013 -0.527966 -0.805534
    outer loop
      vertex 4.21942 8.36354 6.28201
      vertex 3.9663 8.23457 6.28201
      vertex 3.66875 8.64412 5.91421
    endloop
  endfacet
  facet normal 0.368849 -0.723906 -0.583019
    outer loop
      vertex 3.94933 9.19479 5.40798
      vertex 4.06298 8.845 5.91421
      vertex 3.45256 8.94168 5.40798
    endloop
  endfacet
  facet normal 0.432276 -0.84839 -0.305569
    outer loop
      vertex 3.88958 9.37869 4.81287
      vertex 3.94933 9.19479 5.40798
      vertex 3.3389 9.09811 4.81287
    endloop
  endfacet
  facet normal 0.45399 -0.891007 0
    outer loop
      vertex 3.3389 9.09811 4.18713
      vertex 3.88958 9.37869 4.81287
      vertex 3.3389 9.09811 4.81287
    endloop
  endfacet
  facet normal 0.45399 -0.891007 0
    outer loop
      vertex 3.88958 9.37869 4.81287
      vertex 3.3389 9.09811 4.18713
      vertex 3.88958 9.37869 4.18713
    endloop
  endfacet
  facet normal -0.418996 -0.418996 -0.805534
    outer loop
      vertex 5.23457 8.0337 6.28201
      vertex 5.33125 8.64412 5.91421
      vertex 5.64412 8.33125 5.91421
    endloop
  endfacet
  facet normal -0.418996 -0.418996 -0.805534
    outer loop
      vertex 5.33125 8.64412 5.91421
      vertex 5.23457 8.0337 6.28201
      vertex 5.0337 8.23457 6.28201
    endloop
  endfacet
  facet normal -0.0305522 -0.19288 -0.980747
    outer loop
      vertex 4.5 0 8.01191
      vertex 4.59668 7.79756 6.47538
      vertex 4.54301 0 8.01057
    endloop
  endfacet
  facet normal -0.0305479 -0.19288 -0.980747
    outer loop
      vertex 4.59668 7.79756 6.47538
      vertex 4.5 0 8.01191
      vertex 4.5 7.81287 6.47538
    endloop
  endfacet
  facet normal 0.220967 -0.220967 -0.94992
    outer loop
      vertex 4.24688 7.6839 6.47538
      vertex 3.9663 8.23457 6.28201
      vertex 4.3161 7.75312 6.47538
    endloop
  endfacet
  facet normal 0.220967 -0.220967 -0.94992
    outer loop
      vertex 3.9663 8.23457 6.28201
      vertex 4.24688 7.6839 6.47538
      vertex 3.76543 8.0337 6.28201
    endloop
  endfacet
  facet normal 0.191673 -0.191673 -0.962561
    outer loop
      vertex 4.17499 0 7.99114
      vertex 4.24688 7.6839 6.47538
      vertex 4.3161 7.75312 6.47538
    endloop
  endfacet
  facet normal 0.191675 -0.191673 -0.96256
    outer loop
      vertex 4.24688 7.6839 6.47538
      vertex 4.17499 0 7.99114
      vertex 4.0557 0 7.96739
    endloop
  endfacet
  facet normal 0.191673 -0.191673 0.962561
    outer loop
      vertex 4.24688 7.6839 2.52462
      vertex 4.17499 0 1.00886
      vertex 4.3161 7.75312 2.52462
    endloop
  endfacet
  facet normal 0.191673 -0.191673 0.962561
    outer loop
      vertex 4.17499 0 1.00886
      vertex 4.24688 7.6839 2.52462
      vertex 4.0557 0 1.03261
    endloop
  endfacet
  facet normal 0.0981697 -0.192665 0.976342
    outer loop
      vertex 4.3161 7.75312 2.52462
      vertex 4.21391 0 1.00494
      vertex 4.40332 7.79756 2.52462
    endloop
  endfacet
  facet normal 0.0981694 -0.192665 0.976342
    outer loop
      vertex 4.21391 0 1.00494
      vertex 4.3161 7.75312 2.52462
      vertex 4.17499 0 1.00886
    endloop
  endfacet
  facet normal -0.0981688 -0.192665 0.976342
    outer loop
      vertex 4.67162 0 0.993436
      vertex 4.78608 0 1.00494
      vertex 4.59668 7.79756 2.52462
    endloop
  endfacet
  facet normal -0.0305492 -0.19288 0.980747
    outer loop
      vertex 4.67162 0 0.993436
      vertex 4.59668 7.79756 2.52462
      vertex 4.54301 0 0.98943
    endloop
  endfacet
  facet normal -0.0926963 -0.585255 0.805534
    outer loop
      vertex 4.78058 8.36354 2.71799
      vertex 4.93702 8.845 3.08579
      vertex 4.5 8.40798 2.71799
    endloop
  endfacet
  facet normal -0.269012 -0.527966 0.805533
    outer loop
      vertex 5.33125 8.64412 3.08579
      vertex 4.93702 8.845 3.08579
      vertex 4.78058 8.36354 2.71799
    endloop
  endfacet
  facet normal -0.0488855 -0.308647 -0.94992
    outer loop
      vertex 4.78058 8.36354 6.28201
      vertex 4.59668 7.79756 6.47538
      vertex 4.5 8.40798 6.28201
    endloop
  endfacet
  facet normal -0.0926963 -0.585255 -0.805534
    outer loop
      vertex 4.93702 8.845 5.91421
      vertex 4.78058 8.36354 6.28201
      vertex 4.5 8.40798 6.28201
    endloop
  endfacet
  facet normal 0.092696 -0.585255 -0.805534
    outer loop
      vertex 4.5 8.40798 6.28201
      vertex 4.21942 8.36354 6.28201
      vertex 4.06298 8.845 5.91421
    endloop
  endfacet
  facet normal 0.0926955 -0.585255 -0.805533
    outer loop
      vertex 4.5 8.91421 5.91421
      vertex 4.5 8.40798 6.28201
      vertex 4.06298 8.845 5.91421
    endloop
  endfacet
  facet normal -0.0488827 -0.308647 -0.94992
    outer loop
      vertex 4.5 8.40798 6.28201
      vertex 4.59668 7.79756 6.47538
      vertex 4.5 7.81287 6.47538
    endloop
  endfacet
  facet normal 0.0488822 -0.308647 -0.94992
    outer loop
      vertex 4.5 8.40798 6.28201
      vertex 4.5 7.81287 6.47538
      vertex 4.40332 7.79756 6.47538
    endloop
  endfacet
  facet normal -0.269012 -0.527966 -0.805533
    outer loop
      vertex 4.93702 8.845 5.91421
      vertex 5.33125 8.64412 5.91421
      vertex 4.78058 8.36354 6.28201
    endloop
  endfacet
  facet normal -0.0981664 -0.192665 -0.976342
    outer loop
      vertex 4.78608 0 7.99505
      vertex 4.6839 7.75312 6.47538
      vertex 4.82501 0 7.99114
    endloop
  endfacet
  facet normal -0.0981697 -0.192665 -0.976342
    outer loop
      vertex 4.6839 7.75312 6.47538
      vertex 4.78608 0 7.99505
      vertex 4.59668 7.79756 6.47538
    endloop
  endfacet
  facet normal -0.14187 -0.278434 -0.94992
    outer loop
      vertex 4.78058 8.36354 6.28201
      vertex 5.0337 8.23457 6.28201
      vertex 4.59668 7.79756 6.47538
    endloop
  endfacet
  facet normal -0.269013 -0.527966 -0.805534
    outer loop
      vertex 5.33125 8.64412 5.91421
      vertex 5.0337 8.23457 6.28201
      vertex 4.78058 8.36354 6.28201
    endloop
  endfacet
  facet normal 0.0981697 -0.192665 -0.976342
    outer loop
      vertex 4.21391 0 7.99505
      vertex 4.3161 7.75312 6.47538
      vertex 4.40332 7.79756 6.47538
    endloop
  endfacet
  facet normal 0.0981664 -0.192665 -0.976342
    outer loop
      vertex 4.3161 7.75312 6.47538
      vertex 4.21391 0 7.99505
      vertex 4.17499 0 7.99114
    endloop
  endfacet
  facet normal 0.141871 -0.278433 0.94992
    outer loop
      vertex 4.3161 7.75312 2.52462
      vertex 4.40332 7.79756 2.52462
      vertex 3.9663 8.23457 2.71799
    endloop
  endfacet
  facet normal 0.220967 -0.220967 0.94992
    outer loop
      vertex 3.9663 8.23457 2.71799
      vertex 4.24688 7.6839 2.52462
      vertex 4.3161 7.75312 2.52462
    endloop
  endfacet
  facet normal 0.220967 -0.220967 0.94992
    outer loop
      vertex 4.24688 7.6839 2.52462
      vertex 3.9663 8.23457 2.71799
      vertex 3.76543 8.0337 2.71799
    endloop
  endfacet
  facet normal 0.0981688 -0.192665 0.976342
    outer loop
      vertex 4.32838 0 0.993436
      vertex 4.40332 7.79756 2.52462
      vertex 4.21391 0 1.00494
    endloop
  endfacet
  facet normal 0.030549 -0.19288 0.980747
    outer loop
      vertex 4.45699 0 0.98943
      vertex 4.40332 7.79756 2.52462
      vertex 4.32838 0 0.993436
    endloop
  endfacet
  facet normal -0.141871 -0.278433 0.94992
    outer loop
      vertex 4.6839 7.75312 2.52462
      vertex 5.0337 8.23457 2.71799
      vertex 4.59668 7.79756 2.52462
    endloop
  endfacet
  facet normal -0.0981694 -0.192665 0.976342
    outer loop
      vertex 4.6839 7.75312 2.52462
      vertex 4.78608 0 1.00494
      vertex 4.82501 0 1.00886
    endloop
  endfacet
  facet normal -0.0981697 -0.192665 0.976342
    outer loop
      vertex 4.78608 0 1.00494
      vertex 4.6839 7.75312 2.52462
      vertex 4.59668 7.79756 2.52462
    endloop
  endfacet
  facet normal -0.141871 -0.278433 -0.94992
    outer loop
      vertex 5.0337 8.23457 6.28201
      vertex 4.6839 7.75312 6.47538
      vertex 4.59668 7.79756 6.47538
    endloop
  endfacet
  facet normal 0.0305476 -0.19288 0.980747
    outer loop
      vertex 4.40332 7.79756 2.52462
      vertex 4.5 0 0.98809
      vertex 4.5 7.81287 2.52462
    endloop
  endfacet
  facet normal 0.0305481 -0.19288 0.980747
    outer loop
      vertex 4.5 0 0.98809
      vertex 4.40332 7.79756 2.52462
      vertex 4.45699 0 0.98943
    endloop
  endfacet
  facet normal 0.0488822 -0.308647 0.94992
    outer loop
      vertex 4.5 7.81287 2.52462
      vertex 4.5 8.40798 2.71799
      vertex 4.40332 7.79756 2.52462
    endloop
  endfacet
endsolid OpenSCAD_Model
