solid OpenSCAD_Model
  facet normal -1 0 0
    outer loop
      vertex 0 0 0
      vertex 0 15 9.02
      vertex 0 15 0
    endloop
  endfacet
  facet normal -1 -0 0
    outer loop
      vertex 0 15 9.02
      vertex 0 0 0
      vertex 0 0 9.02
    endloop
  endfacet
  facet normal -0 0 1
    outer loop
      vertex 0 15 9.02
      vertex 9.02 0 9.02
      vertex 9.02 15 9.02
    endloop
  endfacet
  facet normal 0 0 1
    outer loop
      vertex 9.02 0 9.02
      vertex 0 15 9.02
      vertex 0 0 9.02
    endloop
  endfacet
  facet normal 1 -0 0
    outer loop
      vertex 9.02 0 9.02
      vertex 9.02 15 0
      vertex 9.02 15 9.02
    endloop
  endfacet
  facet normal 1 0 0
    outer loop
      vertex 9.02 15 0
      vertex 9.02 0 9.02
      vertex 9.02 0 0
    endloop
  endfacet
  facet normal 0 1 -0
    outer loop
      vertex 9.02 15 0
      vertex 0 15 9.02
      vertex 9.02 15 9.02
    endloop
  endfacet
  facet normal 0 1 0
    outer loop
      vertex 0 15 9.02
      vertex 9.02 15 0
      vertex 0 15 0
    endloop
  endfacet
  facet normal 0 0 -1
    outer loop
      vertex 0 0 0
      vertex 9.02 15 0
      vertex 9.02 0 0
    endloop
  endfacet
  facet normal -0 0 -1
    outer loop
      vertex 9.02 15 0
      vertex 0 0 0
      vertex 0 15 0
    endloop
  endfacet
  facet normal 0 -1 0
    outer loop
      vertex 0 0 9.02
      vertex 4.5 0 7.80813
      vertex 9.02 0 9.02
    endloop
  endfacet
  facet normal 0 -1 0
    outer loop
      vertex 0 0 9.02
      vertex 4.44985 0 7.80631
      vertex 4.5 0 7.80813
    endloop
  endfacet
  facet normal 0 -1 0
    outer loop
      vertex 0 0 9.02
      vertex 4.33838 0 7.80226
      vertex 4.44985 0 7.80631
    endloop
  endfacet
  facet normal 0 -1 0
    outer loop
      vertex 0 0 9.02
      vertex 4.23939 0 7.79065
      vertex 4.33838 0 7.80226
    endloop
  endfacet
  facet normal 0 -1 0
    outer loop
      vertex 0 0 9.02
      vertex 4.19415 0 7.78534
      vertex 4.23939 0 7.79065
    endloop
  endfacet
  facet normal 0 -1 0
    outer loop
      vertex 0 0 9.02
      vertex 4.01189 0 7.74295
      vertex 4.19415 0 7.78534
    endloop
  endfacet
  facet normal 0 -1 0
    outer loop
      vertex 0 0 9.02
      vertex 3.56023 0 7.63789
      vertex 4.01189 0 7.74295
    endloop
  endfacet
  facet normal 0 -1 0
    outer loop
      vertex 0 0 9.02
      vertex 3.23746 0 7.56281
      vertex 3.56023 0 7.63789
    endloop
  endfacet
  facet normal 0 -1 0
    outer loop
      vertex 0 0 9.02
      vertex 3.18434 0 7.53609
      vertex 3.23746 0 7.56281
    endloop
  endfacet
  facet normal 0 -1 0
    outer loop
      vertex 0 0 9.02
      vertex 3.05924 0 7.47317
      vertex 3.18434 0 7.53609
    endloop
  endfacet
  facet normal 0 -1 0
    outer loop
      vertex 0 0 9.02
      vertex 2.47142 0 7.07634
      vertex 3.05924 0 7.47317
    endloop
  endfacet
  facet normal 0 -1 0
    outer loop
      vertex 0 0 9.02
      vertex 2.21463 0 6.90298
      vertex 2.47142 0 7.07634
    endloop
  endfacet
  facet normal 0 -1 0
    outer loop
      vertex 0 0 9.02
      vertex 1.76344 0 6.3052
      vertex 2.21463 0 6.90298
    endloop
  endfacet
  facet normal 0 -1 0
    outer loop
      vertex 0 0 9.02
      vertex 1.58119 0 6.06374
      vertex 1.76344 0 6.3052
    endloop
  endfacet
  facet normal 0 -1 0
    outer loop
      vertex 0 0 9.02
      vertex 1.48679 0 5.78021
      vertex 1.58119 0 6.06374
    endloop
  endfacet
  facet normal 0 -1 0
    outer loop
      vertex 0 0 9.02
      vertex 1.24124 0 5.0427
      vertex 1.48679 0 5.78021
    endloop
  endfacet
  facet normal 0 -1 0
    outer loop
      vertex 0 0 9.02
      vertex 1.24124 0 3.9573
      vertex 1.24124 0 5.0427
    endloop
  endfacet
  facet normal 0 -1 0
    outer loop
      vertex 0 0 0
      vertex 4.23939 0 1.20935
      vertex 4.19415 0 1.21465
    endloop
  endfacet
  facet normal 0 -1 -0
    outer loop
      vertex 4.44985 0 1.19369
      vertex 0 0 0
      vertex 4.5 0 1.19187
    endloop
  endfacet
  facet normal 0 -1 -0
    outer loop
      vertex 4.33838 0 1.19774
      vertex 0 0 0
      vertex 4.44985 0 1.19369
    endloop
  endfacet
  facet normal 0 -1 -0
    outer loop
      vertex 4.23939 0 1.20935
      vertex 0 0 0
      vertex 4.33838 0 1.19774
    endloop
  endfacet
  facet normal 0 -1 -0
    outer loop
      vertex 4.01189 0 1.25705
      vertex 0 0 0
      vertex 4.19415 0 1.21465
    endloop
  endfacet
  facet normal 0 -1 -0
    outer loop
      vertex 3.56023 0 1.36211
      vertex 0 0 0
      vertex 4.01189 0 1.25705
    endloop
  endfacet
  facet normal 0 -1 -0
    outer loop
      vertex 3.23746 0 1.43719
      vertex 0 0 0
      vertex 3.56023 0 1.36211
    endloop
  endfacet
  facet normal 0 -1 -0
    outer loop
      vertex 3.18434 0 1.46391
      vertex 0 0 0
      vertex 3.23746 0 1.43719
    endloop
  endfacet
  facet normal 0 -1 -0
    outer loop
      vertex 3.05924 0 1.52683
      vertex 0 0 0
      vertex 3.18434 0 1.46391
    endloop
  endfacet
  facet normal 0 -1 -0
    outer loop
      vertex 2.47142 0 1.92366
      vertex 0 0 0
      vertex 3.05924 0 1.52683
    endloop
  endfacet
  facet normal 0 -1 -0
    outer loop
      vertex 2.21463 0 2.09701
      vertex 0 0 0
      vertex 2.47142 0 1.92366
    endloop
  endfacet
  facet normal 0 -1 -0
    outer loop
      vertex 1.76344 0 2.6948
      vertex 0 0 0
      vertex 2.21463 0 2.09701
    endloop
  endfacet
  facet normal 0 -1 -0
    outer loop
      vertex 1.58119 0 2.93626
      vertex 0 0 0
      vertex 1.76344 0 2.6948
    endloop
  endfacet
  facet normal 0 -1 -0
    outer loop
      vertex 1.48679 0 3.21979
      vertex 0 0 0
      vertex 1.58119 0 2.93626
    endloop
  endfacet
  facet normal 0 -1 -0
    outer loop
      vertex 1.24124 0 3.9573
      vertex 0 0 0
      vertex 1.48679 0 3.21979
    endloop
  endfacet
  facet normal 0 -1 0
    outer loop
      vertex 0 0 0
      vertex 1.24124 0 3.9573
      vertex 0 0 9.02
    endloop
  endfacet
  facet normal 0 -1 0
    outer loop
      vertex 4.55015 0 7.80631
      vertex 9.02 0 9.02
      vertex 4.5 0 7.80813
    endloop
  endfacet
  facet normal 0 -1 0
    outer loop
      vertex 4.66162 0 7.80226
      vertex 9.02 0 9.02
      vertex 4.55015 0 7.80631
    endloop
  endfacet
  facet normal 0 -1 0
    outer loop
      vertex 4.76061 0 7.79065
      vertex 9.02 0 9.02
      vertex 4.66162 0 7.80226
    endloop
  endfacet
  facet normal 0 -1 0
    outer loop
      vertex 4.80585 0 7.78534
      vertex 9.02 0 9.02
      vertex 4.76061 0 7.79065
    endloop
  endfacet
  facet normal 0 -1 0
    outer loop
      vertex 4.98811 0 7.74295
      vertex 9.02 0 9.02
      vertex 4.80585 0 7.78534
    endloop
  endfacet
  facet normal 0 -1 0
    outer loop
      vertex 5.43977 0 7.63789
      vertex 9.02 0 9.02
      vertex 4.98811 0 7.74295
    endloop
  endfacet
  facet normal 0 -1 0
    outer loop
      vertex 5.76254 0 7.56281
      vertex 9.02 0 9.02
      vertex 5.43977 0 7.63789
    endloop
  endfacet
  facet normal 0 -1 0
    outer loop
      vertex 5.81566 0 7.53609
      vertex 9.02 0 9.02
      vertex 5.76254 0 7.56281
    endloop
  endfacet
  facet normal 0 -1 0
    outer loop
      vertex 5.94076 0 7.47317
      vertex 9.02 0 9.02
      vertex 5.81566 0 7.53609
    endloop
  endfacet
  facet normal 0 -1 0
    outer loop
      vertex 6.52858 0 7.07634
      vertex 9.02 0 9.02
      vertex 5.94076 0 7.47317
    endloop
  endfacet
  facet normal 0 -1 0
    outer loop
      vertex 6.78537 0 6.90298
      vertex 9.02 0 9.02
      vertex 6.52858 0 7.07634
    endloop
  endfacet
  facet normal 0 -1 0
    outer loop
      vertex 7.23656 0 6.3052
      vertex 9.02 0 9.02
      vertex 6.78537 0 6.90298
    endloop
  endfacet
  facet normal 0 -1 0
    outer loop
      vertex 7.41881 0 6.06374
      vertex 9.02 0 9.02
      vertex 7.23656 0 6.3052
    endloop
  endfacet
  facet normal 0 -1 0
    outer loop
      vertex 7.66446 0 5.32594
      vertex 9.02 0 9.02
      vertex 7.41881 0 6.06374
    endloop
  endfacet
  facet normal 0 -1 0
    outer loop
      vertex 7.75876 0 5.0427
      vertex 9.02 0 9.02
      vertex 7.66446 0 5.32594
    endloop
  endfacet
  facet normal 0 -1 0
    outer loop
      vertex 7.75876 0 3.9573
      vertex 9.02 0 9.02
      vertex 7.75876 0 5.0427
    endloop
  endfacet
  facet normal 0 -1 0
    outer loop
      vertex 9.02 0 0
      vertex 7.23656 0 2.6948
      vertex 6.78537 0 2.09701
    endloop
  endfacet
  facet normal 0 -1 0
    outer loop
      vertex 9.02 0 0
      vertex 4.76061 0 1.20935
      vertex 4.66162 0 1.19774
    endloop
  endfacet
  facet normal 0 -1 0
    outer loop
      vertex 9.02 0 0
      vertex 4.5 0 1.19187
      vertex 0 0 0
    endloop
  endfacet
  facet normal 0 -1 0
    outer loop
      vertex 4.5 0 1.19187
      vertex 9.02 0 0
      vertex 4.55015 0 1.19369
    endloop
  endfacet
  facet normal 0 -1 0
    outer loop
      vertex 4.55015 0 1.19369
      vertex 9.02 0 0
      vertex 4.66162 0 1.19774
    endloop
  endfacet
  facet normal 0 -1 0
    outer loop
      vertex 4.76061 0 1.20935
      vertex 9.02 0 0
      vertex 4.80585 0 1.21465
    endloop
  endfacet
  facet normal 0 -1 0
    outer loop
      vertex 4.80585 0 1.21465
      vertex 9.02 0 0
      vertex 4.98811 0 1.25705
    endloop
  endfacet
  facet normal 0 -1 0
    outer loop
      vertex 4.98811 0 1.25705
      vertex 9.02 0 0
      vertex 5.43977 0 1.36211
    endloop
  endfacet
  facet normal 0 -1 0
    outer loop
      vertex 7.75876 0 3.9573
      vertex 9.02 0 0
      vertex 9.02 0 9.02
    endloop
  endfacet
  facet normal 0 -1 0
    outer loop
      vertex 7.66446 0 3.67406
      vertex 9.02 0 0
      vertex 7.75876 0 3.9573
    endloop
  endfacet
  facet normal 0 -1 0
    outer loop
      vertex 7.41881 0 2.93626
      vertex 9.02 0 0
      vertex 7.66446 0 3.67406
    endloop
  endfacet
  facet normal 0 -1 0
    outer loop
      vertex 7.23656 0 2.6948
      vertex 9.02 0 0
      vertex 7.41881 0 2.93626
    endloop
  endfacet
  facet normal 0 -1 0
    outer loop
      vertex 6.52858 0 1.92366
      vertex 9.02 0 0
      vertex 6.78537 0 2.09701
    endloop
  endfacet
  facet normal 0 -1 0
    outer loop
      vertex 5.94076 0 1.52683
      vertex 9.02 0 0
      vertex 6.52858 0 1.92366
    endloop
  endfacet
  facet normal 0 -1 0
    outer loop
      vertex 5.81566 0 1.46391
      vertex 9.02 0 0
      vertex 5.94076 0 1.52683
    endloop
  endfacet
  facet normal 0 -1 0
    outer loop
      vertex 5.76254 0 1.43719
      vertex 9.02 0 0
      vertex 5.81566 0 1.46391
    endloop
  endfacet
  facet normal 0 -1 0
    outer loop
      vertex 5.43977 0 1.36211
      vertex 9.02 0 0
      vertex 5.76254 0 1.43719
    endloop
  endfacet
  facet normal -0.45399 -0.891007 0
    outer loop
      vertex 5.11042 7.37869 4.18713
      vertex 5.6611 7.09811 4.81287
      vertex 5.11042 7.37869 4.81287
    endloop
  endfacet
  facet normal -0.45399 -0.891007 -0
    outer loop
      vertex 5.6611 7.09811 4.81287
      vertex 5.11042 7.37869 4.18713
      vertex 5.6611 7.09811 4.18713
    endloop
  endfacet
  facet normal 0.574495 -0.574495 -0.583019
    outer loop
      vertex 3.35588 6.33125 5.91421
      vertex 3.45256 6.94168 5.40798
      vertex 3.66875 6.64412 5.91421
    endloop
  endfacet
  facet normal 0.574495 -0.574495 -0.583019
    outer loop
      vertex 3.45256 6.94168 5.40798
      vertex 3.35588 6.33125 5.91421
      vertex 3.05832 6.54744 5.40798
    endloop
  endfacet
  facet normal -0.778409 -0.221141 0.587517
    outer loop
      vertex 6.78537 0 2.09701
      vertex 7.23656 0 2.6948
      vertex 5.845 5.93702 3.08579
    endloop
  endfacet
  facet normal 0.778409 -0.221141 -0.587517
    outer loop
      vertex 3.155 5.93702 5.91421
      vertex 2.21463 0 6.90298
      vertex 1.76344 0 6.3052
    endloop
  endfacet
  facet normal 0.148953 -0.940447 0.30557
    outer loop
      vertex 3.94933 7.19479 3.59202
      vertex 4.5 7.28201 3.59202
      vertex 3.88958 7.37869 4.18713
    endloop
  endfacet
  facet normal 0.127097 -0.802456 0.583019
    outer loop
      vertex 4.5 6.91421 3.08579
      vertex 4.5 7.28201 3.59202
      vertex 4.06298 6.845 3.08579
    endloop
  endfacet
  facet normal 0.220978 -0.220978 -0.949914
    outer loop
      vertex 3.56023 0 7.63789
      vertex 3.76543 6.0337 6.28201
      vertex 3.9663 6.23457 6.28201
    endloop
  endfacet
  facet normal 0.220978 -0.220978 -0.949914
    outer loop
      vertex 3.76543 6.0337 6.28201
      vertex 3.56023 0 7.63789
      vertex 3.23746 0 7.56281
    endloop
  endfacet
  facet normal -0.438016 -0.22318 0.870823
    outer loop
      vertex 5.81566 0 1.46391
      vertex 5.94076 0 1.52683
      vertex 5.36354 5.78058 2.71799
    endloop
  endfacet
  facet normal -0.925418 -0.220599 -0.308119
    outer loop
      vertex 7.66446 0 5.32594
      vertex 7.41881 0 6.06374
      vertex 6.19479 6.05067 5.40798
    endloop
  endfacet
  facet normal -0.545676 -0.221051 0.808316
    outer loop
      vertex 5.845 5.93702 3.08579
      vertex 6.52858 0 1.92366
      vertex 6.78537 0 2.09701
    endloop
  endfacet
  facet normal -0.545675 -0.221051 0.808316
    outer loop
      vertex 6.52858 0 1.92366
      vertex 5.845 5.93702 3.08579
      vertex 5.36354 5.78058 2.71799
    endloop
  endfacet
  facet normal -0.269013 -0.527966 0.805534
    outer loop
      vertex 5.0337 6.23457 2.71799
      vertex 5.33125 6.64412 3.08579
      vertex 4.78058 6.36354 2.71799
    endloop
  endfacet
  facet normal -0.975431 -0.220306 0
    outer loop
      vertex 7.75876 0 3.9573
      vertex 6.37869 6.11042 4.81287
      vertex 6.37869 6.11042 4.18713
    endloop
  endfacet
  facet normal -0.975431 -0.220306 0
    outer loop
      vertex 6.37869 6.11042 4.81287
      vertex 7.75876 0 3.9573
      vertex 7.75876 0 5.0427
    endloop
  endfacet
  facet normal 0.778409 -0.221141 -0.587517
    outer loop
      vertex 1.58119 0 6.06374
      vertex 3.155 5.93702 5.91421
      vertex 1.76344 0 6.3052
    endloop
  endfacet
  facet normal 0.778409 -0.221141 -0.587517
    outer loop
      vertex 3.155 5.93702 5.91421
      vertex 1.58119 0 6.06374
      vertex 2.8052 6.05067 5.40798
    endloop
  endfacet
  facet normal -0.848389 -0.432276 -0.30557
    outer loop
      vertex 6.09811 6.6611 4.81287
      vertex 6.19479 6.05067 5.40798
      vertex 5.94168 6.54744 5.40798
    endloop
  endfacet
  facet normal -0.141871 -0.278433 0.94992
    outer loop
      vertex 4.6839 5.75312 2.52462
      vertex 5.0337 6.23457 2.71799
      vertex 4.59668 5.79756 2.52462
    endloop
  endfacet
  facet normal -0.778409 -0.221141 0.587517
    outer loop
      vertex 7.41881 0 2.93626
      vertex 5.845 5.93702 3.08579
      vertex 7.23656 0 2.6948
    endloop
  endfacet
  facet normal -0.778409 -0.221141 0.587517
    outer loop
      vertex 5.845 5.93702 3.08579
      vertex 7.41881 0 2.93626
      vertex 6.19479 6.05067 3.59202
    endloop
  endfacet
  facet normal 0.220952 -0.220978 0.94992
    outer loop
      vertex 4.01189 0 1.25705
      vertex 3.9663 6.23457 2.71799
      vertex 3.56023 0 1.36211
    endloop
  endfacet
  facet normal -0.545675 -0.221051 0.808316
    outer loop
      vertex 5.94076 0 1.52683
      vertex 6.52858 0 1.92366
      vertex 5.36354 5.78058 2.71799
    endloop
  endfacet
  facet normal 0.723906 -0.368849 -0.583019
    outer loop
      vertex 3.05832 6.54744 5.40798
      vertex 3.155 5.93702 5.91421
      vertex 2.8052 6.05067 5.40798
    endloop
  endfacet
  facet normal 0.723906 -0.368849 -0.583019
    outer loop
      vertex 3.35588 6.33125 5.91421
      vertex 3.155 5.93702 5.91421
      vertex 3.05832 6.54744 5.40798
    endloop
  endfacet
  facet normal -0.438014 -0.22318 -0.870824
    outer loop
      vertex 5.94076 0 7.47317
      vertex 5.81566 0 7.53609
      vertex 5.36354 5.78058 6.28201
    endloop
  endfacet
  facet normal -0.220978 -0.220978 -0.949914
    outer loop
      vertex 5.43977 0 7.63789
      vertex 5.23457 6.0337 6.28201
      vertex 5.76254 0 7.56281
    endloop
  endfacet
  facet normal -0.220978 -0.220978 -0.949914
    outer loop
      vertex 5.23457 6.0337 6.28201
      vertex 5.43977 0 7.63789
      vertex 5.0337 6.23457 6.28201
    endloop
  endfacet
  facet normal -0.925418 -0.220599 -0.308119
    outer loop
      vertex 7.75876 0 5.0427
      vertex 6.19479 6.05067 5.40798
      vertex 6.37869 6.11042 4.81287
    endloop
  endfacet
  facet normal -0.925418 -0.2206 -0.308119
    outer loop
      vertex 6.19479 6.05067 5.40798
      vertex 7.75876 0 5.0427
      vertex 7.66446 0 5.32594
    endloop
  endfacet
  facet normal -0.707107 -0.707107 0
    outer loop
      vertex 6.09811 6.6611 4.18713
      vertex 5.6611 7.09811 4.81287
      vertex 5.6611 7.09811 4.18713
    endloop
  endfacet
  facet normal -0.707107 -0.707107 0
    outer loop
      vertex 5.6611 7.09811 4.81287
      vertex 6.09811 6.6611 4.18713
      vertex 6.09811 6.6611 4.81287
    endloop
  endfacet
  facet normal -0.220952 -0.220978 -0.94992
    outer loop
      vertex 4.6839 5.75312 6.47538
      vertex 4.98811 0 7.74295
      vertex 4.80585 0 7.78534
    endloop
  endfacet
  facet normal -0.220952 -0.220978 -0.949921
    outer loop
      vertex 4.98811 0 7.74295
      vertex 4.6839 5.75312 6.47538
      vertex 5.0337 6.23457 6.28201
    endloop
  endfacet
  facet normal -0.141871 -0.278433 -0.94992
    outer loop
      vertex 5.0337 6.23457 6.28201
      vertex 4.6839 5.75312 6.47538
      vertex 4.59668 5.79756 6.47538
    endloop
  endfacet
  facet normal 0.368849 -0.723906 0.583019
    outer loop
      vertex 3.66875 6.64412 3.08579
      vertex 4.06298 6.845 3.08579
      vertex 3.45256 6.94168 3.59202
    endloop
  endfacet
  facet normal -0.220978 -0.220978 0.949914
    outer loop
      vertex 5.23457 6.0337 2.71799
      vertex 5.43977 0 1.36211
      vertex 5.76254 0 1.43719
    endloop
  endfacet
  facet normal -0.220978 -0.220978 0.949914
    outer loop
      vertex 5.43977 0 1.36211
      vertex 5.23457 6.0337 2.71799
      vertex 5.0337 6.23457 2.71799
    endloop
  endfacet
  facet normal 0.438015 -0.22318 -0.870823
    outer loop
      vertex 3.63646 5.78058 6.28201
      vertex 3.18434 0 7.53609
      vertex 3.05924 0 7.47317
    endloop
  endfacet
  facet normal -0.925418 -0.220599 0.308119
    outer loop
      vertex 7.41881 0 2.93626
      vertex 7.66446 0 3.67406
      vertex 6.19479 6.05067 3.59202
    endloop
  endfacet
  facet normal 0.220978 -0.220978 0.949914
    outer loop
      vertex 3.76543 6.0337 2.71799
      vertex 3.56023 0 1.36211
      vertex 3.9663 6.23457 2.71799
    endloop
  endfacet
  facet normal 0.220978 -0.220978 0.949914
    outer loop
      vertex 3.56023 0 1.36211
      vertex 3.76543 6.0337 2.71799
      vertex 3.23746 0 1.43719
    endloop
  endfacet
  facet normal -0.0926963 -0.585255 0.805534
    outer loop
      vertex 4.78058 6.36354 2.71799
      vertex 4.93702 6.845 3.08579
      vertex 4.5 6.40798 2.71799
    endloop
  endfacet
  facet normal -0.432276 -0.84839 -0.305569
    outer loop
      vertex 5.11042 7.37869 4.81287
      vertex 5.6611 7.09811 4.81287
      vertex 5.05067 7.19479 5.40798
    endloop
  endfacet
  facet normal 0.113558 -0.222866 -0.968212
    outer loop
      vertex 4.40332 5.79756 6.47538
      vertex 4.33838 0 7.80226
      vertex 4.23939 0 7.79065
    endloop
  endfacet
  facet normal 0.673286 -0.673286 -0.30557
    outer loop
      vertex 3.45256 6.94168 5.40798
      vertex 2.90189 6.6611 4.81287
      vertex 3.3389 7.09811 4.81287
    endloop
  endfacet
  facet normal 0.673286 -0.673286 -0.30557
    outer loop
      vertex 2.90189 6.6611 4.81287
      vertex 3.45256 6.94168 5.40798
      vertex 3.05832 6.54744 5.40798
    endloop
  endfacet
  facet normal 0.527966 -0.269012 0.805533
    outer loop
      vertex 3.63646 5.78058 2.71799
      vertex 3.35588 6.33125 3.08579
      vertex 3.155 5.93702 3.08579
    endloop
  endfacet
  facet normal -0.778409 -0.221141 -0.587517
    outer loop
      vertex 7.23656 0 6.3052
      vertex 6.78537 0 6.90298
      vertex 5.845 5.93702 5.91421
    endloop
  endfacet
  facet normal 0.778409 -0.221141 0.587517
    outer loop
      vertex 1.58119 0 2.93626
      vertex 3.155 5.93702 3.08579
      vertex 2.8052 6.05067 3.59202
    endloop
  endfacet
  facet normal 0.778409 -0.221141 0.587517
    outer loop
      vertex 3.155 5.93702 3.08579
      vertex 1.58119 0 2.93626
      vertex 1.76344 0 2.6948
    endloop
  endfacet
  facet normal 0.45399 -0.891007 0
    outer loop
      vertex 3.3389 7.09811 4.18713
      vertex 3.88958 7.37869 4.81287
      vertex 3.3389 7.09811 4.81287
    endloop
  endfacet
  facet normal 0.45399 -0.891007 0
    outer loop
      vertex 3.88958 7.37869 4.81287
      vertex 3.3389 7.09811 4.18713
      vertex 3.88958 7.37869 4.18713
    endloop
  endfacet
  facet normal 0.574495 -0.574495 0.583019
    outer loop
      vertex 3.45256 6.94168 3.59202
      vertex 3.35588 6.33125 3.08579
      vertex 3.66875 6.64412 3.08579
    endloop
  endfacet
  facet normal 0.574495 -0.574495 0.583019
    outer loop
      vertex 3.35588 6.33125 3.08579
      vertex 3.45256 6.94168 3.59202
      vertex 3.05832 6.54744 3.59202
    endloop
  endfacet
  facet normal -0.269013 -0.527966 -0.805534
    outer loop
      vertex 5.33125 6.64412 5.91421
      vertex 5.0337 6.23457 6.28201
      vertex 4.78058 6.36354 6.28201
    endloop
  endfacet
  facet normal -0.127097 -0.802456 -0.583019
    outer loop
      vertex 4.5 7.28201 5.40798
      vertex 4.93702 6.845 5.91421
      vertex 4.5 6.91421 5.91421
    endloop
  endfacet
  facet normal -0.127097 -0.802456 -0.583019
    outer loop
      vertex 5.05067 7.19479 5.40798
      vertex 4.93702 6.845 5.91421
      vertex 4.5 7.28201 5.40798
    endloop
  endfacet
  facet normal 0.0353726 -0.223338 0.974099
    outer loop
      vertex 4.44985 0 1.19369
      vertex 4.40332 5.79756 2.52462
      vertex 4.33838 0 1.19774
    endloop
  endfacet
  facet normal -0.269012 -0.527966 0.805533
    outer loop
      vertex 5.33125 6.64412 3.08579
      vertex 4.93702 6.845 3.08579
      vertex 4.78058 6.36354 2.71799
    endloop
  endfacet
  facet normal -0.432276 -0.84839 0.305569
    outer loop
      vertex 5.6611 7.09811 4.18713
      vertex 5.11042 7.37869 4.18713
      vertex 5.05067 7.19479 3.59202
    endloop
  endfacet
  facet normal -0.925418 -0.220599 0.308119
    outer loop
      vertex 7.75876 0 3.9573
      vertex 6.19479 6.05067 3.59202
      vertex 7.66446 0 3.67406
    endloop
  endfacet
  facet normal -0.925418 -0.2206 0.308119
    outer loop
      vertex 6.19479 6.05067 3.59202
      vertex 7.75876 0 3.9573
      vertex 6.37869 6.11042 4.18713
    endloop
  endfacet
  facet normal -0.723906 -0.368849 0.583019
    outer loop
      vertex 6.19479 6.05067 3.59202
      vertex 5.94168 6.54744 3.59202
      vertex 5.845 5.93702 3.08579
    endloop
  endfacet
  facet normal 0.925418 -0.220599 0.308119
    outer loop
      vertex 1.48679 0 3.21979
      vertex 2.6213 6.11042 4.18713
      vertex 1.24124 0 3.9573
    endloop
  endfacet
  facet normal -0.848389 -0.432276 0.30557
    outer loop
      vertex 6.19479 6.05067 3.59202
      vertex 6.09811 6.6611 4.18713
      vertex 5.94168 6.54744 3.59202
    endloop
  endfacet
  facet normal 0.148953 -0.940447 -0.30557
    outer loop
      vertex 4.5 7.28201 5.40798
      vertex 3.94933 7.19479 5.40798
      vertex 3.88958 7.37869 4.81287
    endloop
  endfacet
  facet normal -0.156434 -0.987688 0
    outer loop
      vertex 4.5 7.47538 4.18713
      vertex 5.11042 7.37869 4.81287
      vertex 4.5 7.47538 4.81287
    endloop
  endfacet
  facet normal -0.156434 -0.987688 -0
    outer loop
      vertex 5.11042 7.37869 4.81287
      vertex 4.5 7.47538 4.18713
      vertex 5.11042 7.37869 4.18713
    endloop
  endfacet
  facet normal -0.127097 -0.802456 0.583019
    outer loop
      vertex 4.93702 6.845 3.08579
      vertex 5.05067 7.19479 3.59202
      vertex 4.5 7.28201 3.59202
    endloop
  endfacet
  facet normal -0.0353728 -0.223338 -0.974099
    outer loop
      vertex 4.59668 5.79756 6.47538
      vertex 4.66162 0 7.80226
      vertex 4.55015 0 7.80631
    endloop
  endfacet
  facet normal 0.0353726 -0.223338 -0.974099
    outer loop
      vertex 4.40332 5.79756 6.47538
      vertex 4.44985 0 7.80631
      vertex 4.33838 0 7.80226
    endloop
  endfacet
  facet normal 0.545676 -0.221051 -0.808316
    outer loop
      vertex 3.63646 5.78058 6.28201
      vertex 3.05924 0 7.47317
      vertex 2.47142 0 7.07634
    endloop
  endfacet
  facet normal -0.545676 -0.221051 -0.808316
    outer loop
      vertex 6.52858 0 7.07634
      vertex 5.94076 0 7.47317
      vertex 5.36354 5.78058 6.28201
    endloop
  endfacet
  facet normal -0.778409 -0.221141 -0.587517
    outer loop
      vertex 7.41881 0 6.06374
      vertex 5.845 5.93702 5.91421
      vertex 6.19479 6.05067 5.40798
    endloop
  endfacet
  facet normal -0.778409 -0.221141 -0.587517
    outer loop
      vertex 5.845 5.93702 5.91421
      vertex 7.41881 0 6.06374
      vertex 7.23656 0 6.3052
    endloop
  endfacet
  facet normal -0.0488855 -0.308647 0.94992
    outer loop
      vertex 4.59668 5.79756 2.52462
      vertex 4.78058 6.36354 2.71799
      vertex 4.5 6.40798 2.71799
    endloop
  endfacet
  facet normal -0.673286 -0.673286 0.30557
    outer loop
      vertex 5.54744 6.94168 3.59202
      vertex 6.09811 6.6611 4.18713
      vertex 5.6611 7.09811 4.18713
    endloop
  endfacet
  facet normal -0.673286 -0.673286 0.30557
    outer loop
      vertex 6.09811 6.6611 4.18713
      vertex 5.54744 6.94168 3.59202
      vertex 5.94168 6.54744 3.59202
    endloop
  endfacet
  facet normal 0.432276 -0.84839 0.305569
    outer loop
      vertex 3.94933 7.19479 3.59202
      vertex 3.88958 7.37869 4.18713
      vertex 3.3389 7.09811 4.18713
    endloop
  endfacet
  facet normal 0.925418 -0.220599 -0.308119
    outer loop
      vertex 1.48679 0 5.78021
      vertex 2.8052 6.05067 5.40798
      vertex 1.58119 0 6.06374
    endloop
  endfacet
  facet normal 0.925418 -0.220599 -0.308119
    outer loop
      vertex 2.8052 6.05067 5.40798
      vertex 1.48679 0 5.78021
      vertex 2.6213 6.11042 4.81287
    endloop
  endfacet
  facet normal 0.84839 -0.432276 -0.305569
    outer loop
      vertex 2.90189 6.6611 4.81287
      vertex 2.8052 6.05067 5.40798
      vertex 2.6213 6.11042 4.81287
    endloop
  endfacet
  facet normal 0.891007 -0.45399 0
    outer loop
      vertex 2.6213 6.11042 4.81287
      vertex 2.90189 6.6611 4.18713
      vertex 2.90189 6.6611 4.81287
    endloop
  endfacet
  facet normal 0.891007 -0.45399 0
    outer loop
      vertex 2.90189 6.6611 4.18713
      vertex 2.6213 6.11042 4.81287
      vertex 2.6213 6.11042 4.18713
    endloop
  endfacet
  facet normal 0.148952 -0.940447 -0.305569
    outer loop
      vertex 4.5 7.47538 4.81287
      vertex 4.5 7.28201 5.40798
      vertex 3.88958 7.37869 4.81287
    endloop
  endfacet
  facet normal 0.418996 -0.418996 -0.805534
    outer loop
      vertex 3.76543 6.0337 6.28201
      vertex 3.66875 6.64412 5.91421
      vertex 3.9663 6.23457 6.28201
    endloop
  endfacet
  facet normal 0.418996 -0.418996 -0.805534
    outer loop
      vertex 3.66875 6.64412 5.91421
      vertex 3.76543 6.0337 6.28201
      vertex 3.35588 6.33125 5.91421
    endloop
  endfacet
  facet normal 0.127097 -0.802456 -0.583019
    outer loop
      vertex 4.5 7.28201 5.40798
      vertex 4.5 6.91421 5.91421
      vertex 4.06298 6.845 5.91421
    endloop
  endfacet
  facet normal 0.432276 -0.848389 -0.30557
    outer loop
      vertex 3.94933 7.19479 5.40798
      vertex 3.45256 6.94168 5.40798
      vertex 3.3389 7.09811 4.81287
    endloop
  endfacet
  facet normal -0.269012 -0.527966 -0.805533
    outer loop
      vertex 4.93702 6.845 5.91421
      vertex 5.33125 6.64412 5.91421
      vertex 4.78058 6.36354 6.28201
    endloop
  endfacet
  facet normal -0.220953 -0.220978 -0.94992
    outer loop
      vertex 5.0337 6.23457 6.28201
      vertex 5.43977 0 7.63789
      vertex 4.98811 0 7.74295
    endloop
  endfacet
  facet normal 0.141871 -0.278433 0.94992
    outer loop
      vertex 4.3161 5.75312 2.52462
      vertex 4.40332 5.79756 2.52462
      vertex 3.9663 6.23457 2.71799
    endloop
  endfacet
  facet normal 0.220952 -0.220978 0.94992
    outer loop
      vertex 4.3161 5.75312 2.52462
      vertex 4.01189 0 1.25705
      vertex 4.19415 0 1.21465
    endloop
  endfacet
  facet normal 0.220952 -0.220978 0.949921
    outer loop
      vertex 4.01189 0 1.25705
      vertex 4.3161 5.75312 2.52462
      vertex 3.9663 6.23457 2.71799
    endloop
  endfacet
  facet normal -0.527966 -0.269012 0.805533
    outer loop
      vertex 5.845 5.93702 3.08579
      vertex 5.64412 6.33125 3.08579
      vertex 5.36354 5.78058 2.71799
    endloop
  endfacet
  facet normal -0.418996 -0.418996 0.805534
    outer loop
      vertex 5.33125 6.64412 3.08579
      vertex 5.23457 6.0337 2.71799
      vertex 5.64412 6.33125 3.08579
    endloop
  endfacet
  facet normal -0.418996 -0.418996 0.805534
    outer loop
      vertex 5.23457 6.0337 2.71799
      vertex 5.33125 6.64412 3.08579
      vertex 5.0337 6.23457 2.71799
    endloop
  endfacet
  facet normal -0.113557 -0.222866 0.968212
    outer loop
      vertex 4.6839 5.75312 2.52462
      vertex 4.76061 0 1.20935
      vertex 4.80585 0 1.21465
    endloop
  endfacet
  facet normal -0.113558 -0.222866 0.968212
    outer loop
      vertex 4.76061 0 1.20935
      vertex 4.6839 5.75312 2.52462
      vertex 4.59668 5.79756 2.52462
    endloop
  endfacet
  facet normal 0.0488822 -0.308647 0.94992
    outer loop
      vertex 4.5 5.81287 2.52462
      vertex 4.5 6.40798 2.71799
      vertex 4.40332 5.79756 2.52462
    endloop
  endfacet
  facet normal -0.0488827 -0.308647 0.94992
    outer loop
      vertex 4.59668 5.79756 2.52462
      vertex 4.5 6.40798 2.71799
      vertex 4.5 5.81287 2.52462
    endloop
  endfacet
  facet normal 0.092696 -0.585255 0.805534
    outer loop
      vertex 4.21942 6.36354 2.71799
      vertex 4.5 6.40798 2.71799
      vertex 4.06298 6.845 3.08579
    endloop
  endfacet
  facet normal -0.673286 -0.673286 -0.30557
    outer loop
      vertex 6.09811 6.6611 4.81287
      vertex 5.54744 6.94168 5.40798
      vertex 5.6611 7.09811 4.81287
    endloop
  endfacet
  facet normal -0.673286 -0.673286 -0.30557
    outer loop
      vertex 5.54744 6.94168 5.40798
      vertex 6.09811 6.6611 4.81287
      vertex 5.94168 6.54744 5.40798
    endloop
  endfacet
  facet normal 0.545675 -0.221051 0.808316
    outer loop
      vertex 3.05924 0 1.52683
      vertex 3.63646 5.78058 2.71799
      vertex 2.47142 0 1.92366
    endloop
  endfacet
  facet normal -0.432276 -0.848389 -0.30557
    outer loop
      vertex 5.6611 7.09811 4.81287
      vertex 5.54744 6.94168 5.40798
      vertex 5.05067 7.19479 5.40798
    endloop
  endfacet
  facet normal -0.368849 -0.723906 -0.583019
    outer loop
      vertex 5.05067 7.19479 5.40798
      vertex 5.54744 6.94168 5.40798
      vertex 4.93702 6.845 5.91421
    endloop
  endfacet
  facet normal 0.848389 -0.432276 0.30557
    outer loop
      vertex 3.05832 6.54744 3.59202
      vertex 2.90189 6.6611 4.18713
      vertex 2.8052 6.05067 3.59202
    endloop
  endfacet
  facet normal 0.156434 -0.987688 0
    outer loop
      vertex 3.88958 7.37869 4.18713
      vertex 4.5 7.47538 4.81287
      vertex 3.88958 7.37869 4.81287
    endloop
  endfacet
  facet normal 0.156434 -0.987688 0
    outer loop
      vertex 4.5 7.47538 4.81287
      vertex 3.88958 7.37869 4.18713
      vertex 4.5 7.47538 4.18713
    endloop
  endfacet
  facet normal -0.723906 -0.368849 -0.583019
    outer loop
      vertex 5.94168 6.54744 5.40798
      vertex 6.19479 6.05067 5.40798
      vertex 5.845 5.93702 5.91421
    endloop
  endfacet
  facet normal -0.84839 -0.432276 -0.305569
    outer loop
      vertex 6.37869 6.11042 4.81287
      vertex 6.19479 6.05067 5.40798
      vertex 6.09811 6.6611 4.81287
    endloop
  endfacet
  facet normal -0.545675 -0.221051 -0.808317
    outer loop
      vertex 6.52858 0 7.07634
      vertex 5.845 5.93702 5.91421
      vertex 6.78537 0 6.90298
    endloop
  endfacet
  facet normal -0.545675 -0.221051 -0.808316
    outer loop
      vertex 5.845 5.93702 5.91421
      vertex 6.52858 0 7.07634
      vertex 5.36354 5.78058 6.28201
    endloop
  endfacet
  facet normal 0.127097 -0.802456 0.583019
    outer loop
      vertex 4.06298 6.845 3.08579
      vertex 4.5 7.28201 3.59202
      vertex 3.94933 7.19479 3.59202
    endloop
  endfacet
  facet normal 0.848389 -0.432276 -0.30557
    outer loop
      vertex 2.90189 6.6611 4.81287
      vertex 3.05832 6.54744 5.40798
      vertex 2.8052 6.05067 5.40798
    endloop
  endfacet
  facet normal 0.975431 -0.220306 0
    outer loop
      vertex 1.24124 0 5.0427
      vertex 2.6213 6.11042 4.18713
      vertex 2.6213 6.11042 4.81287
    endloop
  endfacet
  facet normal 0.975431 -0.220306 0
    outer loop
      vertex 2.6213 6.11042 4.18713
      vertex 1.24124 0 5.0427
      vertex 1.24124 0 3.9573
    endloop
  endfacet
  facet normal 0.707107 -0.707107 0
    outer loop
      vertex 2.90189 6.6611 4.81287
      vertex 3.3389 7.09811 4.18713
      vertex 3.3389 7.09811 4.81287
    endloop
  endfacet
  facet normal 0.707107 -0.707107 0
    outer loop
      vertex 3.3389 7.09811 4.18713
      vertex 2.90189 6.6611 4.81287
      vertex 2.90189 6.6611 4.18713
    endloop
  endfacet
  facet normal 0.438017 -0.22318 0.870822
    outer loop
      vertex 3.18434 0 1.46391
      vertex 3.63646 5.78058 2.71799
      vertex 3.05924 0 1.52683
    endloop
  endfacet
  facet normal 0.438015 -0.223181 0.870823
    outer loop
      vertex 3.63646 5.78058 2.71799
      vertex 3.23746 0 1.43719
      vertex 3.76543 6.0337 2.71799
    endloop
  endfacet
  facet normal 0.438016 -0.22318 0.870823
    outer loop
      vertex 3.23746 0 1.43719
      vertex 3.63646 5.78058 2.71799
      vertex 3.18434 0 1.46391
    endloop
  endfacet
  facet normal 0.432276 -0.84839 -0.305569
    outer loop
      vertex 3.88958 7.37869 4.81287
      vertex 3.94933 7.19479 5.40798
      vertex 3.3389 7.09811 4.81287
    endloop
  endfacet
  facet normal -0.148953 -0.940447 -0.30557
    outer loop
      vertex 5.11042 7.37869 4.81287
      vertex 5.05067 7.19479 5.40798
      vertex 4.5 7.28201 5.40798
    endloop
  endfacet
  facet normal -0.148952 -0.940447 -0.305569
    outer loop
      vertex 4.5 7.47538 4.81287
      vertex 5.11042 7.37869 4.81287
      vertex 4.5 7.28201 5.40798
    endloop
  endfacet
  facet normal 0.113558 -0.222866 -0.968212
    outer loop
      vertex 4.23939 0 7.79065
      vertex 4.3161 5.75312 6.47538
      vertex 4.40332 5.79756 6.47538
    endloop
  endfacet
  facet normal 0.113554 -0.222866 -0.968213
    outer loop
      vertex 4.3161 5.75312 6.47538
      vertex 4.23939 0 7.79065
      vertex 4.19415 0 7.78534
    endloop
  endfacet
  facet normal -0.0926957 -0.585255 -0.805533
    outer loop
      vertex 4.5 6.91421 5.91421
      vertex 4.93702 6.845 5.91421
      vertex 4.5 6.40798 6.28201
    endloop
  endfacet
  facet normal -0.723906 -0.368849 -0.583019
    outer loop
      vertex 5.94168 6.54744 5.40798
      vertex 5.845 5.93702 5.91421
      vertex 5.64412 6.33125 5.91421
    endloop
  endfacet
  facet normal 0.14187 -0.278434 -0.94992
    outer loop
      vertex 4.21942 6.36354 6.28201
      vertex 4.40332 5.79756 6.47538
      vertex 3.9663 6.23457 6.28201
    endloop
  endfacet
  facet normal -0.438016 -0.22318 0.870823
    outer loop
      vertex 5.36354 5.78058 2.71799
      vertex 5.76254 0 1.43719
      vertex 5.81566 0 1.46391
    endloop
  endfacet
  facet normal -0.438015 -0.223181 0.870823
    outer loop
      vertex 5.76254 0 1.43719
      vertex 5.36354 5.78058 2.71799
      vertex 5.23457 6.0337 2.71799
    endloop
  endfacet
  facet normal -0.14187 -0.278434 0.94992
    outer loop
      vertex 5.0337 6.23457 2.71799
      vertex 4.78058 6.36354 2.71799
      vertex 4.59668 5.79756 2.52462
    endloop
  endfacet
  facet normal -0.432276 -0.848389 0.30557
    outer loop
      vertex 5.54744 6.94168 3.59202
      vertex 5.6611 7.09811 4.18713
      vertex 5.05067 7.19479 3.59202
    endloop
  endfacet
  facet normal -0.527966 -0.269013 0.805534
    outer loop
      vertex 5.36354 5.78058 2.71799
      vertex 5.64412 6.33125 3.08579
      vertex 5.23457 6.0337 2.71799
    endloop
  endfacet
  facet normal 0.0488853 -0.308647 0.94992
    outer loop
      vertex 4.40332 5.79756 2.52462
      vertex 4.5 6.40798 2.71799
      vertex 4.21942 6.36354 2.71799
    endloop
  endfacet
  facet normal 0.14187 -0.278434 0.94992
    outer loop
      vertex 4.40332 5.79756 2.52462
      vertex 4.21942 6.36354 2.71799
      vertex 3.9663 6.23457 2.71799
    endloop
  endfacet
  facet normal -0.127097 -0.802456 0.583019
    outer loop
      vertex 4.93702 6.845 3.08579
      vertex 4.5 7.28201 3.59202
      vertex 4.5 6.91421 3.08579
    endloop
  endfacet
  facet normal 0.148952 -0.940447 0.305569
    outer loop
      vertex 4.5 7.28201 3.59202
      vertex 4.5 7.47538 4.18713
      vertex 3.88958 7.37869 4.18713
    endloop
  endfacet
  facet normal 0.113558 -0.222866 0.968212
    outer loop
      vertex 4.3161 5.75312 2.52462
      vertex 4.23939 0 1.20935
      vertex 4.40332 5.79756 2.52462
    endloop
  endfacet
  facet normal 0.113557 -0.222866 0.968212
    outer loop
      vertex 4.23939 0 1.20935
      vertex 4.3161 5.75312 2.52462
      vertex 4.19415 0 1.21465
    endloop
  endfacet
  facet normal 0.113558 -0.222866 0.968212
    outer loop
      vertex 4.33838 0 1.19774
      vertex 4.40332 5.79756 2.52462
      vertex 4.23939 0 1.20935
    endloop
  endfacet
  facet normal -0.148952 -0.940447 0.305569
    outer loop
      vertex 5.11042 7.37869 4.18713
      vertex 4.5 7.47538 4.18713
      vertex 4.5 7.28201 3.59202
    endloop
  endfacet
  facet normal -0.148953 -0.940447 0.30557
    outer loop
      vertex 5.05067 7.19479 3.59202
      vertex 5.11042 7.37869 4.18713
      vertex 4.5 7.28201 3.59202
    endloop
  endfacet
  facet normal -0.891007 -0.45399 0
    outer loop
      vertex 6.37869 6.11042 4.18713
      vertex 6.09811 6.6611 4.81287
      vertex 6.09811 6.6611 4.18713
    endloop
  endfacet
  facet normal -0.891007 -0.45399 0
    outer loop
      vertex 6.09811 6.6611 4.81287
      vertex 6.37869 6.11042 4.18713
      vertex 6.37869 6.11042 4.81287
    endloop
  endfacet
  facet normal -0.84839 -0.432276 0.305569
    outer loop
      vertex 6.19479 6.05067 3.59202
      vertex 6.37869 6.11042 4.18713
      vertex 6.09811 6.6611 4.18713
    endloop
  endfacet
  facet normal -0.418996 -0.418996 -0.805534
    outer loop
      vertex 5.23457 6.0337 6.28201
      vertex 5.33125 6.64412 5.91421
      vertex 5.64412 6.33125 5.91421
    endloop
  endfacet
  facet normal -0.418996 -0.418996 -0.805534
    outer loop
      vertex 5.33125 6.64412 5.91421
      vertex 5.23457 6.0337 6.28201
      vertex 5.0337 6.23457 6.28201
    endloop
  endfacet
  facet normal -0.574495 -0.574495 -0.583019
    outer loop
      vertex 5.64412 6.33125 5.91421
      vertex 5.54744 6.94168 5.40798
      vertex 5.94168 6.54744 5.40798
    endloop
  endfacet
  facet normal -0.574495 -0.574495 -0.583019
    outer loop
      vertex 5.54744 6.94168 5.40798
      vertex 5.64412 6.33125 5.91421
      vertex 5.33125 6.64412 5.91421
    endloop
  endfacet
  facet normal -0.438018 -0.22318 -0.870822
    outer loop
      vertex 5.76254 0 7.56281
      vertex 5.36354 5.78058 6.28201
      vertex 5.81566 0 7.53609
    endloop
  endfacet
  facet normal -0.438015 -0.22318 -0.870823
    outer loop
      vertex 5.36354 5.78058 6.28201
      vertex 5.76254 0 7.56281
      vertex 5.23457 6.0337 6.28201
    endloop
  endfacet
  facet normal 0.527966 -0.269013 0.805534
    outer loop
      vertex 3.63646 5.78058 2.71799
      vertex 3.76543 6.0337 2.71799
      vertex 3.35588 6.33125 3.08579
    endloop
  endfacet
  facet normal 0.418996 -0.418996 0.805534
    outer loop
      vertex 3.66875 6.64412 3.08579
      vertex 3.76543 6.0337 2.71799
      vertex 3.9663 6.23457 2.71799
    endloop
  endfacet
  facet normal 0.418996 -0.418996 0.805534
    outer loop
      vertex 3.76543 6.0337 2.71799
      vertex 3.66875 6.64412 3.08579
      vertex 3.35588 6.33125 3.08579
    endloop
  endfacet
  facet normal 0.545675 -0.221051 0.808316
    outer loop
      vertex 3.155 5.93702 3.08579
      vertex 2.47142 0 1.92366
      vertex 3.63646 5.78058 2.71799
    endloop
  endfacet
  facet normal 0.545676 -0.221051 0.808316
    outer loop
      vertex 2.47142 0 1.92366
      vertex 3.155 5.93702 3.08579
      vertex 2.21463 0 2.09701
    endloop
  endfacet
  facet normal 0.778409 -0.221141 0.587517
    outer loop
      vertex 2.21463 0 2.09701
      vertex 3.155 5.93702 3.08579
      vertex 1.76344 0 2.6948
    endloop
  endfacet
  facet normal 0.269012 -0.527966 0.805533
    outer loop
      vertex 4.21942 6.36354 2.71799
      vertex 4.06298 6.845 3.08579
      vertex 3.66875 6.64412 3.08579
    endloop
  endfacet
  facet normal 0.269013 -0.527966 0.805534
    outer loop
      vertex 3.9663 6.23457 2.71799
      vertex 4.21942 6.36354 2.71799
      vertex 3.66875 6.64412 3.08579
    endloop
  endfacet
  facet normal 0.673286 -0.673286 0.30557
    outer loop
      vertex 2.90189 6.6611 4.18713
      vertex 3.45256 6.94168 3.59202
      vertex 3.3389 7.09811 4.18713
    endloop
  endfacet
  facet normal 0.673286 -0.673286 0.30557
    outer loop
      vertex 3.45256 6.94168 3.59202
      vertex 2.90189 6.6611 4.18713
      vertex 3.05832 6.54744 3.59202
    endloop
  endfacet
  facet normal 0.84839 -0.432276 0.305569
    outer loop
      vertex 2.8052 6.05067 3.59202
      vertex 2.90189 6.6611 4.18713
      vertex 2.6213 6.11042 4.18713
    endloop
  endfacet
  facet normal 0.925418 -0.2206 0.308119
    outer loop
      vertex 1.48679 0 3.21979
      vertex 2.8052 6.05067 3.59202
      vertex 2.6213 6.11042 4.18713
    endloop
  endfacet
  facet normal 0.925418 -0.2206 0.308119
    outer loop
      vertex 2.8052 6.05067 3.59202
      vertex 1.48679 0 3.21979
      vertex 1.58119 0 2.93626
    endloop
  endfacet
  facet normal 0.0926955 -0.585255 -0.805533
    outer loop
      vertex 4.5 6.91421 5.91421
      vertex 4.5 6.40798 6.28201
      vertex 4.06298 6.845 5.91421
    endloop
  endfacet
  facet normal -0.0488827 -0.308647 -0.94992
    outer loop
      vertex 4.5 6.40798 6.28201
      vertex 4.59668 5.79756 6.47538
      vertex 4.5 5.81287 6.47538
    endloop
  endfacet
  facet normal -0.14187 -0.278434 -0.94992
    outer loop
      vertex 4.78058 6.36354 6.28201
      vertex 5.0337 6.23457 6.28201
      vertex 4.59668 5.79756 6.47538
    endloop
  endfacet
  facet normal 0.092696 -0.585255 -0.805534
    outer loop
      vertex 4.5 6.40798 6.28201
      vertex 4.21942 6.36354 6.28201
      vertex 4.06298 6.845 5.91421
    endloop
  endfacet
  facet normal -0.0353694 -0.223338 -0.974099
    outer loop
      vertex 4.5 0 7.80813
      vertex 4.59668 5.79756 6.47538
      vertex 4.55015 0 7.80631
    endloop
  endfacet
  facet normal -0.0353717 -0.223338 -0.974099
    outer loop
      vertex 4.59668 5.79756 6.47538
      vertex 4.5 0 7.80813
      vertex 4.5 5.81287 6.47538
    endloop
  endfacet
  facet normal 0.527966 -0.269012 -0.805533
    outer loop
      vertex 3.35588 6.33125 5.91421
      vertex 3.63646 5.78058 6.28201
      vertex 3.155 5.93702 5.91421
    endloop
  endfacet
  facet normal 0.545675 -0.221051 -0.808316
    outer loop
      vertex 2.47142 0 7.07634
      vertex 3.155 5.93702 5.91421
      vertex 3.63646 5.78058 6.28201
    endloop
  endfacet
  facet normal 0.545675 -0.221051 -0.808316
    outer loop
      vertex 3.155 5.93702 5.91421
      vertex 2.47142 0 7.07634
      vertex 2.21463 0 6.90298
    endloop
  endfacet
  facet normal 0.220953 -0.220978 -0.94992
    outer loop
      vertex 3.9663 6.23457 6.28201
      vertex 4.01189 0 7.74295
      vertex 3.56023 0 7.63789
    endloop
  endfacet
  facet normal -0.368849 -0.723906 -0.583019
    outer loop
      vertex 5.54744 6.94168 5.40798
      vertex 5.33125 6.64412 5.91421
      vertex 4.93702 6.845 5.91421
    endloop
  endfacet
  facet normal -0.220952 -0.220978 0.94992
    outer loop
      vertex 5.43977 0 1.36211
      vertex 5.0337 6.23457 2.71799
      vertex 4.98811 0 1.25705
    endloop
  endfacet
  facet normal -0.220952 -0.220978 0.949921
    outer loop
      vertex 4.6839 5.75312 2.52462
      vertex 4.98811 0 1.25705
      vertex 5.0337 6.23457 2.71799
    endloop
  endfacet
  facet normal -0.220952 -0.220978 0.94992
    outer loop
      vertex 4.98811 0 1.25705
      vertex 4.6839 5.75312 2.52462
      vertex 4.80585 0 1.21465
    endloop
  endfacet
  facet normal -0.574495 -0.574495 0.583019
    outer loop
      vertex 5.54744 6.94168 3.59202
      vertex 5.64412 6.33125 3.08579
      vertex 5.94168 6.54744 3.59202
    endloop
  endfacet
  facet normal -0.574495 -0.574495 0.583019
    outer loop
      vertex 5.64412 6.33125 3.08579
      vertex 5.54744 6.94168 3.59202
      vertex 5.33125 6.64412 3.08579
    endloop
  endfacet
  facet normal -0.723906 -0.368849 0.583019
    outer loop
      vertex 5.845 5.93702 3.08579
      vertex 5.94168 6.54744 3.59202
      vertex 5.64412 6.33125 3.08579
    endloop
  endfacet
  facet normal -0.368849 -0.723906 0.583019
    outer loop
      vertex 5.33125 6.64412 3.08579
      vertex 5.54744 6.94168 3.59202
      vertex 4.93702 6.845 3.08579
    endloop
  endfacet
  facet normal -0.368849 -0.723906 0.583019
    outer loop
      vertex 5.54744 6.94168 3.59202
      vertex 5.05067 7.19479 3.59202
      vertex 4.93702 6.845 3.08579
    endloop
  endfacet
  facet normal -0.0353717 -0.223338 0.974099
    outer loop
      vertex 4.5 0 1.19187
      vertex 4.59668 5.79756 2.52462
      vertex 4.5 5.81287 2.52462
    endloop
  endfacet
  facet normal -0.0353717 -0.223338 0.974099
    outer loop
      vertex 4.59668 5.79756 2.52462
      vertex 4.5 0 1.19187
      vertex 4.55015 0 1.19369
    endloop
  endfacet
  facet normal 0.0353714 -0.223338 0.974099
    outer loop
      vertex 4.40332 5.79756 2.52462
      vertex 4.5 0 1.19187
      vertex 4.5 5.81287 2.52462
    endloop
  endfacet
  facet normal 0.0353714 -0.223338 0.974099
    outer loop
      vertex 4.5 0 1.19187
      vertex 4.40332 5.79756 2.52462
      vertex 4.44985 0 1.19369
    endloop
  endfacet
  facet normal -0.0353728 -0.223338 0.974099
    outer loop
      vertex 4.66162 0 1.19774
      vertex 4.59668 5.79756 2.52462
      vertex 4.55015 0 1.19369
    endloop
  endfacet
  facet normal -0.113558 -0.222866 0.968212
    outer loop
      vertex 4.66162 0 1.19774
      vertex 4.76061 0 1.20935
      vertex 4.59668 5.79756 2.52462
    endloop
  endfacet
  facet normal -0.0926957 -0.585255 0.805533
    outer loop
      vertex 4.93702 6.845 3.08579
      vertex 4.5 6.91421 3.08579
      vertex 4.5 6.40798 2.71799
    endloop
  endfacet
  facet normal 0.0926955 -0.585255 0.805533
    outer loop
      vertex 4.5 6.40798 2.71799
      vertex 4.5 6.91421 3.08579
      vertex 4.06298 6.845 3.08579
    endloop
  endfacet
  facet normal 0.368849 -0.723906 0.583019
    outer loop
      vertex 4.06298 6.845 3.08579
      vertex 3.94933 7.19479 3.59202
      vertex 3.45256 6.94168 3.59202
    endloop
  endfacet
  facet normal 0.432276 -0.848389 0.30557
    outer loop
      vertex 3.45256 6.94168 3.59202
      vertex 3.94933 7.19479 3.59202
      vertex 3.3389 7.09811 4.18713
    endloop
  endfacet
  facet normal 0.723906 -0.368849 0.583019
    outer loop
      vertex 3.155 5.93702 3.08579
      vertex 3.35588 6.33125 3.08579
      vertex 3.05832 6.54744 3.59202
    endloop
  endfacet
  facet normal 0.723906 -0.368849 0.583019
    outer loop
      vertex 3.155 5.93702 3.08579
      vertex 3.05832 6.54744 3.59202
      vertex 2.8052 6.05067 3.59202
    endloop
  endfacet
  facet normal 0.925418 -0.220599 -0.308119
    outer loop
      vertex 2.6213 6.11042 4.81287
      vertex 1.48679 0 5.78021
      vertex 1.24124 0 5.0427
    endloop
  endfacet
  facet normal -0.113558 -0.222866 -0.968212
    outer loop
      vertex 4.76061 0 7.79065
      vertex 4.66162 0 7.80226
      vertex 4.59668 5.79756 6.47538
    endloop
  endfacet
  facet normal -0.113554 -0.222866 -0.968213
    outer loop
      vertex 4.76061 0 7.79065
      vertex 4.6839 5.75312 6.47538
      vertex 4.80585 0 7.78534
    endloop
  endfacet
  facet normal -0.113558 -0.222866 -0.968212
    outer loop
      vertex 4.6839 5.75312 6.47538
      vertex 4.76061 0 7.79065
      vertex 4.59668 5.79756 6.47538
    endloop
  endfacet
  facet normal -0.0488855 -0.308647 -0.94992
    outer loop
      vertex 4.78058 6.36354 6.28201
      vertex 4.59668 5.79756 6.47538
      vertex 4.5 6.40798 6.28201
    endloop
  endfacet
  facet normal -0.0926963 -0.585255 -0.805534
    outer loop
      vertex 4.93702 6.845 5.91421
      vertex 4.78058 6.36354 6.28201
      vertex 4.5 6.40798 6.28201
    endloop
  endfacet
  facet normal 0.141871 -0.278433 -0.94992
    outer loop
      vertex 4.40332 5.79756 6.47538
      vertex 4.3161 5.75312 6.47538
      vertex 3.9663 6.23457 6.28201
    endloop
  endfacet
  facet normal 0.220952 -0.220978 -0.94992
    outer loop
      vertex 4.01189 0 7.74295
      vertex 4.3161 5.75312 6.47538
      vertex 4.19415 0 7.78534
    endloop
  endfacet
  facet normal 0.220952 -0.220978 -0.949921
    outer loop
      vertex 4.3161 5.75312 6.47538
      vertex 4.01189 0 7.74295
      vertex 3.9663 6.23457 6.28201
    endloop
  endfacet
  facet normal 0.127097 -0.802456 -0.583019
    outer loop
      vertex 4.5 7.28201 5.40798
      vertex 4.06298 6.845 5.91421
      vertex 3.94933 7.19479 5.40798
    endloop
  endfacet
  facet normal 0.368849 -0.723906 -0.583019
    outer loop
      vertex 3.94933 7.19479 5.40798
      vertex 4.06298 6.845 5.91421
      vertex 3.45256 6.94168 5.40798
    endloop
  endfacet
  facet normal 0.527966 -0.269013 -0.805534
    outer loop
      vertex 3.76543 6.0337 6.28201
      vertex 3.63646 5.78058 6.28201
      vertex 3.35588 6.33125 5.91421
    endloop
  endfacet
  facet normal 0.438015 -0.22318 -0.870823
    outer loop
      vertex 3.23746 0 7.56281
      vertex 3.63646 5.78058 6.28201
      vertex 3.76543 6.0337 6.28201
    endloop
  endfacet
  facet normal 0.438018 -0.22318 -0.870822
    outer loop
      vertex 3.63646 5.78058 6.28201
      vertex 3.23746 0 7.56281
      vertex 3.18434 0 7.53609
    endloop
  endfacet
  facet normal -0.527966 -0.269013 -0.805534
    outer loop
      vertex 5.64412 6.33125 5.91421
      vertex 5.36354 5.78058 6.28201
      vertex 5.23457 6.0337 6.28201
    endloop
  endfacet
  facet normal -0.527966 -0.269012 -0.805533
    outer loop
      vertex 5.64412 6.33125 5.91421
      vertex 5.845 5.93702 5.91421
      vertex 5.36354 5.78058 6.28201
    endloop
  endfacet
  facet normal 0.0488822 -0.308647 -0.94992
    outer loop
      vertex 4.5 6.40798 6.28201
      vertex 4.5 5.81287 6.47538
      vertex 4.40332 5.79756 6.47538
    endloop
  endfacet
  facet normal 0.0353691 -0.223338 -0.974099
    outer loop
      vertex 4.40332 5.79756 6.47538
      vertex 4.5 0 7.80813
      vertex 4.44985 0 7.80631
    endloop
  endfacet
  facet normal 0.0353714 -0.223338 -0.974099
    outer loop
      vertex 4.5 0 7.80813
      vertex 4.40332 5.79756 6.47538
      vertex 4.5 5.81287 6.47538
    endloop
  endfacet
  facet normal 0.0488853 -0.308647 -0.94992
    outer loop
      vertex 4.5 6.40798 6.28201
      vertex 4.40332 5.79756 6.47538
      vertex 4.21942 6.36354 6.28201
    endloop
  endfacet
  facet normal 0.368849 -0.723906 -0.583019
    outer loop
      vertex 4.06298 6.845 5.91421
      vertex 3.66875 6.64412 5.91421
      vertex 3.45256 6.94168 5.40798
    endloop
  endfacet
  facet normal 0.269012 -0.527966 -0.805533
    outer loop
      vertex 4.06298 6.845 5.91421
      vertex 4.21942 6.36354 6.28201
      vertex 3.66875 6.64412 5.91421
    endloop
  endfacet
  facet normal 0.269013 -0.527966 -0.805534
    outer loop
      vertex 4.21942 6.36354 6.28201
      vertex 3.9663 6.23457 6.28201
      vertex 3.66875 6.64412 5.91421
    endloop
  endfacet
endsolid OpenSCAD_Model
