solid OpenSCAD_Model
  facet normal -1 0 0
    outer loop
      vertex 0 0 0
      vertex 0 15 9.02
      vertex 0 15 0
    endloop
  endfacet
  facet normal -1 -0 0
    outer loop
      vertex 0 15 9.02
      vertex 0 0 0
      vertex 0 0 9.02
    endloop
  endfacet
  facet normal -0 0 1
    outer loop
      vertex 0 15 9.02
      vertex 9.02 0 9.02
      vertex 9.02 15 9.02
    endloop
  endfacet
  facet normal 0 0 1
    outer loop
      vertex 9.02 0 9.02
      vertex 0 15 9.02
      vertex 0 0 9.02
    endloop
  endfacet
  facet normal 1 -0 0
    outer loop
      vertex 9.02 0 9.02
      vertex 9.02 15 0
      vertex 9.02 15 9.02
    endloop
  endfacet
  facet normal 1 0 0
    outer loop
      vertex 9.02 15 0
      vertex 9.02 0 9.02
      vertex 9.02 0 0
    endloop
  endfacet
  facet normal 0 1 -0
    outer loop
      vertex 9.02 15 0
      vertex 0 15 9.02
      vertex 9.02 15 9.02
    endloop
  endfacet
  facet normal 0 1 0
    outer loop
      vertex 0 15 9.02
      vertex 9.02 15 0
      vertex 0 15 0
    endloop
  endfacet
  facet normal 0 0 -1
    outer loop
      vertex 0 0 0
      vertex 9.02 15 0
      vertex 9.02 0 0
    endloop
  endfacet
  facet normal -0 0 -1
    outer loop
      vertex 9.02 15 0
      vertex 0 0 0
      vertex 0 15 0
    endloop
  endfacet
  facet normal 0 -1 0
    outer loop
      vertex 0 0 9.02
      vertex 4.5 0 7.08972
      vertex 9.02 0 9.02
    endloop
  endfacet
  facet normal 0 -1 0
    outer loop
      vertex 0 0 9.02
      vertex 4.30907 0 7.07914
      vertex 4.5 0 7.08972
    endloop
  endfacet
  facet normal 0 -1 0
    outer loop
      vertex 0 0 9.02
      vertex 4.09577 0 7.06731
      vertex 4.30907 0 7.07914
    endloop
  endfacet
  facet normal 0 -1 0
    outer loop
      vertex 0 0 9.02
      vertex 3.91755 0 7.03491
      vertex 4.09577 0 7.06731
    endloop
  endfacet
  facet normal 0 -1 0
    outer loop
      vertex 0 0 9.02
      vertex 3.74994 0 7.00443
      vertex 3.91755 0 7.03491
    endloop
  endfacet
  facet normal 0 -1 0
    outer loop
      vertex 0 0 9.02
      vertex 3.50557 0 6.9124
      vertex 3.74994 0 7.00443
    endloop
  endfacet
  facet normal 0 -1 0
    outer loop
      vertex 0 0 9.02
      vertex 3.20491 0 6.73128
      vertex 3.50557 0 6.9124
    endloop
  endfacet
  facet normal 0 -1 0
    outer loop
      vertex 0 0 9.02
      vertex 2.86198 0 6.5247
      vertex 3.20491 0 6.73128
    endloop
  endfacet
  facet normal 0 -1 0
    outer loop
      vertex 0 0 9.02
      vertex 2.78763 0 6.45411
      vertex 2.86198 0 6.5247
    endloop
  endfacet
  facet normal 0 -1 0
    outer loop
      vertex 0 0 9.02
      vertex 2.71086 0 6.38122
      vertex 2.78763 0 6.45411
    endloop
  endfacet
  facet normal 0 -1 0
    outer loop
      vertex 0 0 9.02
      vertex 2.42671 0 6.02172
      vertex 2.71086 0 6.38122
    endloop
  endfacet
  facet normal 0 -1 0
    outer loop
      vertex 0 0 9.02
      vertex 2.19853 0 5.73301
      vertex 2.42671 0 6.02172
    endloop
  endfacet
  facet normal 0 -1 0
    outer loop
      vertex 0 0 9.02
      vertex 2.04899 0 5.30085
      vertex 2.19853 0 5.73301
    endloop
  endfacet
  facet normal 0 -1 0
    outer loop
      vertex 0 0 9.02
      vertex 1.92051 0 4.92957
      vertex 2.04899 0 5.30085
    endloop
  endfacet
  facet normal 0 -1 0
    outer loop
      vertex 0 0 9.02
      vertex 1.92051 0 4.07042
      vertex 1.92051 0 4.92957
    endloop
  endfacet
  facet normal 0 -1 0
    outer loop
      vertex 0 0 0
      vertex 1.92051 0 4.07042
      vertex 0 0 9.02
    endloop
  endfacet
  facet normal 0 -1 -0
    outer loop
      vertex 1.92051 0 4.07042
      vertex 0 0 0
      vertex 2.04899 0 3.69915
    endloop
  endfacet
  facet normal 0 -1 -0
    outer loop
      vertex 4.30907 0 1.92086
      vertex 0 0 0
      vertex 4.5 0 1.91028
    endloop
  endfacet
  facet normal 0 -1 -0
    outer loop
      vertex 4.09577 0 1.93269
      vertex 0 0 0
      vertex 4.30907 0 1.92086
    endloop
  endfacet
  facet normal 0 -1 -0
    outer loop
      vertex 3.91755 0 1.96509
      vertex 0 0 0
      vertex 4.09577 0 1.93269
    endloop
  endfacet
  facet normal 0 -1 -0
    outer loop
      vertex 3.74994 0 1.99557
      vertex 0 0 0
      vertex 3.91755 0 1.96509
    endloop
  endfacet
  facet normal 0 -1 -0
    outer loop
      vertex 3.50557 0 2.0876
      vertex 0 0 0
      vertex 3.74994 0 1.99557
    endloop
  endfacet
  facet normal 0 -1 -0
    outer loop
      vertex 3.20491 0 2.26872
      vertex 0 0 0
      vertex 3.50557 0 2.0876
    endloop
  endfacet
  facet normal 0 -1 -0
    outer loop
      vertex 2.86198 0 2.4753
      vertex 0 0 0
      vertex 3.20491 0 2.26872
    endloop
  endfacet
  facet normal 0 -1 -0
    outer loop
      vertex 2.78763 0 2.54589
      vertex 0 0 0
      vertex 2.86198 0 2.4753
    endloop
  endfacet
  facet normal 0 -1 -0
    outer loop
      vertex 2.71086 0 2.61878
      vertex 0 0 0
      vertex 2.78763 0 2.54589
    endloop
  endfacet
  facet normal 0 -1 -0
    outer loop
      vertex 2.42671 0 2.97828
      vertex 0 0 0
      vertex 2.71086 0 2.61878
    endloop
  endfacet
  facet normal 0 -1 -0
    outer loop
      vertex 2.19853 0 3.26699
      vertex 0 0 0
      vertex 2.42671 0 2.97828
    endloop
  endfacet
  facet normal 0 -1 -0
    outer loop
      vertex 2.04899 0 3.69915
      vertex 0 0 0
      vertex 2.19853 0 3.26699
    endloop
  endfacet
  facet normal 0 -1 0
    outer loop
      vertex 4.69093 0 7.07914
      vertex 9.02 0 9.02
      vertex 4.5 0 7.08972
    endloop
  endfacet
  facet normal 0 -1 0
    outer loop
      vertex 4.90423 0 7.06731
      vertex 9.02 0 9.02
      vertex 4.69093 0 7.07914
    endloop
  endfacet
  facet normal 0 -1 0
    outer loop
      vertex 5.08245 0 7.03491
      vertex 9.02 0 9.02
      vertex 4.90423 0 7.06731
    endloop
  endfacet
  facet normal 0 -1 0
    outer loop
      vertex 5.25005 0 7.00443
      vertex 9.02 0 9.02
      vertex 5.08245 0 7.03491
    endloop
  endfacet
  facet normal 0 -1 0
    outer loop
      vertex 5.49443 0 6.9124
      vertex 9.02 0 9.02
      vertex 5.25005 0 7.00443
    endloop
  endfacet
  facet normal 0 -1 0
    outer loop
      vertex 5.79509 0 6.73128
      vertex 9.02 0 9.02
      vertex 5.49443 0 6.9124
    endloop
  endfacet
  facet normal 0 -1 0
    outer loop
      vertex 6.13802 0 6.5247
      vertex 9.02 0 9.02
      vertex 5.79509 0 6.73128
    endloop
  endfacet
  facet normal 0 -1 0
    outer loop
      vertex 6.21237 0 6.45411
      vertex 9.02 0 9.02
      vertex 6.13802 0 6.5247
    endloop
  endfacet
  facet normal 0 -1 0
    outer loop
      vertex 6.28914 0 6.38122
      vertex 9.02 0 9.02
      vertex 6.21237 0 6.45411
    endloop
  endfacet
  facet normal 0 -1 0
    outer loop
      vertex 6.57328 0 6.02172
      vertex 9.02 0 9.02
      vertex 6.28914 0 6.38122
    endloop
  endfacet
  facet normal 0 -1 0
    outer loop
      vertex 6.80147 0 5.73301
      vertex 9.02 0 9.02
      vertex 6.57328 0 6.02172
    endloop
  endfacet
  facet normal 0 -1 0
    outer loop
      vertex 6.92811 0 5.36704
      vertex 9.02 0 9.02
      vertex 6.80147 0 5.73301
    endloop
  endfacet
  facet normal 0 -1 0
    outer loop
      vertex 7.07949 0 4.92957
      vertex 9.02 0 9.02
      vertex 6.92811 0 5.36704
    endloop
  endfacet
  facet normal 0 -1 0
    outer loop
      vertex 7.07949 0 4.07042
      vertex 9.02 0 9.02
      vertex 7.07949 0 4.92957
    endloop
  endfacet
  facet normal 0 -1 0
    outer loop
      vertex 9.02 0 0
      vertex 7.07949 0 4.07042
      vertex 6.92811 0 3.63296
    endloop
  endfacet
  facet normal 0 -1 0
    outer loop
      vertex 9.02 0 0
      vertex 6.92811 0 3.63296
      vertex 6.80147 0 3.26699
    endloop
  endfacet
  facet normal 0 -1 0
    outer loop
      vertex 9.02 0 0
      vertex 6.57328 0 2.97828
      vertex 6.28914 0 2.61878
    endloop
  endfacet
  facet normal 0 -1 0
    outer loop
      vertex 9.02 0 0
      vertex 4.5 0 1.91028
      vertex 0 0 0
    endloop
  endfacet
  facet normal 0 -1 0
    outer loop
      vertex 4.5 0 1.91028
      vertex 9.02 0 0
      vertex 4.69093 0 1.92086
    endloop
  endfacet
  facet normal 0 -1 0
    outer loop
      vertex 4.69093 0 1.92086
      vertex 9.02 0 0
      vertex 4.90423 0 1.93269
    endloop
  endfacet
  facet normal 0 -1 0
    outer loop
      vertex 4.90423 0 1.93269
      vertex 9.02 0 0
      vertex 5.08245 0 1.96509
    endloop
  endfacet
  facet normal 0 -1 0
    outer loop
      vertex 5.08245 0 1.96509
      vertex 9.02 0 0
      vertex 5.25005 0 1.99557
    endloop
  endfacet
  facet normal 0 -1 0
    outer loop
      vertex 7.07949 0 4.07042
      vertex 9.02 0 0
      vertex 9.02 0 9.02
    endloop
  endfacet
  facet normal 0 -1 0
    outer loop
      vertex 6.57328 0 2.97828
      vertex 9.02 0 0
      vertex 6.80147 0 3.26699
    endloop
  endfacet
  facet normal 0 -1 0
    outer loop
      vertex 6.21237 0 2.54589
      vertex 9.02 0 0
      vertex 6.28914 0 2.61878
    endloop
  endfacet
  facet normal 0 -1 0
    outer loop
      vertex 6.13802 0 2.4753
      vertex 9.02 0 0
      vertex 6.21237 0 2.54589
    endloop
  endfacet
  facet normal 0 -1 0
    outer loop
      vertex 5.79509 0 2.26872
      vertex 9.02 0 0
      vertex 6.13802 0 2.4753
    endloop
  endfacet
  facet normal 0 -1 0
    outer loop
      vertex 5.49443 0 2.0876
      vertex 9.02 0 0
      vertex 5.79509 0 2.26872
    endloop
  endfacet
  facet normal 0 -1 0
    outer loop
      vertex 5.25005 0 1.99557
      vertex 9.02 0 0
      vertex 5.49443 0 2.0876
    endloop
  endfacet
  facet normal -0.892411 -0.329002 -0.308804
    outer loop
      vertex 6.92811 0 5.36704
      vertex 6.80147 0 5.73301
      vertex 6.19479 1.95067 5.40798
    endloop
  endfacet
  facet normal -0.487245 -0.329163 0.808853
    outer loop
      vertex 5.49443 0 2.0876
      vertex 5.79509 0 2.26872
      vertex 5.23457 1.9337 2.71799
    endloop
  endfacet
  facet normal -0.127097 -0.802456 0.583019
    outer loop
      vertex 4.93702 2.745 3.08579
      vertex 4.5 3.18201 3.59202
      vertex 4.5 2.81421 3.08579
    endloop
  endfacet
  facet normal 0.148952 -0.940447 0.305569
    outer loop
      vertex 4.5 3.18201 3.59202
      vertex 4.5 3.37538 4.18713
      vertex 3.88958 3.27869 4.18713
    endloop
  endfacet
  facet normal 0.892411 -0.329002 -0.308803
    outer loop
      vertex 2.6213 2.01042 4.81287
      vertex 2.04899 0 5.30085
      vertex 1.92051 0 4.92957
    endloop
  endfacet
  facet normal 0.0522459 -0.329867 -0.94258
    outer loop
      vertex 4.21942 2.26354 6.28201
      vertex 4.30907 0 7.07914
      vertex 4.09577 0 7.06731
    endloop
  endfacet
  facet normal 0.84839 -0.432276 -0.305569
    outer loop
      vertex 2.90189 2.5611 4.81287
      vertex 2.8052 1.95067 5.40798
      vertex 2.6213 2.01042 4.81287
    endloop
  endfacet
  facet normal 0.848389 -0.432277 0.305571
    outer loop
      vertex 3.05832 2.44744 3.59202
      vertex 2.90189 2.5611 4.18713
      vertex 2.8052 1.95067 3.59202
    endloop
  endfacet
  facet normal 0.892411 -0.329002 0.308804
    outer loop
      vertex 2.04899 0 3.69915
      vertex 2.6213 2.01042 4.18713
      vertex 1.92051 0 4.07042
    endloop
  endfacet
  facet normal -0.74111 -0.328093 -0.585757
    outer loop
      vertex 6.80147 0 5.73301
      vertex 6.57328 0 6.02172
      vertex 6.19479 1.95067 5.40798
    endloop
  endfacet
  facet normal -0.892411 -0.329003 -0.308804
    outer loop
      vertex 7.07949 0 4.92957
      vertex 6.19479 1.95067 5.40798
      vertex 6.37869 2.01042 4.81287
    endloop
  endfacet
  facet normal -0.892411 -0.329002 -0.308804
    outer loop
      vertex 6.19479 1.95067 5.40798
      vertex 7.07949 0 4.92957
      vertex 6.92811 0 5.36704
    endloop
  endfacet
  facet normal -0.944276 -0.329155 0
    outer loop
      vertex 7.07949 0 4.07042
      vertex 6.37869 2.01042 4.81287
      vertex 6.37869 2.01042 4.18713
    endloop
  endfacet
  facet normal -0.944276 -0.329155 0
    outer loop
      vertex 6.37869 2.01042 4.81287
      vertex 7.07949 0 4.07042
      vertex 7.07949 0 4.92957
    endloop
  endfacet
  facet normal 0.368848 -0.723906 -0.583019
    outer loop
      vertex 3.94933 3.09479 5.40798
      vertex 4.06298 2.745 5.91421
      vertex 3.66875 2.54412 5.91421
    endloop
  endfacet
  facet normal -0.892411 -0.329002 0.308804
    outer loop
      vertex 7.07949 0 4.07042
      vertex 6.19479 1.95067 3.59202
      vertex 6.92811 0 3.63296
    endloop
  endfacet
  facet normal -0.892411 -0.329003 0.308804
    outer loop
      vertex 6.19479 1.95067 3.59202
      vertex 7.07949 0 4.07042
      vertex 6.37869 2.01042 4.18713
    endloop
  endfacet
  facet normal -0.45399 -0.891007 0
    outer loop
      vertex 5.11042 3.27869 4.18713
      vertex 5.6611 2.99811 4.81287
      vertex 5.11042 3.27869 4.81287
    endloop
  endfacet
  facet normal -0.45399 -0.891007 -0
    outer loop
      vertex 5.6611 2.99811 4.81287
      vertex 5.11042 3.27869 4.18713
      vertex 5.6611 2.99811 4.18713
    endloop
  endfacet
  facet normal -0.269013 -0.527966 0.805534
    outer loop
      vertex 5.0337 2.13457 2.71799
      vertex 5.33125 2.54412 3.08579
      vertex 4.78058 2.26354 2.71799
    endloop
  endfacet
  facet normal -0.0926957 -0.585255 0.805533
    outer loop
      vertex 4.78058 2.26354 2.71799
      vertex 4.93702 2.745 3.08579
      vertex 4.5 2.81421 3.08579
    endloop
  endfacet
  facet normal 0.487245 -0.329163 0.808853
    outer loop
      vertex 3.50557 0 2.0876
      vertex 3.76543 1.9337 2.71799
      vertex 3.20491 0 2.26872
    endloop
  endfacet
  facet normal 0.673286 -0.673285 0.305571
    outer loop
      vertex 3.05832 2.44744 3.59202
      vertex 3.45256 2.84168 3.59202
      vertex 2.90189 2.5611 4.18713
    endloop
  endfacet
  facet normal 0.127097 -0.802456 -0.583019
    outer loop
      vertex 4.5 3.18201 5.40798
      vertex 4.5 2.81421 5.91421
      vertex 4.06298 2.745 5.91421
    endloop
  endfacet
  facet normal -0.848389 -0.432277 -0.305571
    outer loop
      vertex 6.09811 2.5611 4.81287
      vertex 6.19479 1.95067 5.40798
      vertex 5.94168 2.44744 5.40798
    endloop
  endfacet
  facet normal -0.892411 -0.329002 0.308804
    outer loop
      vertex 6.80147 0 3.26699
      vertex 6.92811 0 3.63296
      vertex 6.19479 1.95067 3.59202
    endloop
  endfacet
  facet normal -0.723906 -0.368848 0.583019
    outer loop
      vertex 5.845 1.83702 3.08579
      vertex 6.19479 1.95067 3.59202
      vertex 5.64412 2.23125 3.08579
    endloop
  endfacet
  facet normal -0.148952 -0.940447 0.305569
    outer loop
      vertex 5.11042 3.27869 4.18713
      vertex 4.5 3.37538 4.18713
      vertex 4.5 3.18201 3.59202
    endloop
  endfacet
  facet normal -0.723906 -0.368849 0.583018
    outer loop
      vertex 6.19479 1.95067 3.59202
      vertex 5.94168 2.44744 3.59202
      vertex 5.64412 2.23125 3.08579
    endloop
  endfacet
  facet normal -0.64972 -0.331049 0.684303
    outer loop
      vertex 6.13802 0 2.4753
      vertex 6.21237 0 2.54589
      vertex 5.64412 2.23125 3.08579
    endloop
  endfacet
  facet normal -0.649722 -0.331049 0.684301
    outer loop
      vertex 5.845 1.83702 3.08579
      vertex 6.21237 0 2.54589
      vertex 6.28914 0 2.61878
    endloop
  endfacet
  facet normal -0.649721 -0.331049 0.684301
    outer loop
      vertex 6.21237 0 2.54589
      vertex 5.845 1.83702 3.08579
      vertex 5.64412 2.23125 3.08579
    endloop
  endfacet
  facet normal -0.487246 -0.329163 -0.808853
    outer loop
      vertex 5.23457 1.9337 6.28201
      vertex 6.13802 0 6.5247
      vertex 5.79509 0 6.73128
    endloop
  endfacet
  facet normal -0.487245 -0.329163 -0.808853
    outer loop
      vertex 6.13802 0 6.5247
      vertex 5.23457 1.9337 6.28201
      vertex 5.64412 2.23125 5.91421
    endloop
  endfacet
  facet normal 0.487245 -0.329163 0.808853
    outer loop
      vertex 2.86198 0 2.4753
      vertex 3.76543 1.9337 2.71799
      vertex 3.35588 2.23125 3.08579
    endloop
  endfacet
  facet normal 0.487245 -0.329163 0.808853
    outer loop
      vertex 3.76543 1.9337 2.71799
      vertex 2.86198 0 2.4753
      vertex 3.20491 0 2.26872
    endloop
  endfacet
  facet normal 0.74111 -0.328093 0.585757
    outer loop
      vertex 2.42671 0 2.97828
      vertex 2.8052 1.95067 3.59202
      vertex 2.19853 0 3.26699
    endloop
  endfacet
  facet normal 0.74111 -0.328093 0.585757
    outer loop
      vertex 2.42671 0 2.97828
      vertex 3.155 1.83702 3.08579
      vertex 2.8052 1.95067 3.59202
    endloop
  endfacet
  facet normal 0.74111 -0.328093 0.585757
    outer loop
      vertex 3.155 1.83702 3.08579
      vertex 2.42671 0 2.97828
      vertex 2.71086 0 2.61878
    endloop
  endfacet
  facet normal -0.168797 -0.331283 0.92831
    outer loop
      vertex 4.90423 0 1.93269
      vertex 5.08245 0 1.96509
      vertex 4.78058 2.26354 2.71799
    endloop
  endfacet
  facet normal 0.148953 -0.940447 0.30557
    outer loop
      vertex 3.94933 3.09479 3.59202
      vertex 4.5 3.18201 3.59202
      vertex 3.88958 3.27869 4.18713
    endloop
  endfacet
  facet normal 0.574496 -0.574495 0.583018
    outer loop
      vertex 3.35588 2.23125 3.08579
      vertex 3.45256 2.84168 3.59202
      vertex 3.05832 2.44744 3.59202
    endloop
  endfacet
  facet normal -0.0522454 -0.329867 0.94258
    outer loop
      vertex 4.5 0 1.91028
      vertex 4.78058 2.26354 2.71799
      vertex 4.5 2.30798 2.71799
    endloop
  endfacet
  facet normal -0.0522455 -0.329867 0.94258
    outer loop
      vertex 4.78058 2.26354 2.71799
      vertex 4.5 0 1.91028
      vertex 4.69093 0 1.92086
    endloop
  endfacet
  facet normal -0.74111 -0.328093 -0.585757
    outer loop
      vertex 6.57328 0 6.02172
      vertex 5.845 1.83702 5.91421
      vertex 6.19479 1.95067 5.40798
    endloop
  endfacet
  facet normal -0.74111 -0.328093 -0.585756
    outer loop
      vertex 5.845 1.83702 5.91421
      vertex 6.57328 0 6.02172
      vertex 6.28914 0 6.38122
    endloop
  endfacet
  facet normal -0.649722 -0.331049 -0.684301
    outer loop
      vertex 6.21237 0 6.45411
      vertex 5.845 1.83702 5.91421
      vertex 6.28914 0 6.38122
    endloop
  endfacet
  facet normal -0.649722 -0.331049 -0.684301
    outer loop
      vertex 5.845 1.83702 5.91421
      vertex 6.21237 0 6.45411
      vertex 5.64412 2.23125 5.91421
    endloop
  endfacet
  facet normal -0.574495 -0.574495 0.583019
    outer loop
      vertex 5.64412 2.23125 3.08579
      vertex 5.54744 2.84168 3.59202
      vertex 5.33125 2.54412 3.08579
    endloop
  endfacet
  facet normal -0.574495 -0.574495 -0.583019
    outer loop
      vertex 5.54744 2.84168 5.40798
      vertex 5.64412 2.23125 5.91421
      vertex 5.33125 2.54412 5.91421
    endloop
  endfacet
  facet normal -0.368848 -0.723906 0.583019
    outer loop
      vertex 5.33125 2.54412 3.08579
      vertex 5.54744 2.84168 3.59202
      vertex 5.05067 3.09479 3.59202
    endloop
  endfacet
  facet normal -0.673285 -0.673287 -0.305569
    outer loop
      vertex 5.6611 2.99811 4.81287
      vertex 6.09811 2.5611 4.81287
      vertex 5.54744 2.84168 5.40798
    endloop
  endfacet
  facet normal -0.707106 -0.707108 0
    outer loop
      vertex 5.6611 2.99811 4.18713
      vertex 6.09811 2.5611 4.81287
      vertex 5.6611 2.99811 4.81287
    endloop
  endfacet
  facet normal -0.707106 -0.707108 -0
    outer loop
      vertex 6.09811 2.5611 4.81287
      vertex 5.6611 2.99811 4.18713
      vertex 6.09811 2.5611 4.18713
    endloop
  endfacet
  facet normal 0.168798 -0.331283 0.92831
    outer loop
      vertex 3.9663 2.13457 2.71799
      vertex 3.91755 0 1.96509
      vertex 4.21942 2.26354 2.71799
    endloop
  endfacet
  facet normal 0.168798 -0.331283 0.92831
    outer loop
      vertex 3.91755 0 1.96509
      vertex 3.9663 2.13457 2.71799
      vertex 3.74994 0 1.99557
    endloop
  endfacet
  facet normal -0.148953 -0.940447 0.30557
    outer loop
      vertex 5.05067 3.09479 3.59202
      vertex 5.11042 3.27869 4.18713
      vertex 4.5 3.18201 3.59202
    endloop
  endfacet
  facet normal -0.74111 -0.328093 0.585757
    outer loop
      vertex 6.57328 0 2.97828
      vertex 5.845 1.83702 3.08579
      vertex 6.28914 0 2.61878
    endloop
  endfacet
  facet normal -0.74111 -0.328093 0.585757
    outer loop
      vertex 5.845 1.83702 3.08579
      vertex 6.57328 0 2.97828
      vertex 6.19479 1.95067 3.59202
    endloop
  endfacet
  facet normal 0.723906 -0.368849 0.583018
    outer loop
      vertex 3.35588 2.23125 3.08579
      vertex 3.05832 2.44744 3.59202
      vertex 2.8052 1.95067 3.59202
    endloop
  endfacet
  facet normal 0.368848 -0.723906 0.583019
    outer loop
      vertex 3.66875 2.54412 3.08579
      vertex 3.94933 3.09479 3.59202
      vertex 3.45256 2.84168 3.59202
    endloop
  endfacet
  facet normal -0.0522461 -0.329867 0.94258
    outer loop
      vertex 4.90423 0 1.93269
      vertex 4.78058 2.26354 2.71799
      vertex 4.69093 0 1.92086
    endloop
  endfacet
  facet normal 0.156434 -0.987688 0
    outer loop
      vertex 3.88958 3.27869 4.18713
      vertex 4.5 3.37538 4.81287
      vertex 3.88958 3.27869 4.81287
    endloop
  endfacet
  facet normal 0.156434 -0.987688 0
    outer loop
      vertex 4.5 3.37538 4.81287
      vertex 3.88958 3.27869 4.18713
      vertex 4.5 3.37538 4.18713
    endloop
  endfacet
  facet normal 0.723906 -0.368849 -0.583018
    outer loop
      vertex 3.05832 2.44744 5.40798
      vertex 3.35588 2.23125 5.91421
      vertex 2.8052 1.95067 5.40798
    endloop
  endfacet
  facet normal 0.944276 -0.329155 0
    outer loop
      vertex 1.92051 0 4.92957
      vertex 2.6213 2.01042 4.18713
      vertex 2.6213 2.01042 4.81287
    endloop
  endfacet
  facet normal 0.944276 -0.329155 0
    outer loop
      vertex 2.6213 2.01042 4.18713
      vertex 1.92051 0 4.92957
      vertex 1.92051 0 4.07042
    endloop
  endfacet
  facet normal 0.368848 -0.723906 -0.583019
    outer loop
      vertex 3.94933 3.09479 5.40798
      vertex 3.66875 2.54412 5.91421
      vertex 3.45256 2.84168 5.40798
    endloop
  endfacet
  facet normal 0.0926955 -0.585256 0.805533
    outer loop
      vertex 4.21942 2.26354 2.71799
      vertex 4.5 2.81421 3.08579
      vertex 4.06298 2.745 3.08579
    endloop
  endfacet
  facet normal -0.0522461 -0.329867 -0.94258
    outer loop
      vertex 4.78058 2.26354 6.28201
      vertex 4.90423 0 7.06731
      vertex 4.69093 0 7.07914
    endloop
  endfacet
  facet normal 0.649721 -0.331049 -0.684302
    outer loop
      vertex 3.35588 2.23125 5.91421
      vertex 2.86198 0 6.5247
      vertex 2.78763 0 6.45411
    endloop
  endfacet
  facet normal -0.723906 -0.368848 -0.583019
    outer loop
      vertex 6.19479 1.95067 5.40798
      vertex 5.845 1.83702 5.91421
      vertex 5.64412 2.23125 5.91421
    endloop
  endfacet
  facet normal -0.574496 -0.574495 0.583018
    outer loop
      vertex 5.64412 2.23125 3.08579
      vertex 5.94168 2.44744 3.59202
      vertex 5.54744 2.84168 3.59202
    endloop
  endfacet
  facet normal -0.127097 -0.802456 0.583019
    outer loop
      vertex 4.93702 2.745 3.08579
      vertex 5.05067 3.09479 3.59202
      vertex 4.5 3.18201 3.59202
    endloop
  endfacet
  facet normal -0.0926944 -0.585255 -0.805533
    outer loop
      vertex 4.5 2.81421 5.91421
      vertex 4.78058 2.26354 6.28201
      vertex 4.5 2.30798 6.28201
    endloop
  endfacet
  facet normal 0.649722 -0.331049 -0.684301
    outer loop
      vertex 2.78763 0 6.45411
      vertex 3.155 1.83702 5.91421
      vertex 3.35588 2.23125 5.91421
    endloop
  endfacet
  facet normal 0.649723 -0.331049 -0.6843
    outer loop
      vertex 3.155 1.83702 5.91421
      vertex 2.78763 0 6.45411
      vertex 2.71086 0 6.38122
    endloop
  endfacet
  facet normal -0.673285 -0.673287 0.305569
    outer loop
      vertex 6.09811 2.5611 4.18713
      vertex 5.6611 2.99811 4.18713
      vertex 5.54744 2.84168 3.59202
    endloop
  endfacet
  facet normal -0.487245 -0.329163 0.808853
    outer loop
      vertex 5.23457 1.9337 2.71799
      vertex 6.13802 0 2.4753
      vertex 5.64412 2.23125 3.08579
    endloop
  endfacet
  facet normal -0.487246 -0.329163 0.808853
    outer loop
      vertex 6.13802 0 2.4753
      vertex 5.23457 1.9337 2.71799
      vertex 5.79509 0 2.26872
    endloop
  endfacet
  facet normal -0.418996 -0.418996 0.805534
    outer loop
      vertex 5.33125 2.54412 3.08579
      vertex 5.23457 1.9337 2.71799
      vertex 5.64412 2.23125 3.08579
    endloop
  endfacet
  facet normal -0.418996 -0.418996 0.805534
    outer loop
      vertex 5.23457 1.9337 2.71799
      vertex 5.33125 2.54412 3.08579
      vertex 5.0337 2.13457 2.71799
    endloop
  endfacet
  facet normal -0.74111 -0.328093 0.585757
    outer loop
      vertex 6.57328 0 2.97828
      vertex 6.80147 0 3.26699
      vertex 6.19479 1.95067 3.59202
    endloop
  endfacet
  facet normal -0.84839 -0.432276 0.305569
    outer loop
      vertex 6.19479 1.95067 3.59202
      vertex 6.37869 2.01042 4.18713
      vertex 6.09811 2.5611 4.18713
    endloop
  endfacet
  facet normal -0.891007 -0.45399 0
    outer loop
      vertex 6.37869 2.01042 4.18713
      vertex 6.09811 2.5611 4.81287
      vertex 6.09811 2.5611 4.18713
    endloop
  endfacet
  facet normal -0.891007 -0.45399 0
    outer loop
      vertex 6.09811 2.5611 4.81287
      vertex 6.37869 2.01042 4.18713
      vertex 6.37869 2.01042 4.81287
    endloop
  endfacet
  facet normal 0.432275 -0.84839 0.305569
    outer loop
      vertex 3.94933 3.09479 3.59202
      vertex 3.88958 3.27869 4.18713
      vertex 3.45256 2.84168 3.59202
    endloop
  endfacet
  facet normal 0.673285 -0.673287 0.305569
    outer loop
      vertex 3.45256 2.84168 3.59202
      vertex 3.3389 2.99811 4.18713
      vertex 2.90189 2.5611 4.18713
    endloop
  endfacet
  facet normal 0.368848 -0.723906 0.583019
    outer loop
      vertex 4.06298 2.745 3.08579
      vertex 3.94933 3.09479 3.59202
      vertex 3.66875 2.54412 3.08579
    endloop
  endfacet
  facet normal 0.0522452 -0.329867 0.94258
    outer loop
      vertex 4.21942 2.26354 2.71799
      vertex 4.5 0 1.91028
      vertex 4.5 2.30798 2.71799
    endloop
  endfacet
  facet normal 0.0522453 -0.329867 0.94258
    outer loop
      vertex 4.5 0 1.91028
      vertex 4.21942 2.26354 2.71799
      vertex 4.30907 0 1.92086
    endloop
  endfacet
  facet normal 0.332403 -0.332403 0.882619
    outer loop
      vertex 3.76543 1.9337 2.71799
      vertex 3.74994 0 1.99557
      vertex 3.9663 2.13457 2.71799
    endloop
  endfacet
  facet normal 0.332402 -0.332403 0.88262
    outer loop
      vertex 3.74994 0 1.99557
      vertex 3.76543 1.9337 2.71799
      vertex 3.50557 0 2.0876
    endloop
  endfacet
  facet normal 0.418996 -0.418996 0.805534
    outer loop
      vertex 3.66875 2.54412 3.08579
      vertex 3.76543 1.9337 2.71799
      vertex 3.9663 2.13457 2.71799
    endloop
  endfacet
  facet normal 0.418996 -0.418996 0.805534
    outer loop
      vertex 3.76543 1.9337 2.71799
      vertex 3.66875 2.54412 3.08579
      vertex 3.35588 2.23125 3.08579
    endloop
  endfacet
  facet normal 0.649721 -0.331049 0.684302
    outer loop
      vertex 2.86198 0 2.4753
      vertex 3.35588 2.23125 3.08579
      vertex 2.78763 0 2.54589
    endloop
  endfacet
  facet normal 0.707106 -0.707108 0
    outer loop
      vertex 2.90189 2.5611 4.18713
      vertex 3.3389 2.99811 4.81287
      vertex 2.90189 2.5611 4.81287
    endloop
  endfacet
  facet normal 0.707106 -0.707108 0
    outer loop
      vertex 3.3389 2.99811 4.81287
      vertex 2.90189 2.5611 4.18713
      vertex 3.3389 2.99811 4.18713
    endloop
  endfacet
  facet normal 0.168798 -0.331283 -0.92831
    outer loop
      vertex 3.91755 0 7.03491
      vertex 3.9663 2.13457 6.28201
      vertex 4.21942 2.26354 6.28201
    endloop
  endfacet
  facet normal 0.1688 -0.331283 -0.928309
    outer loop
      vertex 3.9663 2.13457 6.28201
      vertex 3.91755 0 7.03491
      vertex 3.74994 0 7.00443
    endloop
  endfacet
  facet normal 0.74111 -0.328093 -0.585757
    outer loop
      vertex 2.8052 1.95067 5.40798
      vertex 2.42671 0 6.02172
      vertex 2.19853 0 5.73301
    endloop
  endfacet
  facet normal -0.432276 -0.84839 -0.305569
    outer loop
      vertex 5.6611 2.99811 4.81287
      vertex 5.54744 2.84168 5.40798
      vertex 5.11042 3.27869 4.81287
    endloop
  endfacet
  facet normal 0.127097 -0.802456 -0.583019
    outer loop
      vertex 4.5 3.18201 5.40798
      vertex 4.06298 2.745 5.91421
      vertex 3.94933 3.09479 5.40798
    endloop
  endfacet
  facet normal 0.84839 -0.432276 0.305569
    outer loop
      vertex 2.8052 1.95067 3.59202
      vertex 2.90189 2.5611 4.18713
      vertex 2.6213 2.01042 4.18713
    endloop
  endfacet
  facet normal 0.892411 -0.329002 0.308804
    outer loop
      vertex 2.04899 0 3.69915
      vertex 2.8052 1.95067 3.59202
      vertex 2.6213 2.01042 4.18713
    endloop
  endfacet
  facet normal 0.892411 -0.329002 0.308803
    outer loop
      vertex 2.8052 1.95067 3.59202
      vertex 2.04899 0 3.69915
      vertex 2.19853 0 3.26699
    endloop
  endfacet
  facet normal 0.649721 -0.331049 0.684301
    outer loop
      vertex 3.155 1.83702 3.08579
      vertex 2.78763 0 2.54589
      vertex 3.35588 2.23125 3.08579
    endloop
  endfacet
  facet normal 0.649723 -0.331049 0.6843
    outer loop
      vertex 2.78763 0 2.54589
      vertex 3.155 1.83702 3.08579
      vertex 2.71086 0 2.61878
    endloop
  endfacet
  facet normal 0.723906 -0.368848 0.583019
    outer loop
      vertex 3.155 1.83702 3.08579
      vertex 3.35588 2.23125 3.08579
      vertex 2.8052 1.95067 3.59202
    endloop
  endfacet
  facet normal -0.332401 -0.332403 -0.88262
    outer loop
      vertex 5.25005 0 7.00443
      vertex 5.23457 1.9337 6.28201
      vertex 5.49443 0 6.9124
    endloop
  endfacet
  facet normal -0.332402 -0.332402 -0.882619
    outer loop
      vertex 5.23457 1.9337 6.28201
      vertex 5.25005 0 7.00443
      vertex 5.0337 2.13457 6.28201
    endloop
  endfacet
  facet normal -0.487245 -0.329163 -0.808854
    outer loop
      vertex 5.79509 0 6.73128
      vertex 5.49443 0 6.9124
      vertex 5.23457 1.9337 6.28201
    endloop
  endfacet
  facet normal -0.723906 -0.368849 -0.583018
    outer loop
      vertex 5.94168 2.44744 5.40798
      vertex 6.19479 1.95067 5.40798
      vertex 5.64412 2.23125 5.91421
    endloop
  endfacet
  facet normal -0.84839 -0.432276 -0.305569
    outer loop
      vertex 6.37869 2.01042 4.81287
      vertex 6.19479 1.95067 5.40798
      vertex 6.09811 2.5611 4.81287
    endloop
  endfacet
  facet normal -0.64972 -0.331049 -0.684303
    outer loop
      vertex 6.21237 0 6.45411
      vertex 6.13802 0 6.5247
      vertex 5.64412 2.23125 5.91421
    endloop
  endfacet
  facet normal 0.0522447 -0.329867 -0.942581
    outer loop
      vertex 4.21942 2.26354 6.28201
      vertex 4.5 0 7.08972
      vertex 4.30907 0 7.07914
    endloop
  endfacet
  facet normal 0.0522452 -0.329867 -0.94258
    outer loop
      vertex 4.5 0 7.08972
      vertex 4.21942 2.26354 6.28201
      vertex 4.5 2.30798 6.28201
    endloop
  endfacet
  facet normal 0.168796 -0.331283 -0.92831
    outer loop
      vertex 4.21942 2.26354 6.28201
      vertex 4.09577 0 7.06731
      vertex 3.91755 0 7.03491
    endloop
  endfacet
  facet normal -0.332402 -0.332403 0.88262
    outer loop
      vertex 5.23457 1.9337 2.71799
      vertex 5.25005 0 1.99557
      vertex 5.49443 0 2.0876
    endloop
  endfacet
  facet normal -0.332403 -0.332403 0.882619
    outer loop
      vertex 5.25005 0 1.99557
      vertex 5.23457 1.9337 2.71799
      vertex 5.0337 2.13457 2.71799
    endloop
  endfacet
  facet normal -0.168798 -0.331283 0.92831
    outer loop
      vertex 5.0337 2.13457 2.71799
      vertex 5.08245 0 1.96509
      vertex 5.25005 0 1.99557
    endloop
  endfacet
  facet normal -0.168798 -0.331283 0.92831
    outer loop
      vertex 5.08245 0 1.96509
      vertex 5.0337 2.13457 2.71799
      vertex 4.78058 2.26354 2.71799
    endloop
  endfacet
  facet normal -0.368848 -0.723906 0.583019
    outer loop
      vertex 5.33125 2.54412 3.08579
      vertex 5.05067 3.09479 3.59202
      vertex 4.93702 2.745 3.08579
    endloop
  endfacet
  facet normal -0.269012 -0.527967 0.805533
    outer loop
      vertex 5.33125 2.54412 3.08579
      vertex 4.93702 2.745 3.08579
      vertex 4.78058 2.26354 2.71799
    endloop
  endfacet
  facet normal -0.432275 -0.84839 0.305569
    outer loop
      vertex 5.54744 2.84168 3.59202
      vertex 5.11042 3.27869 4.18713
      vertex 5.05067 3.09479 3.59202
    endloop
  endfacet
  facet normal -0.432276 -0.84839 0.305569
    outer loop
      vertex 5.54744 2.84168 3.59202
      vertex 5.6611 2.99811 4.18713
      vertex 5.11042 3.27869 4.18713
    endloop
  endfacet
  facet normal 0.269013 -0.527966 0.805534
    outer loop
      vertex 3.9663 2.13457 2.71799
      vertex 4.21942 2.26354 2.71799
      vertex 3.66875 2.54412 3.08579
    endloop
  endfacet
  facet normal 0.269012 -0.527967 0.805533
    outer loop
      vertex 4.21942 2.26354 2.71799
      vertex 4.06298 2.745 3.08579
      vertex 3.66875 2.54412 3.08579
    endloop
  endfacet
  facet normal 0.0926941 -0.585255 0.805534
    outer loop
      vertex 4.5 2.30798 2.71799
      vertex 4.5 2.81421 3.08579
      vertex 4.21942 2.26354 2.71799
    endloop
  endfacet
  facet normal -0.0926944 -0.585255 0.805533
    outer loop
      vertex 4.78058 2.26354 2.71799
      vertex 4.5 2.81421 3.08579
      vertex 4.5 2.30798 2.71799
    endloop
  endfacet
  facet normal 0.45399 -0.891007 0
    outer loop
      vertex 3.3389 2.99811 4.18713
      vertex 3.88958 3.27869 4.81287
      vertex 3.3389 2.99811 4.81287
    endloop
  endfacet
  facet normal 0.45399 -0.891007 0
    outer loop
      vertex 3.88958 3.27869 4.81287
      vertex 3.3389 2.99811 4.18713
      vertex 3.88958 3.27869 4.18713
    endloop
  endfacet
  facet normal 0.432276 -0.84839 0.305569
    outer loop
      vertex 3.45256 2.84168 3.59202
      vertex 3.88958 3.27869 4.18713
      vertex 3.3389 2.99811 4.18713
    endloop
  endfacet
  facet normal 0.418996 -0.418996 -0.805534
    outer loop
      vertex 3.76543 1.9337 6.28201
      vertex 3.66875 2.54412 5.91421
      vertex 3.9663 2.13457 6.28201
    endloop
  endfacet
  facet normal 0.418996 -0.418996 -0.805534
    outer loop
      vertex 3.66875 2.54412 5.91421
      vertex 3.76543 1.9337 6.28201
      vertex 3.35588 2.23125 5.91421
    endloop
  endfacet
  facet normal 0.487245 -0.329163 -0.808853
    outer loop
      vertex 2.86198 0 6.5247
      vertex 3.76543 1.9337 6.28201
      vertex 3.20491 0 6.73128
    endloop
  endfacet
  facet normal 0.487245 -0.329163 -0.808853
    outer loop
      vertex 3.76543 1.9337 6.28201
      vertex 2.86198 0 6.5247
      vertex 3.35588 2.23125 5.91421
    endloop
  endfacet
  facet normal 0.891007 -0.45399 0
    outer loop
      vertex 2.6213 2.01042 4.81287
      vertex 2.90189 2.5611 4.18713
      vertex 2.90189 2.5611 4.81287
    endloop
  endfacet
  facet normal 0.891007 -0.45399 0
    outer loop
      vertex 2.90189 2.5611 4.18713
      vertex 2.6213 2.01042 4.81287
      vertex 2.6213 2.01042 4.18713
    endloop
  endfacet
  facet normal 0.892411 -0.329002 -0.308804
    outer loop
      vertex 2.04899 0 5.30085
      vertex 2.8052 1.95067 5.40798
      vertex 2.19853 0 5.73301
    endloop
  endfacet
  facet normal 0.892411 -0.329002 -0.308804
    outer loop
      vertex 2.8052 1.95067 5.40798
      vertex 2.04899 0 5.30085
      vertex 2.6213 2.01042 4.81287
    endloop
  endfacet
  facet normal -0.156434 -0.987688 0
    outer loop
      vertex 4.5 3.37538 4.18713
      vertex 5.11042 3.27869 4.81287
      vertex 4.5 3.37538 4.81287
    endloop
  endfacet
  facet normal -0.156434 -0.987688 -0
    outer loop
      vertex 5.11042 3.27869 4.81287
      vertex 4.5 3.37538 4.18713
      vertex 5.11042 3.27869 4.18713
    endloop
  endfacet
  facet normal -0.432275 -0.84839 -0.305569
    outer loop
      vertex 5.11042 3.27869 4.81287
      vertex 5.54744 2.84168 5.40798
      vertex 5.05067 3.09479 5.40798
    endloop
  endfacet
  facet normal 0.148952 -0.940447 -0.305569
    outer loop
      vertex 4.5 3.37538 4.81287
      vertex 4.5 3.18201 5.40798
      vertex 3.88958 3.27869 4.81287
    endloop
  endfacet
  facet normal -0.0522449 -0.329867 -0.94258
    outer loop
      vertex 4.5 0 7.08972
      vertex 4.78058 2.26354 6.28201
      vertex 4.69093 0 7.07914
    endloop
  endfacet
  facet normal -0.0522454 -0.329867 -0.94258
    outer loop
      vertex 4.78058 2.26354 6.28201
      vertex 4.5 0 7.08972
      vertex 4.5 2.30798 6.28201
    endloop
  endfacet
  facet normal -0.418996 -0.418996 -0.805534
    outer loop
      vertex 5.23457 1.9337 6.28201
      vertex 5.33125 2.54412 5.91421
      vertex 5.64412 2.23125 5.91421
    endloop
  endfacet
  facet normal -0.418996 -0.418996 -0.805534
    outer loop
      vertex 5.33125 2.54412 5.91421
      vertex 5.23457 1.9337 6.28201
      vertex 5.0337 2.13457 6.28201
    endloop
  endfacet
  facet normal 0.574495 -0.574495 0.583019
    outer loop
      vertex 3.66875 2.54412 3.08579
      vertex 3.45256 2.84168 3.59202
      vertex 3.35588 2.23125 3.08579
    endloop
  endfacet
  facet normal -0.269013 -0.527966 -0.805534
    outer loop
      vertex 5.33125 2.54412 5.91421
      vertex 5.0337 2.13457 6.28201
      vertex 4.78058 2.26354 6.28201
    endloop
  endfacet
  facet normal -0.673286 -0.673285 -0.305571
    outer loop
      vertex 6.09811 2.5611 4.81287
      vertex 5.94168 2.44744 5.40798
      vertex 5.54744 2.84168 5.40798
    endloop
  endfacet
  facet normal -0.574496 -0.574495 -0.583018
    outer loop
      vertex 5.94168 2.44744 5.40798
      vertex 5.64412 2.23125 5.91421
      vertex 5.54744 2.84168 5.40798
    endloop
  endfacet
  facet normal 0.0926941 -0.585255 -0.805534
    outer loop
      vertex 4.5 2.81421 5.91421
      vertex 4.5 2.30798 6.28201
      vertex 4.21942 2.26354 6.28201
    endloop
  endfacet
  facet normal -0.673286 -0.673285 0.305571
    outer loop
      vertex 5.94168 2.44744 3.59202
      vertex 6.09811 2.5611 4.18713
      vertex 5.54744 2.84168 3.59202
    endloop
  endfacet
  facet normal -0.848389 -0.432277 0.305571
    outer loop
      vertex 6.19479 1.95067 3.59202
      vertex 6.09811 2.5611 4.18713
      vertex 5.94168 2.44744 3.59202
    endloop
  endfacet
  facet normal 0.168797 -0.331283 0.92831
    outer loop
      vertex 4.09577 0 1.93269
      vertex 4.21942 2.26354 2.71799
      vertex 3.91755 0 1.96509
    endloop
  endfacet
  facet normal 0.0522459 -0.329867 0.94258
    outer loop
      vertex 4.30907 0 1.92086
      vertex 4.21942 2.26354 2.71799
      vertex 4.09577 0 1.93269
    endloop
  endfacet
  facet normal 0.269013 -0.527966 -0.805534
    outer loop
      vertex 4.21942 2.26354 6.28201
      vertex 3.9663 2.13457 6.28201
      vertex 3.66875 2.54412 5.91421
    endloop
  endfacet
  facet normal 0.269012 -0.527967 -0.805533
    outer loop
      vertex 4.06298 2.745 5.91421
      vertex 4.21942 2.26354 6.28201
      vertex 3.66875 2.54412 5.91421
    endloop
  endfacet
  facet normal 0.723906 -0.368848 -0.583019
    outer loop
      vertex 3.35588 2.23125 5.91421
      vertex 3.155 1.83702 5.91421
      vertex 2.8052 1.95067 5.40798
    endloop
  endfacet
  facet normal 0.74111 -0.328093 -0.585757
    outer loop
      vertex 2.42671 0 6.02172
      vertex 3.155 1.83702 5.91421
      vertex 2.71086 0 6.38122
    endloop
  endfacet
  facet normal 0.74111 -0.328093 -0.585757
    outer loop
      vertex 3.155 1.83702 5.91421
      vertex 2.42671 0 6.02172
      vertex 2.8052 1.95067 5.40798
    endloop
  endfacet
  facet normal 0.487245 -0.329163 -0.808854
    outer loop
      vertex 3.76543 1.9337 6.28201
      vertex 3.50557 0 6.9124
      vertex 3.20491 0 6.73128
    endloop
  endfacet
  facet normal 0.332403 -0.332403 -0.882619
    outer loop
      vertex 3.74994 0 7.00443
      vertex 3.76543 1.9337 6.28201
      vertex 3.9663 2.13457 6.28201
    endloop
  endfacet
  facet normal 0.332402 -0.332403 -0.88262
    outer loop
      vertex 3.76543 1.9337 6.28201
      vertex 3.74994 0 7.00443
      vertex 3.50557 0 6.9124
    endloop
  endfacet
  facet normal -0.148952 -0.940447 -0.305569
    outer loop
      vertex 4.5 3.37538 4.81287
      vertex 5.11042 3.27869 4.81287
      vertex 4.5 3.18201 5.40798
    endloop
  endfacet
  facet normal -0.148953 -0.940447 -0.30557
    outer loop
      vertex 5.11042 3.27869 4.81287
      vertex 5.05067 3.09479 5.40798
      vertex 4.5 3.18201 5.40798
    endloop
  endfacet
  facet normal 0.0926955 -0.585256 -0.805533
    outer loop
      vertex 4.5 2.81421 5.91421
      vertex 4.21942 2.26354 6.28201
      vertex 4.06298 2.745 5.91421
    endloop
  endfacet
  facet normal 0.673285 -0.673287 -0.305569
    outer loop
      vertex 3.3389 2.99811 4.81287
      vertex 3.45256 2.84168 5.40798
      vertex 2.90189 2.5611 4.81287
    endloop
  endfacet
  facet normal -0.127097 -0.802456 -0.583019
    outer loop
      vertex 4.5 3.18201 5.40798
      vertex 4.93702 2.745 5.91421
      vertex 4.5 2.81421 5.91421
    endloop
  endfacet
  facet normal -0.368848 -0.723906 -0.583019
    outer loop
      vertex 5.54744 2.84168 5.40798
      vertex 5.33125 2.54412 5.91421
      vertex 5.05067 3.09479 5.40798
    endloop
  endfacet
  facet normal 0.127097 -0.802456 0.583019
    outer loop
      vertex 4.06298 2.745 3.08579
      vertex 4.5 3.18201 3.59202
      vertex 3.94933 3.09479 3.59202
    endloop
  endfacet
  facet normal 0.127097 -0.802456 0.583019
    outer loop
      vertex 4.5 2.81421 3.08579
      vertex 4.5 3.18201 3.59202
      vertex 4.06298 2.745 3.08579
    endloop
  endfacet
  facet normal -0.168796 -0.331283 -0.92831
    outer loop
      vertex 5.08245 0 7.03491
      vertex 4.90423 0 7.06731
      vertex 4.78058 2.26354 6.28201
    endloop
  endfacet
  facet normal -0.1688 -0.331283 -0.928309
    outer loop
      vertex 5.08245 0 7.03491
      vertex 5.0337 2.13457 6.28201
      vertex 5.25005 0 7.00443
    endloop
  endfacet
  facet normal -0.168798 -0.331283 -0.92831
    outer loop
      vertex 5.0337 2.13457 6.28201
      vertex 5.08245 0 7.03491
      vertex 4.78058 2.26354 6.28201
    endloop
  endfacet
  facet normal -0.0926957 -0.585255 -0.805533
    outer loop
      vertex 4.93702 2.745 5.91421
      vertex 4.78058 2.26354 6.28201
      vertex 4.5 2.81421 5.91421
    endloop
  endfacet
  facet normal -0.269012 -0.527967 -0.805533
    outer loop
      vertex 4.93702 2.745 5.91421
      vertex 5.33125 2.54412 5.91421
      vertex 4.78058 2.26354 6.28201
    endloop
  endfacet
  facet normal 0.848389 -0.432277 -0.305571
    outer loop
      vertex 2.90189 2.5611 4.81287
      vertex 3.05832 2.44744 5.40798
      vertex 2.8052 1.95067 5.40798
    endloop
  endfacet
  facet normal -0.368848 -0.723906 -0.583019
    outer loop
      vertex 5.05067 3.09479 5.40798
      vertex 5.33125 2.54412 5.91421
      vertex 4.93702 2.745 5.91421
    endloop
  endfacet
  facet normal -0.127097 -0.802456 -0.583019
    outer loop
      vertex 5.05067 3.09479 5.40798
      vertex 4.93702 2.745 5.91421
      vertex 4.5 3.18201 5.40798
    endloop
  endfacet
  facet normal 0.148953 -0.940447 -0.30557
    outer loop
      vertex 4.5 3.18201 5.40798
      vertex 3.94933 3.09479 5.40798
      vertex 3.88958 3.27869 4.81287
    endloop
  endfacet
  facet normal 0.574495 -0.574495 -0.583019
    outer loop
      vertex 3.45256 2.84168 5.40798
      vertex 3.66875 2.54412 5.91421
      vertex 3.35588 2.23125 5.91421
    endloop
  endfacet
  facet normal 0.574496 -0.574495 -0.583018
    outer loop
      vertex 3.45256 2.84168 5.40798
      vertex 3.35588 2.23125 5.91421
      vertex 3.05832 2.44744 5.40798
    endloop
  endfacet
  facet normal 0.673286 -0.673285 -0.305571
    outer loop
      vertex 3.45256 2.84168 5.40798
      vertex 3.05832 2.44744 5.40798
      vertex 2.90189 2.5611 4.81287
    endloop
  endfacet
  facet normal 0.432275 -0.84839 -0.305569
    outer loop
      vertex 3.88958 3.27869 4.81287
      vertex 3.94933 3.09479 5.40798
      vertex 3.45256 2.84168 5.40798
    endloop
  endfacet
  facet normal 0.432276 -0.84839 -0.305569
    outer loop
      vertex 3.88958 3.27869 4.81287
      vertex 3.45256 2.84168 5.40798
      vertex 3.3389 2.99811 4.81287
    endloop
  endfacet
endsolid OpenSCAD_Model
