solid OpenSCAD_Model
  facet normal -1 0 0
    outer loop
      vertex 0 0 0
      vertex 0 15 9.02
      vertex 0 15 0
    endloop
  endfacet
  facet normal -1 -0 0
    outer loop
      vertex 0 15 9.02
      vertex 0 0 0
      vertex 0 0 9.02
    endloop
  endfacet
  facet normal -0 0 1
    outer loop
      vertex 0 15 9.02
      vertex 9.02 0 9.02
      vertex 9.02 15 9.02
    endloop
  endfacet
  facet normal 0 0 1
    outer loop
      vertex 9.02 0 9.02
      vertex 0 15 9.02
      vertex 0 0 9.02
    endloop
  endfacet
  facet normal 1 -0 0
    outer loop
      vertex 9.02 0 9.02
      vertex 9.02 15 0
      vertex 9.02 15 9.02
    endloop
  endfacet
  facet normal 1 0 0
    outer loop
      vertex 9.02 15 0
      vertex 9.02 0 9.02
      vertex 9.02 0 0
    endloop
  endfacet
  facet normal 0 1 -0
    outer loop
      vertex 9.02 15 0
      vertex 0 15 9.02
      vertex 9.02 15 9.02
    endloop
  endfacet
  facet normal 0 1 0
    outer loop
      vertex 0 15 9.02
      vertex 9.02 15 0
      vertex 0 15 0
    endloop
  endfacet
  facet normal 0 0 -1
    outer loop
      vertex 0 0 0
      vertex 9.02 15 0
      vertex 9.02 0 0
    endloop
  endfacet
  facet normal -0 0 -1
    outer loop
      vertex 9.02 15 0
      vertex 0 0 0
      vertex 0 15 0
    endloop
  endfacet
  facet normal 0 -1 0
    outer loop
      vertex 0 0 9.02
      vertex 4.5 0 7.55681
      vertex 9.02 0 9.02
    endloop
  endfacet
  facet normal 0 -1 0
    outer loop
      vertex 0 0 9.02
      vertex 4.40959 0 7.55296
      vertex 4.5 0 7.55681
    endloop
  endfacet
  facet normal 0 -1 0
    outer loop
      vertex 0 0 9.02
      vertex 4.3507 0 7.55044
      vertex 4.40959 0 7.55296
    endloop
  endfacet
  facet normal 0 -1 0
    outer loop
      vertex 0 0 9.02
      vertex 4.2707 0 7.53941
      vertex 4.3507 0 7.55044
    endloop
  endfacet
  facet normal 0 -1 0
    outer loop
      vertex 0 0 9.02
      vertex 4.21772 0 7.5321
      vertex 4.2707 0 7.53941
    endloop
  endfacet
  facet normal 0 -1 0
    outer loop
      vertex 0 0 9.02
      vertex 4.00412 0 7.49392
      vertex 4.21772 0 7.5321
    endloop
  endfacet
  facet normal 0 -1 0
    outer loop
      vertex 0 0 9.02
      vertex 3.62371 0 7.42592
      vertex 4.00412 0 7.49392
    endloop
  endfacet
  facet normal 0 -1 0
    outer loop
      vertex 0 0 9.02
      vertex 3.32797 0 7.34325
      vertex 3.62371 0 7.42592
    endloop
  endfacet
  facet normal 0 -1 0
    outer loop
      vertex 0 0 9.02
      vertex 3.26735 0 7.30584
      vertex 3.32797 0 7.34325
    endloop
  endfacet
  facet normal 0 -1 0
    outer loop
      vertex 0 0 9.02
      vertex 3.16957 0 7.2455
      vertex 3.26735 0 7.30584
    endloop
  endfacet
  facet normal 0 -1 0
    outer loop
      vertex 0 0 9.02
      vertex 2.6888 0 6.92813
      vertex 3.16957 0 7.2455
    endloop
  endfacet
  facet normal 0 -1 0
    outer loop
      vertex 0 0 9.02
      vertex 2.38281 0 6.72614
      vertex 2.6888 0 6.92813
    endloop
  endfacet
  facet normal 0 -1 0
    outer loop
      vertex 0 0 9.02
      vertex 2.00751 0 6.23662
      vertex 2.38281 0 6.72614
    endloop
  endfacet
  facet normal 0 -1 0
    outer loop
      vertex 0 0 9.02
      vertex 1.78944 0 5.95218
      vertex 2.00751 0 6.23662
    endloop
  endfacet
  facet normal 0 -1 0
    outer loop
      vertex 0 0 9.02
      vertex 1.67678 0 5.61822
      vertex 1.78944 0 5.95218
    endloop
  endfacet
  facet normal 0 -1 0
    outer loop
      vertex 0 0 9.02
      vertex 1.46979 0 5.00464
      vertex 1.67678 0 5.61822
    endloop
  endfacet
  facet normal 0 -1 0
    outer loop
      vertex 0 0 9.02
      vertex 1.46979 0 3.99536
      vertex 1.46979 0 5.00464
    endloop
  endfacet
  facet normal 0 -1 0
    outer loop
      vertex 0 0 0
      vertex 2.00751 0 2.76338
      vertex 1.78944 0 3.04782
    endloop
  endfacet
  facet normal 0 -1 0
    outer loop
      vertex 0 0 0
      vertex 2.6888 0 2.07187
      vertex 2.38281 0 2.27386
    endloop
  endfacet
  facet normal 0 -1 0
    outer loop
      vertex 0 0 0
      vertex 4.00412 0 1.50608
      vertex 3.62371 0 1.57408
    endloop
  endfacet
  facet normal 0 -1 0
    outer loop
      vertex 0 0 0
      vertex 4.40959 0 1.44704
      vertex 4.3507 0 1.44956
    endloop
  endfacet
  facet normal 0 -1 -0
    outer loop
      vertex 4.40959 0 1.44704
      vertex 0 0 0
      vertex 4.5 0 1.44319
    endloop
  endfacet
  facet normal 0 -1 -0
    outer loop
      vertex 4.2707 0 1.46059
      vertex 0 0 0
      vertex 4.3507 0 1.44956
    endloop
  endfacet
  facet normal 0 -1 -0
    outer loop
      vertex 4.21772 0 1.4679
      vertex 0 0 0
      vertex 4.2707 0 1.46059
    endloop
  endfacet
  facet normal 0 -1 -0
    outer loop
      vertex 4.00412 0 1.50608
      vertex 0 0 0
      vertex 4.21772 0 1.4679
    endloop
  endfacet
  facet normal 0 -1 -0
    outer loop
      vertex 3.32797 0 1.65675
      vertex 0 0 0
      vertex 3.62371 0 1.57408
    endloop
  endfacet
  facet normal 0 -1 -0
    outer loop
      vertex 3.26735 0 1.69416
      vertex 0 0 0
      vertex 3.32797 0 1.65675
    endloop
  endfacet
  facet normal 0 -1 -0
    outer loop
      vertex 3.16957 0 1.7545
      vertex 0 0 0
      vertex 3.26735 0 1.69416
    endloop
  endfacet
  facet normal 0 -1 -0
    outer loop
      vertex 2.6888 0 2.07187
      vertex 0 0 0
      vertex 3.16957 0 1.7545
    endloop
  endfacet
  facet normal 0 -1 -0
    outer loop
      vertex 2.00751 0 2.76338
      vertex 0 0 0
      vertex 2.38281 0 2.27386
    endloop
  endfacet
  facet normal 0 -1 -0
    outer loop
      vertex 1.67678 0 3.38178
      vertex 0 0 0
      vertex 1.78944 0 3.04782
    endloop
  endfacet
  facet normal 0 -1 -0
    outer loop
      vertex 1.46979 0 3.99536
      vertex 0 0 0
      vertex 1.67678 0 3.38178
    endloop
  endfacet
  facet normal 0 -1 0
    outer loop
      vertex 0 0 0
      vertex 1.46979 0 3.99536
      vertex 0 0 9.02
    endloop
  endfacet
  facet normal 0 -1 0
    outer loop
      vertex 4.59041 0 7.55296
      vertex 9.02 0 9.02
      vertex 4.5 0 7.55681
    endloop
  endfacet
  facet normal 0 -1 0
    outer loop
      vertex 4.6493 0 7.55044
      vertex 9.02 0 9.02
      vertex 4.59041 0 7.55296
    endloop
  endfacet
  facet normal 0 -1 0
    outer loop
      vertex 4.7293 0 7.53941
      vertex 9.02 0 9.02
      vertex 4.6493 0 7.55044
    endloop
  endfacet
  facet normal 0 -1 0
    outer loop
      vertex 4.78228 0 7.5321
      vertex 9.02 0 9.02
      vertex 4.7293 0 7.53941
    endloop
  endfacet
  facet normal 0 -1 0
    outer loop
      vertex 4.99588 0 7.49392
      vertex 9.02 0 9.02
      vertex 4.78228 0 7.5321
    endloop
  endfacet
  facet normal 0 -1 0
    outer loop
      vertex 5.37629 0 7.42592
      vertex 9.02 0 9.02
      vertex 4.99588 0 7.49392
    endloop
  endfacet
  facet normal 0 -1 0
    outer loop
      vertex 5.67203 0 7.34325
      vertex 9.02 0 9.02
      vertex 5.37629 0 7.42592
    endloop
  endfacet
  facet normal 0 -1 0
    outer loop
      vertex 5.73265 0 7.30584
      vertex 9.02 0 9.02
      vertex 5.67203 0 7.34325
    endloop
  endfacet
  facet normal 0 -1 0
    outer loop
      vertex 5.83043 0 7.2455
      vertex 9.02 0 9.02
      vertex 5.73265 0 7.30584
    endloop
  endfacet
  facet normal 0 -1 0
    outer loop
      vertex 6.3112 0 6.92813
      vertex 9.02 0 9.02
      vertex 5.83043 0 7.2455
    endloop
  endfacet
  facet normal 0 -1 0
    outer loop
      vertex 6.61719 0 6.72614
      vertex 9.02 0 9.02
      vertex 6.3112 0 6.92813
    endloop
  endfacet
  facet normal 0 -1 0
    outer loop
      vertex 6.99249 0 6.23662
      vertex 9.02 0 9.02
      vertex 6.61719 0 6.72614
    endloop
  endfacet
  facet normal 0 -1 0
    outer loop
      vertex 7.21056 0 5.95218
      vertex 9.02 0 9.02
      vertex 6.99249 0 6.23662
    endloop
  endfacet
  facet normal 0 -1 0
    outer loop
      vertex 7.32322 0 5.61822
      vertex 9.02 0 9.02
      vertex 7.21056 0 5.95218
    endloop
  endfacet
  facet normal 0 -1 0
    outer loop
      vertex 7.53021 0 5.00464
      vertex 9.02 0 9.02
      vertex 7.32322 0 5.61822
    endloop
  endfacet
  facet normal 0 -1 0
    outer loop
      vertex 7.53021 0 3.99536
      vertex 9.02 0 9.02
      vertex 7.53021 0 5.00464
    endloop
  endfacet
  facet normal 0 -1 0
    outer loop
      vertex 9.02 0 0
      vertex 6.99249 0 2.76338
      vertex 6.61719 0 2.27386
    endloop
  endfacet
  facet normal 0 -1 0
    outer loop
      vertex 9.02 0 0
      vertex 6.3112 0 2.07187
      vertex 5.83043 0 1.7545
    endloop
  endfacet
  facet normal 0 -1 0
    outer loop
      vertex 9.02 0 0
      vertex 4.99588 0 1.50608
      vertex 4.78228 0 1.4679
    endloop
  endfacet
  facet normal 0 -1 0
    outer loop
      vertex 9.02 0 0
      vertex 4.5 0 1.44319
      vertex 0 0 0
    endloop
  endfacet
  facet normal 0 -1 0
    outer loop
      vertex 4.5 0 1.44319
      vertex 9.02 0 0
      vertex 4.59041 0 1.44704
    endloop
  endfacet
  facet normal 0 -1 0
    outer loop
      vertex 4.59041 0 1.44704
      vertex 9.02 0 0
      vertex 4.6493 0 1.44956
    endloop
  endfacet
  facet normal 0 -1 0
    outer loop
      vertex 4.6493 0 1.44956
      vertex 9.02 0 0
      vertex 4.7293 0 1.46059
    endloop
  endfacet
  facet normal 0 -1 0
    outer loop
      vertex 4.7293 0 1.46059
      vertex 9.02 0 0
      vertex 4.78228 0 1.4679
    endloop
  endfacet
  facet normal 0 -1 0
    outer loop
      vertex 4.99588 0 1.50608
      vertex 9.02 0 0
      vertex 5.37629 0 1.57408
    endloop
  endfacet
  facet normal 0 -1 0
    outer loop
      vertex 7.53021 0 3.99536
      vertex 9.02 0 0
      vertex 9.02 0 9.02
    endloop
  endfacet
  facet normal 0 -1 0
    outer loop
      vertex 7.32322 0 3.38178
      vertex 9.02 0 0
      vertex 7.53021 0 3.99536
    endloop
  endfacet
  facet normal 0 -1 0
    outer loop
      vertex 7.21056 0 3.04782
      vertex 9.02 0 0
      vertex 7.32322 0 3.38178
    endloop
  endfacet
  facet normal 0 -1 0
    outer loop
      vertex 6.99249 0 2.76338
      vertex 9.02 0 0
      vertex 7.21056 0 3.04782
    endloop
  endfacet
  facet normal 0 -1 0
    outer loop
      vertex 6.3112 0 2.07187
      vertex 9.02 0 0
      vertex 6.61719 0 2.27386
    endloop
  endfacet
  facet normal 0 -1 0
    outer loop
      vertex 5.73265 0 1.69416
      vertex 9.02 0 0
      vertex 5.83043 0 1.7545
    endloop
  endfacet
  facet normal 0 -1 0
    outer loop
      vertex 5.67203 0 1.65675
      vertex 9.02 0 0
      vertex 5.73265 0 1.69416
    endloop
  endfacet
  facet normal 0 -1 0
    outer loop
      vertex 5.37629 0 1.57408
      vertex 9.02 0 0
      vertex 5.67203 0 1.65675
    endloop
  endfacet
  facet normal 0.766641 -0.25845 -0.587762
    outer loop
      vertex 1.78944 0 5.95218
      vertex 3.155 4.13702 5.91421
      vertex 2.00751 0 6.23662
    endloop
  endfacet
  facet normal 0.766641 -0.25845 -0.587762
    outer loop
      vertex 3.155 4.13702 5.91421
      vertex 1.78944 0 5.95218
      vertex 2.8052 4.25067 5.40798
    endloop
  endfacet
  facet normal -0.432275 -0.84839 0.305569
    outer loop
      vertex 5.54744 5.14168 3.59202
      vertex 5.11042 5.57869 4.18713
      vertex 5.05067 5.39479 3.59202
    endloop
  endfacet
  facet normal 0.527965 -0.269013 0.805534
    outer loop
      vertex 3.63646 3.98058 2.71799
      vertex 3.76543 4.2337 2.71799
      vertex 3.35588 4.53125 3.08579
    endloop
  endfacet
  facet normal -0.14187 -0.278434 0.94992
    outer loop
      vertex 5.0337 4.43457 2.71799
      vertex 4.78058 4.56354 2.71799
      vertex 4.59668 3.99756 2.52462
    endloop
  endfacet
  facet normal -0.574496 -0.574495 -0.583018
    outer loop
      vertex 5.94168 4.74744 5.40798
      vertex 5.64412 4.53125 5.91421
      vertex 5.54744 5.14168 5.40798
    endloop
  endfacet
  facet normal 0.966119 -0.258096 0
    outer loop
      vertex 1.46979 0 5.00464
      vertex 2.6213 4.31042 4.18713
      vertex 2.6213 4.31042 4.81287
    endloop
  endfacet
  facet normal 0.966119 -0.258096 0
    outer loop
      vertex 2.6213 4.31042 4.18713
      vertex 1.46979 0 5.00464
      vertex 1.46979 0 3.99536
    endloop
  endfacet
  facet normal -0.131994 -0.259051 0.956802
    outer loop
      vertex 4.6839 3.95312 2.52462
      vertex 4.7293 0 1.46059
      vertex 4.78228 0 1.4679
    endloop
  endfacet
  facet normal -0.131995 -0.259051 0.956802
    outer loop
      vertex 4.7293 0 1.46059
      vertex 4.6839 3.95312 2.52462
      vertex 4.59668 3.99756 2.52462
    endloop
  endfacet
  facet normal -0.723906 -0.368848 -0.583019
    outer loop
      vertex 6.19479 4.25067 5.40798
      vertex 5.845 4.13702 5.91421
      vertex 5.64412 4.53125 5.91421
    endloop
  endfacet
  facet normal 0.673286 -0.673286 -0.305569
    outer loop
      vertex 3.3389 5.29811 4.81287
      vertex 3.45256 5.14168 5.40798
      vertex 2.90189 4.8611 4.81287
    endloop
  endfacet
  facet normal -0.723906 -0.368849 -0.583018
    outer loop
      vertex 5.94168 4.74744 5.40798
      vertex 6.19479 4.25067 5.40798
      vertex 5.64412 4.53125 5.91421
    endloop
  endfacet
  facet normal -0.507305 -0.258487 -0.822087
    outer loop
      vertex 5.67203 0 7.34325
      vertex 5.36354 3.98058 6.28201
      vertex 5.73265 0 7.30584
    endloop
  endfacet
  facet normal -0.507307 -0.258486 -0.822086
    outer loop
      vertex 5.36354 3.98058 6.28201
      vertex 5.67203 0 7.34325
      vertex 5.23457 4.2337 6.28201
    endloop
  endfacet
  facet normal -0.532321 -0.257621 0.80639
    outer loop
      vertex 5.83043 0 1.7545
      vertex 6.3112 0 2.07187
      vertex 5.36354 3.98058 2.71799
    endloop
  endfacet
  facet normal 0.723906 -0.368848 0.583019
    outer loop
      vertex 3.155 4.13702 3.08579
      vertex 3.35588 4.53125 3.08579
      vertex 2.8052 4.25067 3.59202
    endloop
  endfacet
  facet normal -0.673286 -0.673285 0.30557
    outer loop
      vertex 5.94168 4.74744 3.59202
      vertex 6.09811 4.8611 4.18713
      vertex 5.54744 5.14168 3.59202
    endloop
  endfacet
  facet normal -0.418996 -0.418997 -0.805534
    outer loop
      vertex 5.33125 4.84412 5.91421
      vertex 5.64412 4.53125 5.91421
      vertex 5.0337 4.43457 6.28201
    endloop
  endfacet
  facet normal -0.269013 -0.527966 -0.805534
    outer loop
      vertex 5.33125 4.84412 5.91421
      vertex 5.0337 4.43457 6.28201
      vertex 4.78058 4.56354 6.28201
    endloop
  endfacet
  facet normal 0.723906 -0.368848 -0.583019
    outer loop
      vertex 3.35588 4.53125 5.91421
      vertex 3.155 4.13702 5.91421
      vertex 2.8052 4.25067 5.40798
    endloop
  endfacet
  facet normal 0.766641 -0.25845 0.587762
    outer loop
      vertex 2.38281 0 2.27386
      vertex 3.155 4.13702 3.08579
      vertex 2.00751 0 2.76338
    endloop
  endfacet
  facet normal 0.527965 -0.269013 -0.805534
    outer loop
      vertex 3.76543 4.2337 6.28201
      vertex 3.63646 3.98058 6.28201
      vertex 3.35588 4.53125 5.91421
    endloop
  endfacet
  facet normal 0.848389 -0.432276 0.30557
    outer loop
      vertex 3.05832 4.74744 3.59202
      vertex 2.90189 4.8611 4.18713
      vertex 2.6213 4.31042 4.18713
    endloop
  endfacet
  facet normal -0.707107 -0.707107 0
    outer loop
      vertex 6.09811 4.8611 4.18713
      vertex 5.6611 5.29811 4.81287
      vertex 5.6611 5.29811 4.18713
    endloop
  endfacet
  facet normal -0.707107 -0.707107 0
    outer loop
      vertex 5.6611 5.29811 4.81287
      vertex 6.09811 4.8611 4.18713
      vertex 6.09811 4.8611 4.81287
    endloop
  endfacet
  facet normal -0.527966 -0.269012 0.805534
    outer loop
      vertex 5.845 4.13702 3.08579
      vertex 5.64412 4.53125 3.08579
      vertex 5.36354 3.98058 2.71799
    endloop
  endfacet
  facet normal -0.915386 -0.258281 0.308803
    outer loop
      vertex 7.32322 0 3.38178
      vertex 7.53021 0 3.99536
      vertex 6.37869 4.31042 4.18713
    endloop
  endfacet
  facet normal -0.766641 -0.25845 0.587762
    outer loop
      vertex 6.61719 0 2.27386
      vertex 6.99249 0 2.76338
      vertex 5.845 4.13702 3.08579
    endloop
  endfacet
  facet normal -0.848389 -0.432276 -0.30557
    outer loop
      vertex 6.09811 4.8611 4.81287
      vertex 6.37869 4.31042 4.81287
      vertex 5.94168 4.74744 5.40798
    endloop
  endfacet
  facet normal -0.532321 -0.257621 0.80639
    outer loop
      vertex 5.845 4.13702 3.08579
      vertex 6.3112 0 2.07187
      vertex 6.61719 0 2.27386
    endloop
  endfacet
  facet normal -0.532322 -0.257621 0.80639
    outer loop
      vertex 6.3112 0 2.07187
      vertex 5.845 4.13702 3.08579
      vertex 5.36354 3.98058 2.71799
    endloop
  endfacet
  facet normal -0.766641 -0.25845 -0.587762
    outer loop
      vertex 7.21056 0 5.95218
      vertex 5.845 4.13702 5.91421
      vertex 6.19479 4.25067 5.40798
    endloop
  endfacet
  facet normal -0.766641 -0.25845 -0.587762
    outer loop
      vertex 5.845 4.13702 5.91421
      vertex 7.21056 0 5.95218
      vertex 6.99249 0 6.23662
    endloop
  endfacet
  facet normal -0.915386 -0.258281 -0.308803
    outer loop
      vertex 7.53021 0 5.00464
      vertex 7.32322 0 5.61822
      vertex 6.37869 4.31042 4.81287
    endloop
  endfacet
  facet normal 0.092696 -0.585255 0.805534
    outer loop
      vertex 4.21942 4.56354 2.71799
      vertex 4.5 4.60798 2.71799
      vertex 4.06298 5.045 3.08579
    endloop
  endfacet
  facet normal -0.269012 -0.527966 0.805533
    outer loop
      vertex 5.33125 4.84412 3.08579
      vertex 4.93702 5.045 3.08579
      vertex 4.78058 4.56354 2.71799
    endloop
  endfacet
  facet normal 0.723906 -0.368849 0.583018
    outer loop
      vertex 3.35588 4.53125 3.08579
      vertex 3.05832 4.74744 3.59202
      vertex 2.8052 4.25067 3.59202
    endloop
  endfacet
  facet normal -0.574494 -0.574495 0.58302
    outer loop
      vertex 5.64412 4.53125 3.08579
      vertex 5.54744 5.14168 3.59202
      vertex 5.33125 4.84412 3.08579
    endloop
  endfacet
  facet normal -0.574494 -0.574495 -0.58302
    outer loop
      vertex 5.54744 5.14168 5.40798
      vertex 5.64412 4.53125 5.91421
      vertex 5.33125 4.84412 5.91421
    endloop
  endfacet
  facet normal 0.532322 -0.257621 -0.80639
    outer loop
      vertex 2.6888 0 6.92813
      vertex 3.155 4.13702 5.91421
      vertex 3.63646 3.98058 6.28201
    endloop
  endfacet
  facet normal 0.532321 -0.257621 -0.80639
    outer loop
      vertex 3.155 4.13702 5.91421
      vertex 2.6888 0 6.92813
      vertex 2.38281 0 6.72614
    endloop
  endfacet
  facet normal 0.507307 -0.258486 0.822086
    outer loop
      vertex 3.63646 3.98058 2.71799
      vertex 3.32797 0 1.65675
      vertex 3.76543 4.2337 2.71799
    endloop
  endfacet
  facet normal 0.507307 -0.258486 0.822085
    outer loop
      vertex 3.32797 0 1.65675
      vertex 3.63646 3.98058 2.71799
      vertex 3.26735 0 1.69416
    endloop
  endfacet
  facet normal 0.673286 -0.673286 0.305569
    outer loop
      vertex 3.45256 5.14168 3.59202
      vertex 3.3389 5.29811 4.18713
      vertex 2.90189 4.8611 4.18713
    endloop
  endfacet
  facet normal 0.148952 -0.940447 0.305569
    outer loop
      vertex 4.5 5.48201 3.59202
      vertex 4.5 5.67538 4.18713
      vertex 3.88958 5.57869 4.18713
    endloop
  endfacet
  facet normal 0.915386 -0.258281 -0.308802
    outer loop
      vertex 2.6213 4.31042 4.81287
      vertex 1.67678 0 5.61822
      vertex 1.46979 0 5.00464
    endloop
  endfacet
  facet normal 0.915386 -0.258281 -0.308803
    outer loop
      vertex 1.67678 0 5.61822
      vertex 2.8052 4.25067 5.40798
      vertex 1.78944 0 5.95218
    endloop
  endfacet
  facet normal 0.915386 -0.258281 -0.308803
    outer loop
      vertex 2.8052 4.25067 5.40798
      vertex 1.67678 0 5.61822
      vertex 2.6213 4.31042 4.81287
    endloop
  endfacet
  facet normal -0.45399 -0.891007 0
    outer loop
      vertex 5.11042 5.57869 4.18713
      vertex 5.6611 5.29811 4.81287
      vertex 5.11042 5.57869 4.81287
    endloop
  endfacet
  facet normal -0.45399 -0.891007 -0
    outer loop
      vertex 5.6611 5.29811 4.81287
      vertex 5.11042 5.57869 4.18713
      vertex 5.6611 5.29811 4.18713
    endloop
  endfacet
  facet normal -0.0926957 -0.585255 0.805533
    outer loop
      vertex 4.93702 5.045 3.08579
      vertex 4.5 5.11421 3.08579
      vertex 4.5 4.60798 2.71799
    endloop
  endfacet
  facet normal -0.966119 -0.258096 0
    outer loop
      vertex 7.53021 0 3.99536
      vertex 6.37869 4.31042 4.81287
      vertex 6.37869 4.31042 4.18713
    endloop
  endfacet
  facet normal -0.966119 -0.258096 0
    outer loop
      vertex 6.37869 4.31042 4.81287
      vertex 7.53021 0 3.99536
      vertex 7.53021 0 5.00464
    endloop
  endfacet
  facet normal -0.148952 -0.940447 -0.305569
    outer loop
      vertex 4.5 5.67538 4.81287
      vertex 5.11042 5.57869 4.81287
      vertex 4.5 5.48201 5.40798
    endloop
  endfacet
  facet normal -0.673286 -0.673285 -0.30557
    outer loop
      vertex 6.09811 4.8611 4.81287
      vertex 5.94168 4.74744 5.40798
      vertex 5.54744 5.14168 5.40798
    endloop
  endfacet
  facet normal -0.432275 -0.84839 -0.305569
    outer loop
      vertex 5.11042 5.57869 4.81287
      vertex 5.54744 5.14168 5.40798
      vertex 5.05067 5.39479 5.40798
    endloop
  endfacet
  facet normal 0.432275 -0.84839 0.305569
    outer loop
      vertex 3.94933 5.39479 3.59202
      vertex 3.88958 5.57869 4.18713
      vertex 3.45256 5.14168 3.59202
    endloop
  endfacet
  facet normal -0.0411788 -0.259988 0.964733
    outer loop
      vertex 4.59041 0 1.44704
      vertex 4.5 4.01287 2.52462
      vertex 4.5 0 1.44319
    endloop
  endfacet
  facet normal 0.0488853 -0.308647 -0.94992
    outer loop
      vertex 4.5 4.60798 6.28201
      vertex 4.5 4.01287 6.47538
      vertex 4.21942 4.56354 6.28201
    endloop
  endfacet
  facet normal -0.50731 -0.258486 -0.822084
    outer loop
      vertex 5.83043 0 7.2455
      vertex 5.73265 0 7.30584
      vertex 5.36354 3.98058 6.28201
    endloop
  endfacet
  facet normal 0.532322 -0.257621 -0.80639
    outer loop
      vertex 3.63646 3.98058 6.28201
      vertex 3.16957 0 7.2455
      vertex 2.6888 0 6.92813
    endloop
  endfacet
  facet normal -0.169974 -0.258434 -0.950958
    outer loop
      vertex 5.0337 4.43457 6.28201
      vertex 5.37629 0 7.42592
      vertex 4.99588 0 7.49392
    endloop
  endfacet
  facet normal 0.092696 -0.585255 -0.805534
    outer loop
      vertex 4.5 4.60798 6.28201
      vertex 4.21942 4.56354 6.28201
      vertex 4.06298 5.045 5.91421
    endloop
  endfacet
  facet normal 0.707107 -0.707107 0
    outer loop
      vertex 2.90189 4.8611 4.81287
      vertex 3.3389 5.29811 4.18713
      vertex 3.3389 5.29811 4.81287
    endloop
  endfacet
  facet normal 0.707107 -0.707107 0
    outer loop
      vertex 3.3389 5.29811 4.18713
      vertex 2.90189 4.8611 4.81287
      vertex 2.90189 4.8611 4.18713
    endloop
  endfacet
  facet normal -0.0488855 -0.308647 0.94992
    outer loop
      vertex 4.78058 4.56354 2.71799
      vertex 4.5 4.60798 2.71799
      vertex 4.5 4.01287 2.52462
    endloop
  endfacet
  facet normal -0.766641 -0.25845 -0.587763
    outer loop
      vertex 6.99249 0 6.23662
      vertex 6.61719 0 6.72614
      vertex 5.845 4.13702 5.91421
    endloop
  endfacet
  facet normal -0.418996 -0.418996 0.805534
    outer loop
      vertex 5.23457 4.2337 2.71799
      vertex 5.64412 4.53125 3.08579
      vertex 5.0337 4.43457 2.71799
    endloop
  endfacet
  facet normal 0.148953 -0.940447 0.30557
    outer loop
      vertex 3.94933 5.39479 3.59202
      vertex 4.5 5.48201 3.59202
      vertex 3.88958 5.57869 4.18713
    endloop
  endfacet
  facet normal 0.432276 -0.84839 -0.305569
    outer loop
      vertex 3.88958 5.57869 4.81287
      vertex 3.45256 5.14168 5.40798
      vertex 3.3389 5.29811 4.81287
    endloop
  endfacet
  facet normal -0.0488858 -0.308647 -0.94992
    outer loop
      vertex 4.78058 4.56354 6.28201
      vertex 4.59668 3.99756 6.47538
      vertex 4.5 4.01287 6.47538
    endloop
  endfacet
  facet normal 0.156434 -0.987688 0
    outer loop
      vertex 3.88958 5.57869 4.18713
      vertex 4.5 5.67538 4.81287
      vertex 3.88958 5.57869 4.81287
    endloop
  endfacet
  facet normal 0.156434 -0.987688 0
    outer loop
      vertex 4.5 5.67538 4.81287
      vertex 3.88958 5.57869 4.18713
      vertex 4.5 5.67538 4.18713
    endloop
  endfacet
  facet normal 0.527966 -0.269012 -0.805534
    outer loop
      vertex 3.35588 4.53125 5.91421
      vertex 3.63646 3.98058 6.28201
      vertex 3.155 4.13702 5.91421
    endloop
  endfacet
  facet normal -0.127097 -0.802456 0.583019
    outer loop
      vertex 4.93702 5.045 3.08579
      vertex 5.05067 5.39479 3.59202
      vertex 4.5 5.48201 3.59202
    endloop
  endfacet
  facet normal -0.432276 -0.84839 0.305569
    outer loop
      vertex 5.54744 5.14168 3.59202
      vertex 5.6611 5.29811 4.18713
      vertex 5.11042 5.57869 4.18713
    endloop
  endfacet
  facet normal -0.368849 -0.723905 0.58302
    outer loop
      vertex 5.33125 4.84412 3.08579
      vertex 5.54744 5.14168 3.59202
      vertex 4.93702 5.045 3.08579
    endloop
  endfacet
  facet normal -0.915386 -0.258281 0.308804
    outer loop
      vertex 7.32322 0 3.38178
      vertex 6.19479 4.25067 3.59202
      vertex 7.21056 0 3.04782
    endloop
  endfacet
  facet normal -0.915386 -0.258281 0.308803
    outer loop
      vertex 6.19479 4.25067 3.59202
      vertex 7.32322 0 3.38178
      vertex 6.37869 4.31042 4.18713
    endloop
  endfacet
  facet normal -0.148953 -0.940447 -0.30557
    outer loop
      vertex 5.11042 5.57869 4.81287
      vertex 5.05067 5.39479 5.40798
      vertex 4.5 5.48201 5.40798
    endloop
  endfacet
  facet normal 0.148952 -0.940447 -0.305569
    outer loop
      vertex 4.5 5.67538 4.81287
      vertex 4.5 5.48201 5.40798
      vertex 3.88958 5.57869 4.81287
    endloop
  endfacet
  facet normal -0.156434 -0.987688 0
    outer loop
      vertex 4.5 5.67538 4.18713
      vertex 5.11042 5.57869 4.81287
      vertex 4.5 5.67538 4.81287
    endloop
  endfacet
  facet normal -0.156434 -0.987688 -0
    outer loop
      vertex 5.11042 5.57869 4.81287
      vertex 4.5 5.67538 4.18713
      vertex 5.11042 5.57869 4.18713
    endloop
  endfacet
  facet normal -0.527965 -0.269013 0.805534
    outer loop
      vertex 5.36354 3.98058 2.71799
      vertex 5.64412 4.53125 3.08579
      vertex 5.23457 4.2337 2.71799
    endloop
  endfacet
  facet normal -0.507307 -0.258486 0.822085
    outer loop
      vertex 5.36354 3.98058 2.71799
      vertex 5.67203 0 1.65675
      vertex 5.73265 0 1.69416
    endloop
  endfacet
  facet normal -0.507307 -0.258486 0.822086
    outer loop
      vertex 5.67203 0 1.65675
      vertex 5.36354 3.98058 2.71799
      vertex 5.23457 4.2337 2.71799
    endloop
  endfacet
  facet normal -0.50731 -0.258486 0.822084
    outer loop
      vertex 5.73265 0 1.69416
      vertex 5.83043 0 1.7545
      vertex 5.36354 3.98058 2.71799
    endloop
  endfacet
  facet normal -0.891006 -0.453991 0
    outer loop
      vertex 6.37869 4.31042 4.18713
      vertex 6.09811 4.8611 4.81287
      vertex 6.09811 4.8611 4.18713
    endloop
  endfacet
  facet normal -0.891006 -0.453991 0
    outer loop
      vertex 6.09811 4.8611 4.81287
      vertex 6.37869 4.31042 4.18713
      vertex 6.37869 4.31042 4.81287
    endloop
  endfacet
  facet normal -0.368848 -0.723906 0.583019
    outer loop
      vertex 5.54744 5.14168 3.59202
      vertex 5.05067 5.39479 3.59202
      vertex 4.93702 5.045 3.08579
    endloop
  endfacet
  facet normal -0.532322 -0.257621 -0.80639
    outer loop
      vertex 6.3112 0 6.92813
      vertex 5.83043 0 7.2455
      vertex 5.36354 3.98058 6.28201
    endloop
  endfacet
  facet normal -0.532321 -0.257621 -0.80639
    outer loop
      vertex 6.3112 0 6.92813
      vertex 5.845 4.13702 5.91421
      vertex 6.61719 0 6.72614
    endloop
  endfacet
  facet normal -0.532322 -0.257621 -0.80639
    outer loop
      vertex 5.845 4.13702 5.91421
      vertex 6.3112 0 6.92813
      vertex 5.36354 3.98058 6.28201
    endloop
  endfacet
  facet normal -0.25997 -0.259971 -0.929963
    outer loop
      vertex 5.37629 0 7.42592
      vertex 5.23457 4.2337 6.28201
      vertex 5.67203 0 7.34325
    endloop
  endfacet
  facet normal -0.259971 -0.259971 -0.929963
    outer loop
      vertex 5.23457 4.2337 6.28201
      vertex 5.37629 0 7.42592
      vertex 5.0337 4.43457 6.28201
    endloop
  endfacet
  facet normal -0.14187 -0.278434 -0.94992
    outer loop
      vertex 4.78058 4.56354 6.28201
      vertex 5.0337 4.43457 6.28201
      vertex 4.59668 3.99756 6.47538
    endloop
  endfacet
  facet normal -0.0926957 -0.585255 -0.805533
    outer loop
      vertex 4.5 5.11421 5.91421
      vertex 4.93702 5.045 5.91421
      vertex 4.5 4.60798 6.28201
    endloop
  endfacet
  facet normal -0.0488855 -0.308647 -0.94992
    outer loop
      vertex 4.5 4.60798 6.28201
      vertex 4.78058 4.56354 6.28201
      vertex 4.5 4.01287 6.47538
    endloop
  endfacet
  facet normal 0.169972 -0.258434 -0.950958
    outer loop
      vertex 4.00412 0 7.49392
      vertex 4.3161 3.95312 6.47538
      vertex 4.21772 0 7.5321
    endloop
  endfacet
  facet normal 0.169972 -0.258434 -0.950958
    outer loop
      vertex 4.3161 3.95312 6.47538
      vertex 4.00412 0 7.49392
      vertex 3.9663 4.43457 6.28201
    endloop
  endfacet
  facet normal 0.507307 -0.258486 -0.822086
    outer loop
      vertex 3.32797 0 7.34325
      vertex 3.63646 3.98058 6.28201
      vertex 3.76543 4.2337 6.28201
    endloop
  endfacet
  facet normal 0.507305 -0.258486 -0.822087
    outer loop
      vertex 3.63646 3.98058 6.28201
      vertex 3.32797 0 7.34325
      vertex 3.26735 0 7.30584
    endloop
  endfacet
  facet normal 0.915386 -0.258281 0.308802
    outer loop
      vertex 1.67678 0 3.38178
      vertex 2.6213 4.31042 4.18713
      vertex 1.46979 0 3.99536
    endloop
  endfacet
  facet normal 0.532322 -0.257621 0.80639
    outer loop
      vertex 3.155 4.13702 3.08579
      vertex 2.6888 0 2.07187
      vertex 3.63646 3.98058 2.71799
    endloop
  endfacet
  facet normal 0.532321 -0.257621 0.80639
    outer loop
      vertex 2.6888 0 2.07187
      vertex 3.155 4.13702 3.08579
      vertex 2.38281 0 2.27386
    endloop
  endfacet
  facet normal 0.574496 -0.574495 0.583018
    outer loop
      vertex 3.35588 4.53125 3.08579
      vertex 3.45256 5.14168 3.59202
      vertex 3.05832 4.74744 3.59202
    endloop
  endfacet
  facet normal 0.259971 -0.259971 0.929963
    outer loop
      vertex 3.76543 4.2337 2.71799
      vertex 3.62371 0 1.57408
      vertex 3.9663 4.43457 2.71799
    endloop
  endfacet
  facet normal 0.25997 -0.259971 0.929963
    outer loop
      vertex 3.62371 0 1.57408
      vertex 3.76543 4.2337 2.71799
      vertex 3.32797 0 1.65675
    endloop
  endfacet
  facet normal 0.0411785 -0.259988 0.964733
    outer loop
      vertex 4.40332 3.99756 2.52462
      vertex 4.40959 0 1.44704
      vertex 4.5 4.01287 2.52462
    endloop
  endfacet
  facet normal 0.0411783 -0.259988 0.964733
    outer loop
      vertex 4.40959 0 1.44704
      vertex 4.40332 3.99756 2.52462
      vertex 4.3507 0 1.44956
    endloop
  endfacet
  facet normal 0.0411788 -0.259988 0.964733
    outer loop
      vertex 4.5 0 1.44319
      vertex 4.5 4.01287 2.52462
      vertex 4.40959 0 1.44704
    endloop
  endfacet
  facet normal 0.418996 -0.418996 0.805534
    outer loop
      vertex 3.76543 4.2337 2.71799
      vertex 3.9663 4.43457 2.71799
      vertex 3.35588 4.53125 3.08579
    endloop
  endfacet
  facet normal 0.673286 -0.673285 0.30557
    outer loop
      vertex 3.05832 4.74744 3.59202
      vertex 3.45256 5.14168 3.59202
      vertex 2.90189 4.8611 4.18713
    endloop
  endfacet
  facet normal 0.127097 -0.802456 -0.583019
    outer loop
      vertex 4.5 5.48201 5.40798
      vertex 4.5 5.11421 5.91421
      vertex 4.06298 5.045 5.91421
    endloop
  endfacet
  facet normal 0.0926955 -0.585255 -0.805533
    outer loop
      vertex 4.5 5.11421 5.91421
      vertex 4.5 4.60798 6.28201
      vertex 4.06298 5.045 5.91421
    endloop
  endfacet
  facet normal -0.848389 -0.432276 -0.30557
    outer loop
      vertex 6.37869 4.31042 4.81287
      vertex 6.19479 4.25067 5.40798
      vertex 5.94168 4.74744 5.40798
    endloop
  endfacet
  facet normal -0.915386 -0.258281 -0.308803
    outer loop
      vertex 7.32322 0 5.61822
      vertex 6.19479 4.25067 5.40798
      vertex 6.37869 4.31042 4.81287
    endloop
  endfacet
  facet normal -0.915386 -0.258281 -0.308804
    outer loop
      vertex 6.19479 4.25067 5.40798
      vertex 7.32322 0 5.61822
      vertex 7.21056 0 5.95218
    endloop
  endfacet
  facet normal -0.723906 -0.368848 0.583019
    outer loop
      vertex 5.845 4.13702 3.08579
      vertex 6.19479 4.25067 3.59202
      vertex 5.64412 4.53125 3.08579
    endloop
  endfacet
  facet normal -0.766641 -0.25845 0.587762
    outer loop
      vertex 7.21056 0 3.04782
      vertex 5.845 4.13702 3.08579
      vertex 6.99249 0 2.76338
    endloop
  endfacet
  facet normal -0.766641 -0.25845 0.587762
    outer loop
      vertex 5.845 4.13702 3.08579
      vertex 7.21056 0 3.04782
      vertex 6.19479 4.25067 3.59202
    endloop
  endfacet
  facet normal -0.848389 -0.432276 0.30557
    outer loop
      vertex 6.19479 4.25067 3.59202
      vertex 6.37869 4.31042 4.18713
      vertex 5.94168 4.74744 3.59202
    endloop
  endfacet
  facet normal -0.723906 -0.368849 0.583018
    outer loop
      vertex 6.19479 4.25067 3.59202
      vertex 5.94168 4.74744 3.59202
      vertex 5.64412 4.53125 3.08579
    endloop
  endfacet
  facet normal -0.127097 -0.802456 -0.583019
    outer loop
      vertex 4.5 5.48201 5.40798
      vertex 4.93702 5.045 5.91421
      vertex 4.5 5.11421 5.91421
    endloop
  endfacet
  facet normal -0.0926963 -0.585255 -0.805534
    outer loop
      vertex 4.93702 5.045 5.91421
      vertex 4.78058 4.56354 6.28201
      vertex 4.5 4.60798 6.28201
    endloop
  endfacet
  facet normal -0.432276 -0.84839 -0.305569
    outer loop
      vertex 5.6611 5.29811 4.81287
      vertex 5.54744 5.14168 5.40798
      vertex 5.11042 5.57869 4.81287
    endloop
  endfacet
  facet normal -0.673286 -0.673286 -0.305569
    outer loop
      vertex 5.6611 5.29811 4.81287
      vertex 6.09811 4.8611 4.81287
      vertex 5.54744 5.14168 5.40798
    endloop
  endfacet
  facet normal -0.148953 -0.940447 0.30557
    outer loop
      vertex 5.05067 5.39479 3.59202
      vertex 5.11042 5.57869 4.18713
      vertex 4.5 5.48201 3.59202
    endloop
  endfacet
  facet normal -0.148952 -0.940447 0.305569
    outer loop
      vertex 5.11042 5.57869 4.18713
      vertex 4.5 5.67538 4.18713
      vertex 4.5 5.48201 3.59202
    endloop
  endfacet
  facet normal 0.0926955 -0.585255 0.805533
    outer loop
      vertex 4.5 4.60798 2.71799
      vertex 4.5 5.11421 3.08579
      vertex 4.06298 5.045 3.08579
    endloop
  endfacet
  facet normal 0.269013 -0.527966 0.805534
    outer loop
      vertex 3.9663 4.43457 2.71799
      vertex 4.21942 4.56354 2.71799
      vertex 3.66875 4.84412 3.08579
    endloop
  endfacet
  facet normal -0.527966 -0.269012 -0.805534
    outer loop
      vertex 5.64412 4.53125 5.91421
      vertex 5.845 4.13702 5.91421
      vertex 5.36354 3.98058 6.28201
    endloop
  endfacet
  facet normal -0.127097 -0.802456 -0.583019
    outer loop
      vertex 5.05067 5.39479 5.40798
      vertex 4.93702 5.045 5.91421
      vertex 4.5 5.48201 5.40798
    endloop
  endfacet
  facet normal -0.368848 -0.723906 -0.583019
    outer loop
      vertex 5.05067 5.39479 5.40798
      vertex 5.54744 5.14168 5.40798
      vertex 4.93702 5.045 5.91421
    endloop
  endfacet
  facet normal -0.0411775 -0.259988 -0.964733
    outer loop
      vertex 4.5 4.01287 6.47538
      vertex 4.59041 0 7.55296
      vertex 4.5 0 7.55681
    endloop
  endfacet
  facet normal -0.169972 -0.258434 -0.950958
    outer loop
      vertex 4.6839 3.95312 6.47538
      vertex 4.99588 0 7.49392
      vertex 4.78228 0 7.5321
    endloop
  endfacet
  facet normal -0.169972 -0.258434 -0.950958
    outer loop
      vertex 4.99588 0 7.49392
      vertex 4.6839 3.95312 6.47538
      vertex 5.0337 4.43457 6.28201
    endloop
  endfacet
  facet normal 0.131995 -0.259051 -0.956802
    outer loop
      vertex 4.2707 0 7.53941
      vertex 4.3161 3.95312 6.47538
      vertex 4.40332 3.99756 6.47538
    endloop
  endfacet
  facet normal 0.131996 -0.259051 -0.956802
    outer loop
      vertex 4.3161 3.95312 6.47538
      vertex 4.2707 0 7.53941
      vertex 4.21772 0 7.5321
    endloop
  endfacet
  facet normal 0.131995 -0.259051 -0.956802
    outer loop
      vertex 4.40332 3.99756 6.47538
      vertex 4.3507 0 7.55044
      vertex 4.2707 0 7.53941
    endloop
  endfacet
  facet normal 0.269013 -0.527966 -0.805534
    outer loop
      vertex 4.21942 4.56354 6.28201
      vertex 3.9663 4.43457 6.28201
      vertex 3.66875 4.84412 5.91421
    endloop
  endfacet
  facet normal 0.766641 -0.25845 0.587762
    outer loop
      vertex 1.78944 0 3.04782
      vertex 3.155 4.13702 3.08579
      vertex 2.8052 4.25067 3.59202
    endloop
  endfacet
  facet normal 0.766641 -0.25845 0.587762
    outer loop
      vertex 3.155 4.13702 3.08579
      vertex 1.78944 0 3.04782
      vertex 2.00751 0 2.76338
    endloop
  endfacet
  facet normal 0.915386 -0.258281 0.308803
    outer loop
      vertex 1.67678 0 3.38178
      vertex 2.8052 4.25067 3.59202
      vertex 2.6213 4.31042 4.18713
    endloop
  endfacet
  facet normal 0.915386 -0.258281 0.308803
    outer loop
      vertex 2.8052 4.25067 3.59202
      vertex 1.67678 0 3.38178
      vertex 1.78944 0 3.04782
    endloop
  endfacet
  facet normal 0.169972 -0.258434 0.950958
    outer loop
      vertex 4.00412 0 1.50608
      vertex 3.9663 4.43457 2.71799
      vertex 3.62371 0 1.57408
    endloop
  endfacet
  facet normal 0.131993 -0.259051 0.956802
    outer loop
      vertex 4.3507 0 1.44956
      vertex 4.40332 3.99756 2.52462
      vertex 4.2707 0 1.46059
    endloop
  endfacet
  facet normal 0.141871 -0.278433 0.94992
    outer loop
      vertex 4.3161 3.95312 2.52462
      vertex 4.40332 3.99756 2.52462
      vertex 3.9663 4.43457 2.71799
    endloop
  endfacet
  facet normal 0.0488853 -0.308647 0.94992
    outer loop
      vertex 4.5 4.01287 2.52462
      vertex 4.5 4.60798 2.71799
      vertex 4.21942 4.56354 2.71799
    endloop
  endfacet
  facet normal -0.0926963 -0.585255 0.805534
    outer loop
      vertex 4.78058 4.56354 2.71799
      vertex 4.93702 5.045 3.08579
      vertex 4.5 4.60798 2.71799
    endloop
  endfacet
  facet normal -0.25997 -0.259971 0.929963
    outer loop
      vertex 5.23457 4.2337 2.71799
      vertex 5.37629 0 1.57408
      vertex 5.67203 0 1.65675
    endloop
  endfacet
  facet normal -0.259971 -0.259971 0.929963
    outer loop
      vertex 5.37629 0 1.57408
      vertex 5.23457 4.2337 2.71799
      vertex 5.0337 4.43457 2.71799
    endloop
  endfacet
  facet normal -0.141871 -0.278433 0.94992
    outer loop
      vertex 4.6839 3.95312 2.52462
      vertex 5.0337 4.43457 2.71799
      vertex 4.59668 3.99756 2.52462
    endloop
  endfacet
  facet normal 0.891006 -0.453991 0
    outer loop
      vertex 2.6213 4.31042 4.81287
      vertex 2.90189 4.8611 4.18713
      vertex 2.90189 4.8611 4.81287
    endloop
  endfacet
  facet normal 0.891006 -0.453991 0
    outer loop
      vertex 2.90189 4.8611 4.18713
      vertex 2.6213 4.31042 4.81287
      vertex 2.6213 4.31042 4.18713
    endloop
  endfacet
  facet normal 0.45399 -0.891007 0
    outer loop
      vertex 3.3389 5.29811 4.18713
      vertex 3.88958 5.57869 4.81287
      vertex 3.3389 5.29811 4.81287
    endloop
  endfacet
  facet normal 0.45399 -0.891007 0
    outer loop
      vertex 3.88958 5.57869 4.81287
      vertex 3.3389 5.29811 4.18713
      vertex 3.88958 5.57869 4.18713
    endloop
  endfacet
  facet normal 0.432276 -0.84839 0.305569
    outer loop
      vertex 3.45256 5.14168 3.59202
      vertex 3.88958 5.57869 4.18713
      vertex 3.3389 5.29811 4.18713
    endloop
  endfacet
  facet normal 0.432275 -0.84839 -0.305569
    outer loop
      vertex 3.88958 5.57869 4.81287
      vertex 3.94933 5.39479 5.40798
      vertex 3.45256 5.14168 5.40798
    endloop
  endfacet
  facet normal 0.368848 -0.723906 -0.583019
    outer loop
      vertex 3.94933 5.39479 5.40798
      vertex 4.06298 5.045 5.91421
      vertex 3.45256 5.14168 5.40798
    endloop
  endfacet
  facet normal -0.848389 -0.432276 0.30557
    outer loop
      vertex 6.37869 4.31042 4.18713
      vertex 6.09811 4.8611 4.18713
      vertex 5.94168 4.74744 3.59202
    endloop
  endfacet
  facet normal -0.574496 -0.574495 0.583018
    outer loop
      vertex 5.64412 4.53125 3.08579
      vertex 5.94168 4.74744 3.59202
      vertex 5.54744 5.14168 3.59202
    endloop
  endfacet
  facet normal -0.673286 -0.673286 0.305569
    outer loop
      vertex 6.09811 4.8611 4.18713
      vertex 5.6611 5.29811 4.18713
      vertex 5.54744 5.14168 3.59202
    endloop
  endfacet
  facet normal 0.368849 -0.723905 0.58302
    outer loop
      vertex 3.66875 4.84412 3.08579
      vertex 4.06298 5.045 3.08579
      vertex 3.45256 5.14168 3.59202
    endloop
  endfacet
  facet normal 0.269012 -0.527966 0.805533
    outer loop
      vertex 4.21942 4.56354 2.71799
      vertex 4.06298 5.045 3.08579
      vertex 3.66875 4.84412 3.08579
    endloop
  endfacet
  facet normal 0.127097 -0.802456 0.583019
    outer loop
      vertex 4.06298 5.045 3.08579
      vertex 4.5 5.48201 3.59202
      vertex 3.94933 5.39479 3.59202
    endloop
  endfacet
  facet normal 0.368848 -0.723906 0.583019
    outer loop
      vertex 4.06298 5.045 3.08579
      vertex 3.94933 5.39479 3.59202
      vertex 3.45256 5.14168 3.59202
    endloop
  endfacet
  facet normal 0.127097 -0.802456 0.583019
    outer loop
      vertex 4.5 5.11421 3.08579
      vertex 4.5 5.48201 3.59202
      vertex 4.06298 5.045 3.08579
    endloop
  endfacet
  facet normal -0.127097 -0.802456 0.583019
    outer loop
      vertex 4.93702 5.045 3.08579
      vertex 4.5 5.48201 3.59202
      vertex 4.5 5.11421 3.08579
    endloop
  endfacet
  facet normal 0.0488853 -0.308647 0.94992
    outer loop
      vertex 4.40332 3.99756 2.52462
      vertex 4.5 4.01287 2.52462
      vertex 4.21942 4.56354 2.71799
    endloop
  endfacet
  facet normal 0.14187 -0.278434 0.94992
    outer loop
      vertex 4.40332 3.99756 2.52462
      vertex 4.21942 4.56354 2.71799
      vertex 3.9663 4.43457 2.71799
    endloop
  endfacet
  facet normal -0.527965 -0.269013 -0.805534
    outer loop
      vertex 5.64412 4.53125 5.91421
      vertex 5.36354 3.98058 6.28201
      vertex 5.23457 4.2337 6.28201
    endloop
  endfacet
  facet normal -0.418996 -0.418996 -0.805534
    outer loop
      vertex 5.64412 4.53125 5.91421
      vertex 5.23457 4.2337 6.28201
      vertex 5.0337 4.43457 6.28201
    endloop
  endfacet
  facet normal -0.131996 -0.259051 -0.956802
    outer loop
      vertex 4.7293 0 7.53941
      vertex 4.6839 3.95312 6.47538
      vertex 4.78228 0 7.5321
    endloop
  endfacet
  facet normal -0.131995 -0.259051 -0.956802
    outer loop
      vertex 4.6839 3.95312 6.47538
      vertex 4.7293 0 7.53941
      vertex 4.59668 3.99756 6.47538
    endloop
  endfacet
  facet normal -0.141871 -0.278433 -0.94992
    outer loop
      vertex 5.0337 4.43457 6.28201
      vertex 4.6839 3.95312 6.47538
      vertex 4.59668 3.99756 6.47538
    endloop
  endfacet
  facet normal 0.0411775 -0.259988 -0.964733
    outer loop
      vertex 4.5 4.01287 6.47538
      vertex 4.5 0 7.55681
      vertex 4.40959 0 7.55296
    endloop
  endfacet
  facet normal 0.169974 -0.258434 -0.950958
    outer loop
      vertex 3.9663 4.43457 6.28201
      vertex 4.00412 0 7.49392
      vertex 3.62371 0 7.42592
    endloop
  endfacet
  facet normal 0.673286 -0.673285 -0.30557
    outer loop
      vertex 3.45256 5.14168 5.40798
      vertex 3.05832 4.74744 5.40798
      vertex 2.90189 4.8611 4.81287
    endloop
  endfacet
  facet normal 0.418996 -0.418997 -0.805534
    outer loop
      vertex 3.66875 4.84412 5.91421
      vertex 3.9663 4.43457 6.28201
      vertex 3.35588 4.53125 5.91421
    endloop
  endfacet
  facet normal 0.766641 -0.25845 -0.587763
    outer loop
      vertex 3.155 4.13702 5.91421
      vertex 2.38281 0 6.72614
      vertex 2.00751 0 6.23662
    endloop
  endfacet
  facet normal 0.507309 -0.258486 -0.822084
    outer loop
      vertex 3.63646 3.98058 6.28201
      vertex 3.26735 0 7.30584
      vertex 3.16957 0 7.2455
    endloop
  endfacet
  facet normal 0.574494 -0.574495 -0.58302
    outer loop
      vertex 3.45256 5.14168 5.40798
      vertex 3.66875 4.84412 5.91421
      vertex 3.35588 4.53125 5.91421
    endloop
  endfacet
  facet normal 0.527966 -0.269012 0.805534
    outer loop
      vertex 3.63646 3.98058 2.71799
      vertex 3.35588 4.53125 3.08579
      vertex 3.155 4.13702 3.08579
    endloop
  endfacet
  facet normal 0.848389 -0.432276 0.30557
    outer loop
      vertex 2.8052 4.25067 3.59202
      vertex 3.05832 4.74744 3.59202
      vertex 2.6213 4.31042 4.18713
    endloop
  endfacet
  facet normal 0.507309 -0.258486 0.822084
    outer loop
      vertex 3.26735 0 1.69416
      vertex 3.63646 3.98058 2.71799
      vertex 3.16957 0 1.7545
    endloop
  endfacet
  facet normal 0.532321 -0.257621 0.80639
    outer loop
      vertex 3.16957 0 1.7545
      vertex 3.63646 3.98058 2.71799
      vertex 2.6888 0 2.07187
    endloop
  endfacet
  facet normal -0.0488858 -0.308647 0.94992
    outer loop
      vertex 4.59668 3.99756 2.52462
      vertex 4.78058 4.56354 2.71799
      vertex 4.5 4.01287 2.52462
    endloop
  endfacet
  facet normal -0.0411789 -0.259988 0.964733
    outer loop
      vertex 4.59668 3.99756 2.52462
      vertex 4.59041 0 1.44704
      vertex 4.6493 0 1.44956
    endloop
  endfacet
  facet normal -0.0411789 -0.259988 0.964733
    outer loop
      vertex 4.59041 0 1.44704
      vertex 4.59668 3.99756 2.52462
      vertex 4.5 4.01287 2.52462
    endloop
  endfacet
  facet normal 0.131995 -0.259051 0.956802
    outer loop
      vertex 4.3161 3.95312 2.52462
      vertex 4.2707 0 1.46059
      vertex 4.40332 3.99756 2.52462
    endloop
  endfacet
  facet normal 0.131994 -0.259051 0.956802
    outer loop
      vertex 4.2707 0 1.46059
      vertex 4.3161 3.95312 2.52462
      vertex 4.21772 0 1.4679
    endloop
  endfacet
  facet normal 0.169973 -0.258434 0.950958
    outer loop
      vertex 4.3161 3.95312 2.52462
      vertex 4.00412 0 1.50608
      vertex 4.21772 0 1.4679
    endloop
  endfacet
  facet normal 0.169972 -0.258434 0.950958
    outer loop
      vertex 4.00412 0 1.50608
      vertex 4.3161 3.95312 2.52462
      vertex 3.9663 4.43457 2.71799
    endloop
  endfacet
  facet normal -0.269013 -0.527966 0.805534
    outer loop
      vertex 5.0337 4.43457 2.71799
      vertex 5.33125 4.84412 3.08579
      vertex 4.78058 4.56354 2.71799
    endloop
  endfacet
  facet normal -0.418996 -0.418997 0.805534
    outer loop
      vertex 5.64412 4.53125 3.08579
      vertex 5.33125 4.84412 3.08579
      vertex 5.0337 4.43457 2.71799
    endloop
  endfacet
  facet normal -0.169972 -0.258434 0.950958
    outer loop
      vertex 4.6839 3.95312 2.52462
      vertex 4.99588 0 1.50608
      vertex 5.0337 4.43457 2.71799
    endloop
  endfacet
  facet normal -0.169973 -0.258434 0.950958
    outer loop
      vertex 4.99588 0 1.50608
      vertex 4.6839 3.95312 2.52462
      vertex 4.78228 0 1.4679
    endloop
  endfacet
  facet normal -0.169972 -0.258434 0.950958
    outer loop
      vertex 5.37629 0 1.57408
      vertex 5.0337 4.43457 2.71799
      vertex 4.99588 0 1.50608
    endloop
  endfacet
  facet normal 0.848389 -0.432276 -0.30557
    outer loop
      vertex 2.90189 4.8611 4.81287
      vertex 3.05832 4.74744 5.40798
      vertex 2.6213 4.31042 4.81287
    endloop
  endfacet
  facet normal 0.848389 -0.432276 -0.30557
    outer loop
      vertex 3.05832 4.74744 5.40798
      vertex 2.8052 4.25067 5.40798
      vertex 2.6213 4.31042 4.81287
    endloop
  endfacet
  facet normal -0.269012 -0.527966 -0.805533
    outer loop
      vertex 4.93702 5.045 5.91421
      vertex 5.33125 4.84412 5.91421
      vertex 4.78058 4.56354 6.28201
    endloop
  endfacet
  facet normal -0.368849 -0.723905 -0.58302
    outer loop
      vertex 5.54744 5.14168 5.40798
      vertex 5.33125 4.84412 5.91421
      vertex 4.93702 5.045 5.91421
    endloop
  endfacet
  facet normal 0.127097 -0.802456 -0.583019
    outer loop
      vertex 4.5 5.48201 5.40798
      vertex 4.06298 5.045 5.91421
      vertex 3.94933 5.39479 5.40798
    endloop
  endfacet
  facet normal 0.148953 -0.940447 -0.30557
    outer loop
      vertex 4.5 5.48201 5.40798
      vertex 3.94933 5.39479 5.40798
      vertex 3.88958 5.57869 4.81287
    endloop
  endfacet
  facet normal -0.131995 -0.259051 -0.956802
    outer loop
      vertex 4.7293 0 7.53941
      vertex 4.6493 0 7.55044
      vertex 4.59668 3.99756 6.47538
    endloop
  endfacet
  facet normal -0.041177 -0.259988 -0.964733
    outer loop
      vertex 4.59041 0 7.55296
      vertex 4.59668 3.99756 6.47538
      vertex 4.6493 0 7.55044
    endloop
  endfacet
  facet normal -0.0411789 -0.259988 -0.964733
    outer loop
      vertex 4.59668 3.99756 6.47538
      vertex 4.59041 0 7.55296
      vertex 4.5 4.01287 6.47538
    endloop
  endfacet
  facet normal 0.0411785 -0.259988 -0.964733
    outer loop
      vertex 4.40959 0 7.55296
      vertex 4.40332 3.99756 6.47538
      vertex 4.5 4.01287 6.47538
    endloop
  endfacet
  facet normal 0.0411763 -0.259988 -0.964733
    outer loop
      vertex 4.40332 3.99756 6.47538
      vertex 4.40959 0 7.55296
      vertex 4.3507 0 7.55044
    endloop
  endfacet
  facet normal 0.0488853 -0.308647 -0.94992
    outer loop
      vertex 4.5 4.01287 6.47538
      vertex 4.40332 3.99756 6.47538
      vertex 4.21942 4.56354 6.28201
    endloop
  endfacet
  facet normal 0.368849 -0.723905 -0.58302
    outer loop
      vertex 4.06298 5.045 5.91421
      vertex 3.66875 4.84412 5.91421
      vertex 3.45256 5.14168 5.40798
    endloop
  endfacet
  facet normal 0.269012 -0.527966 -0.805533
    outer loop
      vertex 4.06298 5.045 5.91421
      vertex 4.21942 4.56354 6.28201
      vertex 3.66875 4.84412 5.91421
    endloop
  endfacet
  facet normal 0.141871 -0.278433 -0.94992
    outer loop
      vertex 4.40332 3.99756 6.47538
      vertex 4.3161 3.95312 6.47538
      vertex 3.9663 4.43457 6.28201
    endloop
  endfacet
  facet normal 0.14187 -0.278434 -0.94992
    outer loop
      vertex 4.21942 4.56354 6.28201
      vertex 4.40332 3.99756 6.47538
      vertex 3.9663 4.43457 6.28201
    endloop
  endfacet
  facet normal 0.574494 -0.574495 0.58302
    outer loop
      vertex 3.66875 4.84412 3.08579
      vertex 3.45256 5.14168 3.59202
      vertex 3.35588 4.53125 3.08579
    endloop
  endfacet
  facet normal 0.418996 -0.418997 0.805534
    outer loop
      vertex 3.9663 4.43457 2.71799
      vertex 3.66875 4.84412 3.08579
      vertex 3.35588 4.53125 3.08579
    endloop
  endfacet
  facet normal -0.131993 -0.259051 0.956802
    outer loop
      vertex 4.6493 0 1.44956
      vertex 4.7293 0 1.46059
      vertex 4.59668 3.99756 2.52462
    endloop
  endfacet
  facet normal 0.574496 -0.574495 -0.583018
    outer loop
      vertex 3.45256 5.14168 5.40798
      vertex 3.35588 4.53125 5.91421
      vertex 3.05832 4.74744 5.40798
    endloop
  endfacet
  facet normal 0.723906 -0.368849 -0.583018
    outer loop
      vertex 3.05832 4.74744 5.40798
      vertex 3.35588 4.53125 5.91421
      vertex 2.8052 4.25067 5.40798
    endloop
  endfacet
  facet normal 0.259971 -0.259971 -0.929963
    outer loop
      vertex 3.62371 0 7.42592
      vertex 3.76543 4.2337 6.28201
      vertex 3.9663 4.43457 6.28201
    endloop
  endfacet
  facet normal 0.25997 -0.259971 -0.929963
    outer loop
      vertex 3.76543 4.2337 6.28201
      vertex 3.62371 0 7.42592
      vertex 3.32797 0 7.34325
    endloop
  endfacet
  facet normal 0.418996 -0.418996 -0.805534
    outer loop
      vertex 3.9663 4.43457 6.28201
      vertex 3.76543 4.2337 6.28201
      vertex 3.35588 4.53125 5.91421
    endloop
  endfacet
endsolid OpenSCAD_Model
