solid OpenSCAD_Model
  facet normal -1 0 0
    outer loop
      vertex 0 0 0
      vertex 0 15 9.02
      vertex 0 15 0
    endloop
  endfacet
  facet normal -1 -0 0
    outer loop
      vertex 0 15 9.02
      vertex 0 0 0
      vertex 0 0 9.02
    endloop
  endfacet
  facet normal -0 0 1
    outer loop
      vertex 0 15 9.02
      vertex 9.02 0 9.02
      vertex 9.02 15 9.02
    endloop
  endfacet
  facet normal 0 0 1
    outer loop
      vertex 9.02 0 9.02
      vertex 0 15 9.02
      vertex 0 0 9.02
    endloop
  endfacet
  facet normal 1 -0 0
    outer loop
      vertex 9.02 0 9.02
      vertex 9.02 15 0
      vertex 9.02 15 9.02
    endloop
  endfacet
  facet normal 1 0 0
    outer loop
      vertex 9.02 15 0
      vertex 9.02 0 9.02
      vertex 9.02 0 0
    endloop
  endfacet
  facet normal 0 0 -1
    outer loop
      vertex 0 0 0
      vertex 9.02 15 0
      vertex 9.02 0 0
    endloop
  endfacet
  facet normal -0 0 -1
    outer loop
      vertex 9.02 15 0
      vertex 0 0 0
      vertex 0 15 0
    endloop
  endfacet
  facet normal 0 -1 0
    outer loop
      vertex 0 0 9.02
      vertex 4.5 0 8.10854
      vertex 9.02 0 9.02
    endloop
  endfacet
  facet normal 0 -1 0
    outer loop
      vertex 0 0 9.02
      vertex 4.3633 0 8.10462
      vertex 4.5 0 8.10854
    endloop
  endfacet
  facet normal 0 -1 0
    outer loop
      vertex 0 0 9.02
      vertex 4.32363 0 8.10348
      vertex 4.3633 0 8.10462
    endloop
  endfacet
  facet normal 0 -1 0
    outer loop
      vertex 0 0 9.02
      vertex 4.20181 0 8.0922
      vertex 4.32363 0 8.10348
    endloop
  endfacet
  facet normal 0 -1 0
    outer loop
      vertex 0 0 9.02
      vertex 4.16589 0 8.08887
      vertex 4.20181 0 8.0922
    endloop
  endfacet
  facet normal 0 -1 0
    outer loop
      vertex 0 0 9.02
      vertex 4.13741 0 8.08365
      vertex 4.16589 0 8.08887
    endloop
  endfacet
  facet normal 0 -1 0
    outer loop
      vertex 0 0 9.02
      vertex 4.04302 0 8.06635
      vertex 4.13741 0 8.08365
    endloop
  endfacet
  facet normal 0 -1 0
    outer loop
      vertex 0 0 9.02
      vertex 3.83974 0 8.01206
      vertex 4.04302 0 8.06635
    endloop
  endfacet
  facet normal 0 -1 0
    outer loop
      vertex 0 0 9.02
      vertex 3.13037 0 7.82262
      vertex 3.83974 0 8.01206
    endloop
  endfacet
  facet normal 0 -1 0
    outer loop
      vertex 0 0 9.02
      vertex 3.08696 0 7.80619
      vertex 3.13037 0 7.82262
    endloop
  endfacet
  facet normal 0 -1 0
    outer loop
      vertex 0 0 9.02
      vertex 2.92717 0 7.7457
      vertex 3.08696 0 7.80619
    endloop
  endfacet
  facet normal 0 -1 0
    outer loop
      vertex 0 0 9.02
      vertex 2.21438 0 7.2516
      vertex 2.92717 0 7.7457
    endloop
  endfacet
  facet normal 0 -1 0
    outer loop
      vertex 0 0 9.02
      vertex 2.01471 0 7.11319
      vertex 2.21438 0 7.2516
    endloop
  endfacet
  facet normal 0 -1 0
    outer loop
      vertex 0 0 9.02
      vertex 1.47596 0 6.38597
      vertex 2.01471 0 7.11319
    endloop
  endfacet
  facet normal 0 -1 0
    outer loop
      vertex 0 0 9.02
      vertex 1.33497 0 6.19565
      vertex 1.47596 0 6.38597
    endloop
  endfacet
  facet normal 0 -1 0
    outer loop
      vertex 0 0 9.02
      vertex 1.2617 0 5.97213
      vertex 1.33497 0 6.19565
    endloop
  endfacet
  facet normal 0 -1 0
    outer loop
      vertex 0 0 9.02
      vertex 0.971769 0 5.08757
      vertex 1.2617 0 5.97213
    endloop
  endfacet
  facet normal 0 -1 0
    outer loop
      vertex 0 0 9.02
      vertex 0.971769 0 3.91242
      vertex 0.971769 0 5.08757
    endloop
  endfacet
  facet normal 0 -1 0
    outer loop
      vertex 0 0 0
      vertex 3.32835 0 1.12451
      vertex 3.13037 0 1.17738
    endloop
  endfacet
  facet normal 0 -1 -0
    outer loop
      vertex 4.3633 0 0.895382
      vertex 0 0 0
      vertex 4.5 0 0.891458
    endloop
  endfacet
  facet normal 0 -1 -0
    outer loop
      vertex 4.32363 0 0.89652
      vertex 0 0 0
      vertex 4.3633 0 0.895382
    endloop
  endfacet
  facet normal 0 -1 -0
    outer loop
      vertex 4.20181 0 0.907803
      vertex 0 0 0
      vertex 4.32363 0 0.89652
    endloop
  endfacet
  facet normal 0 -1 -0
    outer loop
      vertex 4.16589 0 0.91113
      vertex 0 0 0
      vertex 4.20181 0 0.907803
    endloop
  endfacet
  facet normal 0 -1 -0
    outer loop
      vertex 4.13741 0 0.916349
      vertex 0 0 0
      vertex 4.16589 0 0.91113
    endloop
  endfacet
  facet normal 0 -1 -0
    outer loop
      vertex 4.04302 0 0.93365
      vertex 0 0 0
      vertex 4.13741 0 0.916349
    endloop
  endfacet
  facet normal 0 -1 -0
    outer loop
      vertex 3.32835 0 1.12451
      vertex 0 0 0
      vertex 4.04302 0 0.93365
    endloop
  endfacet
  facet normal 0 -1 -0
    outer loop
      vertex 3.08696 0 1.19381
      vertex 0 0 0
      vertex 3.13037 0 1.17738
    endloop
  endfacet
  facet normal 0 -1 -0
    outer loop
      vertex 2.92717 0 1.2543
      vertex 0 0 0
      vertex 3.08696 0 1.19381
    endloop
  endfacet
  facet normal 0 -1 -0
    outer loop
      vertex 2.21438 0 1.7484
      vertex 0 0 0
      vertex 2.92717 0 1.2543
    endloop
  endfacet
  facet normal 0 -1 -0
    outer loop
      vertex 2.01471 0 1.88681
      vertex 0 0 0
      vertex 2.21438 0 1.7484
    endloop
  endfacet
  facet normal 0 -1 -0
    outer loop
      vertex 1.47596 0 2.61403
      vertex 0 0 0
      vertex 2.01471 0 1.88681
    endloop
  endfacet
  facet normal 0 -1 -0
    outer loop
      vertex 1.33497 0 2.80435
      vertex 0 0 0
      vertex 1.47596 0 2.61403
    endloop
  endfacet
  facet normal 0 -1 -0
    outer loop
      vertex 1.2617 0 3.02787
      vertex 0 0 0
      vertex 1.33497 0 2.80435
    endloop
  endfacet
  facet normal 0 -1 -0
    outer loop
      vertex 0.971769 0 3.91242
      vertex 0 0 0
      vertex 1.2617 0 3.02787
    endloop
  endfacet
  facet normal 0 -1 0
    outer loop
      vertex 0 0 0
      vertex 0.971769 0 3.91242
      vertex 0 0 9.02
    endloop
  endfacet
  facet normal 0 -1 0
    outer loop
      vertex 4.6367 0 8.10462
      vertex 9.02 0 9.02
      vertex 4.5 0 8.10854
    endloop
  endfacet
  facet normal 0 -1 0
    outer loop
      vertex 4.67637 0 8.10348
      vertex 9.02 0 9.02
      vertex 4.6367 0 8.10462
    endloop
  endfacet
  facet normal 0 -1 0
    outer loop
      vertex 4.79819 0 8.0922
      vertex 9.02 0 9.02
      vertex 4.67637 0 8.10348
    endloop
  endfacet
  facet normal 0 -1 0
    outer loop
      vertex 4.83411 0 8.08887
      vertex 9.02 0 9.02
      vertex 4.79819 0 8.0922
    endloop
  endfacet
  facet normal 0 -1 0
    outer loop
      vertex 4.86259 0 8.08365
      vertex 9.02 0 9.02
      vertex 4.83411 0 8.08887
    endloop
  endfacet
  facet normal 0 -1 0
    outer loop
      vertex 4.95698 0 8.06635
      vertex 9.02 0 9.02
      vertex 4.86259 0 8.08365
    endloop
  endfacet
  facet normal 0 -1 0
    outer loop
      vertex 5.16026 0 8.01206
      vertex 9.02 0 9.02
      vertex 4.95698 0 8.06635
    endloop
  endfacet
  facet normal 0 -1 0
    outer loop
      vertex 5.86963 0 7.82262
      vertex 9.02 0 9.02
      vertex 5.16026 0 8.01206
    endloop
  endfacet
  facet normal 0 -1 0
    outer loop
      vertex 5.91304 0 7.80619
      vertex 9.02 0 9.02
      vertex 5.86963 0 7.82262
    endloop
  endfacet
  facet normal 0 -1 0
    outer loop
      vertex 6.07282 0 7.7457
      vertex 9.02 0 9.02
      vertex 5.91304 0 7.80619
    endloop
  endfacet
  facet normal 0 -1 0
    outer loop
      vertex 6.78562 0 7.2516
      vertex 9.02 0 9.02
      vertex 6.07282 0 7.7457
    endloop
  endfacet
  facet normal 0 -1 0
    outer loop
      vertex 6.98529 0 7.11319
      vertex 9.02 0 9.02
      vertex 6.78562 0 7.2516
    endloop
  endfacet
  facet normal 0 -1 0
    outer loop
      vertex 7.52403 0 6.38597
      vertex 9.02 0 9.02
      vertex 6.98529 0 7.11319
    endloop
  endfacet
  facet normal 0 -1 0
    outer loop
      vertex 7.66503 0 6.19565
      vertex 9.02 0 9.02
      vertex 7.52403 0 6.38597
    endloop
  endfacet
  facet normal 0 -1 0
    outer loop
      vertex 7.73829 0 5.97213
      vertex 9.02 0 9.02
      vertex 7.66503 0 6.19565
    endloop
  endfacet
  facet normal 0 -1 0
    outer loop
      vertex 8.02823 0 5.08757
      vertex 9.02 0 9.02
      vertex 7.73829 0 5.97213
    endloop
  endfacet
  facet normal 0 -1 0
    outer loop
      vertex 8.02823 0 3.91242
      vertex 9.02 0 9.02
      vertex 8.02823 0 5.08757
    endloop
  endfacet
  facet normal 0 -1 0
    outer loop
      vertex 9.02 0 0
      vertex 7.73829 0 3.02787
      vertex 7.66503 0 2.80435
    endloop
  endfacet
  facet normal 0 -1 0
    outer loop
      vertex 9.02 0 0
      vertex 7.52403 0 2.61403
      vertex 6.98529 0 1.88681
    endloop
  endfacet
  facet normal 0 -1 0
    outer loop
      vertex 9.02 0 0
      vertex 4.5 0 0.891458
      vertex 0 0 0
    endloop
  endfacet
  facet normal 0 -1 0
    outer loop
      vertex 4.5 0 0.891458
      vertex 9.02 0 0
      vertex 4.6367 0 0.895382
    endloop
  endfacet
  facet normal 0 -1 0
    outer loop
      vertex 4.6367 0 0.895382
      vertex 9.02 0 0
      vertex 4.67637 0 0.89652
    endloop
  endfacet
  facet normal 0 -1 0
    outer loop
      vertex 4.67637 0 0.89652
      vertex 9.02 0 0
      vertex 4.79819 0 0.907803
    endloop
  endfacet
  facet normal 0 -1 0
    outer loop
      vertex 4.79819 0 0.907803
      vertex 9.02 0 0
      vertex 4.83411 0 0.91113
    endloop
  endfacet
  facet normal 0 -1 0
    outer loop
      vertex 4.83411 0 0.91113
      vertex 9.02 0 0
      vertex 4.86259 0 0.916349
    endloop
  endfacet
  facet normal 0 -1 0
    outer loop
      vertex 8.02823 0 3.91242
      vertex 9.02 0 0
      vertex 9.02 0 9.02
    endloop
  endfacet
  facet normal 0 -1 0
    outer loop
      vertex 7.73829 0 3.02787
      vertex 9.02 0 0
      vertex 8.02823 0 3.91242
    endloop
  endfacet
  facet normal 0 -1 0
    outer loop
      vertex 7.52403 0 2.61403
      vertex 9.02 0 0
      vertex 7.66503 0 2.80435
    endloop
  endfacet
  facet normal 0 -1 0
    outer loop
      vertex 6.78562 0 1.7484
      vertex 9.02 0 0
      vertex 6.98529 0 1.88681
    endloop
  endfacet
  facet normal 0 -1 0
    outer loop
      vertex 6.07282 0 1.2543
      vertex 9.02 0 0
      vertex 6.78562 0 1.7484
    endloop
  endfacet
  facet normal 0 -1 0
    outer loop
      vertex 5.91304 0 1.19381
      vertex 9.02 0 0
      vertex 6.07282 0 1.2543
    endloop
  endfacet
  facet normal 0 -1 0
    outer loop
      vertex 5.86963 0 1.17738
      vertex 9.02 0 0
      vertex 5.91304 0 1.19381
    endloop
  endfacet
  facet normal 0 -1 0
    outer loop
      vertex 5.67165 0 1.12451
      vertex 9.02 0 0
      vertex 5.86963 0 1.17738
    endloop
  endfacet
  facet normal 0 -1 0
    outer loop
      vertex 4.95698 0 0.93365
      vertex 9.02 0 0
      vertex 5.67165 0 1.12451
    endloop
  endfacet
  facet normal 0 -1 0
    outer loop
      vertex 4.86259 0 0.916349
      vertex 9.02 0 0
      vertex 4.95698 0 0.93365
    endloop
  endfacet
  facet normal 0 1 -0
    outer loop
      vertex 9.02 15 0
      vertex 0 15 9.02
      vertex 9.02 15 9.02
    endloop
  endfacet
  facet normal 0 1 0
    outer loop
      vertex 0 15 9.02
      vertex 9.02 15 0
      vertex 0 15 0
    endloop
  endfacet
  facet normal 0.574496 -0.574495 0.583018
    outer loop
      vertex 3.35588 9.53125 3.08579
      vertex 3.45256 10.1417 3.59202
      vertex 3.05832 9.74744 3.59202
    endloop
  endfacet
  facet normal 0.723906 -0.368849 0.583018
    outer loop
      vertex 3.35588 9.53125 3.08579
      vertex 3.05832 9.74744 3.59202
      vertex 2.8052 9.25067 3.59202
    endloop
  endfacet
  facet normal 0.092696 -0.585255 0.805534
    outer loop
      vertex 4.21942 9.56354 2.71799
      vertex 4.5 9.60798 2.71799
      vertex 4.06298 10.045 3.08579
    endloop
  endfacet
  facet normal -0.673286 -0.673286 -0.305569
    outer loop
      vertex 5.6611 10.2981 4.81287
      vertex 6.09811 9.8611 4.81287
      vertex 5.54744 10.1417 5.40798
    endloop
  endfacet
  facet normal -0.34841 -0.177524 0.920378
    outer loop
      vertex 5.91304 0 1.19381
      vertex 6.07282 0 1.2543
      vertex 5.36354 8.98058 2.71799
    endloop
  endfacet
  facet normal 0.0926955 -0.585255 0.805533
    outer loop
      vertex 4.5 9.60798 2.71799
      vertex 4.5 10.1142 3.08579
      vertex 4.06298 10.045 3.08579
    endloop
  endfacet
  facet normal -0.935623 -0.174814 0.306676
    outer loop
      vertex 7.73829 0 3.02787
      vertex 8.02823 0 3.91242
      vertex 6.37869 9.31042 4.18713
    endloop
  endfacet
  facet normal -0.673286 -0.673285 -0.30557
    outer loop
      vertex 6.09811 9.8611 4.81287
      vertex 5.94168 9.74744 5.40798
      vertex 5.54744 10.1417 5.40798
    endloop
  endfacet
  facet normal -0.891006 -0.453991 0
    outer loop
      vertex 6.37869 9.31042 4.18713
      vertex 6.09811 9.8611 4.81287
      vertex 6.09811 9.8611 4.18713
    endloop
  endfacet
  facet normal -0.891006 -0.453991 0
    outer loop
      vertex 6.09811 9.8611 4.81287
      vertex 6.37869 9.31042 4.18713
      vertex 6.37869 9.31042 4.81287
    endloop
  endfacet
  facet normal 0.0926955 -0.585255 -0.805533
    outer loop
      vertex 4.5 10.1142 5.91421
      vertex 4.5 9.60798 6.28201
      vertex 4.06298 10.045 5.91421
    endloop
  endfacet
  facet normal 0.368848 -0.723906 0.583019
    outer loop
      vertex 4.06298 10.045 3.08579
      vertex 3.94933 10.3948 3.59202
      vertex 3.45256 10.1417 3.59202
    endloop
  endfacet
  facet normal -0.14187 -0.278434 0.94992
    outer loop
      vertex 5.0337 9.43457 2.71799
      vertex 4.78058 9.56354 2.71799
      vertex 4.59668 8.99756 2.52462
    endloop
  endfacet
  facet normal -0.560792 -0.176145 -0.809003
    outer loop
      vertex 5.36354 8.98058 6.28201
      vertex 6.98529 0 7.11319
      vertex 6.78562 0 7.2516
    endloop
  endfacet
  facet normal -0.560791 -0.176145 -0.809003
    outer loop
      vertex 6.98529 0 7.11319
      vertex 5.36354 8.98058 6.28201
      vertex 5.845 9.13702 5.91421
    endloop
  endfacet
  facet normal 0.25398 -0.176144 0.951035
    outer loop
      vertex 3.13037 0 1.17738
      vertex 4.24688 8.8839 2.52462
      vertex 3.76543 9.2337 2.71799
    endloop
  endfacet
  facet normal 0.25398 -0.176144 0.951035
    outer loop
      vertex 4.24688 8.8839 2.52462
      vertex 3.13037 0 1.17738
      vertex 3.32835 0 1.12451
    endloop
  endfacet
  facet normal -0.848389 -0.432276 -0.30557
    outer loop
      vertex 6.09811 9.8611 4.81287
      vertex 6.37869 9.31042 4.81287
      vertex 5.94168 9.74744 5.40798
    endloop
  endfacet
  facet normal -0.673286 -0.673286 0.305569
    outer loop
      vertex 6.09811 9.8611 4.18713
      vertex 5.6611 10.2981 4.18713
      vertex 5.54744 10.1417 3.59202
    endloop
  endfacet
  facet normal -0.848389 -0.432276 0.30557
    outer loop
      vertex 6.37869 9.31042 4.18713
      vertex 6.09811 9.8611 4.18713
      vertex 5.94168 9.74744 3.59202
    endloop
  endfacet
  facet normal 0.25398 -0.176144 0.951035
    outer loop
      vertex 4.04302 0 0.93365
      vertex 4.24688 8.8839 2.52462
      vertex 3.32835 0 1.12451
    endloop
  endfacet
  facet normal -0.0488858 -0.308647 -0.94992
    outer loop
      vertex 4.78058 9.56354 6.28201
      vertex 4.59668 8.99756 6.47538
      vertex 4.5 9.01287 6.47538
    endloop
  endfacet
  facet normal 0.177427 -0.177427 0.968008
    outer loop
      vertex 4.13741 0 0.916349
      vertex 4.24688 8.8839 2.52462
      vertex 4.04302 0 0.93365
    endloop
  endfacet
  facet normal -0.723906 -0.368849 -0.583018
    outer loop
      vertex 5.94168 9.74744 5.40798
      vertex 6.19479 9.25067 5.40798
      vertex 5.64412 9.53125 5.91421
    endloop
  endfacet
  facet normal 0.791035 -0.17562 -0.586022
    outer loop
      vertex 3.155 9.13702 5.91421
      vertex 2.01471 0 7.11319
      vertex 1.47596 0 6.38597
    endloop
  endfacet
  facet normal 0.791035 -0.17562 0.586021
    outer loop
      vertex 1.33497 0 2.80435
      vertex 3.155 9.13702 3.08579
      vertex 2.8052 9.25067 3.59202
    endloop
  endfacet
  facet normal 0.791035 -0.17562 0.586021
    outer loop
      vertex 3.155 9.13702 3.08579
      vertex 1.33497 0 2.80435
      vertex 1.47596 0 2.61403
    endloop
  endfacet
  facet normal -0.560791 -0.176145 0.809003
    outer loop
      vertex 5.36354 8.98058 2.71799
      vertex 6.98529 0 1.88681
      vertex 5.845 9.13702 3.08579
    endloop
  endfacet
  facet normal -0.560791 -0.176145 0.809003
    outer loop
      vertex 6.98529 0 1.88681
      vertex 5.36354 8.98058 2.71799
      vertex 6.78562 0 1.7484
    endloop
  endfacet
  facet normal -0.723906 -0.368849 0.583018
    outer loop
      vertex 6.19479 9.25067 3.59202
      vertex 5.94168 9.74744 3.59202
      vertex 5.64412 9.53125 3.08579
    endloop
  endfacet
  facet normal -0.935623 -0.174814 -0.306676
    outer loop
      vertex 8.02823 0 5.08757
      vertex 7.73829 0 5.97213
      vertex 6.37869 9.31042 4.81287
    endloop
  endfacet
  facet normal -0.935623 -0.174814 -0.306676
    outer loop
      vertex 7.73829 0 5.97213
      vertex 6.19479 9.25067 5.40798
      vertex 6.37869 9.31042 4.81287
    endloop
  endfacet
  facet normal -0.935623 -0.174814 -0.306675
    outer loop
      vertex 6.19479 9.25067 5.40798
      vertex 7.73829 0 5.97213
      vertex 7.66503 0 6.19565
    endloop
  endfacet
  facet normal -0.269013 -0.527966 0.805534
    outer loop
      vertex 5.0337 9.43457 2.71799
      vertex 5.33125 9.84412 3.08579
      vertex 4.78058 9.56354 2.71799
    endloop
  endfacet
  facet normal -0.269012 -0.527966 0.805533
    outer loop
      vertex 5.33125 9.84412 3.08579
      vertex 4.93702 10.045 3.08579
      vertex 4.78058 9.56354 2.71799
    endloop
  endfacet
  facet normal -0.148953 -0.940447 0.30557
    outer loop
      vertex 5.05067 10.3948 3.59202
      vertex 5.11042 10.5787 4.18713
      vertex 4.5 10.482 3.59202
    endloop
  endfacet
  facet normal 0.0488853 -0.308647 0.94992
    outer loop
      vertex 4.5 9.01287 2.52462
      vertex 4.5 9.60798 2.71799
      vertex 4.21942 9.56354 2.71799
    endloop
  endfacet
  facet normal 0.574494 -0.574495 0.58302
    outer loop
      vertex 3.66875 9.84412 3.08579
      vertex 3.45256 10.1417 3.59202
      vertex 3.35588 9.53125 3.08579
    endloop
  endfacet
  facet normal 0.0907489 -0.178101 0.979819
    outer loop
      vertex 4.3161 8.95312 2.52462
      vertex 4.20181 0 0.907803
      vertex 4.40332 8.99756 2.52462
    endloop
  endfacet
  facet normal 0.0907491 -0.178101 0.979819
    outer loop
      vertex 4.20181 0 0.907803
      vertex 4.3161 8.95312 2.52462
      vertex 4.16589 0 0.91113
    endloop
  endfacet
  facet normal 0.34841 -0.177524 0.920378
    outer loop
      vertex 3.08696 0 1.19381
      vertex 3.63646 8.98058 2.71799
      vertex 2.92717 0 1.2543
    endloop
  endfacet
  facet normal 0.527966 -0.269012 0.805534
    outer loop
      vertex 3.63646 8.98058 2.71799
      vertex 3.35588 9.53125 3.08579
      vertex 3.155 9.13702 3.08579
    endloop
  endfacet
  facet normal 0.14187 -0.278434 0.94992
    outer loop
      vertex 4.40332 8.99756 2.52462
      vertex 4.21942 9.56354 2.71799
      vertex 3.9663 9.43457 2.71799
    endloop
  endfacet
  facet normal -0.127097 -0.802456 0.583019
    outer loop
      vertex 4.93702 10.045 3.08579
      vertex 4.5 10.482 3.59202
      vertex 4.5 10.1142 3.08579
    endloop
  endfacet
  facet normal -0.574494 -0.574495 0.58302
    outer loop
      vertex 5.64412 9.53125 3.08579
      vertex 5.54744 10.1417 3.59202
      vertex 5.33125 9.84412 3.08579
    endloop
  endfacet
  facet normal -0.527965 -0.269013 -0.805534
    outer loop
      vertex 5.64412 9.53125 5.91421
      vertex 5.36354 8.98058 6.28201
      vertex 5.23457 9.2337 6.28201
    endloop
  endfacet
  facet normal -0.269012 -0.527966 -0.805533
    outer loop
      vertex 4.93702 10.045 5.91421
      vertex 5.33125 9.84412 5.91421
      vertex 4.78058 9.56354 6.28201
    endloop
  endfacet
  facet normal -0.432276 -0.84839 0.305569
    outer loop
      vertex 5.54744 10.1417 3.59202
      vertex 5.6611 10.2981 4.18713
      vertex 5.11042 10.5787 4.18713
    endloop
  endfacet
  facet normal 0.0488853 -0.308647 -0.94992
    outer loop
      vertex 4.5 9.01287 6.47538
      vertex 4.40332 8.99756 6.47538
      vertex 4.21942 9.56354 6.28201
    endloop
  endfacet
  facet normal -0.574496 -0.574495 -0.583018
    outer loop
      vertex 5.94168 9.74744 5.40798
      vertex 5.64412 9.53125 5.91421
      vertex 5.54744 10.1417 5.40798
    endloop
  endfacet
  facet normal -0.791035 -0.17562 0.586022
    outer loop
      vertex 6.98529 0 1.88681
      vertex 7.52403 0 2.61403
      vertex 5.845 9.13702 3.08579
    endloop
  endfacet
  facet normal -0.984665 -0.174454 0
    outer loop
      vertex 8.02823 0 3.91242
      vertex 6.37869 9.31042 4.81287
      vertex 6.37869 9.31042 4.18713
    endloop
  endfacet
  facet normal -0.984665 -0.174454 0
    outer loop
      vertex 6.37869 9.31042 4.81287
      vertex 8.02823 0 3.91242
      vertex 8.02823 0 5.08757
    endloop
  endfacet
  facet normal -0.527966 -0.269012 0.805534
    outer loop
      vertex 5.845 9.13702 3.08579
      vertex 5.64412 9.53125 3.08579
      vertex 5.36354 8.98058 2.71799
    endloop
  endfacet
  facet normal -0.723906 -0.368848 0.583019
    outer loop
      vertex 5.845 9.13702 3.08579
      vertex 6.19479 9.25067 3.59202
      vertex 5.64412 9.53125 3.08579
    endloop
  endfacet
  facet normal -0.791035 -0.17562 0.586022
    outer loop
      vertex 7.66503 0 2.80435
      vertex 5.845 9.13702 3.08579
      vertex 7.52403 0 2.61403
    endloop
  endfacet
  facet normal -0.791035 -0.17562 0.586021
    outer loop
      vertex 5.845 9.13702 3.08579
      vertex 7.66503 0 2.80435
      vertex 6.19479 9.25067 3.59202
    endloop
  endfacet
  facet normal -0.148952 -0.940447 0.305569
    outer loop
      vertex 5.11042 10.5787 4.18713
      vertex 4.5 10.6754 4.18713
      vertex 4.5 10.482 3.59202
    endloop
  endfacet
  facet normal -0.432275 -0.84839 0.305569
    outer loop
      vertex 5.54744 10.1417 3.59202
      vertex 5.11042 10.5787 4.18713
      vertex 5.05067 10.3948 3.59202
    endloop
  endfacet
  facet normal 0.935623 -0.174814 -0.306676
    outer loop
      vertex 1.2617 0 5.97213
      vertex 2.8052 9.25067 5.40798
      vertex 1.33497 0 6.19565
    endloop
  endfacet
  facet normal 0.935623 -0.174814 -0.306676
    outer loop
      vertex 2.8052 9.25067 5.40798
      vertex 1.2617 0 5.97213
      vertex 2.6213 9.31042 4.81287
    endloop
  endfacet
  facet normal -0.0926957 -0.585255 0.805533
    outer loop
      vertex 4.93702 10.045 3.08579
      vertex 4.5 10.1142 3.08579
      vertex 4.5 9.60798 2.71799
    endloop
  endfacet
  facet normal 0.723906 -0.368848 0.583019
    outer loop
      vertex 3.155 9.13702 3.08579
      vertex 3.35588 9.53125 3.08579
      vertex 2.8052 9.25067 3.59202
    endloop
  endfacet
  facet normal -0.127097 -0.802456 0.583019
    outer loop
      vertex 4.93702 10.045 3.08579
      vertex 5.05067 10.3948 3.59202
      vertex 4.5 10.482 3.59202
    endloop
  endfacet
  facet normal -0.177427 -0.177427 0.968008
    outer loop
      vertex 4.86259 0 0.916349
      vertex 4.95698 0 0.93365
      vertex 4.75312 8.8839 2.52462
    endloop
  endfacet
  facet normal 0.527965 -0.269013 -0.805534
    outer loop
      vertex 3.76543 9.2337 6.28201
      vertex 3.63646 8.98058 6.28201
      vertex 3.35588 9.53125 5.91421
    endloop
  endfacet
  facet normal 0.848389 -0.432276 0.30557
    outer loop
      vertex 3.05832 9.74744 3.59202
      vertex 2.90189 9.8611 4.18713
      vertex 2.6213 9.31042 4.18713
    endloop
  endfacet
  facet normal 0.891006 -0.453991 0
    outer loop
      vertex 2.6213 9.31042 4.81287
      vertex 2.90189 9.8611 4.18713
      vertex 2.90189 9.8611 4.81287
    endloop
  endfacet
  facet normal 0.891006 -0.453991 0
    outer loop
      vertex 2.90189 9.8611 4.18713
      vertex 2.6213 9.31042 4.81287
      vertex 2.6213 9.31042 4.18713
    endloop
  endfacet
  facet normal 0.848389 -0.432276 -0.30557
    outer loop
      vertex 2.90189 9.8611 4.81287
      vertex 3.05832 9.74744 5.40798
      vertex 2.6213 9.31042 4.81287
    endloop
  endfacet
  facet normal -0.418996 -0.418997 0.805534
    outer loop
      vertex 5.64412 9.53125 3.08579
      vertex 5.33125 9.84412 3.08579
      vertex 5.0337 9.43457 2.71799
    endloop
  endfacet
  facet normal -0.220967 -0.220967 0.94992
    outer loop
      vertex 5.23457 9.2337 2.71799
      vertex 5.0337 9.43457 2.71799
      vertex 4.75312 8.8839 2.52462
    endloop
  endfacet
  facet normal -0.0488855 -0.308647 0.94992
    outer loop
      vertex 4.78058 9.56354 2.71799
      vertex 4.5 9.60798 2.71799
      vertex 4.5 9.01287 2.52462
    endloop
  endfacet
  facet normal -0.0488858 -0.308647 0.94992
    outer loop
      vertex 4.59668 8.99756 2.52462
      vertex 4.78058 9.56354 2.71799
      vertex 4.5 9.01287 2.52462
    endloop
  endfacet
  facet normal -0.141871 -0.278433 0.94992
    outer loop
      vertex 4.6839 8.95312 2.52462
      vertex 5.0337 9.43457 2.71799
      vertex 4.59668 8.99756 2.52462
    endloop
  endfacet
  facet normal -0.220965 -0.220968 0.94992
    outer loop
      vertex 4.75312 8.8839 2.52462
      vertex 5.0337 9.43457 2.71799
      vertex 4.6839 8.95312 2.52462
    endloop
  endfacet
  facet normal -0.25398 -0.176144 0.951035
    outer loop
      vertex 4.75312 8.8839 2.52462
      vertex 5.86963 0 1.17738
      vertex 5.23457 9.2337 2.71799
    endloop
  endfacet
  facet normal -0.253981 -0.176144 0.951035
    outer loop
      vertex 5.86963 0 1.17738
      vertex 4.75312 8.8839 2.52462
      vertex 5.67165 0 1.12451
    endloop
  endfacet
  facet normal -0.25398 -0.176144 0.951035
    outer loop
      vertex 4.95698 0 0.93365
      vertex 5.67165 0 1.12451
      vertex 4.75312 8.8839 2.52462
    endloop
  endfacet
  facet normal -0.348408 -0.177524 0.920379
    outer loop
      vertex 5.36354 8.98058 2.71799
      vertex 5.86963 0 1.17738
      vertex 5.91304 0 1.19381
    endloop
  endfacet
  facet normal -0.348409 -0.177524 0.920378
    outer loop
      vertex 5.86963 0 1.17738
      vertex 5.36354 8.98058 2.71799
      vertex 5.23457 9.2337 2.71799
    endloop
  endfacet
  facet normal -0.791035 -0.17562 -0.586022
    outer loop
      vertex 7.52403 0 6.38597
      vertex 6.98529 0 7.11319
      vertex 5.845 9.13702 5.91421
    endloop
  endfacet
  facet normal -0.791035 -0.17562 -0.586021
    outer loop
      vertex 7.66503 0 6.19565
      vertex 5.845 9.13702 5.91421
      vertex 6.19479 9.25067 5.40798
    endloop
  endfacet
  facet normal -0.791035 -0.17562 -0.586021
    outer loop
      vertex 5.845 9.13702 5.91421
      vertex 7.66503 0 6.19565
      vertex 7.52403 0 6.38597
    endloop
  endfacet
  facet normal -0.177427 -0.177427 -0.968008
    outer loop
      vertex 4.95698 0 8.06635
      vertex 4.86259 0 8.08365
      vertex 4.75312 8.8839 6.47538
    endloop
  endfacet
  facet normal -0.220965 -0.220968 -0.94992
    outer loop
      vertex 5.0337 9.43457 6.28201
      vertex 4.75312 8.8839 6.47538
      vertex 4.6839 8.95312 6.47538
    endloop
  endfacet
  facet normal 0.848389 -0.432276 -0.30557
    outer loop
      vertex 3.05832 9.74744 5.40798
      vertex 2.8052 9.25067 5.40798
      vertex 2.6213 9.31042 4.81287
    endloop
  endfacet
  facet normal -0.848389 -0.432276 -0.30557
    outer loop
      vertex 6.37869 9.31042 4.81287
      vertex 6.19479 9.25067 5.40798
      vertex 5.94168 9.74744 5.40798
    endloop
  endfacet
  facet normal 0.574496 -0.574495 -0.583018
    outer loop
      vertex 3.45256 10.1417 5.40798
      vertex 3.35588 9.53125 5.91421
      vertex 3.05832 9.74744 5.40798
    endloop
  endfacet
  facet normal -0.560791 -0.176145 -0.809003
    outer loop
      vertex 6.78562 0 7.2516
      vertex 6.07282 0 7.7457
      vertex 5.36354 8.98058 6.28201
    endloop
  endfacet
  facet normal -0.560791 -0.176145 0.809003
    outer loop
      vertex 6.07282 0 1.2543
      vertex 6.78562 0 1.7484
      vertex 5.36354 8.98058 2.71799
    endloop
  endfacet
  facet normal -0.574496 -0.574495 0.583018
    outer loop
      vertex 5.64412 9.53125 3.08579
      vertex 5.94168 9.74744 3.59202
      vertex 5.54744 10.1417 3.59202
    endloop
  endfacet
  facet normal -0.673286 -0.673285 0.30557
    outer loop
      vertex 5.94168 9.74744 3.59202
      vertex 6.09811 9.8611 4.18713
      vertex 5.54744 10.1417 3.59202
    endloop
  endfacet
  facet normal -0.45399 -0.891007 0
    outer loop
      vertex 5.11042 10.5787 4.18713
      vertex 5.6611 10.2981 4.81287
      vertex 5.11042 10.5787 4.81287
    endloop
  endfacet
  facet normal -0.45399 -0.891007 -0
    outer loop
      vertex 5.6611 10.2981 4.81287
      vertex 5.11042 10.5787 4.18713
      vertex 5.6611 10.2981 4.18713
    endloop
  endfacet
  facet normal -0.707107 -0.707107 0
    outer loop
      vertex 6.09811 9.8611 4.18713
      vertex 5.6611 10.2981 4.81287
      vertex 5.6611 10.2981 4.18713
    endloop
  endfacet
  facet normal -0.707107 -0.707107 0
    outer loop
      vertex 5.6611 10.2981 4.81287
      vertex 6.09811 9.8611 4.18713
      vertex 6.09811 9.8611 4.81287
    endloop
  endfacet
  facet normal -0.0926963 -0.585255 0.805534
    outer loop
      vertex 4.78058 9.56354 2.71799
      vertex 4.93702 10.045 3.08579
      vertex 4.5 9.60798 2.71799
    endloop
  endfacet
  facet normal 0.127097 -0.802456 0.583019
    outer loop
      vertex 4.5 10.1142 3.08579
      vertex 4.5 10.482 3.59202
      vertex 4.06298 10.045 3.08579
    endloop
  endfacet
  facet normal 0.148952 -0.940447 0.305569
    outer loop
      vertex 4.5 10.482 3.59202
      vertex 4.5 10.6754 4.18713
      vertex 3.88958 10.5787 4.18713
    endloop
  endfacet
  facet normal 0.148953 -0.940447 0.30557
    outer loop
      vertex 3.94933 10.3948 3.59202
      vertex 4.5 10.482 3.59202
      vertex 3.88958 10.5787 4.18713
    endloop
  endfacet
  facet normal 0.141871 -0.278433 0.94992
    outer loop
      vertex 4.3161 8.95312 2.52462
      vertex 4.40332 8.99756 2.52462
      vertex 3.9663 9.43457 2.71799
    endloop
  endfacet
  facet normal 0.560791 -0.176145 0.809003
    outer loop
      vertex 2.92717 0 1.2543
      vertex 3.63646 8.98058 2.71799
      vertex 2.21438 0 1.7484
    endloop
  endfacet
  facet normal 0.220967 -0.220967 0.94992
    outer loop
      vertex 4.24688 8.8839 2.52462
      vertex 3.9663 9.43457 2.71799
      vertex 3.76543 9.2337 2.71799
    endloop
  endfacet
  facet normal 0.028229 -0.178229 0.983584
    outer loop
      vertex 4.40332 8.99756 2.52462
      vertex 4.3633 0 0.895382
      vertex 4.5 9.01287 2.52462
    endloop
  endfacet
  facet normal 0.0282294 -0.178229 0.983584
    outer loop
      vertex 4.3633 0 0.895382
      vertex 4.40332 8.99756 2.52462
      vertex 4.32363 0 0.89652
    endloop
  endfacet
  facet normal 0.432275 -0.84839 -0.305569
    outer loop
      vertex 3.88958 10.5787 4.81287
      vertex 3.94933 10.3948 5.40798
      vertex 3.45256 10.1417 5.40798
    endloop
  endfacet
  facet normal 0.791036 -0.17562 -0.586021
    outer loop
      vertex 1.33497 0 6.19565
      vertex 3.155 9.13702 5.91421
      vertex 1.47596 0 6.38597
    endloop
  endfacet
  facet normal 0.791035 -0.17562 -0.586021
    outer loop
      vertex 3.155 9.13702 5.91421
      vertex 1.33497 0 6.19565
      vertex 2.8052 9.25067 5.40798
    endloop
  endfacet
  facet normal 0.984665 -0.174454 0
    outer loop
      vertex 0.971769 0 5.08757
      vertex 2.6213 9.31042 4.18713
      vertex 2.6213 9.31042 4.81287
    endloop
  endfacet
  facet normal 0.984665 -0.174454 0
    outer loop
      vertex 2.6213 9.31042 4.18713
      vertex 0.971769 0 5.08757
      vertex 0.971769 0 3.91242
    endloop
  endfacet
  facet normal 0.935623 -0.174814 0.306675
    outer loop
      vertex 1.2617 0 3.02787
      vertex 2.6213 9.31042 4.18713
      vertex 0.971769 0 3.91242
    endloop
  endfacet
  facet normal 0.177425 -0.177427 0.968008
    outer loop
      vertex 4.24688 8.8839 2.52462
      vertex 4.16589 0 0.91113
      vertex 4.3161 8.95312 2.52462
    endloop
  endfacet
  facet normal 0.177426 -0.177427 0.968008
    outer loop
      vertex 4.16589 0 0.91113
      vertex 4.24688 8.8839 2.52462
      vertex 4.13741 0 0.916349
    endloop
  endfacet
  facet normal 0.0488853 -0.308647 0.94992
    outer loop
      vertex 4.40332 8.99756 2.52462
      vertex 4.5 9.01287 2.52462
      vertex 4.21942 9.56354 2.71799
    endloop
  endfacet
  facet normal 0.0282283 -0.178229 0.983584
    outer loop
      vertex 4.5 0 0.891458
      vertex 4.5 9.01287 2.52462
      vertex 4.3633 0 0.895382
    endloop
  endfacet
  facet normal -0.0282284 -0.178229 0.983584
    outer loop
      vertex 4.6367 0 0.895382
      vertex 4.5 9.01287 2.52462
      vertex 4.5 0 0.891458
    endloop
  endfacet
  facet normal -0.0282297 -0.178229 0.983584
    outer loop
      vertex 4.59668 8.99756 2.52462
      vertex 4.6367 0 0.895382
      vertex 4.67637 0 0.89652
    endloop
  endfacet
  facet normal -0.0282292 -0.178229 0.983584
    outer loop
      vertex 4.6367 0 0.895382
      vertex 4.59668 8.99756 2.52462
      vertex 4.5 9.01287 2.52462
    endloop
  endfacet
  facet normal -0.418996 -0.418996 0.805534
    outer loop
      vertex 5.23457 9.2337 2.71799
      vertex 5.64412 9.53125 3.08579
      vertex 5.0337 9.43457 2.71799
    endloop
  endfacet
  facet normal -0.527965 -0.269013 0.805534
    outer loop
      vertex 5.36354 8.98058 2.71799
      vertex 5.64412 9.53125 3.08579
      vertex 5.23457 9.2337 2.71799
    endloop
  endfacet
  facet normal -0.0488855 -0.308647 -0.94992
    outer loop
      vertex 4.5 9.60798 6.28201
      vertex 4.78058 9.56354 6.28201
      vertex 4.5 9.01287 6.47538
    endloop
  endfacet
  facet normal 0.028229 -0.178229 -0.983584
    outer loop
      vertex 4.3633 0 8.10462
      vertex 4.40332 8.99756 6.47538
      vertex 4.5 9.01287 6.47538
    endloop
  endfacet
  facet normal 0.0282338 -0.178229 -0.983584
    outer loop
      vertex 4.40332 8.99756 6.47538
      vertex 4.3633 0 8.10462
      vertex 4.32363 0 8.10348
    endloop
  endfacet
  facet normal -0.156434 -0.987688 0
    outer loop
      vertex 4.5 10.6754 4.18713
      vertex 5.11042 10.5787 4.81287
      vertex 4.5 10.6754 4.81287
    endloop
  endfacet
  facet normal -0.156434 -0.987688 -0
    outer loop
      vertex 5.11042 10.5787 4.81287
      vertex 4.5 10.6754 4.18713
      vertex 5.11042 10.5787 4.18713
    endloop
  endfacet
  facet normal 0.348409 -0.177524 -0.920378
    outer loop
      vertex 3.13037 0 7.82262
      vertex 3.63646 8.98058 6.28201
      vertex 3.76543 9.2337 6.28201
    endloop
  endfacet
  facet normal 0.348412 -0.177524 -0.920377
    outer loop
      vertex 3.63646 8.98058 6.28201
      vertex 3.13037 0 7.82262
      vertex 3.08696 0 7.80619
    endloop
  endfacet
  facet normal -0.0282341 -0.178229 -0.983584
    outer loop
      vertex 4.6367 0 8.10462
      vertex 4.59668 8.99756 6.47538
      vertex 4.67637 0 8.10348
    endloop
  endfacet
  facet normal -0.0282292 -0.178229 -0.983584
    outer loop
      vertex 4.59668 8.99756 6.47538
      vertex 4.6367 0 8.10462
      vertex 4.5 9.01287 6.47538
    endloop
  endfacet
  facet normal -0.141871 -0.278433 -0.94992
    outer loop
      vertex 5.0337 9.43457 6.28201
      vertex 4.6839 8.95312 6.47538
      vertex 4.59668 8.99756 6.47538
    endloop
  endfacet
  facet normal -0.34841 -0.177524 -0.920378
    outer loop
      vertex 5.86963 0 7.82262
      vertex 5.36354 8.98058 6.28201
      vertex 5.91304 0 7.80619
    endloop
  endfacet
  facet normal -0.348409 -0.177524 -0.920378
    outer loop
      vertex 5.36354 8.98058 6.28201
      vertex 5.86963 0 7.82262
      vertex 5.23457 9.2337 6.28201
    endloop
  endfacet
  facet normal 0.560791 -0.176145 -0.809004
    outer loop
      vertex 3.63646 8.98058 6.28201
      vertex 2.92717 0 7.7457
      vertex 2.21438 0 7.2516
    endloop
  endfacet
  facet normal -0.34841 -0.177524 -0.920378
    outer loop
      vertex 6.07282 0 7.7457
      vertex 5.91304 0 7.80619
      vertex 5.36354 8.98058 6.28201
    endloop
  endfacet
  facet normal -0.848389 -0.432276 0.30557
    outer loop
      vertex 6.19479 9.25067 3.59202
      vertex 6.37869 9.31042 4.18713
      vertex 5.94168 9.74744 3.59202
    endloop
  endfacet
  facet normal -0.935623 -0.174814 0.306675
    outer loop
      vertex 7.73829 0 3.02787
      vertex 6.19479 9.25067 3.59202
      vertex 7.66503 0 2.80435
    endloop
  endfacet
  facet normal -0.935623 -0.174814 0.306676
    outer loop
      vertex 6.19479 9.25067 3.59202
      vertex 7.73829 0 3.02787
      vertex 6.37869 9.31042 4.18713
    endloop
  endfacet
  facet normal 0.127097 -0.802456 0.583019
    outer loop
      vertex 4.06298 10.045 3.08579
      vertex 4.5 10.482 3.59202
      vertex 3.94933 10.3948 3.59202
    endloop
  endfacet
  facet normal 0.432275 -0.84839 0.305569
    outer loop
      vertex 3.94933 10.3948 3.59202
      vertex 3.88958 10.5787 4.18713
      vertex 3.45256 10.1417 3.59202
    endloop
  endfacet
  facet normal -0.368848 -0.723906 0.583019
    outer loop
      vertex 5.54744 10.1417 3.59202
      vertex 5.05067 10.3948 3.59202
      vertex 4.93702 10.045 3.08579
    endloop
  endfacet
  facet normal -0.368849 -0.723905 0.58302
    outer loop
      vertex 5.33125 9.84412 3.08579
      vertex 5.54744 10.1417 3.59202
      vertex 4.93702 10.045 3.08579
    endloop
  endfacet
  facet normal 0.673286 -0.673285 0.30557
    outer loop
      vertex 3.05832 9.74744 3.59202
      vertex 3.45256 10.1417 3.59202
      vertex 2.90189 9.8611 4.18713
    endloop
  endfacet
  facet normal 0.156434 -0.987688 0
    outer loop
      vertex 3.88958 10.5787 4.18713
      vertex 4.5 10.6754 4.81287
      vertex 3.88958 10.5787 4.81287
    endloop
  endfacet
  facet normal 0.156434 -0.987688 0
    outer loop
      vertex 4.5 10.6754 4.81287
      vertex 3.88958 10.5787 4.18713
      vertex 4.5 10.6754 4.18713
    endloop
  endfacet
  facet normal 0.368849 -0.723905 0.58302
    outer loop
      vertex 3.66875 9.84412 3.08579
      vertex 4.06298 10.045 3.08579
      vertex 3.45256 10.1417 3.59202
    endloop
  endfacet
  facet normal 0.269012 -0.527966 0.805533
    outer loop
      vertex 4.21942 9.56354 2.71799
      vertex 4.06298 10.045 3.08579
      vertex 3.66875 9.84412 3.08579
    endloop
  endfacet
  facet normal 0.418996 -0.418996 0.805534
    outer loop
      vertex 3.76543 9.2337 2.71799
      vertex 3.9663 9.43457 2.71799
      vertex 3.35588 9.53125 3.08579
    endloop
  endfacet
  facet normal 0.220965 -0.220968 0.94992
    outer loop
      vertex 4.24688 8.8839 2.52462
      vertex 4.3161 8.95312 2.52462
      vertex 3.9663 9.43457 2.71799
    endloop
  endfacet
  facet normal 0.348411 -0.177524 -0.920378
    outer loop
      vertex 3.63646 8.98058 6.28201
      vertex 3.08696 0 7.80619
      vertex 2.92717 0 7.7457
    endloop
  endfacet
  facet normal 0.0488853 -0.308647 -0.94992
    outer loop
      vertex 4.5 9.60798 6.28201
      vertex 4.5 9.01287 6.47538
      vertex 4.21942 9.56354 6.28201
    endloop
  endfacet
  facet normal 0.723906 -0.368848 -0.583019
    outer loop
      vertex 3.35588 9.53125 5.91421
      vertex 3.155 9.13702 5.91421
      vertex 2.8052 9.25067 5.40798
    endloop
  endfacet
  facet normal 0.418996 -0.418997 -0.805534
    outer loop
      vertex 3.66875 9.84412 5.91421
      vertex 3.9663 9.43457 6.28201
      vertex 3.35588 9.53125 5.91421
    endloop
  endfacet
  facet normal 0.935623 -0.174814 -0.306675
    outer loop
      vertex 2.6213 9.31042 4.81287
      vertex 1.2617 0 5.97213
      vertex 0.971769 0 5.08757
    endloop
  endfacet
  facet normal 0.0907475 -0.178101 0.979819
    outer loop
      vertex 4.32363 0 0.89652
      vertex 4.40332 8.99756 2.52462
      vertex 4.20181 0 0.907803
    endloop
  endfacet
  facet normal -0.0907475 -0.178101 0.979819
    outer loop
      vertex 4.67637 0 0.89652
      vertex 4.79819 0 0.907803
      vertex 4.59668 8.99756 2.52462
    endloop
  endfacet
  facet normal -0.148952 -0.940447 -0.305569
    outer loop
      vertex 4.5 10.6754 4.81287
      vertex 5.11042 10.5787 4.81287
      vertex 4.5 10.482 5.40798
    endloop
  endfacet
  facet normal -0.432275 -0.84839 -0.305569
    outer loop
      vertex 5.11042 10.5787 4.81287
      vertex 5.54744 10.1417 5.40798
      vertex 5.05067 10.3948 5.40798
    endloop
  endfacet
  facet normal -0.368849 -0.723905 -0.58302
    outer loop
      vertex 5.54744 10.1417 5.40798
      vertex 5.33125 9.84412 5.91421
      vertex 4.93702 10.045 5.91421
    endloop
  endfacet
  facet normal -0.253981 -0.176144 -0.951035
    outer loop
      vertex 5.23457 9.2337 6.28201
      vertex 5.86963 0 7.82262
      vertex 5.16026 0 8.01206
    endloop
  endfacet
  facet normal -0.0907466 -0.178101 -0.979819
    outer loop
      vertex 4.79819 0 8.0922
      vertex 4.67637 0 8.10348
      vertex 4.59668 8.99756 6.47538
    endloop
  endfacet
  facet normal -0.0282301 -0.178229 -0.983584
    outer loop
      vertex 4.5 9.01287 6.47538
      vertex 4.6367 0 8.10462
      vertex 4.5 0 8.10854
    endloop
  endfacet
  facet normal 0.02823 -0.178229 -0.983584
    outer loop
      vertex 4.5 9.01287 6.47538
      vertex 4.5 0 8.10854
      vertex 4.3633 0 8.10462
    endloop
  endfacet
  facet normal 0.148952 -0.940447 -0.305569
    outer loop
      vertex 4.5 10.6754 4.81287
      vertex 4.5 10.482 5.40798
      vertex 3.88958 10.5787 4.81287
    endloop
  endfacet
  facet normal 0.148953 -0.940447 -0.30557
    outer loop
      vertex 4.5 10.482 5.40798
      vertex 3.94933 10.3948 5.40798
      vertex 3.88958 10.5787 4.81287
    endloop
  endfacet
  facet normal -0.148953 -0.940447 -0.30557
    outer loop
      vertex 5.11042 10.5787 4.81287
      vertex 5.05067 10.3948 5.40798
      vertex 4.5 10.482 5.40798
    endloop
  endfacet
  facet normal -0.432276 -0.84839 -0.305569
    outer loop
      vertex 5.6611 10.2981 4.81287
      vertex 5.54744 10.1417 5.40798
      vertex 5.11042 10.5787 4.81287
    endloop
  endfacet
  facet normal -0.527966 -0.269012 -0.805534
    outer loop
      vertex 5.64412 9.53125 5.91421
      vertex 5.845 9.13702 5.91421
      vertex 5.36354 8.98058 6.28201
    endloop
  endfacet
  facet normal -0.723906 -0.368848 -0.583019
    outer loop
      vertex 6.19479 9.25067 5.40798
      vertex 5.845 9.13702 5.91421
      vertex 5.64412 9.53125 5.91421
    endloop
  endfacet
  facet normal 0.253982 -0.176144 -0.951034
    outer loop
      vertex 3.83974 0 8.01206
      vertex 4.24688 8.8839 6.47538
      vertex 4.04302 0 8.06635
    endloop
  endfacet
  facet normal 0.25398 -0.176144 -0.951035
    outer loop
      vertex 4.24688 8.8839 6.47538
      vertex 3.83974 0 8.01206
      vertex 3.76543 9.2337 6.28201
    endloop
  endfacet
  facet normal -0.418996 -0.418996 -0.805534
    outer loop
      vertex 5.64412 9.53125 5.91421
      vertex 5.23457 9.2337 6.28201
      vertex 5.0337 9.43457 6.28201
    endloop
  endfacet
  facet normal 0.45399 -0.891007 0
    outer loop
      vertex 3.3389 10.2981 4.18713
      vertex 3.88958 10.5787 4.81287
      vertex 3.3389 10.2981 4.81287
    endloop
  endfacet
  facet normal 0.45399 -0.891007 0
    outer loop
      vertex 3.88958 10.5787 4.81287
      vertex 3.3389 10.2981 4.18713
      vertex 3.88958 10.5787 4.18713
    endloop
  endfacet
  facet normal 0.432276 -0.84839 0.305569
    outer loop
      vertex 3.45256 10.1417 3.59202
      vertex 3.88958 10.5787 4.18713
      vertex 3.3389 10.2981 4.18713
    endloop
  endfacet
  facet normal 0.418996 -0.418997 0.805534
    outer loop
      vertex 3.9663 9.43457 2.71799
      vertex 3.66875 9.84412 3.08579
      vertex 3.35588 9.53125 3.08579
    endloop
  endfacet
  facet normal 0.269013 -0.527966 0.805534
    outer loop
      vertex 3.9663 9.43457 2.71799
      vertex 4.21942 9.56354 2.71799
      vertex 3.66875 9.84412 3.08579
    endloop
  endfacet
  facet normal 0.527965 -0.269013 0.805534
    outer loop
      vertex 3.63646 8.98058 2.71799
      vertex 3.76543 9.2337 2.71799
      vertex 3.35588 9.53125 3.08579
    endloop
  endfacet
  facet normal 0.348409 -0.177524 0.920378
    outer loop
      vertex 3.63646 8.98058 2.71799
      vertex 3.13037 0 1.17738
      vertex 3.76543 9.2337 2.71799
    endloop
  endfacet
  facet normal 0.34841 -0.177524 0.920378
    outer loop
      vertex 3.13037 0 1.17738
      vertex 3.63646 8.98058 2.71799
      vertex 3.08696 0 1.19381
    endloop
  endfacet
  facet normal 0.560791 -0.176145 0.809003
    outer loop
      vertex 2.01471 0 1.88681
      vertex 3.63646 8.98058 2.71799
      vertex 3.155 9.13702 3.08579
    endloop
  endfacet
  facet normal 0.560791 -0.176145 0.809003
    outer loop
      vertex 3.63646 8.98058 2.71799
      vertex 2.01471 0 1.88681
      vertex 2.21438 0 1.7484
    endloop
  endfacet
  facet normal 0.791035 -0.17562 0.586022
    outer loop
      vertex 2.01471 0 1.88681
      vertex 3.155 9.13702 3.08579
      vertex 1.47596 0 2.61403
    endloop
  endfacet
  facet normal 0.527966 -0.269012 -0.805534
    outer loop
      vertex 3.35588 9.53125 5.91421
      vertex 3.63646 8.98058 6.28201
      vertex 3.155 9.13702 5.91421
    endloop
  endfacet
  facet normal 0.560792 -0.176145 -0.809003
    outer loop
      vertex 2.01471 0 7.11319
      vertex 3.63646 8.98058 6.28201
      vertex 2.21438 0 7.2516
    endloop
  endfacet
  facet normal 0.560791 -0.176145 -0.809003
    outer loop
      vertex 3.63646 8.98058 6.28201
      vertex 2.01471 0 7.11319
      vertex 3.155 9.13702 5.91421
    endloop
  endfacet
  facet normal 0.723906 -0.368849 -0.583018
    outer loop
      vertex 3.05832 9.74744 5.40798
      vertex 3.35588 9.53125 5.91421
      vertex 2.8052 9.25067 5.40798
    endloop
  endfacet
  facet normal 0.673286 -0.673286 -0.305569
    outer loop
      vertex 3.3389 10.2981 4.81287
      vertex 3.45256 10.1417 5.40798
      vertex 2.90189 9.8611 4.81287
    endloop
  endfacet
  facet normal -0.177426 -0.177427 0.968008
    outer loop
      vertex 4.75312 8.8839 2.52462
      vertex 4.83411 0 0.91113
      vertex 4.86259 0 0.916349
    endloop
  endfacet
  facet normal -0.177425 -0.177427 0.968008
    outer loop
      vertex 4.83411 0 0.91113
      vertex 4.75312 8.8839 2.52462
      vertex 4.6839 8.95312 2.52462
    endloop
  endfacet
  facet normal -0.0907491 -0.178101 0.979819
    outer loop
      vertex 4.6839 8.95312 2.52462
      vertex 4.79819 0 0.907803
      vertex 4.83411 0 0.91113
    endloop
  endfacet
  facet normal -0.0907489 -0.178101 0.979819
    outer loop
      vertex 4.79819 0 0.907803
      vertex 4.6839 8.95312 2.52462
      vertex 4.59668 8.99756 2.52462
    endloop
  endfacet
  facet normal 0.127097 -0.802456 -0.583019
    outer loop
      vertex 4.5 10.482 5.40798
      vertex 4.5 10.1142 5.91421
      vertex 4.06298 10.045 5.91421
    endloop
  endfacet
  facet normal 0.127097 -0.802456 -0.583019
    outer loop
      vertex 4.5 10.482 5.40798
      vertex 4.06298 10.045 5.91421
      vertex 3.94933 10.3948 5.40798
    endloop
  endfacet
  facet normal -0.127097 -0.802456 -0.583019
    outer loop
      vertex 4.5 10.482 5.40798
      vertex 4.93702 10.045 5.91421
      vertex 4.5 10.1142 5.91421
    endloop
  endfacet
  facet normal -0.0926957 -0.585255 -0.805533
    outer loop
      vertex 4.5 10.1142 5.91421
      vertex 4.93702 10.045 5.91421
      vertex 4.5 9.60798 6.28201
    endloop
  endfacet
  facet normal -0.0907442 -0.178101 -0.979819
    outer loop
      vertex 4.79819 0 8.0922
      vertex 4.6839 8.95312 6.47538
      vertex 4.83411 0 8.08887
    endloop
  endfacet
  facet normal -0.0907489 -0.178101 -0.979819
    outer loop
      vertex 4.6839 8.95312 6.47538
      vertex 4.79819 0 8.0922
      vertex 4.59668 8.99756 6.47538
    endloop
  endfacet
  facet normal -0.177416 -0.177427 -0.96801
    outer loop
      vertex 4.83411 0 8.08887
      vertex 4.75312 8.8839 6.47538
      vertex 4.86259 0 8.08365
    endloop
  endfacet
  facet normal -0.177425 -0.177427 -0.968008
    outer loop
      vertex 4.75312 8.8839 6.47538
      vertex 4.83411 0 8.08887
      vertex 4.6839 8.95312 6.47538
    endloop
  endfacet
  facet normal -0.14187 -0.278434 -0.94992
    outer loop
      vertex 4.78058 9.56354 6.28201
      vertex 5.0337 9.43457 6.28201
      vertex 4.59668 8.99756 6.47538
    endloop
  endfacet
  facet normal 0.092696 -0.585255 -0.805534
    outer loop
      vertex 4.5 9.60798 6.28201
      vertex 4.21942 9.56354 6.28201
      vertex 4.06298 10.045 5.91421
    endloop
  endfacet
  facet normal -0.220967 -0.220967 -0.94992
    outer loop
      vertex 5.0337 9.43457 6.28201
      vertex 5.23457 9.2337 6.28201
      vertex 4.75312 8.8839 6.47538
    endloop
  endfacet
  facet normal -0.253982 -0.176144 -0.951034
    outer loop
      vertex 4.75312 8.8839 6.47538
      vertex 5.16026 0 8.01206
      vertex 4.95698 0 8.06635
    endloop
  endfacet
  facet normal -0.25398 -0.176144 -0.951035
    outer loop
      vertex 5.16026 0 8.01206
      vertex 4.75312 8.8839 6.47538
      vertex 5.23457 9.2337 6.28201
    endloop
  endfacet
  facet normal 0.0907466 -0.178101 -0.979819
    outer loop
      vertex 4.40332 8.99756 6.47538
      vertex 4.32363 0 8.10348
      vertex 4.20181 0 8.0922
    endloop
  endfacet
  facet normal 0.707107 -0.707107 0
    outer loop
      vertex 2.90189 9.8611 4.81287
      vertex 3.3389 10.2981 4.18713
      vertex 3.3389 10.2981 4.81287
    endloop
  endfacet
  facet normal 0.707107 -0.707107 0
    outer loop
      vertex 3.3389 10.2981 4.18713
      vertex 2.90189 9.8611 4.81287
      vertex 2.90189 9.8611 4.18713
    endloop
  endfacet
  facet normal 0.673286 -0.673286 0.305569
    outer loop
      vertex 3.45256 10.1417 3.59202
      vertex 3.3389 10.2981 4.18713
      vertex 2.90189 9.8611 4.18713
    endloop
  endfacet
  facet normal 0.253981 -0.176144 -0.951035
    outer loop
      vertex 3.76543 9.2337 6.28201
      vertex 3.83974 0 8.01206
      vertex 3.13037 0 7.82262
    endloop
  endfacet
  facet normal 0.141871 -0.278433 -0.94992
    outer loop
      vertex 4.40332 8.99756 6.47538
      vertex 4.3161 8.95312 6.47538
      vertex 3.9663 9.43457 6.28201
    endloop
  endfacet
  facet normal 0.673286 -0.673285 -0.30557
    outer loop
      vertex 3.45256 10.1417 5.40798
      vertex 3.05832 9.74744 5.40798
      vertex 2.90189 9.8611 4.81287
    endloop
  endfacet
  facet normal 0.432276 -0.84839 -0.305569
    outer loop
      vertex 3.88958 10.5787 4.81287
      vertex 3.45256 10.1417 5.40798
      vertex 3.3389 10.2981 4.81287
    endloop
  endfacet
  facet normal -0.269013 -0.527966 -0.805534
    outer loop
      vertex 5.33125 9.84412 5.91421
      vertex 5.0337 9.43457 6.28201
      vertex 4.78058 9.56354 6.28201
    endloop
  endfacet
  facet normal -0.0926963 -0.585255 -0.805534
    outer loop
      vertex 4.93702 10.045 5.91421
      vertex 4.78058 9.56354 6.28201
      vertex 4.5 9.60798 6.28201
    endloop
  endfacet
  facet normal -0.418996 -0.418997 -0.805534
    outer loop
      vertex 5.33125 9.84412 5.91421
      vertex 5.64412 9.53125 5.91421
      vertex 5.0337 9.43457 6.28201
    endloop
  endfacet
  facet normal -0.574494 -0.574495 -0.58302
    outer loop
      vertex 5.54744 10.1417 5.40798
      vertex 5.64412 9.53125 5.91421
      vertex 5.33125 9.84412 5.91421
    endloop
  endfacet
  facet normal -0.127097 -0.802456 -0.583019
    outer loop
      vertex 5.05067 10.3948 5.40798
      vertex 4.93702 10.045 5.91421
      vertex 4.5 10.482 5.40798
    endloop
  endfacet
  facet normal -0.368848 -0.723906 -0.583019
    outer loop
      vertex 5.05067 10.3948 5.40798
      vertex 5.54744 10.1417 5.40798
      vertex 4.93702 10.045 5.91421
    endloop
  endfacet
  facet normal 0.848389 -0.432276 0.30557
    outer loop
      vertex 2.8052 9.25067 3.59202
      vertex 3.05832 9.74744 3.59202
      vertex 2.6213 9.31042 4.18713
    endloop
  endfacet
  facet normal 0.935623 -0.174814 0.306676
    outer loop
      vertex 1.2617 0 3.02787
      vertex 2.8052 9.25067 3.59202
      vertex 2.6213 9.31042 4.18713
    endloop
  endfacet
  facet normal 0.935623 -0.174814 0.306676
    outer loop
      vertex 2.8052 9.25067 3.59202
      vertex 1.2617 0 3.02787
      vertex 1.33497 0 2.80435
    endloop
  endfacet
  facet normal 0.418996 -0.418996 -0.805534
    outer loop
      vertex 3.9663 9.43457 6.28201
      vertex 3.76543 9.2337 6.28201
      vertex 3.35588 9.53125 5.91421
    endloop
  endfacet
  facet normal 0.220967 -0.220967 -0.94992
    outer loop
      vertex 3.9663 9.43457 6.28201
      vertex 4.24688 8.8839 6.47538
      vertex 3.76543 9.2337 6.28201
    endloop
  endfacet
  facet normal 0.177427 -0.177427 -0.968008
    outer loop
      vertex 4.24688 8.8839 6.47538
      vertex 4.13741 0 8.08365
      vertex 4.04302 0 8.06635
    endloop
  endfacet
  facet normal 0.220965 -0.220968 -0.94992
    outer loop
      vertex 4.3161 8.95312 6.47538
      vertex 4.24688 8.8839 6.47538
      vertex 3.9663 9.43457 6.28201
    endloop
  endfacet
  facet normal 0.269012 -0.527966 -0.805533
    outer loop
      vertex 4.06298 10.045 5.91421
      vertex 4.21942 9.56354 6.28201
      vertex 3.66875 9.84412 5.91421
    endloop
  endfacet
  facet normal 0.368848 -0.723906 -0.583019
    outer loop
      vertex 3.94933 10.3948 5.40798
      vertex 4.06298 10.045 5.91421
      vertex 3.45256 10.1417 5.40798
    endloop
  endfacet
  facet normal 0.368849 -0.723905 -0.58302
    outer loop
      vertex 4.06298 10.045 5.91421
      vertex 3.66875 9.84412 5.91421
      vertex 3.45256 10.1417 5.40798
    endloop
  endfacet
  facet normal 0.574494 -0.574495 -0.58302
    outer loop
      vertex 3.45256 10.1417 5.40798
      vertex 3.66875 9.84412 5.91421
      vertex 3.35588 9.53125 5.91421
    endloop
  endfacet
  facet normal 0.177425 -0.177427 -0.968008
    outer loop
      vertex 4.16589 0 8.08887
      vertex 4.24688 8.8839 6.47538
      vertex 4.3161 8.95312 6.47538
    endloop
  endfacet
  facet normal 0.177416 -0.177427 -0.96801
    outer loop
      vertex 4.24688 8.8839 6.47538
      vertex 4.16589 0 8.08887
      vertex 4.13741 0 8.08365
    endloop
  endfacet
  facet normal 0.0907489 -0.178101 -0.979819
    outer loop
      vertex 4.20181 0 8.0922
      vertex 4.3161 8.95312 6.47538
      vertex 4.40332 8.99756 6.47538
    endloop
  endfacet
  facet normal 0.0907442 -0.178101 -0.979819
    outer loop
      vertex 4.3161 8.95312 6.47538
      vertex 4.20181 0 8.0922
      vertex 4.16589 0 8.08887
    endloop
  endfacet
  facet normal 0.14187 -0.278434 -0.94992
    outer loop
      vertex 4.21942 9.56354 6.28201
      vertex 4.40332 8.99756 6.47538
      vertex 3.9663 9.43457 6.28201
    endloop
  endfacet
  facet normal 0.269013 -0.527966 -0.805534
    outer loop
      vertex 4.21942 9.56354 6.28201
      vertex 3.9663 9.43457 6.28201
      vertex 3.66875 9.84412 5.91421
    endloop
  endfacet
endsolid OpenSCAD_Model
