solid OpenSCAD_Model
  facet normal -1 0 0
    outer loop
      vertex 0 0 0
      vertex 0 15 9.02
      vertex 0 15 0
    endloop
  endfacet
  facet normal -1 -0 0
    outer loop
      vertex 0 15 9.02
      vertex 0 0 0
      vertex 0 0 9.02
    endloop
  endfacet
  facet normal -0 0 1
    outer loop
      vertex 0 15 9.02
      vertex 9.02 0 9.02
      vertex 9.02 15 9.02
    endloop
  endfacet
  facet normal 0 0 1
    outer loop
      vertex 9.02 0 9.02
      vertex 0 15 9.02
      vertex 0 0 9.02
    endloop
  endfacet
  facet normal 1 -0 0
    outer loop
      vertex 9.02 0 9.02
      vertex 9.02 15 0
      vertex 9.02 15 9.02
    endloop
  endfacet
  facet normal 1 0 0
    outer loop
      vertex 9.02 15 0
      vertex 9.02 0 9.02
      vertex 9.02 0 0
    endloop
  endfacet
  facet normal 0 0 -1
    outer loop
      vertex 0 0 0
      vertex 9.02 15 0
      vertex 9.02 0 0
    endloop
  endfacet
  facet normal -0 0 -1
    outer loop
      vertex 9.02 15 0
      vertex 0 0 0
      vertex 0 15 0
    endloop
  endfacet
  facet normal 0 -1 0
    outer loop
      vertex 0 0 9.02
      vertex 4.5 0 8.17817
      vertex 9.02 0 9.02
    endloop
  endfacet
  facet normal 0 -1 0
    outer loop
      vertex 0 0 9.02
      vertex 4.35745 0 8.17433
      vertex 4.5 0 8.17817
    endloop
  endfacet
  facet normal 0 -1 0
    outer loop
      vertex 0 0 9.02
      vertex 4.32021 0 8.17333
      vertex 4.35745 0 8.17433
    endloop
  endfacet
  facet normal 0 -1 0
    outer loop
      vertex 0 0 9.02
      vertex 4.19307 0 8.16228
      vertex 4.32021 0 8.17333
    endloop
  endfacet
  facet normal 0 -1 0
    outer loop
      vertex 0 0 9.02
      vertex 4.15933 0 8.15935
      vertex 4.19307 0 8.16228
    endloop
  endfacet
  facet normal 0 -1 0
    outer loop
      vertex 0 0 9.02
      vertex 4.13257 0 8.15475
      vertex 4.15933 0 8.15935
    endloop
  endfacet
  facet normal 0 -1 0
    outer loop
      vertex 0 0 9.02
      vertex 4.03387 0 8.13778
      vertex 4.13257 0 8.15475
    endloop
  endfacet
  facet normal 0 -1 0
    outer loop
      vertex 0 0 9.02
      vertex 3.84288 0 8.08524
      vertex 4.03387 0 8.13778
    endloop
  endfacet
  facet normal 0 -1 0
    outer loop
      vertex 0 0 9.02
      vertex 3.10571 0 7.88243
      vertex 3.84288 0 8.08524
    endloop
  endfacet
  facet normal 0 -1 0
    outer loop
      vertex 0 0 9.02
      vertex 3.06467 0 7.86801
      vertex 3.10571 0 7.88243
    endloop
  endfacet
  facet normal 0 -1 0
    outer loop
      vertex 0 0 9.02
      vertex 2.89653 0 7.80893
      vertex 3.06467 0 7.86801
    endloop
  endfacet
  facet normal 0 -1 0
    outer loop
      vertex 0 0 9.02
      vertex 2.15523 0 7.29193
      vertex 2.89653 0 7.80893
    endloop
  endfacet
  facet normal 0 -1 0
    outer loop
      vertex 0 0 9.02
      vertex 1.96854 0 7.16173
      vertex 2.15523 0 7.29193
    endloop
  endfacet
  facet normal 0 -1 0
    outer loop
      vertex 0 0 9.02
      vertex 1.40999 0 6.40451
      vertex 1.96854 0 7.16173
    endloop
  endfacet
  facet normal 0 -1 0
    outer loop
      vertex 0 0 9.02
      vertex 1.27832 0 6.22601
      vertex 1.40999 0 6.40451
    endloop
  endfacet
  facet normal 0 -1 0
    outer loop
      vertex 0 0 9.02
      vertex 1.20984 0 6.01635
      vertex 1.27832 0 6.22601
    endloop
  endfacet
  facet normal 0 -1 0
    outer loop
      vertex 0 0 9.02
      vertex 0.909882 0 5.09788
      vertex 1.20984 0 6.01635
    endloop
  endfacet
  facet normal 0 -1 0
    outer loop
      vertex 0 0 9.02
      vertex 0.909882 0 3.90212
      vertex 0.909882 0 5.09788
    endloop
  endfacet
  facet normal 0 -1 0
    outer loop
      vertex 0 0 0
      vertex 2.15523 0 1.70807
      vertex 1.96854 0 1.83827
    endloop
  endfacet
  facet normal 0 -1 0
    outer loop
      vertex 0 0 0
      vertex 3.29045 0 1.06674
      vertex 3.10571 0 1.11757
    endloop
  endfacet
  facet normal 0 -1 0
    outer loop
      vertex 0 0 0
      vertex 4.19307 0 0.837718
      vertex 4.15933 0 0.84065
    endloop
  endfacet
  facet normal 0 -1 -0
    outer loop
      vertex 4.35745 0 0.825665
      vertex 0 0 0
      vertex 4.5 0 0.821826
    endloop
  endfacet
  facet normal 0 -1 -0
    outer loop
      vertex 4.32021 0 0.826668
      vertex 0 0 0
      vertex 4.35745 0 0.825665
    endloop
  endfacet
  facet normal 0 -1 -0
    outer loop
      vertex 4.19307 0 0.837718
      vertex 0 0 0
      vertex 4.32021 0 0.826668
    endloop
  endfacet
  facet normal 0 -1 -0
    outer loop
      vertex 4.13257 0 0.845249
      vertex 0 0 0
      vertex 4.15933 0 0.84065
    endloop
  endfacet
  facet normal 0 -1 -0
    outer loop
      vertex 4.03387 0 0.862216
      vertex 0 0 0
      vertex 4.13257 0 0.845249
    endloop
  endfacet
  facet normal 0 -1 -0
    outer loop
      vertex 3.29045 0 1.06674
      vertex 0 0 0
      vertex 4.03387 0 0.862216
    endloop
  endfacet
  facet normal 0 -1 -0
    outer loop
      vertex 3.06467 0 1.13199
      vertex 0 0 0
      vertex 3.10571 0 1.11757
    endloop
  endfacet
  facet normal 0 -1 -0
    outer loop
      vertex 2.89653 0 1.19107
      vertex 0 0 0
      vertex 3.06467 0 1.13199
    endloop
  endfacet
  facet normal 0 -1 -0
    outer loop
      vertex 2.15523 0 1.70807
      vertex 0 0 0
      vertex 2.89653 0 1.19107
    endloop
  endfacet
  facet normal 0 -1 -0
    outer loop
      vertex 1.40999 0 2.59549
      vertex 0 0 0
      vertex 1.96854 0 1.83827
    endloop
  endfacet
  facet normal 0 -1 -0
    outer loop
      vertex 1.27832 0 2.77399
      vertex 0 0 0
      vertex 1.40999 0 2.59549
    endloop
  endfacet
  facet normal 0 -1 -0
    outer loop
      vertex 1.20984 0 2.98365
      vertex 0 0 0
      vertex 1.27832 0 2.77399
    endloop
  endfacet
  facet normal 0 -1 -0
    outer loop
      vertex 0.909882 0 3.90212
      vertex 0 0 0
      vertex 1.20984 0 2.98365
    endloop
  endfacet
  facet normal 0 -1 0
    outer loop
      vertex 0 0 0
      vertex 0.909882 0 3.90212
      vertex 0 0 9.02
    endloop
  endfacet
  facet normal 0 -1 0
    outer loop
      vertex 4.64255 0 8.17433
      vertex 9.02 0 9.02
      vertex 4.5 0 8.17817
    endloop
  endfacet
  facet normal 0 -1 0
    outer loop
      vertex 4.67979 0 8.17333
      vertex 9.02 0 9.02
      vertex 4.64255 0 8.17433
    endloop
  endfacet
  facet normal 0 -1 0
    outer loop
      vertex 4.80693 0 8.16228
      vertex 9.02 0 9.02
      vertex 4.67979 0 8.17333
    endloop
  endfacet
  facet normal 0 -1 0
    outer loop
      vertex 4.84067 0 8.15935
      vertex 9.02 0 9.02
      vertex 4.80693 0 8.16228
    endloop
  endfacet
  facet normal 0 -1 0
    outer loop
      vertex 4.86743 0 8.15475
      vertex 9.02 0 9.02
      vertex 4.84067 0 8.15935
    endloop
  endfacet
  facet normal 0 -1 0
    outer loop
      vertex 4.96613 0 8.13778
      vertex 9.02 0 9.02
      vertex 4.86743 0 8.15475
    endloop
  endfacet
  facet normal 0 -1 0
    outer loop
      vertex 5.15712 0 8.08524
      vertex 9.02 0 9.02
      vertex 4.96613 0 8.13778
    endloop
  endfacet
  facet normal 0 -1 0
    outer loop
      vertex 5.89429 0 7.88243
      vertex 9.02 0 9.02
      vertex 5.15712 0 8.08524
    endloop
  endfacet
  facet normal 0 -1 0
    outer loop
      vertex 5.93533 0 7.86801
      vertex 9.02 0 9.02
      vertex 5.89429 0 7.88243
    endloop
  endfacet
  facet normal 0 -1 0
    outer loop
      vertex 6.10347 0 7.80893
      vertex 9.02 0 9.02
      vertex 5.93533 0 7.86801
    endloop
  endfacet
  facet normal 0 -1 0
    outer loop
      vertex 6.84477 0 7.29193
      vertex 9.02 0 9.02
      vertex 6.10347 0 7.80893
    endloop
  endfacet
  facet normal 0 -1 0
    outer loop
      vertex 7.03146 0 7.16173
      vertex 9.02 0 9.02
      vertex 6.84477 0 7.29193
    endloop
  endfacet
  facet normal 0 -1 0
    outer loop
      vertex 7.59001 0 6.40451
      vertex 9.02 0 9.02
      vertex 7.03146 0 7.16173
    endloop
  endfacet
  facet normal 0 -1 0
    outer loop
      vertex 7.72168 0 6.22601
      vertex 9.02 0 9.02
      vertex 7.59001 0 6.40451
    endloop
  endfacet
  facet normal 0 -1 0
    outer loop
      vertex 7.79016 0 6.01635
      vertex 9.02 0 9.02
      vertex 7.72168 0 6.22601
    endloop
  endfacet
  facet normal 0 -1 0
    outer loop
      vertex 8.09012 0 5.09788
      vertex 9.02 0 9.02
      vertex 7.79016 0 6.01635
    endloop
  endfacet
  facet normal 0 -1 0
    outer loop
      vertex 8.09012 0 3.90212
      vertex 9.02 0 9.02
      vertex 8.09012 0 5.09788
    endloop
  endfacet
  facet normal 0 -1 0
    outer loop
      vertex 9.02 0 0
      vertex 5.70955 0 1.06674
      vertex 4.96613 0 0.862216
    endloop
  endfacet
  facet normal 0 -1 0
    outer loop
      vertex 9.02 0 0
      vertex 4.80693 0 0.837718
      vertex 4.67979 0 0.826668
    endloop
  endfacet
  facet normal 0 -1 0
    outer loop
      vertex 9.02 0 0
      vertex 4.5 0 0.821826
      vertex 0 0 0
    endloop
  endfacet
  facet normal 0 -1 0
    outer loop
      vertex 4.5 0 0.821826
      vertex 9.02 0 0
      vertex 4.64255 0 0.825665
    endloop
  endfacet
  facet normal 0 -1 0
    outer loop
      vertex 4.64255 0 0.825665
      vertex 9.02 0 0
      vertex 4.67979 0 0.826668
    endloop
  endfacet
  facet normal 0 -1 0
    outer loop
      vertex 4.80693 0 0.837718
      vertex 9.02 0 0
      vertex 4.84067 0 0.84065
    endloop
  endfacet
  facet normal 0 -1 0
    outer loop
      vertex 4.84067 0 0.84065
      vertex 9.02 0 0
      vertex 4.86743 0 0.845249
    endloop
  endfacet
  facet normal 0 -1 0
    outer loop
      vertex 8.09012 0 3.90212
      vertex 9.02 0 0
      vertex 9.02 0 9.02
    endloop
  endfacet
  facet normal 0 -1 0
    outer loop
      vertex 7.79016 0 2.98365
      vertex 9.02 0 0
      vertex 8.09012 0 3.90212
    endloop
  endfacet
  facet normal 0 -1 0
    outer loop
      vertex 7.72168 0 2.77399
      vertex 9.02 0 0
      vertex 7.79016 0 2.98365
    endloop
  endfacet
  facet normal 0 -1 0
    outer loop
      vertex 7.59001 0 2.59549
      vertex 9.02 0 0
      vertex 7.72168 0 2.77399
    endloop
  endfacet
  facet normal 0 -1 0
    outer loop
      vertex 7.03146 0 1.83827
      vertex 9.02 0 0
      vertex 7.59001 0 2.59549
    endloop
  endfacet
  facet normal 0 -1 0
    outer loop
      vertex 6.84477 0 1.70807
      vertex 9.02 0 0
      vertex 7.03146 0 1.83827
    endloop
  endfacet
  facet normal 0 -1 0
    outer loop
      vertex 6.10347 0 1.19107
      vertex 9.02 0 0
      vertex 6.84477 0 1.70807
    endloop
  endfacet
  facet normal 0 -1 0
    outer loop
      vertex 5.93533 0 1.13199
      vertex 9.02 0 0
      vertex 6.10347 0 1.19107
    endloop
  endfacet
  facet normal 0 -1 0
    outer loop
      vertex 5.89429 0 1.11757
      vertex 9.02 0 0
      vertex 5.93533 0 1.13199
    endloop
  endfacet
  facet normal 0 -1 0
    outer loop
      vertex 5.70955 0 1.06674
      vertex 9.02 0 0
      vertex 5.89429 0 1.11757
    endloop
  endfacet
  facet normal 0 -1 0
    outer loop
      vertex 4.86743 0 0.845249
      vertex 9.02 0 0
      vertex 4.96613 0 0.862216
    endloop
  endfacet
  facet normal 0 1 -0
    outer loop
      vertex 9.02 15 0
      vertex 0 15 9.02
      vertex 9.02 15 9.02
    endloop
  endfacet
  facet normal 0 1 0
    outer loop
      vertex 0 15 9.02
      vertex 9.02 15 0
      vertex 0 15 0
    endloop
  endfacet
  facet normal -0.564147 -0.165577 0.808902
    outer loop
      vertex 6.10347 0 1.19107
      vertex 6.84477 0 1.70807
      vertex 5.36354 9.98058 2.71799
    endloop
  endfacet
  facet normal 0.891006 -0.453991 0
    outer loop
      vertex 2.6213 10.3104 4.81287
      vertex 2.90189 10.8611 4.18713
      vertex 2.90189 10.8611 4.81287
    endloop
  endfacet
  facet normal 0.891006 -0.453991 0
    outer loop
      vertex 2.90189 10.8611 4.18713
      vertex 2.6213 10.3104 4.81287
      vertex 2.6213 10.3104 4.18713
    endloop
  endfacet
  facet normal 0.9377 -0.164114 0.306243
    outer loop
      vertex 1.20984 0 2.98365
      vertex 2.6213 10.3104 4.18713
      vertex 0.909882 0 3.90212
    endloop
  endfacet
  facet normal 0.707107 -0.707107 0
    outer loop
      vertex 2.90189 10.8611 4.81287
      vertex 3.3389 11.2981 4.18713
      vertex 3.3389 11.2981 4.81287
    endloop
  endfacet
  facet normal 0.707107 -0.707107 0
    outer loop
      vertex 3.3389 11.2981 4.18713
      vertex 2.90189 10.8611 4.81287
      vertex 2.90189 10.8611 4.18713
    endloop
  endfacet
  facet normal -0.148952 -0.940447 0.305569
    outer loop
      vertex 5.11042 11.5787 4.18713
      vertex 4.5 11.6754 4.18713
      vertex 4.5 11.482 3.59202
    endloop
  endfacet
  facet normal 0.848389 -0.432276 -0.30557
    outer loop
      vertex 3.05832 10.7474 5.40798
      vertex 2.8052 10.2507 5.40798
      vertex 2.6213 10.3104 4.81287
    endloop
  endfacet
  facet normal -0.723906 -0.368849 -0.583018
    outer loop
      vertex 5.94168 10.7474 5.40798
      vertex 6.19479 10.2507 5.40798
      vertex 5.64412 10.5313 5.91421
    endloop
  endfacet
  facet normal 0.0853562 -0.167518 0.982167
    outer loop
      vertex 4.3161 9.95312 2.52462
      vertex 4.19307 0 0.837718
      vertex 4.40332 9.99756 2.52462
    endloop
  endfacet
  facet normal 0.0853546 -0.167518 0.982167
    outer loop
      vertex 4.19307 0 0.837718
      vertex 4.3161 9.95312 2.52462
      vertex 4.15933 0 0.84065
    endloop
  endfacet
  facet normal -0.723906 -0.368848 0.583019
    outer loop
      vertex 5.845 10.137 3.08579
      vertex 6.19479 10.2507 3.59202
      vertex 5.64412 10.5313 3.08579
    endloop
  endfacet
  facet normal 0.127097 -0.802456 -0.583019
    outer loop
      vertex 4.5 11.482 5.40798
      vertex 4.5 11.1142 5.91421
      vertex 4.06298 11.045 5.91421
    endloop
  endfacet
  facet normal -0.368849 -0.723905 -0.58302
    outer loop
      vertex 5.54744 11.1417 5.40798
      vertex 5.33125 10.8441 5.91421
      vertex 4.93702 11.045 5.91421
    endloop
  endfacet
  facet normal 0.326884 -0.166555 -0.930272
    outer loop
      vertex 3.63646 9.98058 6.28201
      vertex 3.06467 0 7.86801
      vertex 2.89653 0 7.80893
    endloop
  endfacet
  facet normal -0.793724 -0.164952 0.585485
    outer loop
      vertex 7.03146 0 1.83827
      vertex 7.59001 0 2.59549
      vertex 5.845 10.137 3.08579
    endloop
  endfacet
  facet normal -0.574496 -0.574495 -0.583018
    outer loop
      vertex 5.94168 10.7474 5.40798
      vertex 5.64412 10.5313 5.91421
      vertex 5.54744 11.1417 5.40798
    endloop
  endfacet
  facet normal -0.848389 -0.432276 -0.30557
    outer loop
      vertex 6.37869 10.3104 4.81287
      vertex 6.19479 10.2507 5.40798
      vertex 5.94168 10.7474 5.40798
    endloop
  endfacet
  facet normal -0.368848 -0.723906 -0.583019
    outer loop
      vertex 5.05067 11.3948 5.40798
      vertex 5.54744 11.1417 5.40798
      vertex 4.93702 11.045 5.91421
    endloop
  endfacet
  facet normal -0.564147 -0.165577 0.808902
    outer loop
      vertex 5.36354 9.98058 2.71799
      vertex 7.03146 0 1.83827
      vertex 5.845 10.137 3.08579
    endloop
  endfacet
  facet normal -0.564148 -0.165577 0.808902
    outer loop
      vertex 7.03146 0 1.83827
      vertex 5.36354 9.98058 2.71799
      vertex 6.84477 0 1.70807
    endloop
  endfacet
  facet normal -0.9377 -0.164114 0.306245
    outer loop
      vertex 7.79016 0 2.98365
      vertex 6.19479 10.2507 3.59202
      vertex 7.72168 0 2.77399
    endloop
  endfacet
  facet normal -0.9377 -0.164114 0.306243
    outer loop
      vertex 6.19479 10.2507 3.59202
      vertex 7.79016 0 2.98365
      vertex 6.37869 10.3104 4.18713
    endloop
  endfacet
  facet normal -0.527966 -0.269012 0.805534
    outer loop
      vertex 5.845 10.137 3.08579
      vertex 5.64412 10.5313 3.08579
      vertex 5.36354 9.98058 2.71799
    endloop
  endfacet
  facet normal 0.326882 -0.166555 -0.930273
    outer loop
      vertex 3.10571 0 7.88243
      vertex 3.63646 9.98058 6.28201
      vertex 3.76543 10.2337 6.28201
    endloop
  endfacet
  facet normal 0.326878 -0.166555 -0.930274
    outer loop
      vertex 3.63646 9.98058 6.28201
      vertex 3.10571 0 7.88243
      vertex 3.06467 0 7.86801
    endloop
  endfacet
  facet normal -0.564148 -0.165577 -0.808902
    outer loop
      vertex 5.36354 9.98058 6.28201
      vertex 7.03146 0 7.16173
      vertex 6.84477 0 7.29193
    endloop
  endfacet
  facet normal -0.564147 -0.165577 -0.808902
    outer loop
      vertex 7.03146 0 7.16173
      vertex 5.36354 9.98058 6.28201
      vertex 5.845 10.137 5.91421
    endloop
  endfacet
  facet normal 0.9377 -0.164114 0.306243
    outer loop
      vertex 1.20984 0 2.98365
      vertex 2.8052 10.2507 3.59202
      vertex 2.6213 10.3104 4.18713
    endloop
  endfacet
  facet normal 0.9377 -0.164114 0.306244
    outer loop
      vertex 2.8052 10.2507 3.59202
      vertex 1.20984 0 2.98365
      vertex 1.27832 0 2.77399
    endloop
  endfacet
  facet normal 0.723906 -0.368848 -0.583019
    outer loop
      vertex 3.35588 10.5313 5.91421
      vertex 3.155 10.137 5.91421
      vertex 2.8052 10.2507 5.40798
    endloop
  endfacet
  facet normal -0.673286 -0.673285 -0.30557
    outer loop
      vertex 6.09811 10.8611 4.81287
      vertex 5.94168 10.7474 5.40798
      vertex 5.54744 11.1417 5.40798
    endloop
  endfacet
  facet normal 0.167031 -0.167033 -0.9717
    outer loop
      vertex 4.15933 0 8.15935
      vertex 4.24688 9.8839 6.47538
      vertex 4.3161 9.95312 6.47538
    endloop
  endfacet
  facet normal 0.167038 -0.167033 -0.971699
    outer loop
      vertex 4.24688 9.8839 6.47538
      vertex 4.15933 0 8.15935
      vertex 4.13257 0 8.15475
    endloop
  endfacet
  facet normal -0.564147 -0.165577 -0.808902
    outer loop
      vertex 6.84477 0 7.29193
      vertex 6.10347 0 7.80893
      vertex 5.36354 9.98058 6.28201
    endloop
  endfacet
  facet normal -0.14187 -0.278434 0.94992
    outer loop
      vertex 5.0337 10.4346 2.71799
      vertex 4.78058 10.5635 2.71799
      vertex 4.59668 9.99756 2.52462
    endloop
  endfacet
  facet normal -0.45399 -0.891007 0
    outer loop
      vertex 5.11042 11.5787 4.18713
      vertex 5.6611 11.2981 4.81287
      vertex 5.11042 11.5787 4.81287
    endloop
  endfacet
  facet normal -0.45399 -0.891007 -0
    outer loop
      vertex 5.6611 11.2981 4.81287
      vertex 5.11042 11.5787 4.18713
      vertex 5.6611 11.2981 4.18713
    endloop
  endfacet
  facet normal -0.9377 -0.164114 -0.306243
    outer loop
      vertex 7.79016 0 6.01635
      vertex 6.19479 10.2507 5.40798
      vertex 6.37869 10.3104 4.81287
    endloop
  endfacet
  facet normal -0.9377 -0.164114 -0.306244
    outer loop
      vertex 6.19479 10.2507 5.40798
      vertex 7.79016 0 6.01635
      vertex 7.72168 0 6.22601
    endloop
  endfacet
  facet normal -0.9377 -0.164114 -0.306244
    outer loop
      vertex 8.09012 0 5.09788
      vertex 7.79016 0 6.01635
      vertex 6.37869 10.3104 4.81287
    endloop
  endfacet
  facet normal -0.848389 -0.432276 0.30557
    outer loop
      vertex 6.37869 10.3104 4.18713
      vertex 6.09811 10.8611 4.18713
      vertex 5.94168 10.7474 3.59202
    endloop
  endfacet
  facet normal 0.148952 -0.940447 -0.305569
    outer loop
      vertex 4.5 11.6754 4.81287
      vertex 4.5 11.482 5.40798
      vertex 3.88958 11.5787 4.81287
    endloop
  endfacet
  facet normal -0.707107 -0.707107 0
    outer loop
      vertex 6.09811 10.8611 4.18713
      vertex 5.6611 11.2981 4.81287
      vertex 5.6611 11.2981 4.18713
    endloop
  endfacet
  facet normal -0.707107 -0.707107 0
    outer loop
      vertex 5.6611 11.2981 4.81287
      vertex 6.09811 10.8611 4.18713
      vertex 6.09811 10.8611 4.81287
    endloop
  endfacet
  facet normal 0.9377 -0.164114 -0.306243
    outer loop
      vertex 2.6213 10.3104 4.81287
      vertex 1.20984 0 6.01635
      vertex 0.909882 0 5.09788
    endloop
  endfacet
  facet normal 0.986502 -0.163749 0
    outer loop
      vertex 0.909882 0 5.09788
      vertex 2.6213 10.3104 4.18713
      vertex 2.6213 10.3104 4.81287
    endloop
  endfacet
  facet normal 0.986502 -0.163749 0
    outer loop
      vertex 2.6213 10.3104 4.18713
      vertex 0.909882 0 5.09788
      vertex 0.909882 0 3.90212
    endloop
  endfacet
  facet normal 0.564147 -0.165577 0.808902
    outer loop
      vertex 2.89653 0 1.19107
      vertex 3.63646 9.98058 2.71799
      vertex 2.15523 0 1.70807
    endloop
  endfacet
  facet normal -0.0926963 -0.585255 0.805534
    outer loop
      vertex 4.78058 10.5635 2.71799
      vertex 4.93702 11.045 3.08579
      vertex 4.5 10.608 2.71799
    endloop
  endfacet
  facet normal 0.432276 -0.84839 -0.305569
    outer loop
      vertex 3.88958 11.5787 4.81287
      vertex 3.45256 11.1417 5.40798
      vertex 3.3389 11.2981 4.81287
    endloop
  endfacet
  facet normal -0.141871 -0.278433 0.94992
    outer loop
      vertex 4.6839 9.95312 2.52462
      vertex 5.0337 10.4346 2.71799
      vertex 4.59668 9.99756 2.52462
    endloop
  endfacet
  facet normal 0.527966 -0.269012 -0.805534
    outer loop
      vertex 3.35588 10.5313 5.91421
      vertex 3.63646 9.98058 6.28201
      vertex 3.155 10.137 5.91421
    endloop
  endfacet
  facet normal 0.574494 -0.574495 -0.58302
    outer loop
      vertex 3.45256 11.1417 5.40798
      vertex 3.66875 10.8441 5.91421
      vertex 3.35588 10.5313 5.91421
    endloop
  endfacet
  facet normal 0.148952 -0.940447 0.305569
    outer loop
      vertex 4.5 11.482 3.59202
      vertex 4.5 11.6754 4.18713
      vertex 3.88958 11.5787 4.18713
    endloop
  endfacet
  facet normal 0.0853559 -0.167518 -0.982167
    outer loop
      vertex 4.40332 9.99756 6.47538
      vertex 4.32021 0 8.17333
      vertex 4.19307 0 8.16228
    endloop
  endfacet
  facet normal -0.793724 -0.164952 -0.585485
    outer loop
      vertex 7.59001 0 6.40451
      vertex 7.03146 0 7.16173
      vertex 5.845 10.137 5.91421
    endloop
  endfacet
  facet normal -0.793724 -0.164952 -0.585485
    outer loop
      vertex 7.72168 0 6.22601
      vertex 5.845 10.137 5.91421
      vertex 6.19479 10.2507 5.40798
    endloop
  endfacet
  facet normal -0.793724 -0.164952 -0.585485
    outer loop
      vertex 5.845 10.137 5.91421
      vertex 7.72168 0 6.22601
      vertex 7.59001 0 6.40451
    endloop
  endfacet
  facet normal -0.527965 -0.269013 -0.805534
    outer loop
      vertex 5.64412 10.5313 5.91421
      vertex 5.36354 9.98058 6.28201
      vertex 5.23457 10.2337 6.28201
    endloop
  endfacet
  facet normal -0.269013 -0.527966 -0.805534
    outer loop
      vertex 5.33125 10.8441 5.91421
      vertex 5.0337 10.4346 6.28201
      vertex 4.78058 10.5635 6.28201
    endloop
  endfacet
  facet normal 0.564147 -0.165577 0.808902
    outer loop
      vertex 1.96854 0 1.83827
      vertex 3.63646 9.98058 2.71799
      vertex 3.155 10.137 3.08579
    endloop
  endfacet
  facet normal 0.564147 -0.165577 0.808902
    outer loop
      vertex 3.63646 9.98058 2.71799
      vertex 1.96854 0 1.83827
      vertex 2.15523 0 1.70807
    endloop
  endfacet
  facet normal 0.673286 -0.673285 0.30557
    outer loop
      vertex 3.05832 10.7474 3.59202
      vertex 3.45256 11.1417 3.59202
      vertex 2.90189 10.8611 4.18713
    endloop
  endfacet
  facet normal -0.793725 -0.164952 0.585484
    outer loop
      vertex 7.72168 0 2.77399
      vertex 5.845 10.137 3.08579
      vertex 7.59001 0 2.59549
    endloop
  endfacet
  facet normal -0.793724 -0.164952 0.585485
    outer loop
      vertex 5.845 10.137 3.08579
      vertex 7.72168 0 2.77399
      vertex 6.19479 10.2507 3.59202
    endloop
  endfacet
  facet normal -0.891006 -0.453991 0
    outer loop
      vertex 6.37869 10.3104 4.18713
      vertex 6.09811 10.8611 4.81287
      vertex 6.09811 10.8611 4.18713
    endloop
  endfacet
  facet normal -0.891006 -0.453991 0
    outer loop
      vertex 6.09811 10.8611 4.81287
      vertex 6.37869 10.3104 4.18713
      vertex 6.37869 10.3104 4.81287
    endloop
  endfacet
  facet normal -0.9377 -0.164114 0.306243
    outer loop
      vertex 7.79016 0 2.98365
      vertex 8.09012 0 3.90212
      vertex 6.37869 10.3104 4.18713
    endloop
  endfacet
  facet normal -0.368849 -0.723905 0.58302
    outer loop
      vertex 5.33125 10.8441 3.08579
      vertex 5.54744 11.1417 3.59202
      vertex 4.93702 11.045 3.08579
    endloop
  endfacet
  facet normal -0.673286 -0.673286 0.305569
    outer loop
      vertex 6.09811 10.8611 4.18713
      vertex 5.6611 11.2981 4.18713
      vertex 5.54744 11.1417 3.59202
    endloop
  endfacet
  facet normal 0.848389 -0.432276 0.30557
    outer loop
      vertex 2.8052 10.2507 3.59202
      vertex 3.05832 10.7474 3.59202
      vertex 2.6213 10.3104 4.18713
    endloop
  endfacet
  facet normal -0.0926963 -0.585255 -0.805534
    outer loop
      vertex 4.93702 11.045 5.91421
      vertex 4.78058 10.5635 6.28201
      vertex 4.5 10.608 6.28201
    endloop
  endfacet
  facet normal -0.148952 -0.940447 -0.305569
    outer loop
      vertex 4.5 11.6754 4.81287
      vertex 5.11042 11.5787 4.81287
      vertex 4.5 11.482 5.40798
    endloop
  endfacet
  facet normal -0.127097 -0.802456 -0.583019
    outer loop
      vertex 5.05067 11.3948 5.40798
      vertex 4.93702 11.045 5.91421
      vertex 4.5 11.482 5.40798
    endloop
  endfacet
  facet normal -0.0853546 -0.167518 0.982167
    outer loop
      vertex 4.6839 9.95312 2.52462
      vertex 4.80693 0 0.837718
      vertex 4.84067 0 0.84065
    endloop
  endfacet
  facet normal -0.0853562 -0.167518 0.982167
    outer loop
      vertex 4.80693 0 0.837718
      vertex 4.6839 9.95312 2.52462
      vertex 4.59668 9.99756 2.52462
    endloop
  endfacet
  facet normal -0.848389 -0.432276 -0.30557
    outer loop
      vertex 6.09811 10.8611 4.81287
      vertex 6.37869 10.3104 4.81287
      vertex 5.94168 10.7474 5.40798
    endloop
  endfacet
  facet normal 0.326882 -0.166555 0.930273
    outer loop
      vertex 3.63646 9.98058 2.71799
      vertex 3.10571 0 1.11757
      vertex 3.76543 10.2337 2.71799
    endloop
  endfacet
  facet normal 0.326883 -0.166555 0.930272
    outer loop
      vertex 3.10571 0 1.11757
      vertex 3.63646 9.98058 2.71799
      vertex 3.06467 0 1.13199
    endloop
  endfacet
  facet normal 0.793724 -0.164952 0.585485
    outer loop
      vertex 1.96854 0 1.83827
      vertex 3.155 10.137 3.08579
      vertex 1.40999 0 2.59549
    endloop
  endfacet
  facet normal 0.793724 -0.164952 0.585485
    outer loop
      vertex 1.27832 0 2.77399
      vertex 3.155 10.137 3.08579
      vertex 2.8052 10.2507 3.59202
    endloop
  endfacet
  facet normal 0.793725 -0.164952 0.585484
    outer loop
      vertex 3.155 10.137 3.08579
      vertex 1.27832 0 2.77399
      vertex 1.40999 0 2.59549
    endloop
  endfacet
  facet normal 0.564147 -0.165577 -0.808902
    outer loop
      vertex 1.96854 0 7.16173
      vertex 3.63646 9.98058 6.28201
      vertex 2.15523 0 7.29193
    endloop
  endfacet
  facet normal 0.564147 -0.165577 -0.808902
    outer loop
      vertex 3.63646 9.98058 6.28201
      vertex 1.96854 0 7.16173
      vertex 3.155 10.137 5.91421
    endloop
  endfacet
  facet normal 0.793724 -0.164952 -0.585485
    outer loop
      vertex 3.155 10.137 5.91421
      vertex 1.96854 0 7.16173
      vertex 1.40999 0 6.40451
    endloop
  endfacet
  facet normal 0.0926955 -0.585255 -0.805533
    outer loop
      vertex 4.5 11.1142 5.91421
      vertex 4.5 10.608 6.28201
      vertex 4.06298 11.045 5.91421
    endloop
  endfacet
  facet normal 0.141871 -0.278433 -0.94992
    outer loop
      vertex 4.40332 9.99756 6.47538
      vertex 4.3161 9.95312 6.47538
      vertex 3.9663 10.4346 6.28201
    endloop
  endfacet
  facet normal 0.9377 -0.164114 -0.306243
    outer loop
      vertex 1.20984 0 6.01635
      vertex 2.8052 10.2507 5.40798
      vertex 1.27832 0 6.22601
    endloop
  endfacet
  facet normal 0.9377 -0.164114 -0.306243
    outer loop
      vertex 2.8052 10.2507 5.40798
      vertex 1.20984 0 6.01635
      vertex 2.6213 10.3104 4.81287
    endloop
  endfacet
  facet normal 0.673286 -0.673285 -0.30557
    outer loop
      vertex 3.45256 11.1417 5.40798
      vertex 3.05832 10.7474 5.40798
      vertex 2.90189 10.8611 4.81287
    endloop
  endfacet
  facet normal 0.0853562 -0.167518 -0.982167
    outer loop
      vertex 4.19307 0 8.16228
      vertex 4.3161 9.95312 6.47538
      vertex 4.40332 9.99756 6.47538
    endloop
  endfacet
  facet normal 0.0853563 -0.167518 -0.982167
    outer loop
      vertex 4.3161 9.95312 6.47538
      vertex 4.19307 0 8.16228
      vertex 4.15933 0 8.15935
    endloop
  endfacet
  facet normal 0.0265446 -0.167595 -0.985499
    outer loop
      vertex 4.35745 0 8.17433
      vertex 4.40332 9.99756 6.47538
      vertex 4.5 10.0129 6.47538
    endloop
  endfacet
  facet normal 0.0265512 -0.167595 -0.985498
    outer loop
      vertex 4.40332 9.99756 6.47538
      vertex 4.35745 0 8.17433
      vertex 4.32021 0 8.17333
    endloop
  endfacet
  facet normal 0.261598 -0.165568 -0.95087
    outer loop
      vertex 3.84288 0 8.08524
      vertex 4.24688 9.8839 6.47538
      vertex 4.03387 0 8.13778
    endloop
  endfacet
  facet normal 0.261598 -0.165568 -0.95087
    outer loop
      vertex 4.24688 9.8839 6.47538
      vertex 3.84288 0 8.08524
      vertex 3.76543 10.2337 6.28201
    endloop
  endfacet
  facet normal 0.220967 -0.220967 -0.94992
    outer loop
      vertex 3.9663 10.4346 6.28201
      vertex 4.24688 9.8839 6.47538
      vertex 3.76543 10.2337 6.28201
    endloop
  endfacet
  facet normal -0.0488858 -0.308647 -0.94992
    outer loop
      vertex 4.78058 10.5635 6.28201
      vertex 4.59668 9.99756 6.47538
      vertex 4.5 10.0129 6.47538
    endloop
  endfacet
  facet normal 0.167034 -0.167033 -0.971699
    outer loop
      vertex 4.24688 9.8839 6.47538
      vertex 4.13257 0 8.15475
      vertex 4.03387 0 8.13778
    endloop
  endfacet
  facet normal -0.261599 -0.165568 -0.95087
    outer loop
      vertex 5.23457 10.2337 6.28201
      vertex 5.89429 0 7.88243
      vertex 5.15712 0 8.08524
    endloop
  endfacet
  facet normal -0.418996 -0.418997 -0.805534
    outer loop
      vertex 5.33125 10.8441 5.91421
      vertex 5.64412 10.5313 5.91421
      vertex 5.0337 10.4346 6.28201
    endloop
  endfacet
  facet normal -0.269012 -0.527966 -0.805533
    outer loop
      vertex 4.93702 11.045 5.91421
      vertex 5.33125 10.8441 5.91421
      vertex 4.78058 10.5635 6.28201
    endloop
  endfacet
  facet normal -0.574494 -0.574495 -0.58302
    outer loop
      vertex 5.54744 11.1417 5.40798
      vertex 5.64412 10.5313 5.91421
      vertex 5.33125 10.8441 5.91421
    endloop
  endfacet
  facet normal -0.167038 -0.167033 -0.971699
    outer loop
      vertex 4.84067 0 8.15935
      vertex 4.75312 9.8839 6.47538
      vertex 4.86743 0 8.15475
    endloop
  endfacet
  facet normal -0.167031 -0.167033 -0.9717
    outer loop
      vertex 4.75312 9.8839 6.47538
      vertex 4.84067 0 8.15935
      vertex 4.6839 9.95312 6.47538
    endloop
  endfacet
  facet normal -0.0853559 -0.167518 -0.982167
    outer loop
      vertex 4.80693 0 8.16228
      vertex 4.67979 0 8.17333
      vertex 4.59668 9.99756 6.47538
    endloop
  endfacet
  facet normal -0.368848 -0.723906 0.583019
    outer loop
      vertex 5.54744 11.1417 3.59202
      vertex 5.05067 11.3948 3.59202
      vertex 4.93702 11.045 3.08579
    endloop
  endfacet
  facet normal -0.673286 -0.673286 -0.305569
    outer loop
      vertex 5.6611 11.2981 4.81287
      vertex 6.09811 10.8611 4.81287
      vertex 5.54744 11.1417 5.40798
    endloop
  endfacet
  facet normal -0.986502 -0.163749 0
    outer loop
      vertex 8.09012 0 3.90212
      vertex 6.37869 10.3104 4.81287
      vertex 6.37869 10.3104 4.18713
    endloop
  endfacet
  facet normal -0.986502 -0.163749 0
    outer loop
      vertex 6.37869 10.3104 4.81287
      vertex 8.09012 0 3.90212
      vertex 8.09012 0 5.09788
    endloop
  endfacet
  facet normal -0.167033 -0.167033 0.971699
    outer loop
      vertex 4.86743 0 0.845249
      vertex 4.96613 0 0.862216
      vertex 4.75312 9.8839 2.52462
    endloop
  endfacet
  facet normal 0.0265446 -0.167595 0.985499
    outer loop
      vertex 4.40332 9.99756 2.52462
      vertex 4.35745 0 0.825665
      vertex 4.5 10.0129 2.52462
    endloop
  endfacet
  facet normal 0.0265449 -0.167595 0.985499
    outer loop
      vertex 4.35745 0 0.825665
      vertex 4.40332 9.99756 2.52462
      vertex 4.32021 0 0.826668
    endloop
  endfacet
  facet normal 0.527965 -0.269013 0.805534
    outer loop
      vertex 3.63646 9.98058 2.71799
      vertex 3.76543 10.2337 2.71799
      vertex 3.35588 10.5313 3.08579
    endloop
  endfacet
  facet normal 0.148953 -0.940447 -0.30557
    outer loop
      vertex 4.5 11.482 5.40798
      vertex 3.94933 11.3948 5.40798
      vertex 3.88958 11.5787 4.81287
    endloop
  endfacet
  facet normal 0.432275 -0.84839 -0.305569
    outer loop
      vertex 3.88958 11.5787 4.81287
      vertex 3.94933 11.3948 5.40798
      vertex 3.45256 11.1417 5.40798
    endloop
  endfacet
  facet normal -0.432275 -0.84839 -0.305569
    outer loop
      vertex 5.11042 11.5787 4.81287
      vertex 5.54744 11.1417 5.40798
      vertex 5.05067 11.3948 5.40798
    endloop
  endfacet
  facet normal -0.148953 -0.940447 -0.30557
    outer loop
      vertex 5.11042 11.5787 4.81287
      vertex 5.05067 11.3948 5.40798
      vertex 4.5 11.482 5.40798
    endloop
  endfacet
  facet normal 0.848389 -0.432276 -0.30557
    outer loop
      vertex 2.90189 10.8611 4.81287
      vertex 3.05832 10.7474 5.40798
      vertex 2.6213 10.3104 4.81287
    endloop
  endfacet
  facet normal 0.326884 -0.166555 0.930272
    outer loop
      vertex 3.06467 0 1.13199
      vertex 3.63646 9.98058 2.71799
      vertex 2.89653 0 1.19107
    endloop
  endfacet
  facet normal 0.141871 -0.278433 0.94992
    outer loop
      vertex 4.3161 9.95312 2.52462
      vertex 4.40332 9.99756 2.52462
      vertex 3.9663 10.4346 2.71799
    endloop
  endfacet
  facet normal 0.432275 -0.84839 0.305569
    outer loop
      vertex 3.94933 11.3948 3.59202
      vertex 3.88958 11.5787 4.18713
      vertex 3.45256 11.1417 3.59202
    endloop
  endfacet
  facet normal 0.14187 -0.278434 0.94992
    outer loop
      vertex 4.40332 9.99756 2.52462
      vertex 4.21942 10.5635 2.71799
      vertex 3.9663 10.4346 2.71799
    endloop
  endfacet
  facet normal 0.793724 -0.164952 -0.585485
    outer loop
      vertex 1.27832 0 6.22601
      vertex 3.155 10.137 5.91421
      vertex 1.40999 0 6.40451
    endloop
  endfacet
  facet normal 0.793724 -0.164952 -0.585485
    outer loop
      vertex 3.155 10.137 5.91421
      vertex 1.27832 0 6.22601
      vertex 2.8052 10.2507 5.40798
    endloop
  endfacet
  facet normal 0.564147 -0.165577 -0.808902
    outer loop
      vertex 3.63646 9.98058 6.28201
      vertex 2.89653 0 7.80893
      vertex 2.15523 0 7.29193
    endloop
  endfacet
  facet normal 0.092696 -0.585255 -0.805534
    outer loop
      vertex 4.5 10.608 6.28201
      vertex 4.21942 10.5635 6.28201
      vertex 4.06298 11.045 5.91421
    endloop
  endfacet
  facet normal 0.14187 -0.278434 -0.94992
    outer loop
      vertex 4.21942 10.5635 6.28201
      vertex 4.40332 9.99756 6.47538
      vertex 3.9663 10.4346 6.28201
    endloop
  endfacet
  facet normal 0.673286 -0.673286 -0.305569
    outer loop
      vertex 3.3389 11.2981 4.81287
      vertex 3.45256 11.1417 5.40798
      vertex 2.90189 10.8611 4.81287
    endloop
  endfacet
  facet normal 0.673286 -0.673286 0.305569
    outer loop
      vertex 3.45256 11.1417 3.59202
      vertex 3.3389 11.2981 4.18713
      vertex 2.90189 10.8611 4.18713
    endloop
  endfacet
  facet normal 0.848389 -0.432276 0.30557
    outer loop
      vertex 3.05832 10.7474 3.59202
      vertex 2.90189 10.8611 4.18713
      vertex 2.6213 10.3104 4.18713
    endloop
  endfacet
  facet normal 0.723906 -0.368849 -0.583018
    outer loop
      vertex 3.05832 10.7474 5.40798
      vertex 3.35588 10.5313 5.91421
      vertex 2.8052 10.2507 5.40798
    endloop
  endfacet
  facet normal 0.574496 -0.574495 -0.583018
    outer loop
      vertex 3.45256 11.1417 5.40798
      vertex 3.35588 10.5313 5.91421
      vertex 3.05832 10.7474 5.40798
    endloop
  endfacet
  facet normal 0.418996 -0.418996 -0.805534
    outer loop
      vertex 3.9663 10.4346 6.28201
      vertex 3.76543 10.2337 6.28201
      vertex 3.35588 10.5313 5.91421
    endloop
  endfacet
  facet normal 0.261599 -0.165568 -0.95087
    outer loop
      vertex 3.76543 10.2337 6.28201
      vertex 3.84288 0 8.08524
      vertex 3.10571 0 7.88243
    endloop
  endfacet
  facet normal -0.326884 -0.166555 -0.930272
    outer loop
      vertex 6.10347 0 7.80893
      vertex 5.93533 0 7.86801
      vertex 5.36354 9.98058 6.28201
    endloop
  endfacet
  facet normal -0.527966 -0.269012 -0.805534
    outer loop
      vertex 5.64412 10.5313 5.91421
      vertex 5.845 10.137 5.91421
      vertex 5.36354 9.98058 6.28201
    endloop
  endfacet
  facet normal -0.723906 -0.368848 -0.583019
    outer loop
      vertex 6.19479 10.2507 5.40798
      vertex 5.845 10.137 5.91421
      vertex 5.64412 10.5313 5.91421
    endloop
  endfacet
  facet normal -0.0265515 -0.167595 -0.985498
    outer loop
      vertex 4.64255 0 8.17433
      vertex 4.59668 9.99756 6.47538
      vertex 4.67979 0 8.17333
    endloop
  endfacet
  facet normal -0.0265449 -0.167595 -0.985499
    outer loop
      vertex 4.59668 9.99756 6.47538
      vertex 4.64255 0 8.17433
      vertex 4.5 10.0129 6.47538
    endloop
  endfacet
  facet normal -0.167034 -0.167033 -0.971699
    outer loop
      vertex 4.96613 0 8.13778
      vertex 4.86743 0 8.15475
      vertex 4.75312 9.8839 6.47538
    endloop
  endfacet
  facet normal -0.574496 -0.574495 0.583018
    outer loop
      vertex 5.64412 10.5313 3.08579
      vertex 5.94168 10.7474 3.59202
      vertex 5.54744 11.1417 3.59202
    endloop
  endfacet
  facet normal -0.673286 -0.673285 0.30557
    outer loop
      vertex 5.94168 10.7474 3.59202
      vertex 6.09811 10.8611 4.18713
      vertex 5.54744 11.1417 3.59202
    endloop
  endfacet
  facet normal 0.148953 -0.940447 0.30557
    outer loop
      vertex 3.94933 11.3948 3.59202
      vertex 4.5 11.482 3.59202
      vertex 3.88958 11.5787 4.18713
    endloop
  endfacet
  facet normal 0.220967 -0.220967 0.94992
    outer loop
      vertex 4.24688 9.8839 2.52462
      vertex 3.9663 10.4346 2.71799
      vertex 3.76543 10.2337 2.71799
    endloop
  endfacet
  facet normal -0.16703 -0.167033 0.9717
    outer loop
      vertex 4.75312 9.8839 2.52462
      vertex 4.84067 0 0.84065
      vertex 4.86743 0 0.845249
    endloop
  endfacet
  facet normal -0.167031 -0.167033 0.9717
    outer loop
      vertex 4.84067 0 0.84065
      vertex 4.75312 9.8839 2.52462
      vertex 4.6839 9.95312 2.52462
    endloop
  endfacet
  facet normal -0.527965 -0.269013 0.805534
    outer loop
      vertex 5.36354 9.98058 2.71799
      vertex 5.64412 10.5313 3.08579
      vertex 5.23457 10.2337 2.71799
    endloop
  endfacet
  facet normal 0.167033 -0.167033 0.971699
    outer loop
      vertex 4.13257 0 0.845249
      vertex 4.24688 9.8839 2.52462
      vertex 4.03387 0 0.862216
    endloop
  endfacet
  facet normal -0.326883 -0.166555 0.930272
    outer loop
      vertex 5.36354 9.98058 2.71799
      vertex 5.89429 0 1.11757
      vertex 5.93533 0 1.13199
    endloop
  endfacet
  facet normal -0.326882 -0.166555 0.930273
    outer loop
      vertex 5.89429 0 1.11757
      vertex 5.36354 9.98058 2.71799
      vertex 5.23457 10.2337 2.71799
    endloop
  endfacet
  facet normal -0.326884 -0.166555 0.930272
    outer loop
      vertex 5.93533 0 1.13199
      vertex 6.10347 0 1.19107
      vertex 5.36354 9.98058 2.71799
    endloop
  endfacet
  facet normal 0.418996 -0.418997 0.805534
    outer loop
      vertex 3.9663 10.4346 2.71799
      vertex 3.66875 10.8441 3.08579
      vertex 3.35588 10.5313 3.08579
    endloop
  endfacet
  facet normal 0.269013 -0.527966 0.805534
    outer loop
      vertex 3.9663 10.4346 2.71799
      vertex 4.21942 10.5635 2.71799
      vertex 3.66875 10.8441 3.08579
    endloop
  endfacet
  facet normal -0.148953 -0.940447 0.30557
    outer loop
      vertex 5.05067 11.3948 3.59202
      vertex 5.11042 11.5787 4.18713
      vertex 4.5 11.482 3.59202
    endloop
  endfacet
  facet normal 0.527966 -0.269012 0.805534
    outer loop
      vertex 3.63646 9.98058 2.71799
      vertex 3.35588 10.5313 3.08579
      vertex 3.155 10.137 3.08579
    endloop
  endfacet
  facet normal 0.723906 -0.368848 0.583019
    outer loop
      vertex 3.155 10.137 3.08579
      vertex 3.35588 10.5313 3.08579
      vertex 2.8052 10.2507 3.59202
    endloop
  endfacet
  facet normal 0.127097 -0.802456 -0.583019
    outer loop
      vertex 4.5 11.482 5.40798
      vertex 4.06298 11.045 5.91421
      vertex 3.94933 11.3948 5.40798
    endloop
  endfacet
  facet normal 0.368848 -0.723906 -0.583019
    outer loop
      vertex 3.94933 11.3948 5.40798
      vertex 4.06298 11.045 5.91421
      vertex 3.45256 11.1417 5.40798
    endloop
  endfacet
  facet normal 0.220965 -0.220968 -0.94992
    outer loop
      vertex 4.3161 9.95312 6.47538
      vertex 4.24688 9.8839 6.47538
      vertex 3.9663 10.4346 6.28201
    endloop
  endfacet
  facet normal 0.527965 -0.269013 -0.805534
    outer loop
      vertex 3.76543 10.2337 6.28201
      vertex 3.63646 9.98058 6.28201
      vertex 3.35588 10.5313 5.91421
    endloop
  endfacet
  facet normal 0.0488853 -0.308647 -0.94992
    outer loop
      vertex 4.5 10.608 6.28201
      vertex 4.5 10.0129 6.47538
      vertex 4.21942 10.5635 6.28201
    endloop
  endfacet
  facet normal -0.14187 -0.278434 -0.94992
    outer loop
      vertex 4.78058 10.5635 6.28201
      vertex 5.0337 10.4346 6.28201
      vertex 4.59668 9.99756 6.47538
    endloop
  endfacet
  facet normal 0.574496 -0.574495 0.583018
    outer loop
      vertex 3.35588 10.5313 3.08579
      vertex 3.45256 11.1417 3.59202
      vertex 3.05832 10.7474 3.59202
    endloop
  endfacet
  facet normal 0.723906 -0.368849 0.583018
    outer loop
      vertex 3.35588 10.5313 3.08579
      vertex 3.05832 10.7474 3.59202
      vertex 2.8052 10.2507 3.59202
    endloop
  endfacet
  facet normal -0.418996 -0.418996 -0.805534
    outer loop
      vertex 5.64412 10.5313 5.91421
      vertex 5.23457 10.2337 6.28201
      vertex 5.0337 10.4346 6.28201
    endloop
  endfacet
  facet normal -0.220965 -0.220968 -0.94992
    outer loop
      vertex 5.0337 10.4346 6.28201
      vertex 4.75312 9.8839 6.47538
      vertex 4.6839 9.95312 6.47538
    endloop
  endfacet
  facet normal -0.326878 -0.166555 -0.930274
    outer loop
      vertex 5.89429 0 7.88243
      vertex 5.36354 9.98058 6.28201
      vertex 5.93533 0 7.86801
    endloop
  endfacet
  facet normal -0.326882 -0.166555 -0.930273
    outer loop
      vertex 5.36354 9.98058 6.28201
      vertex 5.89429 0 7.88243
      vertex 5.23457 10.2337 6.28201
    endloop
  endfacet
  facet normal -0.0488855 -0.308647 -0.94992
    outer loop
      vertex 4.5 10.608 6.28201
      vertex 4.78058 10.5635 6.28201
      vertex 4.5 10.0129 6.47538
    endloop
  endfacet
  facet normal 0.0488853 -0.308647 -0.94992
    outer loop
      vertex 4.5 10.0129 6.47538
      vertex 4.40332 9.99756 6.47538
      vertex 4.21942 10.5635 6.28201
    endloop
  endfacet
  facet normal -0.269012 -0.527966 0.805533
    outer loop
      vertex 5.33125 10.8441 3.08579
      vertex 4.93702 11.045 3.08579
      vertex 4.78058 10.5635 2.71799
    endloop
  endfacet
  facet normal -0.574494 -0.574495 0.58302
    outer loop
      vertex 5.64412 10.5313 3.08579
      vertex 5.54744 11.1417 3.59202
      vertex 5.33125 10.8441 3.08579
    endloop
  endfacet
  facet normal -0.848389 -0.432276 0.30557
    outer loop
      vertex 6.19479 10.2507 3.59202
      vertex 6.37869 10.3104 4.18713
      vertex 5.94168 10.7474 3.59202
    endloop
  endfacet
  facet normal -0.723906 -0.368849 0.583018
    outer loop
      vertex 6.19479 10.2507 3.59202
      vertex 5.94168 10.7474 3.59202
      vertex 5.64412 10.5313 3.08579
    endloop
  endfacet
  facet normal 0.156434 -0.987688 0
    outer loop
      vertex 3.88958 11.5787 4.18713
      vertex 4.5 11.6754 4.81287
      vertex 3.88958 11.5787 4.81287
    endloop
  endfacet
  facet normal 0.156434 -0.987688 0
    outer loop
      vertex 4.5 11.6754 4.81287
      vertex 3.88958 11.5787 4.18713
      vertex 4.5 11.6754 4.18713
    endloop
  endfacet
  facet normal -0.156434 -0.987688 0
    outer loop
      vertex 4.5 11.6754 4.18713
      vertex 5.11042 11.5787 4.81287
      vertex 4.5 11.6754 4.81287
    endloop
  endfacet
  facet normal -0.156434 -0.987688 -0
    outer loop
      vertex 5.11042 11.5787 4.81287
      vertex 4.5 11.6754 4.18713
      vertex 5.11042 11.5787 4.18713
    endloop
  endfacet
  facet normal 0.0488853 -0.308647 0.94992
    outer loop
      vertex 4.40332 9.99756 2.52462
      vertex 4.5 10.0129 2.52462
      vertex 4.21942 10.5635 2.71799
    endloop
  endfacet
  facet normal 0.0853554 -0.167518 0.982167
    outer loop
      vertex 4.32021 0 0.826668
      vertex 4.40332 9.99756 2.52462
      vertex 4.19307 0 0.837718
    endloop
  endfacet
  facet normal -0.0853554 -0.167518 0.982167
    outer loop
      vertex 4.67979 0 0.826668
      vertex 4.80693 0 0.837718
      vertex 4.59668 9.99756 2.52462
    endloop
  endfacet
  facet normal -0.220967 -0.220967 0.94992
    outer loop
      vertex 5.23457 10.2337 2.71799
      vertex 5.0337 10.4346 2.71799
      vertex 4.75312 9.8839 2.52462
    endloop
  endfacet
  facet normal -0.269013 -0.527966 0.805534
    outer loop
      vertex 5.0337 10.4346 2.71799
      vertex 5.33125 10.8441 3.08579
      vertex 4.78058 10.5635 2.71799
    endloop
  endfacet
  facet normal -0.418996 -0.418997 0.805534
    outer loop
      vertex 5.64412 10.5313 3.08579
      vertex 5.33125 10.8441 3.08579
      vertex 5.0337 10.4346 2.71799
    endloop
  endfacet
  facet normal 0.261598 -0.165568 0.95087
    outer loop
      vertex 4.03387 0 0.862216
      vertex 4.24688 9.8839 2.52462
      vertex 3.29045 0 1.06674
    endloop
  endfacet
  facet normal 0.261598 -0.165568 0.95087
    outer loop
      vertex 3.10571 0 1.11757
      vertex 4.24688 9.8839 2.52462
      vertex 3.76543 10.2337 2.71799
    endloop
  endfacet
  facet normal 0.261598 -0.165568 0.95087
    outer loop
      vertex 4.24688 9.8839 2.52462
      vertex 3.10571 0 1.11757
      vertex 3.29045 0 1.06674
    endloop
  endfacet
  facet normal -0.220965 -0.220968 0.94992
    outer loop
      vertex 4.75312 9.8839 2.52462
      vertex 5.0337 10.4346 2.71799
      vertex 4.6839 9.95312 2.52462
    endloop
  endfacet
  facet normal -0.418996 -0.418996 0.805534
    outer loop
      vertex 5.23457 10.2337 2.71799
      vertex 5.64412 10.5313 3.08579
      vertex 5.0337 10.4346 2.71799
    endloop
  endfacet
  facet normal -0.432276 -0.84839 -0.305569
    outer loop
      vertex 5.6611 11.2981 4.81287
      vertex 5.54744 11.1417 5.40798
      vertex 5.11042 11.5787 4.81287
    endloop
  endfacet
  facet normal -0.432276 -0.84839 0.305569
    outer loop
      vertex 5.54744 11.1417 3.59202
      vertex 5.6611 11.2981 4.18713
      vertex 5.11042 11.5787 4.18713
    endloop
  endfacet
  facet normal -0.432275 -0.84839 0.305569
    outer loop
      vertex 5.54744 11.1417 3.59202
      vertex 5.11042 11.5787 4.18713
      vertex 5.05067 11.3948 3.59202
    endloop
  endfacet
  facet normal 0.418996 -0.418996 0.805534
    outer loop
      vertex 3.76543 10.2337 2.71799
      vertex 3.9663 10.4346 2.71799
      vertex 3.35588 10.5313 3.08579
    endloop
  endfacet
  facet normal 0.0926955 -0.585255 0.805533
    outer loop
      vertex 4.5 10.608 2.71799
      vertex 4.5 11.1142 3.08579
      vertex 4.06298 11.045 3.08579
    endloop
  endfacet
  facet normal 0.269012 -0.527966 -0.805533
    outer loop
      vertex 4.06298 11.045 5.91421
      vertex 4.21942 10.5635 6.28201
      vertex 3.66875 10.8441 5.91421
    endloop
  endfacet
  facet normal 0.368849 -0.723905 -0.58302
    outer loop
      vertex 4.06298 11.045 5.91421
      vertex 3.66875 10.8441 5.91421
      vertex 3.45256 11.1417 5.40798
    endloop
  endfacet
  facet normal 0.269013 -0.527966 -0.805534
    outer loop
      vertex 4.21942 10.5635 6.28201
      vertex 3.9663 10.4346 6.28201
      vertex 3.66875 10.8441 5.91421
    endloop
  endfacet
  facet normal 0.418996 -0.418997 -0.805534
    outer loop
      vertex 3.66875 10.8441 5.91421
      vertex 3.9663 10.4346 6.28201
      vertex 3.35588 10.5313 5.91421
    endloop
  endfacet
  facet normal -0.0926957 -0.585255 -0.805533
    outer loop
      vertex 4.5 11.1142 5.91421
      vertex 4.93702 11.045 5.91421
      vertex 4.5 10.608 6.28201
    endloop
  endfacet
  facet normal -0.127097 -0.802456 -0.583019
    outer loop
      vertex 4.5 11.482 5.40798
      vertex 4.93702 11.045 5.91421
      vertex 4.5 11.1142 5.91421
    endloop
  endfacet
  facet normal -0.220967 -0.220967 -0.94992
    outer loop
      vertex 5.0337 10.4346 6.28201
      vertex 5.23457 10.2337 6.28201
      vertex 4.75312 9.8839 6.47538
    endloop
  endfacet
  facet normal -0.261598 -0.165568 -0.95087
    outer loop
      vertex 4.75312 9.8839 6.47538
      vertex 5.15712 0 8.08524
      vertex 4.96613 0 8.13778
    endloop
  endfacet
  facet normal -0.261598 -0.165568 -0.95087
    outer loop
      vertex 5.15712 0 8.08524
      vertex 4.75312 9.8839 6.47538
      vertex 5.23457 10.2337 6.28201
    endloop
  endfacet
  facet normal -0.141871 -0.278433 -0.94992
    outer loop
      vertex 5.0337 10.4346 6.28201
      vertex 4.6839 9.95312 6.47538
      vertex 4.59668 9.99756 6.47538
    endloop
  endfacet
  facet normal -0.0853563 -0.167518 -0.982167
    outer loop
      vertex 4.80693 0 8.16228
      vertex 4.6839 9.95312 6.47538
      vertex 4.84067 0 8.15935
    endloop
  endfacet
  facet normal -0.0853562 -0.167518 -0.982167
    outer loop
      vertex 4.6839 9.95312 6.47538
      vertex 4.80693 0 8.16228
      vertex 4.59668 9.99756 6.47538
    endloop
  endfacet
  facet normal 0.0265441 -0.167595 -0.985499
    outer loop
      vertex 4.5 10.0129 6.47538
      vertex 4.5 0 8.17817
      vertex 4.35745 0 8.17433
    endloop
  endfacet
  facet normal -0.0265442 -0.167595 -0.985499
    outer loop
      vertex 4.5 10.0129 6.47538
      vertex 4.64255 0 8.17433
      vertex 4.5 0 8.17817
    endloop
  endfacet
  facet normal 0.574494 -0.574495 0.58302
    outer loop
      vertex 3.66875 10.8441 3.08579
      vertex 3.45256 11.1417 3.59202
      vertex 3.35588 10.5313 3.08579
    endloop
  endfacet
  facet normal -0.127097 -0.802456 0.583019
    outer loop
      vertex 4.93702 11.045 3.08579
      vertex 5.05067 11.3948 3.59202
      vertex 4.5 11.482 3.59202
    endloop
  endfacet
  facet normal 0.127097 -0.802456 0.583019
    outer loop
      vertex 4.5 11.1142 3.08579
      vertex 4.5 11.482 3.59202
      vertex 4.06298 11.045 3.08579
    endloop
  endfacet
  facet normal 0.092696 -0.585255 0.805534
    outer loop
      vertex 4.21942 10.5635 2.71799
      vertex 4.5 10.608 2.71799
      vertex 4.06298 11.045 3.08579
    endloop
  endfacet
  facet normal 0.432276 -0.84839 0.305569
    outer loop
      vertex 3.45256 11.1417 3.59202
      vertex 3.88958 11.5787 4.18713
      vertex 3.3389 11.2981 4.18713
    endloop
  endfacet
  facet normal 0.45399 -0.891007 0
    outer loop
      vertex 3.3389 11.2981 4.18713
      vertex 3.88958 11.5787 4.81287
      vertex 3.3389 11.2981 4.81287
    endloop
  endfacet
  facet normal 0.45399 -0.891007 0
    outer loop
      vertex 3.88958 11.5787 4.81287
      vertex 3.3389 11.2981 4.18713
      vertex 3.88958 11.5787 4.18713
    endloop
  endfacet
  facet normal 0.0488853 -0.308647 0.94992
    outer loop
      vertex 4.5 10.0129 2.52462
      vertex 4.5 10.608 2.71799
      vertex 4.21942 10.5635 2.71799
    endloop
  endfacet
  facet normal -0.0488855 -0.308647 0.94992
    outer loop
      vertex 4.78058 10.5635 2.71799
      vertex 4.5 10.608 2.71799
      vertex 4.5 10.0129 2.52462
    endloop
  endfacet
  facet normal 0.220965 -0.220968 0.94992
    outer loop
      vertex 4.24688 9.8839 2.52462
      vertex 4.3161 9.95312 2.52462
      vertex 3.9663 10.4346 2.71799
    endloop
  endfacet
  facet normal 0.167031 -0.167033 0.9717
    outer loop
      vertex 4.24688 9.8839 2.52462
      vertex 4.15933 0 0.84065
      vertex 4.3161 9.95312 2.52462
    endloop
  endfacet
  facet normal 0.16703 -0.167033 0.9717
    outer loop
      vertex 4.15933 0 0.84065
      vertex 4.24688 9.8839 2.52462
      vertex 4.13257 0 0.845249
    endloop
  endfacet
  facet normal -0.261598 -0.165568 0.95087
    outer loop
      vertex 4.75312 9.8839 2.52462
      vertex 5.89429 0 1.11757
      vertex 5.23457 10.2337 2.71799
    endloop
  endfacet
  facet normal -0.261598 -0.165568 0.95087
    outer loop
      vertex 5.89429 0 1.11757
      vertex 4.75312 9.8839 2.52462
      vertex 5.70955 0 1.06674
    endloop
  endfacet
  facet normal -0.261599 -0.165568 0.95087
    outer loop
      vertex 4.96613 0 0.862216
      vertex 5.70955 0 1.06674
      vertex 4.75312 9.8839 2.52462
    endloop
  endfacet
  facet normal 0.368849 -0.723905 0.58302
    outer loop
      vertex 3.66875 10.8441 3.08579
      vertex 4.06298 11.045 3.08579
      vertex 3.45256 11.1417 3.59202
    endloop
  endfacet
  facet normal 0.269012 -0.527966 0.805533
    outer loop
      vertex 4.21942 10.5635 2.71799
      vertex 4.06298 11.045 3.08579
      vertex 3.66875 10.8441 3.08579
    endloop
  endfacet
  facet normal 0.127097 -0.802456 0.583019
    outer loop
      vertex 4.06298 11.045 3.08579
      vertex 4.5 11.482 3.59202
      vertex 3.94933 11.3948 3.59202
    endloop
  endfacet
  facet normal 0.368848 -0.723906 0.583019
    outer loop
      vertex 4.06298 11.045 3.08579
      vertex 3.94933 11.3948 3.59202
      vertex 3.45256 11.1417 3.59202
    endloop
  endfacet
  facet normal -0.127097 -0.802456 0.583019
    outer loop
      vertex 4.93702 11.045 3.08579
      vertex 4.5 11.482 3.59202
      vertex 4.5 11.1142 3.08579
    endloop
  endfacet
  facet normal -0.0926957 -0.585255 0.805533
    outer loop
      vertex 4.93702 11.045 3.08579
      vertex 4.5 11.1142 3.08579
      vertex 4.5 10.608 2.71799
    endloop
  endfacet
  facet normal -0.0265452 -0.167595 0.985499
    outer loop
      vertex 4.59668 9.99756 2.52462
      vertex 4.64255 0 0.825665
      vertex 4.67979 0 0.826668
    endloop
  endfacet
  facet normal -0.0265449 -0.167595 0.985499
    outer loop
      vertex 4.64255 0 0.825665
      vertex 4.59668 9.99756 2.52462
      vertex 4.5 10.0129 2.52462
    endloop
  endfacet
  facet normal -0.0488858 -0.308647 0.94992
    outer loop
      vertex 4.59668 9.99756 2.52462
      vertex 4.78058 10.5635 2.71799
      vertex 4.5 10.0129 2.52462
    endloop
  endfacet
  facet normal 0.0265441 -0.167595 0.985499
    outer loop
      vertex 4.5 0 0.821826
      vertex 4.5 10.0129 2.52462
      vertex 4.35745 0 0.825665
    endloop
  endfacet
  facet normal -0.0265442 -0.167595 0.985499
    outer loop
      vertex 4.64255 0 0.825665
      vertex 4.5 10.0129 2.52462
      vertex 4.5 0 0.821826
    endloop
  endfacet
endsolid OpenSCAD_Model
